<?xml version="1.0" encoding="utf-8"?>
<!-- Generator: Adobe Illustrator 21.0.2, SVG Export Plug-In . SVG Version: 6.00 Build 0)  -->
<svg version="1.1" xmlns="http://www.w3.org/2000/svg" xmlns:xlink="http://www.w3.org/1999/xlink" x="0px" y="0px"
	 viewBox="0 0 512 512" style="enable-background:new 0 0 512 512;" xml:space="preserve">
<style type="text/css">
	.st0{fill:#FFDD15;}
	.st1{fill:#EFB30A;}
	.st2{fill:#FFFFFF;}
	.st3{fill:#ACACB2;}
	.st4{fill:#E1E1E3;}
	.st5{fill:#FDF7D0;}
	.st6{fill:#F9ED9D;}
	.st7{fill:#C3DA49;}
	.st8{fill:#40814B;}
	.st9{fill:#D9D8DB;}
</style>
<g id="Capa_1">
	<rect class="st0" width="512" height="512"/>
	<path class="st1" d="M512,256v256H203l-36-36v-38.3h11.4V152.9l41.7-38.2h-0.3l8-90.5h56.4L511.9,252C512,253.3,512,254.6,512,256z
		"/>
	<polygon class="st2" points="333.7,437.7 178.3,437.7 178.3,152.9 256,81.7 333.7,152.9 	"/>
	<polygon class="st3" points="255.5,82.2 255.5,437.7 333.7,437.7 333.7,152.9 256,81.7 	"/>
	<rect x="167" y="437.7" class="st4" width="178" height="38.3"/>
	<polygon class="st5" points="284.2,24.2 227.8,24.2 219.8,114.7 292.2,114.7 	"/>
	<polygon class="st6" points="255.5,114.7 292.2,114.7 284.2,24.2 255.5,24.2 	"/>
	<rect x="178.4" y="194.4" class="st7" width="155.3" height="200.6"/>
	<rect x="255.5" y="194.4" class="st8" width="78.1" height="200.6"/>
	<rect x="255.5" y="437.7" class="st9" width="89.5" height="38.3"/>
</g>
<g id="Слой_2">
</g>
</svg>
