<?xml version="1.0" encoding="utf-8"?>
<!-- Generator: Adobe Illustrator 21.0.2, SVG Export Plug-In . SVG Version: 6.00 Build 0)  -->
<svg version="1.1" id="Слой_1" xmlns="http://www.w3.org/2000/svg" xmlns:xlink="http://www.w3.org/1999/xlink" x="0px" y="0px"
	 viewBox="0 0 512 512" style="enable-background:new 0 0 512 512;" xml:space="preserve">
<style type="text/css">
	.st0{fill:#313FBC;}
	.st1{fill:#1B3B6B;}
	.st2{fill:#FFE000;}
	.st3{fill:#FFC200;}
	.st4{fill:#8AEDBE;}
	.st5{fill:#2FDD8A;}
	.st6{fill:#59C612;}
	.st7{fill:#93D632;}
	.st8{fill:#0053BF;}
	.st9{fill:#FFBEAA;}
	.st10{fill:#FAA68E;}
	.st11{fill:#FA5D0F;}
	.st12{fill:#D13400;}
</style>
<g id="Слой_2">
	<rect class="st0" width="512" height="512"/>
</g>
<polygon class="st1" points="512,198.5 512,512 198.5,512 113.5,427 148.7,384.8 148.7,384.8 194.7,329.6 216.3,303.6 225.4,292.7 
	238.3,277.3 239.8,275.5 248.4,265.2 255.8,256.2 286.1,219.8 299.3,204 306.6,195.3 313.1,187.5 326,172 326,172 336.9,158.9 
	349.8,143.5 363.3,127.3 363.3,127.3 398.5,85 "/>
<path class="st2" d="M113.5,85h285v342h-285V85z"/>
<path class="st3" d="M255.8,85h142.7v342H255.8V85z"/>
<path class="st4" d="M148.7,127.2h214.6v257.5H148.7V127.2z"/>
<path class="st5" d="M255.8,127.2h107.5v257.5H255.8V127.2z"/>
<path class="st6" d="M327.1,320.5c-6.8,0-13.3-2.3-18.6-6.6c-10.3-8.4-23.8-13.1-38.1-13.1H250v-19h20.5c18.7,0,36.5,6.2,50.1,17.4
	c2,1.6,4.6,2.5,7.2,2.3c5-0.3,9.2-4.5,9.5-9.5c0.2-2.9-0.8-5.6-2.8-7.7s-4.6-3.2-7.4-3.2v-19c8,0,15.8,3.4,21.3,9.2
	c5.6,5.9,8.4,13.7,7.9,21.9c-0.9,14.7-12.7,26.4-27.3,27.3C328.4,320.5,327.8,320.5,327.1,320.5z"/>
<path class="st7" d="M327.1,191.1c-6.8,0-13.3-2.3-18.6-6.6c-10.3-8.4-23.8-13.1-38.1-13.1h-48.5v-19h48.5
	c18.7,0,36.5,6.2,50.1,17.4c2,1.6,4.5,2.5,7.2,2.3c5-0.3,9.2-4.5,9.5-9.5c0.2-2.9-0.8-5.6-2.8-7.7c-2-2.1-4.6-3.2-7.4-3.2v-19
	c8,0,15.8,3.4,21.3,9.2c5.6,5.9,8.4,13.7,7.9,21.9c-0.9,14.7-12.7,26.4-27.3,27.3C328.4,191.1,327.8,191.1,327.1,191.1z"/>
<path class="st6" d="M348.4,141.9c-5.5-5.9-13.3-9.2-21.3-9.2v19c2.9,0,5.5,1.1,7.5,3.2c1.9,2.1,2.9,4.8,2.8,7.7
	c-0.3,5-4.5,9.2-9.5,9.5c-2.6,0.2-5.2-0.7-7.2-2.3c-13.6-11.2-31.4-17.4-50.1-17.4h-14.7v19h14.7c14.3,0,27.8,4.6,38.1,13.1
	c5.3,4.3,11.8,6.6,18.6,6.6c0.6,0,1.2,0,1.8-0.1c14.7-0.9,26.4-12.7,27.3-27.3C356.8,155.6,354,147.8,348.4,141.9z"/>
<g>
	<path class="st7" d="M195.1,135.8v19c5.8,0,11.1,2.3,15,6.5s5.9,9.7,5.6,15.5c-0.6,10.2-9.1,18.6-19.3,19.3
		c-5.3,0.3-10.4-1.3-14.4-4.6c-9.8-8.1-21.1-14.4-33.3-18.7v20.4c7.7,3.4,14.9,7.7,21.3,12.9c7.1,5.9,16,9,25.2,9
		c0.8,0,1.7,0,2.5-0.1c19.9-1.2,35.8-17.2,37-37c0.7-11.1-3.1-21.6-10.7-29.6C216.5,140.3,206,135.8,195.1,135.8z"/>
	<path class="st7" d="M165.9,127.8v19c1.1,0,1.7,0.6,2.1,0.9c0.4,0.4,0.8,1.1,0.8,2.1c-0.1,1.4-1.3,2.5-2.6,2.6
		c-0.9,0.1-1.6-0.3-2-0.6c-4.5-3.7-9.8-6.6-15.4-8.6v20.9c1.2,0.7,2.3,1.5,3.4,2.4c3.9,3.2,8.8,5,13.8,5c0.5,0,0.9,0,1.4,0
		c10.9-0.7,19.7-9.4,20.4-20.4c0.4-6-1.8-11.9-5.9-16.3C177.7,130.3,171.9,127.8,165.9,127.8z"/>
	<path class="st7" d="M165.9,270.9v19c1.1,0,1.7,0.6,2.1,0.9c0.4,0.4,0.8,1.1,0.8,2.1c-0.1,1.4-1.3,2.5-2.6,2.6
		c-0.9,0.1-1.6-0.3-2-0.6c-4.5-3.7-9.8-6.6-15.4-8.6v20.9c1.2,0.7,2.3,1.5,3.4,2.4c3.9,3.2,8.8,5,13.8,5c0.5,0,0.9,0,1.4,0
		c10.9-0.7,19.7-9.4,20.4-20.4c0.4-6-1.8-11.9-5.9-16.3C177.7,273.4,171.9,270.9,165.9,270.9z"/>
</g>
<path class="st8" d="M363.3,364.7L338.2,337l-55.4-20.2c-5.1-1.9-8.5-6.7-8.5-12.1v-12h-36v12c0,5.4-3.4,10.3-8.5,12.1L174.5,337
	l-25.7,27.8v20h214.6v-20.1H363.3z"/>
<path class="st1" d="M363.3,364.7L338.2,337l-55.4-20.2c-5.1-1.9-8.5-6.7-8.5-12.1v-12h-18.5v92.1h107.5L363.3,364.7L363.3,364.7z"
	/>
<path class="st9" d="M225.2,242.1c0,8.5-6.9,15.5-15.5,15.5s-15.5-6.9-15.5-15.5s6.9-15.5,15.5-15.5S225.2,233.6,225.2,242.1z"/>
<path class="st10" d="M318.4,242.1c0,8.5-6.9,15.5-15.5,15.5s-15.5-6.9-15.5-15.5s6.9-15.5,15.5-15.5S318.4,233.6,318.4,242.1z"/>
<path class="st9" d="M276.9,300l-10.3,5.3c-6.4,3.3-14.1,3.3-20.5,0l-10.3-5.3c-15.3-7.9-24.9-23.6-24.9-40.8V219
	c0-25.1,20.4-45.5,45.5-45.5s45.5,20.4,45.5,45.5v40.2C301.8,276.4,292.2,292.2,276.9,300z"/>
<path class="st10" d="M256.3,173.5c-0.2,0-0.3,0-0.5,0v134.3c3.7,0.1,7.4-0.7,10.8-2.5l10.3-5.3c15.3-7.9,24.9-23.6,24.9-40.8V219
	C301.8,193.8,281.4,173.5,256.3,173.5z"/>
<path class="st11" d="M218.3,254.1v-27.4h-9V284c0,17.2,14,31.2,31.2,31.2H272c17.2,0,31.2-14,31.2-31.2v-57.3h-9v27.4
	c0,6.1-5,11.1-11.1,11.1h-53.9C223.3,265.2,218.3,260.2,218.3,254.1z"/>
<path class="st12" d="M294.3,226.7v27.4c0,6.1-5,11.1-11.1,11.1h-27.4v50h16.3c17.2,0,31.2-14,31.2-31.2v-57.3L294.3,226.7
	L294.3,226.7z"/>
<path class="st12" d="M305,195c0.2-1,0.2-2,0.2-3.1c0-10.3-8-18.6-17.8-18.6c-4.1,0-7.8,1.4-10.8,3.9c-3.6-4.9-9.3-8.1-15.8-8.1
	c-2.3,0-4.5,0.4-6.6,1.2c-3.1-2.2-6.9-3.4-11-3.4c-8.5,0-15.8,5.6-18.6,13.5c-1.5-0.4-3.1-0.6-4.7-0.6c-11,0-19.9,9.3-19.9,20.8
	c0,1.6,0.2,3.1,0.5,4.6c-4.5,3.8-7.5,9.7-7.5,16.2c0,11.5,8.9,20.8,19.9,20.8s19.9-9.3,19.9-20.8c0-0.1,0-0.2,0-0.3
	c1.2,0.2,2.3,0.3,3.5,0.3c7.9,0,14.7-4.8,17.9-11.7c2,0.7,4.2,1.1,6.5,1.1c5.4,0,10.2-2.2,13.8-5.8c2.8,3,6.5,5,10.7,5.6
	c-0.2,1-0.2,2-0.2,3.1c0,10.3,8,18.6,17.8,18.6s17.8-8.3,17.8-18.6C320.7,204,313.9,196.1,305,195z"/>
<path class="st12" d="M305,195c0.2-1,0.2-2,0.2-3.1c0-10.3-8-18.6-17.8-18.6c-4.1,0-7.8,1.4-10.8,3.9c-3.6-4.9-9.3-8.1-15.8-8.1
	c-1.7,0-3.4,0.2-5,0.7V210c1.6,0.4,3.3,0.7,5,0.7c5.4,0,10.2-2.2,13.8-5.8c2.8,3,6.5,5,10.7,5.6c-0.2,1-0.2,2-0.2,3.1
	c0,10.3,8,18.6,17.8,18.6s17.8-8.3,17.8-18.6C320.7,204,313.9,196.1,305,195z"/>
<path class="st9" d="M238.3,275.5h35.5v9h-35.5L238.3,275.5L238.3,275.5z"/>
<path class="st10" d="M255.8,275.5h17.9v9h-17.9L255.8,275.5L255.8,275.5z"/>
</svg>
