<?xml version="1.0" encoding="utf-8"?>
<!-- Generator: Adobe Illustrator 21.0.2, SVG Export Plug-In . SVG Version: 6.00 Build 0)  -->
<svg version="1.1" id="Capa_1" xmlns="http://www.w3.org/2000/svg" xmlns:xlink="http://www.w3.org/1999/xlink" x="0px" y="0px"
	 viewBox="0 0 512 512" style="enable-background:new 0 0 512 512;" xml:space="preserve">
<style type="text/css">
	.st0{fill:#FFAA20;}
	.st1{fill:#313FBC;}
	.st2{fill:#1B3B6B;}
	.st3{fill:#FFE000;}
	.st4{fill:#FFC200;}
	.st5{fill:#00AD95;}
	.st6{fill:#006659;}
	.st7{fill:#FFC473;}
	.st8{fill:#FFDBA9;}
	.st9{fill:#E67500;}
	.st10{fill:#C06200;}
	.st11{fill:#FFA91F;}
	.st12{fill:#FF8900;}
	.st13{fill:#3C3B41;}
	.st14{fill:#2A2A2C;}
	.st15{fill:#56545B;}
	.st16{fill:#FFE670;}
	.st17{fill:#FFD400;}
	.st18{fill:#C8C6CC;}
	.st19{fill:#AEADB3;}
</style>
<circle class="st0" cx="256" cy="256" r="256"/>
<rect class="st1" width="512" height="512"/>
<polygon class="st2" points="512,179.7 512,512 179.7,512 94.7,427 94.7,85 417.3,85 "/>
<rect x="94.7" y="85" class="st3" width="322.5" height="342"/>
<rect x="256" y="85" class="st4" width="161.3" height="342"/>
<rect x="120.4" y="112.4" class="st5" width="271.2" height="228.6"/>
<rect x="256" y="112.4" class="st6" width="135.6" height="228.6"/>
<rect x="294" y="256.9" class="st7" width="29.6" height="37.3"/>
<rect x="308.8" y="256.9" class="st0" width="14.8" height="37.3"/>
<path class="st8" d="M346.9,207.7c-1.6-23.4-21.5-36.7-38.1-36.7s-36.5,13.3-38.1,36.7c-4.3,0.8-7.3,4.8-6.8,9.2l0.7,6.8
	c0.5,4.6,4.7,8,9.3,7.5l0.8-0.1c9.4,24.6,24.7,30.9,34.1,32.3c9.4-1.4,24.6-7.8,34.1-32.3l0.8,0.1c4.6,0.5,8.8-2.9,9.3-7.5l0.7-6.8
	C354.2,212.5,351.1,208.5,346.9,207.7z"/>
<path class="st7" d="M353.7,216.9l-0.7,6.8c-0.5,4.6-4.7,8-9.3,7.5l-0.8-0.1c-9.4,24.6-24.7,30.9-34.1,32.3V171
	c16.3,0,35.9,12.9,38,35.7c0,0.3,0.1,0.6,0.1,0.9C351.1,208.5,354.2,212.5,353.7,216.9z"/>
<path class="st9" d="M309.6,153.6c-50.2,0-40.9,47.6-40.9,47.6l0,0c0.4,4.7,1.5,14.6,3.6,19.6h5v-15.3c1.2-4.7,2.9-8.4,5-11.3
	c6.4,2.1,15.2,3.9,26.7,3.9c11.5,0,20.3-1.8,26.7-3.9c2,2.9,3.8,6.7,5,11.3v15.3h5c2-5,3.1-14.9,3.6-19.6l0,0
	C349.3,201.2,355.7,153.6,309.6,153.6z"/>
<path class="st10" d="M349.6,195.4c0,3.5-0.3,5.8-0.3,5.8c-0.4,4.7-1.5,14.6-3.6,19.6h-5v-15.3c-1.2-4.7-3-8.4-5-11.3
	c-6.4,2.1-15.3,3.9-26.7,3.9h-0.2v-44.5c0.3,0,0.5,0,0.8,0C345.6,153.6,349.6,182.7,349.6,195.4z"/>
<polygon class="st11" points="308.8,210.6 308.8,236.9 316.5,236.9 316.5,218.3 333.3,218.3 333.3,210.6 "/>
<rect x="283.8" y="210.6" class="st7" width="19.6" height="7.7"/>
<rect x="186.6" y="237.6" class="st0" width="31.3" height="39.5"/>
<rect x="202.3" y="237.6" class="st12" width="15.7" height="39.5"/>
<path class="st7" d="M243.8,183.2c-1.7-25.5-23.5-40-41.6-40s-39.8,14.5-41.6,40c-4.7,0.9-8,5.2-7.5,10l0.8,7.4
	c0.5,5,5.1,8.7,10.1,8.2l0.9-0.1c10.3,26.8,26.9,33.7,37.2,35.3c10.3-1.6,26.9-8.5,37.2-35.3l0.9,0.1c5,0.5,9.6-3.1,10.1-8.2
	l0.8-7.4C251.8,188.5,248.5,184.1,243.8,183.2z"/>
<path class="st13" d="M184.6,145.7v21.2c0,0-15.2,4.9-17.1,15.8v16h-7.1l-1.5-27.4C158.9,171.2,157.1,147,184.6,145.7z"/>
<path class="st0" d="M251.3,193.3l-0.8,7.4c-0.5,5-5.1,8.7-10.1,8.2l-0.9-0.1c-10.3,26.8-26.9,33.7-37.2,35.3V143.2
	c17.8,0,39.2,14.1,41.5,39c0,0.4,0.1,0.7,0.1,1C248.5,184.1,251.8,188.5,251.3,193.3z"/>
<path class="st14" d="M219.1,145.7v21.2c0,0,15.2,4.9,17.1,15.8v16h7.1l1.5-27.4C244.8,171.2,246.7,147,219.1,145.7z"/>
<path class="st15" d="M231.9,177.3h-59.2c-6.3,0-11.4-5.1-11.4-11.4l0,0c0-18.2,14.9-33.1,33.1-33.1h15.9
	c18.2,0,33.1,14.9,33.1,33.1l0,0C243.3,172.2,238.2,177.3,231.9,177.3z"/>
<path class="st13" d="M243.3,165.9c0,3.1-1.3,6-3.4,8.1c-2.1,2.1-4.9,3.4-8.1,3.4h-29.6v-44.6h7.9
	C228.4,132.8,243.3,147.6,243.3,165.9z"/>
<polygon class="st12" points="225,194.1 202.2,194.1 202.2,220.8 210.3,220.8 210.3,201.6 225,201.6 "/>
<rect x="175.9" y="194.1" class="st0" width="19.8" height="7.5"/>
<path class="st16" d="M263.1,341H141.4v-56.9c0-14.7,12-26.7,26.7-26.7h68.3c14.7,0,26.7,12,26.7,26.7L263.1,341L263.1,341z"/>
<path class="st17" d="M263.1,284.1V341h-60.8v-83.6h34.1C251.1,257.4,263.1,269.4,263.1,284.1z"/>
<path class="st18" d="M370.6,341H247v-35c0-17.9,14.5-32.4,32.3-32.4h58.9c17.9,0,32.4,14.5,32.4,32.4L370.6,341L370.6,341z"/>
<path class="st19" d="M370.6,306v35h-61.8v-67.3h29.4C356.1,273.7,370.6,288.2,370.6,306z"/>
</svg>
