<?xml version="1.0" encoding="utf-8"?>
<!-- Generator: Adobe Illustrator 21.0.2, SVG Export Plug-In . SVG Version: 6.00 Build 0)  -->
<svg version="1.1" id="Capa_1" xmlns="http://www.w3.org/2000/svg" xmlns:xlink="http://www.w3.org/1999/xlink" x="0px" y="0px"
	 viewBox="0 0 512 512" style="enable-background:new 0 0 512 512;" xml:space="preserve">
<style type="text/css">
	.st0{fill:#FFDD15;}
	.st1{fill:#EFB30A;}
	.st2{fill:#FFFFFF;}
	.st3{fill:#C6C5CA;}
	.st4{fill:#E25F3F;}
	.st5{fill:#F6D433;}
	.st6{fill:#779DD2;}
	.st7{fill:#65BA70;}
	.st8{fill:#C7492A;}
	.st9{fill:#E5BF2B;}
	.st10{fill:#5A7EBF;}
	.st11{fill:#53A760;}
</style>
<g id="Слой_2">
	<rect class="st0" width="511.7" height="511.7"/>
</g>
<path class="st1" d="M511.7,265.5v246.2h-310L77,387c-2.1-2.1-4.2-4.3-6.2-6.5c-0.1-0.1-0.3-0.3-0.4-0.4c-1.3-1.4-2.5-2.8-3.8-4.2
	c-0.3-0.4-0.7-0.8-1-1.2c-1-1.2-2.1-2.4-3.1-3.7c-1.4-1.7-2.7-3.3-4-5c-1.5-2-3-4-4.5-6.1c-0.5-0.7-1-1.4-1.4-2.1
	c-0.5-0.7-0.9-1.4-1.4-2.1c0,0,0,0,0,0c-0.8-1.2-1.6-2.5-2.4-3.8c-0.1-0.2-0.2-0.4-0.3-0.6c-0.4-0.7-0.8-1.3-1.2-2
	c-0.3-0.4-0.5-0.9-0.8-1.3c-0.4-0.6-0.7-1.2-1-1.8c-0.3-0.5-0.5-0.9-0.8-1.4c-0.4-0.7-0.8-1.3-1.1-2c-0.2-0.4-0.4-0.7-0.6-1.1
	c-0.6-1.1-1.2-2.2-1.8-3.3c-0.7-1.3-1.4-2.7-2-4c-0.3-0.7-0.7-1.3-1-2c-0.3-0.7-0.6-1.3-0.9-2c-0.3-0.7-0.7-1.5-1-2.2
	c-0.3-0.6-0.5-1.2-0.8-1.8c-1.5-3.4-2.8-6.8-4-10.3c-0.3-0.7-0.5-1.4-0.7-2.1c-0.2-0.6-0.4-1.2-0.6-1.9c-0.2-0.4-0.3-0.9-0.4-1.4
	c-0.2-0.5-0.3-1-0.5-1.5c-0.2-0.5-0.3-1-0.5-1.6c-0.5-1.6-0.9-3.2-1.4-4.8c-0.1-0.5-0.3-1.1-0.4-1.6c-0.4-1.6-0.8-3.2-1.2-4.8
	c-0.2-0.7-0.3-1.5-0.5-2.2c-0.2-1-0.4-2-0.6-3c-0.1-0.5-0.2-1.1-0.3-1.6c-0.1-0.5-0.2-0.9-0.3-1.4c-0.1-0.7-0.3-1.5-0.4-2.2
	c-0.1-0.6-0.2-1.1-0.3-1.7c-0.1-0.8-0.2-1.5-0.3-2.3c-0.2-1.2-0.3-2.4-0.5-3.6c-0.1-0.5-0.1-1-0.2-1.6c-0.1-0.8-0.2-1.7-0.2-2.5
	c-0.1-0.8-0.2-1.7-0.2-2.5c-0.1-0.8-0.1-1.7-0.2-2.5c0-0.6-0.1-1.3-0.1-1.9c0-0.5,0-0.9-0.1-1.4c0-0.6,0-1.2-0.1-1.8
	c0-0.6,0-1.1,0-1.7c0-1.1,0-2.3,0-3.4c0-48.7,20.9-93.2,55.5-127.7c1.2-1.2,2.4-2.4,3.7-3.6c1.5-1.4,3-2.8,4.6-4.2
	c0.3-0.3,0.6-0.5,0.9-0.8c1.2-1.1,2.5-2.2,3.7-3.2c0.2-0.1,0.3-0.3,0.5-0.4c0.4-0.3,0.8-0.7,1.3-1c0.8-0.7,1.6-1.3,2.4-2
	c0.5-0.4,1.1-0.8,1.6-1.3c0.9-0.7,1.8-1.4,2.7-2.1c0.4-0.3,0.8-0.6,1.1-0.8c41.7-31.5,96.8-50.7,157.2-50.8c4.1,0,8.1,1,11.8,2.7
	c3.7,1.7,7,4.2,9.7,7.1l162.5,162.5c0.1-0.1,0.3-0.1,0.4-0.2c0.3-0.1,0.6-0.3,0.8-0.4c0.4-0.2,0.9-0.4,1.3-0.6
	c0.2-0.1,0.4-0.2,0.6-0.3c1-0.5,2.1-1,3.1-1.5c2.8-1.4,5.7-2.4,8.7-3c3.6-0.6,7.4-0.6,11,0c3,0.6,6,1.6,8.8,3.1
	c1.5,0.8,5.2,4.1,10.5,9.1C492.3,246.2,501.4,255.2,511.7,265.5z"/>
<path class="st2" d="M369.6,250.8c-67.5-0.3-122.3-37.1-122.3-82.8c0-20.2,10.7-37.7,28.4-52c9.9-8,13.7-21.4,9.4-33.4
	s-15.6-21.1-28.4-21.1l0,0C126.8,61.5,21.5,150,21.5,259.3s105.3,197.8,235.2,197.8s235.2-88.6,235.2-197.8c0,0-0.2-1.8-0.5-4.7
	c-1.1-10-7.1-18.9-16-23.7s-19.6-4.8-28.6-0.2C422.3,243.4,391.6,250.9,369.6,250.8z"/>
<path class="st3" d="M491.4,254.6c-1.1-10-7.1-18.9-16-23.7s-19.6-4.8-28.6-0.2c-24.6,12.7-55.2,20.2-77.2,20.1
	c-62.1-0.3-113.5-31.4-121.3-72V457c2.8,0.1,5.6,0.1,8.4,0.1c129.9,0,235.2-88.6,235.2-197.8C491.9,259.3,491.7,257.5,491.4,254.6z"
	/>
<circle class="st4" cx="148.5" cy="168.6" r="43.5"/>
<circle class="st5" cx="111" cy="291.5" r="43.5"/>
<circle class="st6" cx="226" cy="362.2" r="43.5"/>
<circle class="st7" cx="369" cy="335" r="43.5"/>
<path class="st8" d="M148.5,125.1v87c24,0,43.5-19.5,43.5-43.5S172.5,125.1,148.5,125.1z"/>
<path class="st9" d="M111,248v87c24,0,43.5-19.5,43.5-43.5S135,248,111,248z"/>
<path class="st10" d="M226,318.7v87c24,0,43.5-19.5,43.5-43.5S250,318.7,226,318.7z"/>
<path class="st11" d="M369,291.5v87c24,0,43.5-19.5,43.5-43.5S393,291.5,369,291.5z"/>
</svg>
