<?xml version="1.0" encoding="utf-8"?>
<!-- Generator: Adobe Illustrator 21.0.2, SVG Export Plug-In . SVG Version: 6.00 Build 0)  -->
<svg version="1.1" id="Capa_1" xmlns="http://www.w3.org/2000/svg" xmlns:xlink="http://www.w3.org/1999/xlink" x="0px" y="0px"
	 viewBox="0 0 512 512" style="enable-background:new 0 0 512 512;" xml:space="preserve">
<style type="text/css">
	.st0{fill:#FFDD15;}
	.st1{fill:#EFB30A;}
	.st2{fill:#FFEC97;}
	.st3{fill:#FFDF47;}
	.st4{fill:#FF127F;}
	.st5{fill:#B10853;}
	.st6{fill:#FFFFFF;}
	.st7{fill:#FFF5CB;}
	.st8{fill:#57555C;}
	.st9{fill:#2A2A2C;}
</style>
<g id="Слой_2">
	<rect class="st0" width="512" height="512"/>
</g>
<path class="st1" d="M512,227.8V512H218.3l-75.9-76l-33.2-33.3l-33.2-33.3l48.5-54.1l0.1-0.1l4.8,4.8l12.7-12.6l0,0v0
	c-13.1-13.4-13.7-34.7-1.3-48.8l33-37.4l80.5-91.4l44.1-50.1l3.4-3.4l1.1-1.1L331,46.8l0,0L512,227.8z"/>
<rect x="153.6" y="301.4" transform="matrix(0.7071 -0.7071 0.7071 0.7071 -195.6509 218.8648)" class="st2" width="25.5" height="88.5"/>
<rect x="169.2" y="339.1" transform="matrix(0.7071 -0.7071 0.7071 0.7071 -202.1306 234.4242)" class="st3" width="25.5" height="44.2"/>
<rect x="362.6" y="33.7" transform="matrix(0.7071 -0.7071 0.7071 0.7071 21.3937 308.7108)" class="st4" width="41.5" height="189.6"/>
<rect x="396.1" y="114.6" transform="matrix(0.7071 -0.7071 0.7071 0.7071 7.5642 342.2336)" class="st5" width="41.5" height="94.8"/>
<path class="st6" d="M302.7,75.1l-4.6,4.6l-157.5,179c-12.5,14.2-11.8,35.7,1.6,49l62,62c13.4,13.4,34.8,14.1,49,1.6l179-157.5
	l4.6-4.6L302.7,75.1z"/>
<path class="st7" d="M436.8,209.2l-4.6,4.6l-50,44l-91.4,80.5l-37.5,33c-14.1,12.4-35.4,11.8-48.8-1.3l-31.3-31.3l196.6-196.6
	L436.8,209.2z"/>
<polygon class="st8" points="124.4,315.4 75.8,369.6 142.3,436.1 196.5,387.5 "/>
<polygon class="st9" points="196.5,387.5 142.3,436.1 109.1,402.8 160.5,351.4 "/>
<polygon class="st4" points="254.1,129.7 173.6,221.1 290.8,338.3 382.2,257.8 "/>
<polygon class="st5" points="382.2,257.8 290.8,338.3 232.2,279.7 318.1,193.8 "/>
<circle class="st2" cx="275.2" cy="236.7" r="40"/>
<path class="st3" d="M303.5,265c-15.6,15.6-40.9,15.6-56.6,0l56.6-56.6C319.1,224.1,319.1,249.4,303.5,265z"/>
</svg>
