<?xml version="1.0" encoding="iso-8859-1"?>
<!-- Generator: Adobe Illustrator 19.0.0, SVG Export Plug-In . SVG Version: 6.00 Build 0)  -->
<svg version="1.1" id="Capa_1" xmlns="http://www.w3.org/2000/svg" xmlns:xlink="http://www.w3.org/1999/xlink" x="0px" y="0px"
	 viewBox="0 0 503.013 503.013" style="enable-background:new 0 0 503.013 503.013;" xml:space="preserve">
<g>
	<g>
		<g>
			<path d="M449.121,296.421h-17.965V188.644c0-0.013,0-0.026,0-0.038V8.982c0-4.967-4.024-8.982-8.982-8.982H80.84
				c-4.958,0-8.982,4.015-8.982,8.982v287.439H53.893c-4.958,0-8.982,4.015-8.982,8.982v35.93c0,4.958,4.024,8.982,8.982,8.982
				h78.483L99.045,491.974c-0.629,2.668,0,5.479,1.707,7.635c1.698,2.147,4.294,3.404,7.033,3.404h44.912
				c4.168,0,7.788-2.865,8.749-6.925l11.051-46.965h149.035l11.051,46.965c0.961,4.06,4.581,6.925,8.749,6.925h44.912
				c2.749,0,5.336-1.258,7.042-3.404c1.707-2.156,2.326-4.967,1.707-7.635l-33.331-141.658h87.46c4.958,0,8.982-4.024,8.982-8.982
				v-35.93C458.103,300.436,454.079,296.421,449.121,296.421z M309.625,296.421c-13.196-15.859-26.394-30.667-39.931-44.233
				c1.048,0.01,2.099,0.026,3.142,0.026c56.222,0,104.069-14.88,140.354-43.594v87.8H309.625z M250.092,233.681
				c-10.843-9.602-21.99-18.396-33.595-26.296c14.336-23.715,39.357-36.726,70.94-36.726c46.22,0,62.586,20.507,79.24,45.247
				c-38.918,17.463-81.361,19.809-114.58,17.652C251.412,233.523,250.742,233.571,250.092,233.681z M413.191,17.965V184.84
				c-9.523,9.095-19.759,16.619-30.42,22.815c-17.652-26.369-38.744-54.961-95.335-54.961c-37.472,0-68.541,16.346-86.1,45.048
				c-7.038-4.164-14.258-8.008-21.689-11.514v-24.544v-0.767c25.459-4.289,44.912-26.471,44.912-53.132
				c0-29.723-24.172-53.895-53.895-53.895s-53.895,24.172-53.895,53.895c0,26.662,19.453,48.843,44.912,53.132v0.767v16.902
				c-21.849-8.316-45.568-13.861-71.86-16.236V17.965H413.191z M170.665,125.75l0.004,0.004h-0.008L170.665,125.75z M179.647,129.47
				l15.334-15.334l-12.701-12.701l-11.615,11.615l-11.615-11.615l-12.701,12.701l15.333,15.333v13.109
				c-15.481-3.998-26.947-18.079-26.947-34.793c0-19.815,16.115-35.93,35.93-35.93s35.93,16.115,35.93,35.93
				c0,16.715-11.466,30.796-26.947,34.793V129.47z M89.822,180.387c26.544,2.529,50.178,8.422,71.86,17.343v44.792
				c0,4.958,4.024,8.982,8.982,8.982s8.982-4.024,8.982-8.982v-36.493c39.372,20.227,72.643,51.121,106.454,90.392H89.822V180.387z
				 M145.583,485.048h-26.453l31.698-134.732h26.462L145.583,485.048z M298.283,350.316l10.568,44.912H185.177l10.568-44.912
				H298.283z M176.723,431.158l4.227-17.965h132.127l4.227,17.965H176.723z M374.898,485.048h-26.453l-31.698-134.732h26.453
				L374.898,485.048z M440.138,332.351h-89.719c-0.035,0-0.07-0.005-0.106-0.005h-44.912c-0.027,0-0.053,0.004-0.079,0.005H188.706
				c-0.027,0-0.053-0.005-0.079-0.005h-44.912c-0.036,0-0.07,0.004-0.106,0.005H62.875v-17.965H80.84h341.333h17.965V332.351z"/>
			<path d="M269.471,116.767c4.958,0,8.982-4.024,8.982-8.982c0-2.838,5.219-8.794,7.833-8.982h19.115
				c4.958,0,8.982-4.024,8.982-8.982c0-10.24,7.725-17.965,17.965-17.965s17.965,7.725,17.965,17.965
				c0,4.958,4.024,8.982,8.982,8.982c4.958,0,8.982-4.024,8.982-8.982c0-20.148-15.782-35.93-35.93-35.93
				c-17.031,0-30.954,11.282-34.843,26.947h-11.219c-13.285,0-25.798,15.18-25.798,26.947
				C260.489,112.743,264.513,116.767,269.471,116.767z"/>
		</g>
	</g>
</g>
<g>
</g>
<g>
</g>
<g>
</g>
<g>
</g>
<g>
</g>
<g>
</g>
<g>
</g>
<g>
</g>
<g>
</g>
<g>
</g>
<g>
</g>
<g>
</g>
<g>
</g>
<g>
</g>
<g>
</g>
</svg>
