<?xml version="1.0" encoding="utf-8"?>
<!-- Generator: Adobe Illustrator 21.0.2, SVG Export Plug-In . SVG Version: 6.00 Build 0)  -->
<svg version="1.1" id="Слой_1" xmlns="http://www.w3.org/2000/svg" xmlns:xlink="http://www.w3.org/1999/xlink" x="0px" y="0px"
	 viewBox="0 0 512 512" style="enable-background:new 0 0 512 512;" xml:space="preserve">
<style type="text/css">
	.st0{fill:#FFC200;}
	.st1{fill:#313FBC;}
	.st2{fill:#1B3B6B;}
	.st3{fill:#FFFFFF;}
	.st4{fill:#E9EDF5;}
	.st5{fill:#FFE000;}
	.st6{fill:#5CCC05;}
	.st7{fill:#5FAD14;}
	.st8{fill:#FF583E;}
	.st9{fill:#DB0404;}
</style>
<path class="st0" d="M512,256c0,141.4-114.6,256-256,256S0,397.4,0,256S114.6,0,256,0S512,114.6,512,256z"/>
<rect class="st1" width="512" height="512"/>
<polygon class="st2" points="512,218.8 512,512 218.8,512 215.6,508.8 118.8,412 146.4,306.2 158,261.7 193.1,127.2 193.7,125.1 
	196.8,113.3 210.1,100 250.2,59.9 256,65 295.2,100 320.7,122.8 325.7,127.2 350.1,149 365.6,131.4 393.2,100 508.8,215.6 "/>
<path class="st3" d="M316.8,126.7L256,65.8l-60.8,60.8l-11.3-11.3L256,43.2l72.1,72.1L316.8,126.7z"/>
<path class="st4" d="M256,43.2L256,43.2v22.7l0,0l60.8,60.8l11.3-11.3L256,43.2z"/>
<path class="st5" d="M118.8,100h274.5v312H118.8V100z"/>
<path class="st0" d="M256,100h137.3v312H256V100z"/>
<path class="st3" d="M146.4,127.2h219.2v257.5H146.4V127.2z"/>
<path class="st4" d="M256,127.2h109.7v257.5H256V127.2z"/>
<path class="st6" d="M146.4,277l35.6-47l56,56l86-88l41.6,52v134.8H146.4V277z"/>
<path class="st7" d="M365.6,250L324,198l-68,69.6v117.1h109.7V250H365.6z"/>
<path class="st8" d="M256,180.5c0,17.4-14.1,31.5-31.5,31.5S193,197.9,193,180.5s14.1-31.5,31.5-31.5S256,163.1,256,180.5z"/>
<path class="st9" d="M224.5,149c-0.2,0-0.3,0-0.5,0v63c0.2,0,0.3,0,0.5,0c17.4,0,31.5-14.1,31.5-31.5S241.9,149,224.5,149z"/>
</svg>
