<?xml version="1.0" encoding="utf-8"?>
<!-- Generator: Adobe Illustrator 21.0.2, SVG Export Plug-In . SVG Version: 6.00 Build 0)  -->
<svg version="1.1" id="Слой_1" xmlns="http://www.w3.org/2000/svg" xmlns:xlink="http://www.w3.org/1999/xlink" x="0px" y="0px"
	 viewBox="0 0 512 512" style="enable-background:new 0 0 512 512;" xml:space="preserve">
<style type="text/css">
	.st0{fill:#FFDD15;}
	.st1{fill:#EFB30A;}
	.st2{fill:#2864F0;}
	.st3{fill:#0053BF;}
	.st4{fill:#FFFFFF;}
	.st5{fill:#E9EDF5;}
	.st6{fill:#27488F;}
	.st7{fill:#FF551C;}
	.st8{fill:#F24500;}
	.st9{fill:#FF7955;}
</style>
<g id="Слой_2">
	<rect class="st0" width="512" height="512"/>
</g>
<polygon class="st1" points="512,219 512,512 202.5,512 129.5,439 170.6,404.6 109.5,343.5 124,320.8 138.8,297.5 184.1,226.5 
	217.9,173.6 221.3,168.3 223.5,164.9 243.9,132.9 255.8,114.3 259.2,109 268.1,95 274.5,85 288.5,63 359.9,134.4 388,95 "/>
<path class="st2" d="M223.5,63h65v159h-65V63z"/>
<path class="st3" d="M255.8,63h32.7v159h-32.7V63z"/>
<path class="st2" d="M194.5,439h-65l45-154h65L194.5,439z"/>
<path class="st3" d="M317.5,439h65l-45-154h-65L317.5,439z"/>
<path class="st4" d="M124,95h264v227.1H124V95z"/>
<path class="st5" d="M255.8,95H388v227.1H255.8V95z"/>
<path class="st3" d="M109.5,297.5h293v46h-293V297.5z"/>
<path class="st6" d="M255.8,297.5h146.7v46H255.8V297.5z"/>
<path class="st3" d="M212.3,85h87.5v24h-87.5L212.3,85L212.3,85z"/>
<path class="st6" d="M255.8,85h44v24h-44L255.8,85L255.8,85z"/>
<path class="st7" d="M334.6,208.6c0-18.3-18.9-33.3-43.3-35.3c-1.9-24.3-17-43.3-35.3-43.3s-33.3,18.9-35.3,43.3
	c-24.3,1.9-43.3,17-43.3,35.3s18.9,33.3,43.3,35.3c1.9,24.3,17,43.3,35.3,43.3s33.3-18.9,35.3-43.3
	C315.6,241.9,334.6,226.8,334.6,208.6z"/>
<path class="st8" d="M291.3,173.3c-1.9-24.3-17-43.3-35.3-43.3c-0.1,0-0.2,0-0.2,0v157.1c0.1,0,0.2,0,0.2,0
	c18.3,0,33.3-18.9,35.3-43.3c24.3-1.9,43.3-17,43.3-35.3C334.6,190.3,315.6,175.2,291.3,173.3z"/>
<path class="st9" d="M288.8,208.6c0,18.1-14.7,32.8-32.8,32.8s-32.8-14.7-32.8-32.8s14.7-32.8,32.8-32.8S288.8,190.4,288.8,208.6z"
	/>
<path class="st7" d="M256,175.7c-0.1,0-0.2,0-0.2,0v65.6c0.1,0,0.2,0,0.2,0c18.1,0,32.8-14.7,32.8-32.8S274.1,175.7,256,175.7z"/>
</svg>
