<?xml version="1.0" encoding="utf-8"?>
<!-- Generator: Adobe Illustrator 21.0.2, SVG Export Plug-In . SVG Version: 6.00 Build 0)  -->
<svg version="1.1" id="Capa_1" xmlns="http://www.w3.org/2000/svg" xmlns:xlink="http://www.w3.org/1999/xlink" x="0px" y="0px"
	 viewBox="0 0 512 512" style="enable-background:new 0 0 512 512;" xml:space="preserve">
<style type="text/css">
	.st0{fill:#FFDD15;}
	.st1{fill:#EFB30A;}
	.st2{fill:#F4C479;}
	.st3{fill:#F1B559;}
	.st4{fill:#A16125;}
	.st5{fill:#7E4F1F;}
	.st6{fill:#C6C5CA;}
	.st7{fill:#ACACB2;}
	.st8{fill:#FFFFFF;}
	.st9{fill:#D9D8DB;}
	.st10{fill:#EDA637;}
	.st11{fill:#DF871E;}
	.st12{fill:#488E53;}
	.st13{fill:#40814B;}
	.st14{fill:#E25F3F;}
	.st15{fill:#D44D2C;}
	.st16{fill:#8C5BA4;}
	.st17{fill:#804B9D;}
	.st18{fill:#E3E3F2;}
	.st19{fill:#5A7EBF;}
	.st20{fill:#4C6BB3;}
</style>
<g id="Слой_2">
	<rect class="st0" width="512" height="512"/>
</g>
<path class="st1" d="M512,180.8V512H181.4l-107-107V191.8h70l-64.2-64.2c-2.9-2.3-5.8-5.6-5.8-9.3v-0.1c0,0,0,0,0,0
	c0.2-15.5,49.9-28.1,65.5-28.1c8.4,0,16,3.7,21.2,9.6v-0.1c6.5,0,43.2-4.8,47-4.8l229.3,11.5L512,180.8z"/>
<path class="st2" d="M168.1,118.2c0,15.6-12.6,28.2-28.2,28.2s-65.5-12.6-65.5-28.2s50-28.2,65.5-28.2S168.1,102.7,168.1,118.2z"/>
<path class="st3" d="M139.9,146.4c15.6,0,28.2-12.6,28.2-28.2H74.4C74.4,133.8,124.4,146.4,139.9,146.4z"/>
<path class="st4" d="M208.1,94.8c-3.8,0-40.5,4.8-47,4.8v37.3c3.8,0,40.4,4.8,47,4.8l229.3-11.5v-23.9L208.1,94.8z"/>
<path class="st5" d="M161.1,118.2v18.6c3.8,0,40.4,4.8,47,4.8l229.3-11.5v-12L161.1,118.2L161.1,118.2z"/>
<path class="st6" d="M208.1,94.8c-3.8,0-40.5,4.8-47,4.8v37.3c3.8,0,40.4,4.8,47,4.8V94.8z"/>
<path class="st7" d="M161.1,118.2v18.6c3.8,0,40.4,4.8,47,4.8v-23.4C208.1,118.2,161.1,118.2,161.1,118.2z"/>
<rect x="74.4" y="191.8" class="st8" width="362.9" height="213.2"/>
<g>
	<rect x="255.9" y="191.8" class="st9" width="181.5" height="213.2"/>
	<circle class="st9" cx="255.9" cy="249.7" r="42.1"/>
</g>
<path class="st7" d="M255.9,207.7L255.9,207.7v84.1l0,0c23.2,0,42.1-18.8,42.1-42.1C298,226.5,279.1,207.7,255.9,207.7z"/>
<circle class="st9" cx="255.9" cy="347.2" r="42.1"/>
<path class="st7" d="M255.9,305.1L255.9,305.1v84.1l0,0c23.2,0,42.1-18.8,42.1-42.1C298,324,279.1,305.1,255.9,305.1z"/>
<circle class="st10" cx="255.9" cy="249.7" r="30.4"/>
<path class="st11" d="M255.9,219.3L255.9,219.3v60.9l0,0c16.8,0,30.4-13.6,30.4-30.4S272.7,219.3,255.9,219.3z"/>
<circle class="st12" cx="255.9" cy="347.2" r="30.4"/>
<path class="st13" d="M255.9,316.8L255.9,316.8v60.9l0,0c16.8,0,30.4-13.6,30.4-30.4S272.7,316.8,255.9,316.8z"/>
<g>
	<circle class="st9" cx="142" cy="249.7" r="42.1"/>
	<circle class="st9" cx="142" cy="347.2" r="42.1"/>
</g>
<g>
	<circle class="st6" cx="369.8" cy="249.7" r="42.1"/>
	<circle class="st6" cx="369.8" cy="347.2" r="42.1"/>
</g>
<path class="st7" d="M369.8,207.7v84.1c23.2,0,42.1-18.8,42.1-42.1C411.8,226.5,393,207.7,369.8,207.7z"/>
<circle class="st14" cx="369.8" cy="249.7" r="30.4"/>
<path class="st15" d="M369.8,219.3v60.9c16.8,0,30.4-13.6,30.4-30.4S386.6,219.3,369.8,219.3z"/>
<path class="st7" d="M369.8,305.1v84.1c23.2,0,42.1-18.8,42.1-42.1C411.8,324,393,305.1,369.8,305.1z"/>
<circle class="st16" cx="369.8" cy="347.2" r="30.4"/>
<path class="st17" d="M369.8,316.8v60.9c16.8,0,30.4-13.6,30.4-30.4S386.6,316.8,369.8,316.8z"/>
<path class="st6" d="M142,207.7v84.1c23.2,0,42.1-18.8,42.1-42.1C184.1,226.5,165.2,207.7,142,207.7z"/>
<circle class="st8" cx="142" cy="249.7" r="30.4"/>
<path class="st18" d="M142,219.3v60.9c16.8,0,30.4-13.6,30.4-30.4S158.8,219.3,142,219.3z"/>
<path class="st6" d="M142,305.1v84.1c23.2,0,42.1-18.8,42.1-42.1C184.1,324,165.2,305.1,142,305.1z"/>
<circle class="st19" cx="142" cy="347.2" r="30.4"/>
<path class="st20" d="M142,316.8v60.9c16.8,0,30.4-13.6,30.4-30.4S158.8,316.8,142,316.8z"/>
</svg>
