<?xml version="1.0" standalone="no"?>
<!DOCTYPE svg PUBLIC "-//W3C//DTD SVG 1.1//EN" "http://www.w3.org/Graphics/SVG/1.1/DTD/svg11.dtd" >
<svg xmlns="http://www.w3.org/2000/svg" xmlns:xlink="http://www.w3.org/1999/xlink" version="1.1">
<metadata></metadata>
<defs>
<font id="stixgeneralregular" horiz-adv-x="1402" >
<font-face units-per-em="2048" ascent="1536" descent="-512" />
<missing-glyph horiz-adv-x="512" />
<glyph unicode="IJ" horiz-adv-x="1529" d="M37 0v39q129 4 164 38t35 152v899q0 119 -33 150t-166 39v39h608v-39q-129 -6 -165 -39t-36 -150v-899q0 -115 37 -150.5t164 -39.5v-39h-608zM754 119q0 41 29.5 73.5t70.5 32.5q68 0 100 -86q4 -10 10.5 -27.5t9.5 -26.5t9 -18.5t14.5 -13.5t20.5 -4q45 0 60.5 32 t15.5 112v933q0 121 -31 151t-160 40v39h588v-39q-125 -10 -156.5 -42t-31.5 -151v-745q0 -408 -342 -408q-94 0 -150.5 39t-56.5 109z" />
<glyph unicode="ij" horiz-adv-x="1101" d="M33 0v31q106 6 134 36.5t28 145.5v465q0 72 -14.5 100.5t-53.5 28.5q-49 0 -86 -10v32l317 113l9 -8v-719q0 -115 25.5 -145.5t125.5 -38.5v-31h-485zM160 1294q0 43 30.5 74t73.5 31q45 0 75 -31t30 -74q0 -45 -31 -74.5t-76 -29.5q-43 0 -72.5 29.5t-29.5 74.5z M389 -334q0 33 24.5 56.5t59.5 23.5q47 0 98 -65q47 -57 86 -58q47 0 70 37q29 51 29 248v776q0 123 -66 123q-49 0 -82 -6l-10 -2v32q164 51 320 111l10 -6v-936q0 -219 -89 -332.5t-259 -113.5q-84 0 -137.5 31.5t-53.5 80.5zM721 1294q0 43 30.5 74t73.5 31t74 -31 t31 -74q0 -45 -31 -74.5t-76 -29.5q-43 0 -72.5 29.5t-29.5 74.5z" />
<glyph unicode="ff" horiz-adv-x="1239" d="M41 0v31q111 6 140.5 37.5t29.5 144.5v643h-168v66h168q2 123 16.5 191.5t55.5 137.5q86 147 288 148q90 0 144.5 -36t54.5 -91q0 -35 -24.5 -59.5t-61.5 -24.5q-25 0 -38 13t-40 61q-49 80 -108 79q-115 0 -115 -182v-237h387q2 125 16.5 193.5t53.5 135.5 q86 147 288 148q92 0 152.5 -36t60.5 -91q0 -35 -24.5 -59.5t-61.5 -24.5q-49 0 -92 74q-49 80 -108 79q-115 0 -115 -182v-237h236v-66h-236v-645q0 -115 32 -145.5t158 -34.5v-31h-501v31q88 6 113.5 38.5t25.5 143.5v643h-385v-643q0 -117 22.5 -145.5t116.5 -36.5v-31 h-481z" />
<glyph unicode="fi" horiz-adv-x="1142" d="M66 0v31q86 2 112.5 34.5t26.5 131.5v657h-137v68h139q18 164 43.5 237.5t103.5 143.5q113 96 301 96q121 0 188.5 -37t67.5 -102q0 -84 -71 -84q-29 0 -57.5 26.5t-51 59t-59.5 59.5t-80 27q-92 0 -154 -66q-41 -41 -51 -96.5t-10 -171.5v-92h315q94 0 234 22l10 -8 q-4 -109 -4 -203v-530q0 -96 29.5 -130t109.5 -42v-31h-450v31q94 8 116.5 36.5t22.5 135.5v534q0 78 -34 97.5t-177 19.5h-172v-670q0 -86 27.5 -116.5t111.5 -36.5v-31h-450z" />
<glyph unicode="fl" horiz-adv-x="1138" d="M63 0v31q92 8 118 39.5t26 148.5v637h-144v66h148q0 160 25.5 241.5t107.5 155.5q90 80 205 80q43 0 119.5 -25.5t107.5 -25.5q10 0 67.5 25.5t82.5 25.5l10 -4v-1225q0 -82 25.5 -106.5t107.5 -32.5v-31h-440v31q80 8 107.5 35.5t27.5 109.5v680h-385v-690 q0 -76 28.5 -101.5t114.5 -33.5v-31h-459zM379 922h385v290q-14 -16 -37 -16q-37 0 -56.5 15.5t-45.5 60.5q-43 72 -109 71q-137 0 -137 -319v-102z" />
<glyph unicode="ffi" horiz-adv-x="1703" d="M41 0v31q111 6 140.5 36.5t29.5 143.5v645h-168v66h168q2 123 16.5 190.5t55.5 136.5q86 147 288 148q90 0 145.5 -36t55.5 -91q0 -35 -24.5 -59.5t-61.5 -24.5q-25 0 -39 14t-41 60q-31 47 -49 64t-51 17q-123 0 -123 -184v-235h385q18 164 44 237.5t103 143.5 q113 96 302 96q121 0 188.5 -37t67.5 -102q0 -84 -72 -84q-35 0 -71 40.5t-80 82.5t-97 42q-96 0 -154 -59q-41 -41 -51 -96.5t-10 -171.5v-92h315q94 0 234 22l10 -8q-4 -109 -4 -203v-530q0 -96 29.5 -130t109.5 -42v-31h-450v31q94 8 116.5 36.5t22.5 135.5v534 q0 78 -34 98.5t-177 20.5h-172v-672q0 -86 27.5 -116.5t111.5 -36.5v-31h-450v31q94 8 116.5 36.5t22.5 129.5v659h-383v-645q0 -113 23.5 -141.5t115.5 -38.5v-31h-481z" />
<glyph unicode="ffl" horiz-adv-x="1699" d="M41 0v31q111 6 140.5 37.5t29.5 144.5v643h-168v66h168q2 123 16.5 191.5t55.5 137.5q86 147 288 148q92 0 152.5 -36t60.5 -91q0 -35 -24.5 -59.5t-61.5 -24.5q-49 0 -92 74q-49 80 -108 79q-115 0 -115 -182v-237h389q0 160 25.5 241.5t107.5 155.5q90 80 205 80 q43 0 120 -25.5t107 -25.5q10 0 67.5 25.5t82.5 25.5l10 -4v-1225q0 -82 25.5 -106.5t107.5 -32.5v-31h-440v31q80 8 107.5 35.5t27.5 109.5v680h-385v-690q0 -76 28.5 -101.5t114.5 -33.5v-31h-458v31q92 8 117.5 39.5t25.5 148.5v637h-385v-643q0 -115 33 -146.5 t157 -35.5v-31h-532zM940 922h385v290q-14 -16 -37 -16q-37 0 -56.5 15.5t-45.5 60.5q-43 70 -109 69q-137 0 -137 -317v-102z" />
<glyph unicode="&#xd;" horiz-adv-x="681" />
<glyph unicode=" "  horiz-adv-x="512" />
<glyph unicode="&#x09;" horiz-adv-x="512" />
<glyph unicode="&#xa0;" horiz-adv-x="512" />
<glyph unicode="!" horiz-adv-x="681" d="M266 88q0 47 32 79t77 32t76.5 -33t31.5 -80q0 -45 -31.5 -74.5t-78.5 -29.5q-45 0 -76 29.5t-31 76.5zM266 1229q0 156 109 155q51 0 79.5 -45t28.5 -120q0 -33 -4 -78l-92 -781h-29l-86 781q-6 61 -6 88z" />
<glyph unicode="&#x22;" horiz-adv-x="835" d="M158 1296q0 39 24.5 63.5t63.5 24.5q37 0 61.5 -23.5t24.5 -60.5q0 -102 -66 -417h-43q-66 356 -65 413zM504 1296q0 39 24.5 63.5t63.5 24.5q37 0 61.5 -24.5t24.5 -59.5q0 -27 -9.5 -84t-27 -157t-29.5 -176h-43q-66 356 -65 413z" />
<glyph unicode="#" horiz-adv-x="1024" d="M12 442v113h236l43 274h-223v113h239l64 414h118l-63 -414h272l62 414h119l-62 -414h197v-113h-213l-41 -274h203v-113h-222l-63 -442h-119l64 442h-275l-67 -442h-119l67 442h-217zM367 555h274l41 274h-272z" />
<glyph unicode="$" horiz-adv-x="1024" d="M90 104v267h31q33 -152 123 -233t227 -81v578q-215 121 -290 205t-75 211q0 143 104.5 221t260.5 88v129h70v-129q236 -14 329 -109v-227h-30q-31 127 -103.5 197t-195.5 84v-504q174 -94 241.5 -146.5t112.5 -122.5q43 -63 43 -184q0 -166 -101.5 -243.5t-295.5 -104.5 v-178h-70v178q-131 0 -213 23.5t-168 80.5zM258 1090q0 -68 42 -118t171 -138v471q-213 -43 -213 -215zM541 57q127 27 180 81.5t53 162.5q0 94 -47 155.5t-186 143.5v-543z" />
<glyph unicode="%" horiz-adv-x="1529" d="M125 948q0 174 118.5 305t276.5 131q53 0 123 -57q96 -80 197 -80q94 0 147 31t195 168h90l-881 -1483h-96l807 1348q-57 -66 -111.5 -91.5t-136.5 -25.5q-72 0 -156 29q8 -47 9 -90q0 -106 -45.5 -213t-118.5 -177q-78 -76 -176 -75q-102 0 -172 80.5t-70 199.5z M270 866q0 -63 32 -103t85 -40q109 0 189.5 133t80.5 309q0 45 -9 61.5t-42 33.5q-47 23 -90 69q-63 -31 -90 -54.5t-57 -74.5q-98 -156 -99 -334zM821 244q0 164 120 298t267 134q94 0 145.5 -62.5t51.5 -177.5q0 -186 -102.5 -330.5t-233.5 -144.5q-104 0 -176 82t-72 201 zM969 156q0 -59 32.5 -99.5t81.5 -40.5q106 0 190.5 130t84.5 294q0 80 -36 129t-93 49q-59 0 -101 -47q-68 -72 -113.5 -191.5t-45.5 -223.5z" />
<glyph unicode="&#x26;" horiz-adv-x="1593" d="M86 281q0 125 83 240.5t239 205.5l77 45q-72 174 -71 305q0 135 89 221t222 86q125 0 203 -67.5t78 -186.5q0 -113 -71 -190.5t-247 -153.5q115 -248 270 -421q102 137 145.5 218t43.5 150q0 47 -28.5 67.5t-104.5 28.5v43h442v-43q-72 0 -111.5 -26.5t-80.5 -93.5 q-29 -45 -79 -128t-89 -144.5t-90 -129.5q76 -96 148.5 -142t162.5 -46q59 0 99 23.5t89 84.5l31 -22q-45 -111 -125 -171.5t-184 -60.5q-168 0 -348 187q-115 -100 -216.5 -143.5t-226.5 -43.5q-168 0 -259 78t-91 230zM274 356q0 -127 71 -200.5t183 -73.5q131 0 299 131 q-176 207 -311 489q-133 -86 -187.5 -162.5t-54.5 -183.5zM575 1149q0 -82 16.5 -144.5t65.5 -152.5q129 59 184.5 127t55.5 160q0 76 -45 128t-115 52q-72 0 -117 -47t-45 -123z" />
<glyph unicode="'" horiz-adv-x="368" d="M98 1298q0 37 26 61.5t62 24.5q41 0 63.5 -22.5t22.5 -58.5q1 -92 -65 -420h-43q-66 356 -66 415z" />
<glyph unicode="(" horiz-adv-x="681" d="M98 516q0 567 506 868l19 -32q-209 -178 -279 -351.5t-70 -478.5q0 -303 72 -491.5t277 -360.5l-25 -32q-238 135 -369 372.5t-131 505.5z" />
<glyph unicode=")" horiz-adv-x="681" d="M59 -330q211 174 280 347t69 483q0 311 -69 498.5t-280 353.5l25 32q233 -139 366.5 -376.5t133.5 -501.5q0 -559 -506 -868z" />
<glyph unicode="*" horiz-adv-x="1024" d="M139 791q0 39 30 59t99 33q72 14 110 28.5t101 53.5q-88 53 -198 75q-76 16 -107 37t-31 58q0 33 18.5 54t49.5 21q41 0 100 -65q86 -96 183 -150v27q0 84 -31 186q-23 68 -23 107q0 29 21.5 49t52.5 20t53.5 -21.5t22.5 -51.5q0 -33 -23 -97q-35 -92 -35 -170v-49 q70 41 119 86q10 10 38 40t44.5 46.5t38 31.5t37.5 15q35 0 55.5 -21.5t20.5 -55.5q0 -41 -23.5 -60.5t-83.5 -27.5q-114 -18 -229 -84l18 -13q76 -49 197 -69q70 -10 96.5 -29.5t26.5 -58.5q0 -35 -20.5 -57.5t-53.5 -22.5q-51 0 -123 90q-47 57 -141 119l-17 10v-19 q0 -115 41 -225q18 -51 19 -67q0 -31 -25.5 -55.5t-56.5 -24.5q-29 0 -51.5 22.5t-22.5 51t25 96.5q33 88 33 202v19q-82 -51 -107 -74q-25 -25 -84 -92q-45 -51 -88 -51q-35 0 -55.5 20.5t-20.5 53.5z" />
<glyph unicode="+" d="M98 451v135h535v534h135v-534h535v-135h-535v-535h-135v535h-535z" />
<glyph unicode="," horiz-adv-x="512" d="M113 92q0 53 33.5 85t89.5 32q70 0 116.5 -50t46.5 -128q0 -94 -62.5 -182.5t-166.5 -137.5l-20 39q170 115 169 219q0 27 -28 27q-8 0 -27.5 -4t-32.5 -4q-119 0 -118 104z" />
<glyph unicode="-" horiz-adv-x="681" d="M80 397v129h504v-129h-504z" />
<glyph unicode="." horiz-adv-x="512" d="M143 90q0 47 34 81t81 34q45 0 79 -35t34 -82q0 -45 -34 -78t-81 -33t-80 33t-33 80z" />
<glyph unicode="/" horiz-adv-x="569" d="M-18 -29l469 1413h137l-467 -1413h-139z" />
<glyph unicode="0" horiz-adv-x="1024" d="M49 688q0 190 47 343t156.5 253t267.5 100q201 0 328 -196.5t127 -511.5q0 -137 -26.5 -259t-79 -224.5t-144.5 -162t-213 -59.5q-125 0 -219 63.5t-145.5 170t-75 227.5t-23.5 256zM246 674q0 -315 67.5 -482t198.5 -167q129 0 197.5 167t68.5 474q0 324 -68.5 494.5 t-201.5 170.5q-127 0 -194.5 -172t-67.5 -485z" />
<glyph unicode="1" horiz-adv-x="1024" d="M227 1169v29l367 186l18 -6v-1222q0 -68 41 -96.5t154 -28.5v-31h-565v31q113 6 153.5 42t40.5 122v919q0 100 -61 100q-29 0 -92 -24z" />
<glyph unicode="2" horiz-adv-x="1024" d="M59 0v25l365 387q143 150 204.5 274.5t61.5 257.5q0 137 -75.5 213t-208.5 76q-111 0 -175.5 -57.5t-126.5 -208.5l-43 10q35 190 140.5 298.5t285.5 108.5q170 0 274.5 -102t104.5 -258q0 -231 -262 -508l-338 -360h479q68 0 108 26.5t89 110.5l29 -12l-111 -281h-801z " />
<glyph unicode="3" horiz-adv-x="1024" d="M84 88q0 33 24.5 53.5t59.5 20.5q51 0 125 -53q90 -63 176 -64q113 0 189.5 91t76.5 222q0 236 -213 297q-63 20 -209 21v29q115 39 172 73q166 94 166 275q0 102 -58 155.5t-163 53.5q-184 -1 -305 -218l-33 9q47 154 147.5 242.5t254.5 88.5q143 0 231 -77.5t88 -202.5 q0 -168 -190 -283q113 -49 170 -108q90 -100 90 -264t-95 -287q-70 -94 -199.5 -142.5t-275.5 -48.5q-229 0 -229 117z" />
<glyph unicode="4" horiz-adv-x="1024" d="M25 342v131l643 911h90v-911h211v-131h-211v-342h-160v342h-573zM106 473h492v703z" />
<glyph unicode="5" horiz-adv-x="1024" d="M63 98q0 78 93 78q74 0 151 -63q80 -66 146 -66q106 0 191 106.5t85 239.5q0 197 -137 307q-178 143 -436 144q-25 0 -25 16l2 10l223 486h424q35 0 54.5 10t44.5 43l18 -14l-74 -174q-12 -27 -55 -27h-397l-82 -174q225 -43 325.5 -93t186.5 -169q72 -98 71 -260 q0 -147 -48 -247.5t-152 -178.5q-139 -100 -348 -101q-117 0 -189 35t-72 92z" />
<glyph unicode="6" horiz-adv-x="1024" d="M70 571q0 336 223 566q127 131 261 185t359 79l5 -33q-242 -39 -404 -195.5t-203 -388.5q119 92 260 93q180 0 283.5 -115t103.5 -313q0 -201 -104 -328q-121 -150 -326 -150q-250 0 -362 207q-96 176 -96 393zM260 545q0 -240 75 -378t216 -138q109 0 166 97t57 259 q0 397 -276 397q-102 0 -170 -54t-68 -183z" />
<glyph unicode="7" horiz-adv-x="1024" d="M41 1055l123 301h756v-33l-435 -1339h-133l406 1220h-441q-88 0 -131 -30.5t-108 -137.5z" />
<glyph unicode="8" horiz-adv-x="1024" d="M115 305q0 109 53 185.5t213 189.5q-154 127 -204 205t-50 180q0 145 111.5 232t285.5 87q150 0 247 -85t97 -207q0 -113 -58 -180.5t-216 -151.5q184 -123 250.5 -219.5t66.5 -223.5q0 -158 -109.5 -252t-293.5 -94q-172 0 -282.5 94.5t-110.5 239.5zM270 324 q0 -139 71 -217t189 -78q100 0 163 62.5t63 162.5q0 92 -47.5 161.5t-153.5 141.5l-121 82q-90 -74 -127 -144.5t-37 -170.5zM279 1124.5q0 -94.5 60 -171t196 -156.5q104 61 148 130t44 165q0 106 -59.5 170.5t-164 64.5t-164.5 -54t-60 -148.5z" />
<glyph unicode="9" horiz-adv-x="1024" d="M61 901q0 207 122 345t304 138q195 0 322 -155q131 -164 131 -422q0 -180 -62.5 -339t-183.5 -269q-127 -115 -247.5 -165t-325.5 -79l-6 41q236 41 398.5 198.5t223.5 407.5q-119 -117 -307 -117q-166 0 -267.5 115t-101.5 301zM250 971q0 -182 68.5 -290t183.5 -108 q82 0 160.5 40t78.5 114v80q0 520 -270 520q-96 0 -149 -70q-31 -41 -51.5 -122.5t-20.5 -163.5z" />
<glyph unicode=":" horiz-adv-x="569" d="M166 90q0 49 32.5 82t82.5 33q45 0 78.5 -34t33.5 -81q0 -45 -32.5 -79t-80 -34t-81 34t-33.5 79zM166 825q0 49 32.5 82t82.5 33q45 0 78.5 -34t33.5 -81t-32.5 -79.5t-80 -32.5t-81 33.5t-33.5 78.5z" />
<glyph unicode=";" horiz-adv-x="569" d="M164 94q0 49 34.5 82t86.5 33q70 0 117 -50t47 -132q0 -96 -62 -180.5t-168 -135.5l-20 39q170 111 170 217q0 10 -8.5 19.5t-20.5 9.5q-6 0 -26.5 -4t-30.5 -4q-119 0 -119 106zM164 825q0 49 32.5 82t82.5 33q45 0 78.5 -34t33.5 -81t-33.5 -79.5t-78.5 -32.5 q-47 0 -81 33.5t-34 78.5z" />
<glyph unicode="&#x3c;" d="M115 510v20l1157 564v-133l-885 -441l885 -440v-129z" />
<glyph unicode="=" d="M98 246v135h1207v-135h-1207zM98 655v136h1207v-136h-1207z" />
<glyph unicode="&#x3e;" d="M115 -49v129l884 440l-884 441v133l1157 -564v-20z" />
<glyph unicode="?" horiz-adv-x="909" d="M139 1092q0 127 94.5 209.5t241.5 82.5q154 0 263.5 -89t109.5 -234q0 -92 -41 -169t-174 -235q-100 -120 -133 -321h-35q4 147 90 362q104 258 104 383q0 104 -64.5 173t-158.5 69q-74 0 -133 -39t-59 -88q0 -39 39 -79t39 -73q0 -39 -23 -63.5t-61 -24.5q-43 0 -71 37 t-28 99zM377 92q0 47 31.5 78t78.5 31q43 0 75 -33t32 -76q0 -45 -31 -76.5t-76 -31.5q-51 0 -80.5 31.5t-29.5 76.5z" />
<glyph unicode="@" horiz-adv-x="1886" d="M238 670q0 172 77.5 323.5t210.5 249.5q190 141 459 141q285 0 478.5 -173t193.5 -427q0 -199 -112.5 -345t-264.5 -146q-70 0 -122 42t-60 107h-4q-102 -147 -256 -147q-78 0 -129.5 62.5t-51.5 166.5q0 197 136 373q109 143 262 143q111 0 149 -106h4l19 78h141 l-133 -520q-4 -20 -4 -35q0 -96 86 -97q100 0 179 124t79 280q0 229 -173 393t-415 164q-287 0 -450 -236q-127 -182 -127 -426q0 -268 162.5 -438t424.5 -170q209 1 412 99l25 -62q-246 -117 -447 -117q-322 0 -535.5 199t-213.5 500zM803 561q0 -82 32.5 -130t90.5 -48 q90 0 155 119q90 169 90 325q0 123 -94 123q-104 0 -200 -143q-74 -111 -74 -246z" />
<glyph unicode="A" horiz-adv-x="1478" d="M31 0v39q86 8 125 62.5t133 279.5l422 999h41l503 -1153q45 -106 81 -143t112 -45v-39h-522v39q82 0 112 18q29 14 29 49q0 53 -39 144l-84 192h-536l-95 -233q-18 -47 -18 -86q0 -47 33.5 -65.5t109.5 -18.5v-39h-407zM442 526h473l-237 564z" />
<glyph unicode="B" horiz-adv-x="1366" d="M35 0v39q121 4 158.5 40t37.5 152v895q0 119 -34.5 151t-161.5 40v39h573q264 0 400.5 -89t136.5 -253q0 -139 -84 -213q-60 -51 -197 -86v-2q154 -25 250 -113q100 -90 100 -235q0 -170 -133 -267.5t-356 -97.5h-690zM440 168q0 -51 28 -71.5t99 -20.5q139 0 205 15 t129 73q78 68 78 203q0 156 -96 219q-23 16 -45.5 27.5t-40 18.5t-46 13t-44 9t-54.5 5.5t-57 3.5t-72.5 3t-83.5 2v-500zM440 750h189q307 0 307 254q0 131 -91 203.5t-272 72.5h-84q-49 0 -49 -66v-464z" />
<glyph unicode="C" horiz-adv-x="1366" d="M57 666q0 299 185 505q193 213 497 213q131 0 244 -30q129 -37 141 -37q68 0 86 67h41l19 -464h-47q-33 147 -107 227q-145 156 -330 156q-227 0 -359 -167t-132 -438q0 -330 147 -489q137 -147 365 -148q135 0 233 47t217 160l39 -37q-182 -260 -559 -260 q-297 0 -483 183q-197 193 -197 512z" />
<glyph unicode="D" horiz-adv-x="1478" d="M33 0v39q119 8 149.5 42t30.5 155v890q0 119 -30.5 151t-149.5 40v39h553q399 0 614 -187q203 -174 203 -485q0 -375 -279 -553q-203 -131 -516 -131h-575zM422 172q0 -55 19.5 -75.5t78.5 -20.5q160 0 258.5 22.5t188.5 83.5q213 143 213 490q0 297 -195 467 q-88 78 -192.5 109.5t-262.5 31.5q-59 0 -83.5 -18.5t-24.5 -67.5v-1022z" />
<glyph unicode="E" horiz-adv-x="1251" d="M25 0v39q117 8 147.5 42t30.5 152v893q0 115 -32 150t-146 41v39h1085l8 -293h-51q-23 137 -80 176t-235 39h-269q-45 0 -58 -13.5t-13 -60.5v-450h309q129 0 171 36.5t60 159.5h47v-479h-47q-18 129 -59 164t-172 35h-309v-498q0 -61 43 -78.5t163 -17.5h74 q219 0 311.5 53t161.5 217h58l-95 -346h-1103z" />
<glyph unicode="F" horiz-adv-x="1138" d="M23 0v39q117 8 148.5 44t31.5 169v876q0 113 -31 147t-147 42v39h1083l10 -293h-51q-23 139 -77 177t-238 38h-271q-43 0 -56 -15.5t-13 -64.5v-444h290q129 0 173.5 36.5t58.5 157.5h47v-477h-47q-12 125 -55 162t-177 37h-290v-441q0 -117 33.5 -150.5t152.5 -39.5v-39 h-575z" />
<glyph unicode="G" horiz-adv-x="1478" d="M66 670q0 340 219 538q193 176 489 176q131 0 273 -47q55 -20 90 -20q33 0 57.5 19.5t34.5 47.5h45l16 -432h-47q-66 160 -145 238q-119 113 -299 113q-205 0 -342 -142q-158 -158 -158 -497q0 -283 147.5 -447t391.5 -164q117 0 194.5 37t77.5 88v322q0 119 -29.5 148.5 t-152.5 39.5v37h524v-37q-90 -8 -116.5 -36.5t-26.5 -127.5v-409q-176 -143 -521 -144q-160 0 -306 57.5t-246 161.5q-170 178 -170 480z" />
<glyph unicode="H" horiz-adv-x="1478" d="M37 0v39q121 8 151.5 44t30.5 167v872q0 119 -31.5 152t-150.5 43v39h573v-39q-115 -10 -148.5 -44t-33.5 -151v-387h621v387q0 119 -32 152t-151 43v39h574v-39q-115 -10 -149 -44t-34 -151v-895q0 -109 34 -144.5t149 -43.5v-39h-572v39q119 8 150 46t31 169v391h-621 v-414q0 -113 33 -149.5t145 -42.5l2 -39h-571z" />
<glyph unicode="I" horiz-adv-x="681" d="M37 0v39q129 4 164 38t35 152v899q0 119 -33 150t-166 39v39h608v-39q-129 -6 -165 -39t-36 -150v-899q0 -115 37 -150.5t164 -39.5v-39h-608z" />
<glyph unicode="J" horiz-adv-x="763" d="M-12 119q0 41 29.5 73.5t70.5 32.5q68 0 100 -86q4 -10 10.5 -27.5t9.5 -26.5t9 -18.5t14.5 -13.5t20.5 -4q45 0 60.5 32t15.5 112v933q0 121 -31 151t-160 40v39h588v-39q-125 -10 -156.5 -42t-31.5 -151v-745q0 -408 -342 -408q-94 0 -150.5 39t-56.5 109z" />
<glyph unicode="K" horiz-adv-x="1478" d="M68 0v39q121 6 153.5 45t32.5 172v868q0 115 -33 150t-151 43v39h577v-39q-125 -8 -154.5 -41t-29.5 -154v-409l364 336q88 82 124 125t36 77q0 33 -17.5 47.5t-66.5 16.5l-51 2v39h530v-39q-104 -8 -158.5 -36t-160.5 -130l-381 -365l479 -524q127 -139 187.5 -181 t132.5 -42v-39h-621v39l55 2q86 2 86 49q0 37 -66.5 116t-213.5 232l-205 211l-53 -43v-379q0 -115 32.5 -146.5t149.5 -41.5v-39h-577z" />
<glyph unicode="L" horiz-adv-x="1251" d="M25 0v39q113 6 145.5 43t32.5 154v882q0 121 -30 156t-148 43v39h579v-39q-125 -8 -158.5 -42t-33.5 -153v-950q0 -57 35.5 -74.5t148.5 -17.5h143q248 0 346 125q41 55 86 151h54l-99 -356h-1101z" />
<glyph unicode="M" horiz-adv-x="1820" d="M25 0v39q90 6 129 26.5t54 72.5t15 171v815q0 117 -34.5 151t-159.5 42v39h405l473 -1028l453 1028h407v-39q-111 -2 -144.5 -39t-33.5 -152v-897q0 -109 34 -145.5t146 -44.5v-39h-573v39q121 8 152.5 46t31.5 167v919l-522 -1171h-29l-516 1124v-815q0 -166 35 -215 t156 -55v-39h-479z" />
<glyph unicode="N" horiz-adv-x="1478" d="M25 0v39q127 14 162.5 60t35.5 208v901q-53 66 -90 87.5t-108 21.5v39h348l790 -989v696q0 156 -39 201q-25 27 -54.5 36t-106.5 17v39h485v-39q-104 -10 -135 -37q-33 -29 -46.5 -78t-13.5 -164v-1061h-36l-904 1125v-795q0 -156 35 -204t156 -64v-39h-479z" />
<glyph unicode="O" horiz-adv-x="1478" d="M70 684q0 311 185 505.5t484 194.5t484.5 -199.5t185.5 -506.5q0 -315 -186.5 -511t-483.5 -196q-299 0 -484 197t-185 516zM303 680q0 -373 184 -543q100 -92 254 -92q160 0 265 98q170 164 170 547q0 174 -49.5 312.5t-137.5 211.5q-115 96 -252 97q-174 0 -293 -137 q-66 -74 -103.5 -210.5t-37.5 -283.5z" />
<glyph unicode="P" horiz-adv-x="1140" d="M33 0v39q119 8 145.5 43t26.5 168v878q0 115 -30 148t-142 41v39h530q291 0 445 -129q102 -86 102 -244q0 -164 -117 -268q-86 -78 -176 -101.5t-262 -23.5q-59 0 -141 6v-367q0 -117 33.5 -150.5t158.5 -39.5v-39h-573zM414 678q70 -6 125 -6q166 0 257 81t91 220 q0 166 -94.5 236.5t-307.5 70.5q-43 0 -57 -15.5t-14 -58.5v-528z" />
<glyph unicode="Q" horiz-adv-x="1478" d="M258 1191.5q188 192.5 481 192.5q295 0 482.5 -193.5t187.5 -508.5q0 -180 -53 -311t-168 -240q-63 -63 -134 -94t-182 -51q109 -156 245 -228.5t319 -83.5v-36h-99q-510 0 -710 253l-84 107q-123 43 -191.5 87t-126.5 120q-155 206 -155 472q0 322 188 514.5zM303 686 q0 -315 119 -481q49 -72 138 -116t179 -44q178 0 305 148q61 70 96.5 206.5t35.5 292.5q0 176 -49.5 314.5t-137.5 212.5q-111 92 -256 92q-176 0 -295 -146q-61 -72 -98 -203t-37 -276z" />
<glyph unicode="R" horiz-adv-x="1366" d="M35 0v39q117 10 145.5 45t28.5 170v874q0 115 -28.5 148t-145.5 41v39h557q281 0 428 -121q100 -82 100 -246q0 -279 -370 -336l409 -518q43 -53 82 -71.5t111 -24.5v-39h-332l-488 631l-114 -4v-398q0 -117 31.5 -149.5t150.5 -40.5v-39h-565zM418 702q147 2 219 16.5 t143 53.5q117 66 117 234q0 274 -375 274q-55 0 -79.5 -17.5t-24.5 -68.5v-492z" />
<glyph unicode="S" horiz-adv-x="1138" d="M88 408h45q137 -362 422 -363q109 0 176.5 64.5t67.5 164.5q0 96 -60 162q-98 106 -344 238q-250 133 -250 352q0 164 100.5 261t256.5 97q109 0 215 -45q53 -24 87 -24h3q53 0 65 69h43l46 -436h-52q-35 127 -84 193q-124 159 -295 159h-2q-94 0 -150 -54t-56 -140 q0 -41 20 -80t44 -66.5t83 -68.5t96 -62.5t123 -72.5q166 -96 242 -191.5t76 -210.5q0 -170 -119 -276.5t-299 -106.5q-133 0 -242 47q-53 23 -96 23q-25 0 -41 -18.5t-16 -49.5h-46z" />
<glyph unicode="T" horiz-adv-x="1251" d="M35 1008l14 348h1151l14 -348h-49q-33 168 -92 215t-223 47h-121v-1043q0 -117 35 -149.5t162 -38.5v-39h-598v39q129 8 160.5 43t31.5 170v1018h-123q-166 0 -224 -48t-89 -214h-49z" />
<glyph unicode="U" horiz-adv-x="1478" d="M29 1317v39h579v-39q-123 -10 -154.5 -44t-31.5 -149v-639q0 -133 16.5 -204.5t73.5 -126.5q96 -92 262 -93q207 0 311 121q47 57 61.5 126t14.5 204v539q0 160 -34.5 209t-157.5 57v39h475v-39q-125 -12 -159 -60.5t-34 -199.5v-522q0 -158 -22.5 -248t-87.5 -166 q-131 -150 -414 -150q-223 0 -348 95q-166 123 -166 444v635q0 102 -31.5 133t-152.5 39z" />
<glyph unicode="V" horiz-adv-x="1478" d="M33 1317v39h542v-39l-57 -4q-92 -6 -92 -64q0 -41 80 -219l311 -700l301 755q39 98 39 148q0 14 -3 25.5t-7 19.5t-15.5 14t-17.5 9.5t-22.5 6.5t-23.5 4t-28.5 3t-29.5 2v39h417v-39q-63 -2 -104 -40t-84 -147l-455 -1153h-30l-500 1115q-66 145 -104.5 184t-116.5 41z " />
<glyph unicode="W" horiz-adv-x="1933" d="M10 1317v39h500v-39q-76 -2 -103.5 -16.5t-27.5 -47.5q0 -35 22 -96l295 -770l213 580l-57 153q-49 133 -84 164t-125 33v39h543v-39q-158 -4 -158 -72q0 -27 35 -119l293 -745l258 694q35 98 35 158q0 82 -144 84v39h404v-39q-82 -16 -112 -40t-58 -103 q-233 -627 -418 -1197h-31q-125 346 -327 867l-316 -867h-31q-70 207 -208 584t-185 510q-51 147 -93 195.5t-120 50.5z" />
<glyph unicode="X" horiz-adv-x="1478" d="M20 0v39q80 8 130.5 47t166.5 186l320 400l-217 317q-143 209 -206.5 263.5t-168.5 64.5v39h617v-39l-60 -2q-47 -2 -70.5 -14.5t-23.5 -45.5q0 -12 3 -25t12 -31.5t17.5 -34t26 -42t29.5 -45t39 -56.5t43 -63l90 -131l229 287q82 100 82 137q0 35 -28.5 49.5 t-110.5 16.5v39h485v-39q-98 -6 -155.5 -44t-155.5 -159l-293 -362l393 -562q59 -86 102.5 -113.5t125.5 -37.5v-39h-606v39l53 4q102 6 102 59q0 45 -104 201l-195 289l-243 -305q-109 -135 -109 -183q0 -31 34 -45t122 -20v-39h-476z" />
<glyph unicode="Y" horiz-adv-x="1478" d="M45 1317v39h571v-39l-49 -2q-96 -2 -96 -53q0 -43 37 -97l299 -452l297 454q29 43 29 86q-2 35 -32 48.5t-108 15.5v39h447v-39q-90 -8 -142.5 -51t-140.5 -179l-303 -466v-394q0 -117 39 -149.5t172 -38.5v-39h-627v39q139 10 173 44t34 169v350l-268 393 q-139 205 -198.5 261.5t-133.5 60.5z" />
<glyph unicode="Z" horiz-adv-x="1253" d="M20 0v31l895 1247h-438q-203 0 -274 -72q-37 -39 -52.5 -76.5t-31.5 -123.5h-53l43 350h1075v-31l-885 -1247h516q160 0 240 57q47 33 69.5 77t53.5 148h47l-51 -360h-1154z" />
<glyph unicode="[" horiz-adv-x="681" d="M180 -319v1675h432v-51h-170q-53 0 -79.5 -22.5t-26.5 -76.5v-1364q0 -111 106 -110h170v-51h-432z" />
<glyph unicode="\" horiz-adv-x="569" d="M-18 1384h137l469 -1413h-139z" />
<glyph unicode="]" horiz-adv-x="681" d="M70 -268h180q53 0 74.5 22.5t21.5 71.5v1368q0 111 -104 111h-172v51h432v-1675h-432v51z" />
<glyph unicode="^" horiz-adv-x="960" d="M49 608l371 748h123l370 -748h-139l-293 592l-293 -592h-139z" />
<glyph unicode="_" horiz-adv-x="1024" d="M0 -154h1024v-102h-1024v102z" />
<glyph unicode="`" horiz-adv-x="681" d="M37 1323q0 66 74 66q43 0 88 -48l297 -303h-82l-316 197q-61 39 -61 88z" />
<glyph unicode="a" horiz-adv-x="909" d="M76 193q0 143 143 239q98 66 369 166v111q0 92 -44 138t-116 46q-61 0 -102 -29.5t-41 -70.5q0 -18 6 -41t6 -45q0 -31 -27.5 -57.5t-66.5 -26.5q-35 0 -61.5 26.5t-26.5 67.5q0 98 104 164q96 61 236 61q166 0 241 -92q37 -43 47.5 -87t10.5 -140v-392q0 -135 63 -135 q41 0 88 39v-57q-78 -98 -184 -98q-117 0 -131 149h-2q-130 -149 -295 -149h-2q-96 0 -155.5 56t-59.5 157zM256 256q0 -78 39 -118t102 -40q68 0 119 33q43 31 57.5 57.5t14.5 71.5v289q-188 -66 -262 -135q-70 -63 -70 -158z" />
<glyph unicode="b" horiz-adv-x="1024" d="M6 1274v35l62 18q209 63 235 72l10 -4v-625q33 78 108 125t169 47q162 0 265 -129t103 -321q0 -225 -137 -368.5t-342 -143.5q-125 0 -231.5 41.5t-106.5 93.5v1044q0 76 -18.5 97.5t-81.5 21.5q-14 0 -35 -4zM313 152q0 -47 58.5 -77t140.5 -30q121 0 190 88 q76 94 76 270q0 201 -80 314q-68 96 -182 96q-82 0 -142.5 -48t-60.5 -114v-499z" />
<glyph unicode="c" horiz-adv-x="909" d="M51 434q0 260 172 404q127 104 277 104q129 0 222 -62.5t93 -148.5q0 -35 -28.5 -60.5t-67.5 -25.5q-72 0 -98 94l-13 45q-16 57 -40.5 78t-80.5 21q-125 0 -201.5 -98.5t-76.5 -258.5q0 -176 88 -287.5t229 -111.5q88 0 151.5 41.5t137.5 150.5l29 -18 q-88 -172 -168 -235q-104 -86 -236 -86q-170 0 -279.5 128t-109.5 326z" />
<glyph unicode="d" horiz-adv-x="1024" d="M55 420q0 217 125 369.5t301 152.5q111 0 215 -88v320q0 63 -18.5 83.5t-75.5 20.5q-29 0 -45 -2v33q186 49 301 90l10 -4v-1162q0 -72 17.5 -94t72.5 -22q12 0 48 2v-33l-301 -106l-9 6v131q-98 -137 -262 -137q-170 0 -274.5 121.5t-104.5 318.5zM231 502 q0 -188 77 -302t206 -114q96 0 152 66q30 34 30 57v471q0 82 -62.5 143.5t-146.5 61.5q-117 0 -186.5 -104.5t-69.5 -278.5z" />
<glyph unicode="e" horiz-adv-x="909" d="M51 444q0 219 117 358.5t307 139.5q184 0 285 -141q59 -82 69 -234h-630q8 -129 25.5 -196.5t68.5 -137.5q85 -112 225 -112h2q100 0 169 49t147 166l32 -14q-123 -342 -428 -342q-180 0 -284.5 125.5t-104.5 338.5zM203 633h418q-18 129 -60.5 182t-140.5 53 q-86 0 -143.5 -60t-73.5 -175z" />
<glyph unicode="f" horiz-adv-x="681" d="M41 0v31q111 6 140.5 37.5t29.5 144.5v643h-168v66h168q2 123 16.5 191.5t55.5 137.5q86 147 288 148q92 0 152.5 -36t60.5 -91q0 -35 -24.5 -59.5t-61.5 -24.5q-49 0 -92 74q-48 79 -107 79h-1q-115 0 -115 -182v-237h250v-66h-250v-643q0 -115 33 -146.5t157 -35.5v-31 h-532z" />
<glyph unicode="g" horiz-adv-x="1024" d="M57 -248q0 57 45 113.5t156 136.5q-66 31 -87 53.5t-21 55.5q0 59 94 141q47 41 88 82q-102 51 -146.5 114.5t-44.5 159.5q0 139 99.5 236.5t242.5 97.5q82 0 164 -31l45 -16q59 -20 113 -21h158v-79h-170q38 -86 38 -168q0 -162 -106.5 -242t-212.5 -80q-23 0 -78 6 l-39 4q-41 -12 -82 -55t-41 -74q0 -47 160 -55l264 -12q113 -4 180.5 -63.5t67.5 -155.5q0 -119 -123 -215q-170 -131 -409 -131q-147 0 -251 58t-104 140zM201 -180q0 -68 80.5 -109t216.5 -41q174 0 281.5 54.5t107.5 144.5q0 57 -56.5 78.5t-197.5 21.5q-203 0 -332 27 q-61 -74 -80.5 -107.5t-19.5 -68.5zM311 686q0 -147 58.5 -238.5t152.5 -91.5q70 0 111 50.5t41 134.5q0 135 -62 247q-51 96 -149 97q-72 0 -112 -51.5t-40 -141.5v-6z" />
<glyph unicode="h" horiz-adv-x="1024" d="M18 0v31q88 12 110 40.5t22 137.5v965q0 66 -19.5 85t-85.5 19q-18 0 -25 -2v33l56 16q158 47 235 74l11 -6v-623q72 92 141 132t160 40q252 0 251 -326v-407q0 -106 19.5 -134t103.5 -44v-31h-434v31q90 10 114.5 40.5t24.5 137.5v405q0 217 -151 217 q-61 0 -112.5 -28.5t-116.5 -100.5v-493q0 -106 24.5 -137t114.5 -41v-31h-443z" />
<glyph unicode="i" horiz-adv-x="569" d="M33 0v31q106 6 134 36.5t28 145.5v465q0 72 -14.5 100.5t-53.5 28.5q-49 0 -86 -10v32l317 113l9 -8v-719q0 -115 25.5 -145.5t125.5 -38.5v-31h-485zM160 1294q0 43 30.5 74t73.5 31q45 0 75 -31t30 -74q0 -45 -31 -74.5t-76 -29.5q-43 0 -72.5 29.5t-29.5 74.5z" />
<glyph unicode="j" horiz-adv-x="569" d="M-143 -334q0 33 24.5 56.5t59.5 23.5q47 0 98 -65q47 -57 86 -58q47 0 70 37q28 49 28 235v13v776q0 123 -65 123q-49 0 -82 -6l-10 -2v32q164 51 319 111l10 -6v-936q0 -219 -89 -332.5t-259 -113.5q-84 0 -137 31.5t-53 80.5zM188 1294q0 43 31 74t74 31t73.5 -31 t30.5 -74q0 -45 -30.5 -74.5t-75.5 -29.5q-43 0 -73 29.5t-30 74.5z" />
<glyph unicode="k" horiz-adv-x="1024" d="M14 0v31q111 18 132.5 37.5t21.5 99.5v987q0 74 -18.5 99.5t-69.5 25.5q-12 0 -66 -4v33l62 16q123 33 256 74l8 -4v-860l281 249q47 43 47 72q0 20 -21.5 27.5t-81.5 9.5v29h418v-31q-102 0 -181 -44t-261 -214l-60 -55l314 -398q111 -141 239 -149v-31h-446v31h39 q43 0 43 30q0 18 -23 48l-307 405v-377q0 -53 25.5 -77.5t87.5 -26.5l41 -2v-31h-480z" />
<glyph unicode="l" horiz-adv-x="569" d="M39 1276v33q195 47 323 90l11 -8v-1213q0 -86 28.5 -113.5t124.5 -33.5v-31h-483v31q96 8 127 39.5t31 117.5v961q0 74 -18.5 102.5t-67.5 28.5q-43 0 -76 -4z" />
<glyph unicode="m" horiz-adv-x="1593" d="M33 0v31q86 2 114.5 31.5t28.5 117.5v508q0 76 -16.5 105.5t-55.5 29.5q-31 0 -65 -8v35q139 39 285 92l16 -6v-152h4q92 96 163 127t150 31q162 0 217 -172q160 172 334 172q238 0 238 -369v-415q0 -68 20.5 -93.5t67.5 -29.5l53 -4v-31h-446v31q86 8 109.5 35.5 t23.5 117.5v422q0 123 -36 176.5t-122 53.5q-72 0 -122 -29t-97 -96v-516q0 -98 29.5 -130t117.5 -34v-31h-458v31q90 6 114.5 29.5t24.5 115.5v432q0 227 -133 228q-57 0 -121.5 -26t-95.5 -62q-27 -31 -27 -35v-570q0 -66 29 -87t110 -25v-31h-454z" />
<glyph unicode="n" horiz-adv-x="1024" d="M33 815v35q143 41 280 92l17 -6v-160h2q145 166 295 166q117 0 179 -82t62 -233v-453q0 -82 25 -108.5t100 -34.5v-31h-426l2 31q76 6 101.5 44t25.5 140v408q0 206 -148 206h-1q-51 0 -96 -24.5t-115 -91.5v-566q0 -61 27.5 -85.5t105.5 -30.5v-31h-432v31 q78 6 102.5 37.5t24.5 124.5v497q0 76 -14.5 104.5t-57.5 28.5q-41 0 -59 -8z" />
<glyph unicode="o" horiz-adv-x="1024" d="M59 467q0 213 127 344t334 131q190 0 316.5 -130t126.5 -339q0 -215 -128 -354t-333 -139q-188 0 -315.5 138t-127.5 349zM244 559q0 -262 108 -420q70 -102 185 -102q113 0 177 101.5t64 279.5q0 233 -102 364q-82 102 -195 103q-106 0 -171.5 -87t-65.5 -239z" />
<glyph unicode="p" horiz-adv-x="1024" d="M10 -410q90 8 117 35t27 107v958q0 72 -16.5 94.5t-67.5 22.5q-33 0 -52 -2v33q143 43 295 104l13 -4v-158q129 162 295 162q150 0 246 -123t96 -313q0 -223 -124 -374.5t-307 -151.5q-63 0 -107 18t-99 70v-322q0 -96 32.5 -124t147.5 -30v-36h-496v34zM326 180 q0 -45 70.5 -90t142.5 -45q111 0 179 104.5t68 274.5q0 180 -68.5 287.5t-182.5 107.5q-72 0 -140.5 -45t-68.5 -90v-504z" />
<glyph unicode="q" horiz-adv-x="1024" d="M49 420q0 221 130 371.5t321 150.5q115 0 237 -72l111 66h22v-1225q0 -66 25 -89t104 -32v-34h-483v34q109 8 145.5 39t36.5 117v385q-138 -151 -319 -151h-2q-143 0 -235.5 122.5t-92.5 317.5zM225 494q0 -106 32 -197.5t83 -136.5q61 -55 154 -56q109 0 180 66 q24 22 24 90v422q0 201 -190 201q-131 0 -207 -104.5t-76 -284.5z" />
<glyph unicode="r" horiz-adv-x="681" d="M10 0v31q98 18 122 40.5t24 100.5v512q0 68 -15.5 95.5t-54.5 27.5q-33 0 -72 -8v32q129 41 303 111l11 -4v-188q78 111 130 151.5t115 40.5q53 0 83 -28.5t30 -79.5q0 -43 -21.5 -68t-58.5 -25q-39 0 -82 41q-33 31 -53 31q-43 0 -93 -59.5t-50 -108.5v-461 q0 -88 34.5 -118.5t139.5 -34.5v-31h-492z" />
<glyph unicode="s" horiz-adv-x="796" d="M104 688q0 119 77 185.5t206 66.5q90 0 137 -22q37 -16 58 -17q14 0 32 21h23l10 -279h-31q-35 139 -87 195.5t-144 56.5q-70 0 -112 -35t-42 -104q0 -35 23.5 -75t64.5 -65l213 -129q102 -61 141.5 -114.5t39.5 -136.5q0 -102 -85 -179t-202 -77q-96 0 -150 18 q-55 18 -94 18q-35 0 -49 -24h-27v321h33q33 -150 94.5 -219t165.5 -69q76 0 123 43t47 108q0 94 -108 154l-111 61q-246 137 -246 297z" />
<glyph unicode="t" horiz-adv-x="569" d="M27 870q0 16 34 39q78 45 199 219q4 6 19.5 26t21.5 32q14 0 14 -27v-237h207v-66h-207v-586q0 -98 25 -141t82 -43q62 0 123 72l26 -23q-97 -155 -245 -155h-2q-180 0 -181 260v616h-108q-8 6 -8 14z" />
<glyph unicode="u" horiz-adv-x="1024" d="M18 893v29h299v-662q0 -70 42 -116t104 -46q100 0 172 64q27 25 37 46t10 73v473q0 80 -28.5 103.5t-123.5 29.5v35h324v-703q0 -72 23.5 -94.5t93.5 -22.5h12v-28q-160 -43 -281 -92l-10 6v168h-4q-129 -176 -293 -176q-117 0 -183.5 71.5t-66.5 190.5v514 q0 76 -26.5 104.5t-100.5 32.5z" />
<glyph unicode="v" horiz-adv-x="1024" d="M39 891v31h401v-31q-53 -4 -73.5 -16.5t-20.5 -38.5q0 -33 19 -78l208 -525l203 531q12 31 12 61q0 57 -96 66v31h285v-31q-47 -4 -69.5 -30.5t-63.5 -129.5l-262 -657q-41 -103 -58 -103q-16 0 -37 54q-4 6 -8 20t-8 23l-246 587q-66 156 -96.5 194t-89.5 42z" />
<glyph unicode="w" horiz-adv-x="1478" d="M43 891v31h369v-31q-53 -6 -74 -20.5t-21 -47.5q0 -31 13 -61l202 -535l187 408l-41 115q-29 82 -56.5 108.5t-84.5 32.5v31h415v-31q-72 -10 -95 -24.5t-23 -47.5t34 -123l172 -458l185 454q35 86 35 137q0 25 -19.5 38.5t-71.5 23.5v31h252v-31q-31 -10 -45 -29.5 t-39 -81.5l-282 -708q-41 -100 -58 -101q-10 0 -17 13.5t-32 74.5l-186 484l-230 -492q-37 -80 -51 -80q-18 0 -53 90l-276 701q-31 80 -51.5 102.5t-57.5 26.5z" />
<glyph unicode="x" horiz-adv-x="1024" d="M35 0v31q51 4 78.5 23.5t70.5 80.5l234 338l-193 295q-47 72 -79.5 97.5t-77.5 25.5h-19v31h424v-31q-88 -2 -88 -45t94 -182q27 -37 29 -41q10 14 61 90q10 18 24.5 38.5t22 33t15.5 24.5t11 21.5t3 15.5q0 39 -82 45v31h324v-31q-104 -4 -166 -90l-170 -246l262 -401 q80 -123 168 -123v-31h-412v31q51 4 66.5 13t15.5 36q0 18 -12 37l-186 286l-162 -251q-41 -63 -41 -84q0 -37 82 -37v-31h-297z" />
<glyph unicode="y" horiz-adv-x="1024" d="M29 893v29h420v-31q-66 -2 -91.5 -14.5t-25.5 -40.5q0 -23 26 -84l230 -512l198 565q8 18 9 37q0 49 -95 49v31h273v-31q-37 -4 -59.5 -26.5t-43.5 -78.5l-307 -837q-80 -217 -160.5 -306t-197.5 -89q-66 0 -105 33.5t-39 84.5q0 39 26 67t63 28q59 0 106 -27 q27 -14 53 -14q43 0 103 90q29 41 55.5 116.5t26.5 104.5q0 27 -86 207l-271 577q-27 59 -108 72z" />
<glyph unicode="z" horiz-adv-x="909" d="M55 0v31l545 829h-276q-96 0 -130 -33.5t-49 -146.5h-36l8 242h708v-31l-551 -830h273q172 0 217 56q29 35 55 170l37 -8l-31 -279h-770z" />
<glyph unicode="{" horiz-adv-x="983" d="M205 512q102 31 138 78t36 153v365q0 178 90 233q78 49 248 52v-23q-106 -27 -146.5 -82t-40.5 -170v-344q0 -127 -38.5 -180t-153.5 -84q115 -29 153.5 -82t38.5 -180v-344q0 -115 40.5 -170t146.5 -82v-23q-172 2 -248 52q-90 57 -90 235v363q0 106 -36 153t-138 80z " />
<glyph unicode="|" horiz-adv-x="409" d="M137 -29v1413h135v-1413h-135z" />
<glyph unicode="}" horiz-adv-x="983" d="M266 -348q106 27 146.5 82t40.5 170v344q0 127 38.5 180t153.5 84q-115 29 -153.5 81t-38.5 181v344q0 115 -40 170t-147 82v23q172 -2 248 -52q90 -57 90 -235v-363q0 -106 36 -153t138 -78q-102 -33 -138 -80t-36 -153v-365q0 -178 -90 -233q-78 -49 -248 -52v23z" />
<glyph unicode="~" horiz-adv-x="1107" d="M82 477q90 178 256 178q51 0 94 -12t146 -57q4 -2 35.5 -17.5t53 -24.5t53.5 -18.5t54 -9.5q63 0 101 37t79 113l74 -105q-66 -96 -125 -136t-131 -40q-20 0 -35.5 1t-34 6t-28.5 8t-31.5 13.5t-31 14.5t-40 21.5t-45.5 23.5q-102 51 -198 51q-53 0 -99.5 -40t-72.5 -109 z" />
<glyph unicode="&#xa1;" horiz-adv-x="675" d="M197 -285q0 29 4 78l92 785h26l91 -781q4 -37 4 -80q0 -72 -30 -117.5t-79 -45.5q-109 0 -108 161zM197 854q0 45 30.5 74.5t77.5 29.5t78 -29.5t31 -74.5q0 -47 -32 -80t-79 -33q-45 0 -75.5 33t-30.5 80z" />
<glyph unicode="&#xa2;" horiz-adv-x="1024" d="M109 449q0 207 130 350t320 143q43 0 105 -10l90 254h71l-96 -277q154 -61 154 -172q0 -41 -24.5 -66.5t-63.5 -25.5t-66 23.5t-53 83.5l-207 -596q63 -25 121 -25q90 0 155.5 45t145.5 160l27 -17q-51 -106 -89 -159.5t-92 -100.5q-90 -78 -209 -77q-53 0 -116 18 l-101 -283h-69l104 308q-102 57 -151 131q-86 125 -86 293zM266 532q0 -111 32 -186t108 -145l235 661q-47 18 -96 19q-125 0 -202 -95.5t-77 -253.5z" />
<glyph unicode="&#xa3;" horiz-adv-x="1024" d="M25 111q0 70 51 112.5t135 42.5q45 0 94 -10q6 25 6 43q0 96 -32 305l-11 68h-221v92h219q-14 74 -14 141q0 219 108.5 349t290.5 130q115 0 191 -54t76 -136q0 -47 -29 -78t-74 -31t-61.5 28t-18.5 110q-2 106 -114 106q-92 0 -143.5 -73.5t-51.5 -206.5q0 -90 23 -285 h256v-92h-248q2 -41 2 -125q0 -63 -51 -320q172 -72 305 -71q139 0 231 100q31 33 47 33q12 0 13 -10q0 -29 -30 -87.5t-63 -93.5q-106 -113 -249 -112q-68 0 -130.5 26.5t-166.5 98.5q-61 -74 -104.5 -100.5t-96.5 -26.5q-63 0 -101 33.5t-38 93.5zM78 117 q0 -35 23.5 -55.5t62.5 -20.5q57 0 96 51q31 37 31 64q0 14 -36 25.5t-75 11.5q-102 0 -102 -76z" />
<glyph unicode="&#xa4;" horiz-adv-x="1024" d="M-45 82l201 197q-84 121 -84 258q0 141 84 258l-201 200l102 99l197 -197q125 80 260 80q141 0 256 -80l201 197l98 -99l-197 -200q80 -119 80 -256q0 -135 -80 -260l197 -197l-98 -102l-201 200q-121 -84 -256 -84q-139 0 -260 84l-197 -200zM211 539q0 -129 89 -220.5 t214 -91.5q127 0 213 91.5t86 222.5q0 127 -88 216t-215 89q-123 0 -211 -90t-88 -217z" />
<glyph unicode="&#xa5;" horiz-adv-x="1024" d="M-109 1317v39h498v-39q-74 -2 -103.5 -14.5t-29.5 -42.5q0 -41 27 -95l241 -452l230 450q29 53 28 92q0 27 -29.5 44.5t-74.5 17.5h-29v39h400v-39q-80 -16 -134.5 -65.5t-107.5 -153.5l-189 -377h300v-82h-340l-15 -29v-155h355v-82h-355v-150q0 -109 33 -145.5 t131 -38.5v-39h-500v39q102 4 132 42t30 165v127h-356v82h356v155l-14 29h-342v82h295l-195 354q-84 152 -127 195t-115 47z" />
<glyph unicode="&#xa6;" horiz-adv-x="409" d="M137 -29v566h135v-566h-135zM137 819v565h135v-565h-135z" />
<glyph unicode="&#xa7;" horiz-adv-x="1024" d="M143 586q0 104 66.5 173.5t167.5 69.5q33 0 53 -2q-123 102 -164 164t-41 144q0 113 79 181t206 68q113 0 187.5 -57t74.5 -143q0 -51 -27.5 -80t-76.5 -29q-43 0 -70 24.5t-27 63.5q0 53 54 90q16 14 16 23q0 29 -37 47t-90 18q-78 0 -126 -39.5t-48 -105.5 q0 -86 70 -145l280 -232q182 -152 182 -317q0 -113 -67.5 -179.5t-181.5 -66.5h-25q115 -100 154 -159.5t39 -139.5q0 -117 -81 -188.5t-214 -71.5q-119 0 -201 59.5t-82 145.5q0 47 31.5 78.5t79.5 31.5q41 0 69.5 -24.5t28.5 -61.5q0 -45 -47 -84q-23 -18 -23 -30 q0 -29 44 -50.5t102 -21.5q82 0 130 43t48 115q0 59 -42 113.5t-140 121.5q-188 129 -269.5 234.5t-81.5 218.5zM252 649q0 -86 94 -180q172 -170 279 -170q55 0 98 41t43 92q0 84 -109 193q-164 160 -268 159q-59 0 -98 -38.5t-39 -96.5z" />
<glyph unicode="&#xa8;" horiz-adv-x="681" d="M37 1174q0 41 29.5 70.5t70.5 29.5t72 -31t31 -72t-31 -70.5t-74 -29.5q-41 0 -69.5 29.5t-28.5 73.5zM444 1174q0 41 30 70.5t71 29.5t71.5 -31t30.5 -72t-30.5 -70.5t-73.5 -29.5q-41 0 -70 29.5t-29 73.5z" />
<glyph unicode="&#xa9;" horiz-adv-x="1556" d="M78 676q0 299 205.5 503.5t507.5 204.5q285 0 486.5 -207.5t201.5 -500.5q0 -297 -203 -501t-496 -204q-295 0 -498.5 205t-203.5 500zM190 678q0 -254 174.5 -437.5t416 -183.5t413.5 184.5t172 442.5q0 254 -175 434t-419 180q-236 0 -409 -185t-173 -435zM389 674 q0 188 125 302t328 114q113 0 219 -46q27 -12 26 -34v-146h-34q-12 90 -69.5 137.5t-143.5 47.5q-135 0 -214 -99.5t-79 -259.5q0 -168 83 -264t220 -96q84 0 140.5 42t96.5 136h33l-35 -156q-4 -20 -107.5 -41.5t-195.5 -21.5q-180 0 -286.5 105.5t-106.5 279.5z" />
<glyph unicode="&#xaa;" horiz-adv-x="565" d="M8 946q0 66 45 105q41 35 84 55t185 74v61q0 86 -74 86q-35 0 -63.5 -14.5t-28.5 -32.5q0 -4 4 -29q2 -6 2 -16q0 -20 -18.5 -35.5t-45.5 -15.5q-29 0 -47 18.5t-18 44.5q0 59 62.5 98t158.5 39q215 0 215 -196v-236q0 -43 5 -57t22 -14q30 -1 57 24v-37 q-63 -61 -121 -61q-41 0 -61.5 20.5t-30.5 69.5q-96 -90 -186 -90q-63 0 -104.5 39t-41.5 100zM137 993q0 -37 22.5 -63.5t55.5 -26.5q39 0 86 23q23 20 23 45v157q-109 -39 -148 -67.5t-39 -67.5z" />
<glyph unicode="&#xab;" horiz-adv-x="1024" d="M86 465l166 149q25 23 97.5 91.5t116.5 107.5t52 39q23 0 23 -23q0 -12 -103 -147l-172 -217q47 -55 172 -219q102 -133 102.5 -155.5t-24.5 -22.5q-8 0 -54 44t-112.5 109.5t-97.5 93.5zM479 465l166 149q25 23 97.5 91.5t116.5 107.5t52 39q23 0 23 -23 q0 -12 -103 -147l-172 -217q47 -55 172 -219q102 -133 102.5 -155.5t-24.5 -22.5q-8 0 -54 44t-112.5 109.5t-97.5 93.5z" />
<glyph unicode="&#xac;" horiz-adv-x="1228" d="M98 670v135h1032v-569h-135v434h-897z" />
<glyph unicode="&#xad;" horiz-adv-x="681" d="M80 397v129h504v-129h-504z" />
<glyph unicode="&#xae;" horiz-adv-x="1556" d="M78 680q0 297 205.5 500.5t504.5 203.5q287 0 489 -207.5t202 -502.5t-203 -499t-496 -204q-297 0 -499.5 205t-202.5 504zM190 678q0 -254 174.5 -437.5t415.5 -183.5q240 0 413 183.5t173 435.5q0 260 -173 441t-419 181q-236 0 -410 -185t-174 -435zM449 311l2 31 q72 6 85 22.5t13 90.5v471q0 68 -14.5 85t-81.5 23v31h352q115 0 178.5 -54.5t63.5 -146.5q0 -66 -41 -121t-121 -79l116 -162q80 -109 160 -174v-17h-131q-57 0 -145 162q-31 57 -107 170h-98v-188q0 -72 14.5 -90.5t81.5 -22.5v-31h-327zM680 682h88q66 0 103.5 49 t37.5 125q0 170 -151 170h-78v-344z" />
<glyph unicode="&#xaf;" horiz-adv-x="681" d="M23 1120v111h636v-111h-636z" />
<glyph unicode="&#xb0;" horiz-adv-x="819" d="M117 1094q0 123 86 206.5t211 83.5q119 0 203.5 -85.5t84.5 -206.5q0 -123 -85 -208t-207 -85q-125 0 -209 85t-84 210zM197 1092q0 -92 62.5 -158t150.5 -66t150.5 67t62.5 159q0 90 -64.5 155.5t-152.5 65.5q-84 0 -146.5 -66.5t-62.5 -156.5z" />
<glyph unicode="&#xb1;" d="M98 -43h1207v-135h-1207v135zM98 496v135h535v397h135v-397h537v-135h-537v-428h-135v428h-535z" />
<glyph unicode="&#xb2;" horiz-adv-x="614" d="M2 1141q45 131 112.5 187t194.5 56q119 0 188.5 -62t69.5 -161q0 -76 -39 -144.5t-137 -164.5l-172 -166h232q82 0 118 55l37 -14l-80 -174h-514v49l207 221q160 172 160 283q0 66 -42 111t-104 45q-111 0 -180 -152z" />
<glyph unicode="&#xb3;" horiz-adv-x="614" d="M27 651q0 63 75 64q31 0 84 -39q57 -41 105 -41q61 0 100 41t39 104q0 80 -48 124t-134 44q-8 0 -58 -6v59q106 37 150.5 77t44.5 96q0 96 -115 96q-55 0 -95 -26.5t-81 -92.5l-51 39q55 104 119.5 149t156.5 45q94 0 158 -49t64 -121q0 -106 -123 -167v-5 q88 -23 133 -85t45 -140q0 -123 -106.5 -201.5t-276.5 -78.5q-82 0 -134 32.5t-52 81.5z" />
<glyph unicode="&#xb4;" horiz-adv-x="681" d="M190 1038l302 303q47 47 86 48q72 0 71 -66q0 -47 -61 -86l-316 -199h-82z" />
<glyph unicode="&#xb5;" horiz-adv-x="1024" d="M74 -289q0 59 24.5 219t24.5 181v811h180v-605q0 -104 45 -157.5t127 -53.5q162 0 225 130v686h181v-725q0 -141 63 -142q39 0 105 60v-19q-53 -68 -89 -92t-94 -24q-61 0 -107 49t-48 135h-4q-100 -184 -269 -184q-88 0 -145 35.5t-107 115.5q2 -49 39 -205.5t37 -214.5 q0 -158 -98 -157q-43 0 -66.5 44t-23.5 113z" />
<glyph unicode="&#xb6;" horiz-adv-x="1212" d="M123 965q0 201 102.5 296t325.5 95h539v-39q-115 -10 -148 -50t-33 -157v-1194q0 -111 32 -144.5t149 -41.5v-45h-316v1626h-119v-1626h-317v45q119 8 150.5 45t31.5 166v618q-203 16 -300 107.5t-97 298.5zM279 969q0 -178 55 -264.5t186 -100.5v707q-141 -14 -191 -89 t-50 -253z" />
<glyph unicode="&#xb7;" horiz-adv-x="512" d="M143 520q0 47 34 81t81 34q45 0 79 -35t34 -82q0 -45 -34 -77.5t-81 -32.5t-80 32.5t-33 79.5z" />
<glyph unicode="&#xb8;" horiz-adv-x="681" d="M106 -408l29 64q74 -25 133 -25q51 0 82 25t31 65q0 39 -24.5 56.5t-84.5 17.5q-35 0 -57 -8l-14 10l84 203h71l-51 -133q31 6 53 6q84 0 130.5 -37t46.5 -104q0 -80 -69 -126t-187 -46q-92 0 -173 32z" />
<glyph unicode="&#xb9;" horiz-adv-x="614" d="M117 553v49q66 4 87 18.5t21 49.5v520q0 61 -18 61q-25 0 -86 -28v49l241 112l29 -8v-694q0 -41 26.5 -60.5t90.5 -19.5v-49h-391z" />
<glyph unicode="&#xba;" horiz-adv-x="634" d="M12 1092q0 131 86 211.5t228 80.5q131 0 214 -76.5t83 -197.5q0 -129 -89.5 -216t-224.5 -87q-129 0 -213 80t-84 205zM162 1165q0 -129 51 -221q39 -70 115 -70q145 1 145 183q0 115 -47 187.5t-123 72.5q-63 0 -102 -42t-39 -110z" />
<glyph unicode="&#xbb;" horiz-adv-x="1024" d="M88 90q0 12 102 148l172 217q-47 55 -172 219q-102 133 -102 155.5t25 22.5q8 0 54 -44t112.5 -109.5t97.5 -94.5l166 -149l-166 -150q-25 -23 -97.5 -91.5t-116.5 -107t-52 -38.5q-23 0 -23 22zM483 90q0 12 103 148l172 217q-47 55 -172 219q-102 133 -102.5 155.5 t24.5 22.5q8 0 54 -44t112.5 -109.5t97.5 -94.5l166 -149l-166 -150q-25 -23 -97.5 -91.5t-116.5 -107t-52 -38.5q-23 0 -23 22z" />
<glyph unicode="&#xbc;" horiz-adv-x="1536" d="M86 553v49q66 4 87.5 18.5t21.5 49.5v520q0 61 -19 61q-25 0 -86 -28v49l221 112l29 -8v-694q0 -41 26.5 -60.5t90.5 -19.5v-49h-371zM272 -29l928 1413h94l-921 -1413h-101zM836 184v101l415 544h97v-528h112v-117h-112v-184h-144v184h-368zM928 301h276v367z" />
<glyph unicode="&#xbd;" horiz-adv-x="1536" d="M74 553v49q66 4 87 18.5t21 49.5v520q0 61 -18 61q-25 0 -86 -28v49l221 112l29 -8v-694q0 -41 26.5 -60.5t89.5 -19.5v-49h-370zM197 -29l927 1413h95l-922 -1413h-100zM913 588q45 131 113 187t195 56q119 0 188.5 -62t69.5 -161q0 -76 -39 -144.5t-137 -164.5 l-173 -166h232q82 0 119 55l37 -14l-80 -174h-514v49l206 221q160 172 160 283q0 66 -42 111t-103 45q-111 0 -180 -152z" />
<glyph unicode="&#xbe;" horiz-adv-x="1536" d="M27 651q0 63 75 64q31 0 84 -39q57 -41 105 -41q61 0 100 41t39 104q0 80 -48 124t-134 44q-8 0 -58 -6v59q106 37 150.5 77t44.5 96q0 96 -115 96q-55 0 -95 -26.5t-81 -92.5l-51 39q55 104 119.5 149t156.5 45q94 0 158 -49t64 -121q0 -106 -123 -167v-5 q88 -23 133 -85t45 -140q0 -123 -106.5 -201.5t-276.5 -78.5q-82 0 -134 32.5t-52 81.5zM283 -29l927 1413h95l-922 -1413h-100zM846 184v101l416 544h96v-528h112v-117h-112v-184h-144v184h-368zM938 301h276v367z" />
<glyph unicode="&#xbf;" horiz-adv-x="909" d="M61 -129q0 92 42 171t173 245q101 125 134 315h34q-4 -172 -118 -422q-76 -164 -76 -321q0 -102 64.5 -173t158.5 -71q74 0 133.5 39t59.5 88q0 23 -35 63q-43 49 -43 88t22.5 61.5t61.5 22.5q98 0 98 -126.5t-95 -211.5t-237 -85q-84 0 -167 32.5t-136 85.5 q-74 74 -74 199zM315 852q0 45 31 74.5t78 29.5t77.5 -29.5t30.5 -74.5q0 -47 -31.5 -80t-78.5 -33q-45 0 -76 33t-31 80z" />
<glyph unicode="&#xc0;" horiz-adv-x="1478" d="M31 0v39q86 8 125 62.5t133 279.5l422 999h41l503 -1153q45 -106 81 -143t112 -45v-39h-522v39q82 0 112 18q29 14 29 49q0 53 -39 144l-84 192h-536l-95 -233q-18 -47 -18 -86q0 -47 33.5 -65.5t109.5 -18.5v-39h-407zM442 526h473l-237 564zM465 1835q0 66 74 66 q43 0 88 -48l297 -303h-82l-316 197q-61 39 -61 88z" />
<glyph unicode="&#xc1;" horiz-adv-x="1478" d="M31 0v39q86 8 125 62.5t133 279.5l422 999h41l503 -1153q45 -106 81 -143t112 -45v-39h-522v39q82 0 112 18q29 14 29 49q0 53 -39 144l-84 192h-536l-95 -233q-18 -47 -18 -86q0 -47 33.5 -65.5t109.5 -18.5v-39h-407zM442 526h473l-237 564zM565 1550l301 303 q47 47 86 48q72 0 72 -66q0 -47 -61 -86l-316 -199h-82z" />
<glyph unicode="&#xc2;" horiz-adv-x="1478" d="M31 0v39q86 8 125 62.5t133 279.5l422 999h41l503 -1153q45 -106 81 -143t112 -45v-39h-522v39q82 0 112 18q29 14 29 49q0 53 -39 144l-84 192h-536l-95 -233q-18 -47 -18 -86q0 -47 33.5 -65.5t109.5 -18.5v-39h-407zM414 1550l254 342h127l256 -342h-70l-250 211 l-248 -211h-69zM442 526h473l-237 564z" />
<glyph unicode="&#xc3;" horiz-adv-x="1478" d="M31 0v39q86 8 125 62.5t133 279.5l422 999h41l503 -1153q45 -106 81 -143t112 -45v-39h-522v39q82 0 112 18q29 14 29 49q0 53 -39 144l-84 192h-536l-95 -233q-18 -47 -18 -86q0 -47 33.5 -65.5t109.5 -18.5v-39h-407zM397 1602q23 100 77 153t130 53q70 0 144 -36 l49 -25q57 -31 108 -31q35 0 58.5 23t50.5 80h59q-33 -117 -82 -167t-133 -50q-66 0 -166 49l-47 22q-49 23 -84 23q-72 0 -104 -94h-60zM442 526h473l-237 564z" />
<glyph unicode="&#xc4;" horiz-adv-x="1478" d="M31 0v39q86 8 125 62.5t133 279.5l422 999h41l503 -1153q45 -106 81 -143t112 -45v-39h-522v39q82 0 112 18q29 14 29 49q0 53 -39 144l-84 192h-536l-95 -233q-18 -47 -18 -86q0 -47 33.5 -65.5t109.5 -18.5v-39h-407zM430 1686q0 41 29.5 70.5t70.5 29.5t72 -31t31 -72 t-31 -70.5t-74 -29.5q-41 0 -69.5 29.5t-28.5 73.5zM442 526h473l-237 564zM838 1686q0 41 29.5 70.5t70.5 29.5t71.5 -31t30.5 -72t-30.5 -70.5t-73.5 -29.5q-41 0 -69.5 29.5t-28.5 73.5z" />
<glyph unicode="&#xc5;" horiz-adv-x="1478" d="M31 0v39q86 8 125 62.5t133 279.5l422 999h41l503 -1153q45 -106 81 -143t112 -45v-39h-522v39q82 0 112 18q29 14 29 49q0 53 -39 144l-84 192h-536l-95 -233q-18 -47 -18 -86q0 -47 33.5 -65.5t109.5 -18.5v-39h-407zM442 526h473l-237 564zM532 1765q0 84 60.5 143.5 t146.5 59.5q82 0 141.5 -60.5t59.5 -144.5t-60.5 -143t-146.5 -59q-84 0 -142.5 59t-58.5 145zM602 1765q0 -57 39 -96t92 -39q57 0 97 39t40 96q0 55 -39.5 94t-97.5 39q-53 0 -92 -39.5t-39 -93.5z" />
<glyph unicode="&#xc6;" horiz-adv-x="1820" d="M0 0v39q66 10 100.5 40t79.5 120l502 991q18 35 18 57q0 68 -184 68v41h1155v-289h-47q-20 139 -85.5 177t-291.5 38h-172q-57 0 -57 -76v-456h213q158 0 220 39.5t65 160.5h43v-481h-43q-14 121 -58.5 163t-150.5 42h-289v-481q0 -78 22.5 -96.5t120.5 -18.5h150 q174 0 250.5 49t156.5 217h49l-90 -344h-1042v39l35 4q92 10 118.5 46t26.5 140v303h-360q-188 -358 -189 -434q0 -47 137 -59h3v-39h-406zM492 612h323v654z" />
<glyph unicode="&#xc7;" horiz-adv-x="1366" d="M57 674q0 385 285 588q176 123 399 122q160 0 301 -49q59 -18 82 -18q66 0 84 67h43l19 -462h-47q-23 160 -152 270.5t-289 110.5q-221 0 -354 -163t-133 -431q0 -326 137 -488q135 -160 371 -160q127 0 233 49t221 158l39 -37q-88 -125 -235.5 -192.5t-323.5 -67.5 q-31 0 -49 2l-41 -106q31 6 53 6q84 0 130.5 -37t46.5 -104q0 -80 -69 -126t-187 -46q-92 0 -172 32l28 64q74 -25 133 -25q51 0 82 25t31 65q0 39 -24.5 56.5t-84.5 17.5q-35 0 -57 -8l-14 10l75 183q-231 31 -380 186q-180 190 -181 508z" />
<glyph unicode="&#xc8;" horiz-adv-x="1251" d="M25 0v39q117 8 147.5 42t30.5 152v893q0 115 -32 150t-146 41v39h1085l8 -293h-51q-23 137 -80 176t-235 39h-269q-45 0 -58 -13.5t-13 -60.5v-450h309q129 0 171 36.5t60 159.5h47v-479h-47q-18 129 -59 164t-172 35h-309v-498q0 -61 43 -78.5t163 -17.5h74 q219 0 311.5 53t161.5 217h58l-95 -346h-1103zM365 1835q0 66 73 66q43 0 88 -48l297 -303h-82l-315 197q-61 39 -61 88z" />
<glyph unicode="&#xc9;" horiz-adv-x="1251" d="M25 0v39q117 8 147.5 42t30.5 152v893q0 115 -32 150t-146 41v39h1085l8 -293h-51q-23 137 -80 176t-235 39h-269q-45 0 -58 -13.5t-13 -60.5v-450h309q129 0 171 36.5t60 159.5h47v-479h-47q-18 129 -59 164t-172 35h-309v-498q0 -61 43 -78.5t163 -17.5h74 q219 0 311.5 53t161.5 217h58l-95 -346h-1103zM502 1550l301 303q47 47 86 48q72 0 72 -66q0 -47 -62 -86l-315 -199h-82z" />
<glyph unicode="&#xca;" horiz-adv-x="1251" d="M25 0v39q117 8 147.5 42t30.5 152v893q0 115 -32 150t-146 41v39h1085l8 -293h-51q-23 137 -80 176t-235 39h-269q-45 0 -58 -13.5t-13 -60.5v-450h309q129 0 171 36.5t60 159.5h47v-479h-47q-18 129 -59 164t-172 35h-309v-498q0 -61 43 -78.5t163 -17.5h74 q219 0 311.5 53t161.5 217h58l-95 -346h-1103zM352 1550l254 342h127l256 -342h-69l-250 211l-248 -211h-70z" />
<glyph unicode="&#xcb;" horiz-adv-x="1251" d="M25 0v39q117 8 147.5 42t30.5 152v893q0 115 -32 150t-146 41v39h1085l8 -293h-51q-23 137 -80 176t-235 39h-269q-45 0 -58 -13.5t-13 -60.5v-450h309q129 0 171 36.5t60 159.5h47v-479h-47q-18 129 -59 164t-172 35h-309v-498q0 -61 43 -78.5t163 -17.5h74 q219 0 311.5 53t161.5 217h58l-95 -346h-1103zM362 1686q0 41 30 70.5t71 29.5t71.5 -31t30.5 -72t-30.5 -70.5t-73.5 -29.5q-41 0 -70 29.5t-29 73.5zM770 1686q0 41 29.5 70.5t70.5 29.5t72 -31t31 -72t-31 -70.5t-74 -29.5q-41 0 -69.5 29.5t-28.5 73.5z" />
<glyph unicode="&#xcc;" horiz-adv-x="681" d="M37 0v39q129 4 164 38t35 152v899q0 119 -33 150t-166 39v39h608v-39q-129 -6 -165 -39t-36 -150v-899q0 -115 37 -150.5t164 -39.5v-39h-608zM92 1835q0 66 74 66q43 0 88 -48l297 -303h-82l-315 197q-61 39 -62 88z" />
<glyph unicode="&#xcd;" horiz-adv-x="681" d="M37 0v39q129 4 164 38t35 152v899q0 119 -33 150t-166 39v39h608v-39q-129 -6 -165 -39t-36 -150v-899q0 -115 37 -150.5t164 -39.5v-39h-608zM131 1550l301 303q47 47 86 48q72 0 72 -66q0 -47 -62 -86l-315 -199h-82z" />
<glyph unicode="&#xce;" horiz-adv-x="681" d="M20 0v39q129 4 164 38t35 152v899q0 119 -32.5 150t-166.5 39v39h609v-39q-129 -6 -165 -39t-36 -150v-899q0 -115 37 -150.5t164 -39.5v-39h-609zM20 1550l254 342h127l256 -342h-69l-250 211l-248 -211h-70z" />
<glyph unicode="&#xcf;" horiz-adv-x="681" d="M35 0v39q129 4 163.5 38t34.5 152v899q0 119 -32.5 150t-165.5 39v39h608v-39q-129 -6 -165 -39t-36 -150v-899q0 -115 37 -150.5t164 -39.5v-39h-608zM35 1686q0 41 29.5 70.5t70.5 29.5t72 -31t31 -72t-31 -70.5t-74 -29.5q-41 0 -69.5 29.5t-28.5 73.5zM442 1686 q0 41 30 70.5t71 29.5t71.5 -31t30.5 -72t-30.5 -70.5t-73.5 -29.5q-41 0 -70 29.5t-29 73.5z" />
<glyph unicode="&#xd0;" horiz-adv-x="1478" d="M33 0v39q117 8 148.5 41t31.5 143v422h-170v90h170v398q0 113 -29.5 143.5t-150.5 40.5v39h553q385 0 601 -177.5t216 -494.5q0 -156 -59.5 -292t-165.5 -224q-205 -168 -564 -168h-581zM422 160q0 -49 22.5 -66.5t81.5 -17.5q256 0 404 84q250 145 250 510 q0 344 -250 512q-143 98 -408 98q-59 0 -79.5 -16.5t-20.5 -63.5v-465h299v-90h-299v-485z" />
<glyph unicode="&#xd1;" horiz-adv-x="1478" d="M25 0v39q127 14 162.5 60t35.5 208v901q-53 66 -90 87.5t-108 21.5v39h348l790 -989v696q0 156 -39 201q-25 27 -54.5 36t-106.5 17v39h485v-39q-104 -10 -135 -37q-33 -29 -46.5 -78t-13.5 -164v-1061h-36l-904 1125v-795q0 -156 35 -204t156 -64v-39h-479zM385 1602 q23 100 77 153t130 53q70 0 143 -36l49 -25q59 -31 109 -31q35 0 58 23t50 80h60q-33 -117 -82 -167t-133 -50q-66 0 -166 49l-47 22q-49 23 -84 23q-72 0 -105 -94h-59z" />
<glyph unicode="&#xd2;" horiz-adv-x="1478" d="M70 684q0 311 185 505.5t484 194.5t484.5 -199.5t185.5 -506.5q0 -315 -186.5 -511t-483.5 -196q-299 0 -484 197t-185 516zM303 680q0 -373 184 -543q100 -92 254 -92q160 0 265 98q170 164 170 547q0 174 -49.5 312.5t-137.5 211.5q-115 96 -252 97q-174 0 -293 -137 q-66 -74 -103.5 -210.5t-37.5 -283.5zM463 1835q0 66 74 66q43 0 88 -48l297 -303h-82l-316 197q-61 39 -61 88z" />
<glyph unicode="&#xd3;" horiz-adv-x="1478" d="M70 684q0 311 185 505.5t484 194.5t484.5 -199.5t185.5 -506.5q0 -315 -186.5 -511t-483.5 -196q-299 0 -484 197t-185 516zM303 680q0 -373 184 -543q100 -92 254 -92q160 0 265 98q170 164 170 547q0 174 -49.5 312.5t-137.5 211.5q-115 96 -252 97q-174 0 -293 -137 q-66 -74 -103.5 -210.5t-37.5 -283.5zM530 1550l301 303q47 47 87 48q72 0 71 -66q0 -47 -61 -86l-316 -199h-82z" />
<glyph unicode="&#xd4;" horiz-adv-x="1478" d="M70 684q0 311 185 505.5t484 194.5t484.5 -199.5t185.5 -506.5q0 -315 -186.5 -511t-483.5 -196q-299 0 -484 197t-185 516zM303 680q0 -373 184 -543q100 -92 254 -92q160 0 265 98q170 164 170 547q0 174 -49.5 312.5t-137.5 211.5q-115 96 -252 97q-174 0 -293 -137 q-66 -74 -103.5 -210.5t-37.5 -283.5zM408 1550l254 342h126l256 -342h-69l-250 211l-248 -211h-69z" />
<glyph unicode="&#xd5;" horiz-adv-x="1478" d="M70 684q0 311 185 505.5t484 194.5t484.5 -199.5t185.5 -506.5q0 -315 -186.5 -511t-483.5 -196q-299 0 -484 197t-185 516zM303 680q0 -373 184 -543q100 -92 254 -92q160 0 265 98q170 164 170 547q0 174 -49.5 312.5t-137.5 211.5q-115 96 -252 97q-174 0 -293 -137 q-66 -74 -103.5 -210.5t-37.5 -283.5zM385 1602q23 100 77 153t130 53q70 0 143 -36l49 -25q59 -31 109 -31q35 0 58 23t50 80h60q-33 -117 -82 -167t-133 -50q-66 0 -166 49l-47 22q-49 23 -84 23q-72 0 -105 -94h-59z" />
<glyph unicode="&#xd6;" horiz-adv-x="1478" d="M70 684q0 311 185 505.5t484 194.5t484.5 -199.5t185.5 -506.5q0 -315 -186.5 -511t-483.5 -196q-299 0 -484 197t-185 516zM303 680q0 -373 184 -543q100 -92 254 -92q160 0 265 98q170 164 170 547q0 174 -49.5 312.5t-137.5 211.5q-115 96 -252 97q-174 0 -293 -137 q-66 -74 -103.5 -210.5t-37.5 -283.5zM420 1686q0 41 29.5 70.5t70.5 29.5t72 -31t31 -72t-31 -70.5t-74 -29.5q-41 0 -69.5 29.5t-28.5 73.5zM827 1686q0 41 30 70.5t71 29.5t71.5 -31t30.5 -72t-30.5 -70.5t-73.5 -29.5q-41 0 -70 29.5t-29 73.5z" />
<glyph unicode="&#xd7;" horiz-adv-x="1310" d="M88 43l471 473l-471 473l96 94l471 -471l473 471l95 -92l-471 -475l471 -471l-95 -96l-473 471l-473 -471z" />
<glyph unicode="&#xd8;" horiz-adv-x="1478" d="M70 676q0 311 187 509.5t484 198.5q180 0 359 -100l147 219h101l-181 -266q117 -109 162 -203q80 -166 80 -354q0 -315 -187.5 -512t-486.5 -197q-186 0 -358 103l-162 -238h-100l194 285q-68 61 -101.5 103t-60.5 100q-78 160 -77 352zM303 676q0 -246 94 -424l631 926 q-127 133 -289 133q-201 0 -318.5 -171t-117.5 -464zM449 180q123 -135 290 -135q203 0 320 169t117 462q-1 246 -97 430z" />
<glyph unicode="&#xd9;" horiz-adv-x="1478" d="M29 1317v39h579v-39q-123 -10 -154.5 -44t-31.5 -149v-639q0 -133 16.5 -204.5t73.5 -126.5q96 -92 262 -93q207 0 311 121q47 57 61.5 126t14.5 204v539q0 160 -34.5 209t-157.5 57v39h475v-39q-125 -12 -159 -60.5t-34 -199.5v-522q0 -158 -22.5 -248t-87.5 -166 q-131 -150 -414 -150q-223 0 -348 95q-166 123 -166 444v635q0 102 -31.5 133t-152.5 39zM469 1835q0 66 74 66q43 0 88 -48l297 -303h-82l-316 197q-61 39 -61 88z" />
<glyph unicode="&#xda;" horiz-adv-x="1478" d="M29 1317v39h579v-39q-123 -10 -154.5 -44t-31.5 -149v-639q0 -133 16.5 -204.5t73.5 -126.5q96 -92 262 -93q207 0 311 121q47 57 61.5 126t14.5 204v539q0 160 -34.5 209t-157.5 57v39h475v-39q-125 -12 -159 -60.5t-34 -199.5v-522q0 -158 -22.5 -248t-87.5 -166 q-131 -150 -414 -150q-223 0 -348 95q-166 123 -166 444v635q0 102 -31.5 133t-152.5 39zM541 1550l301 303q47 47 86 48q72 0 71 -66q0 -47 -61 -86l-315 -199h-82z" />
<glyph unicode="&#xdb;" horiz-adv-x="1478" d="M29 1317v39h579v-39q-123 -10 -154.5 -44t-31.5 -149v-639q0 -133 16.5 -204.5t73.5 -126.5q96 -92 262 -93q207 0 311 121q47 57 61.5 126t14.5 204v539q0 160 -34.5 209t-157.5 57v39h475v-39q-125 -12 -159 -60.5t-34 -199.5v-522q0 -158 -22.5 -248t-87.5 -166 q-131 -150 -414 -150q-223 0 -348 95q-166 123 -166 444v635q0 102 -31.5 133t-152.5 39zM410 1550l254 342h127l256 -342h-70l-250 211l-248 -211h-69z" />
<glyph unicode="&#xdc;" horiz-adv-x="1478" d="M29 1317v39h579v-39q-123 -10 -154.5 -44t-31.5 -149v-639q0 -133 16.5 -204.5t73.5 -126.5q96 -92 262 -93q207 0 311 121q47 57 61.5 126t14.5 204v539q0 160 -34.5 209t-157.5 57v39h475v-39q-125 -12 -159 -60.5t-34 -199.5v-522q0 -158 -22.5 -248t-87.5 -166 q-131 -150 -414 -150q-223 0 -348 95q-166 123 -166 444v635q0 102 -31.5 133t-152.5 39zM420 1686q0 41 29.5 70.5t70.5 29.5t72 -31t31 -72t-31 -70.5t-74 -29.5q-41 0 -69.5 29.5t-28.5 73.5zM827 1686q0 41 30 70.5t71 29.5t71.5 -31t30.5 -72t-30.5 -70.5t-73.5 -29.5 q-41 0 -70 29.5t-29 73.5z" />
<glyph unicode="&#xdd;" horiz-adv-x="1478" d="M45 1317v39h571v-39l-49 -2q-96 -2 -96 -53q0 -43 37 -97l299 -452l297 454q29 43 29 86q-2 35 -32 48.5t-108 15.5v39h447v-39q-90 -8 -142.5 -51t-140.5 -179l-303 -466v-394q0 -117 39 -149.5t172 -38.5v-39h-627v39q139 10 173 44t34 169v350l-268 393 q-139 205 -198.5 261.5t-133.5 60.5zM545 1550l301 303q47 47 86 48q72 0 72 -66q0 -47 -62 -86l-315 -199h-82z" />
<glyph unicode="&#xde;" horiz-adv-x="1138" d="M33 0v39q117 10 144.5 44t27.5 163v887q0 111 -29 141.5t-143 42.5v39h567v-39q-125 -10 -156.5 -49t-29.5 -178h164q246 0 389 -100.5t143 -270.5q0 -100 -53 -188.5t-144 -137.5q-125 -70 -358 -69q-59 0 -141 6v-107q0 -113 35.5 -146.5t156.5 -37.5v-39h-573z M414 412q68 -6 116 -6q356 0 357 301q0 160 -97.5 232.5t-310.5 72.5q-39 0 -52 -13.5t-13 -54.5v-532z" />
<glyph unicode="&#xdf;" horiz-adv-x="1024" d="M25 0v31q78 6 101.5 32.5t23.5 108.5v758q0 238 89 353.5t275 115.5q160 0 254 -84t94 -228q0 -111 -58.5 -175t-221.5 -140q168 -33 249 -104q127 -109 127 -287q0 -170 -105 -284.5t-261 -114.5q-88 0 -143.5 42t-55.5 107q0 41 26.5 69.5t65.5 28.5q35 0 59.5 -23.5 t26.5 -58.5l4 -45q2 -33 16.5 -47t43.5 -14q57 0 82 37q49 68 49 229q0 414 -270 424q-66 2 -66 35q0 25 59 31q195 20 195 260q0 135 -49 210.5t-137 75.5q-82 0 -129 -59t-47 -160v-1124h-297z" />
<glyph unicode="&#xe0;" horiz-adv-x="909" d="M76 193q0 143 143 239q98 66 369 166v111q0 92 -44 138t-116 46q-61 0 -102 -29.5t-41 -70.5q0 -18 6 -41t6 -45q0 -31 -27.5 -57.5t-66.5 -26.5q-35 0 -61.5 26.5t-26.5 67.5q0 98 104 164q96 61 236 61q166 0 241 -92q37 -43 47.5 -87t10.5 -140v-392q0 -135 63 -135 q41 0 88 39v-57q-78 -98 -184 -98q-117 0 -131 149h-2q-131 -150 -297 -149q-96 0 -155.5 56t-59.5 157zM190 1323q0 66 74 66q43 0 88 -48l297 -303h-82l-315 197q-61 39 -62 88zM256 256q0 -78 39 -118t102 -40q68 0 119 33q43 31 57.5 57.5t14.5 71.5v289 q-188 -66 -262 -135q-70 -63 -70 -158z" />
<glyph unicode="&#xe1;" horiz-adv-x="909" d="M76 193q0 143 143 239q98 66 369 166v111q0 92 -44 138t-116 46q-61 0 -102 -29.5t-41 -70.5q0 -18 6 -41t6 -45q0 -31 -27.5 -57.5t-66.5 -26.5q-35 0 -61.5 26.5t-26.5 67.5q0 98 104 164q96 61 236 61q166 0 241 -92q37 -43 47.5 -87t10.5 -140v-392q0 -135 63 -135 q41 0 88 39v-57q-78 -98 -184 -98q-117 0 -131 149h-2q-131 -150 -297 -149q-96 0 -155.5 56t-59.5 157zM244 1038l301 303q47 47 86 48q72 0 71 -66q0 -47 -61 -86l-315 -199h-82zM256 256q0 -78 39 -118t102 -40q68 0 119 33q43 31 57.5 57.5t14.5 71.5v289 q-188 -66 -262 -135q-70 -63 -70 -158z" />
<glyph unicode="&#xe2;" horiz-adv-x="909" d="M76 193q0 143 143 239q98 66 369 166v111q0 92 -44 138t-116 46q-61 0 -102 -29.5t-41 -70.5q0 -18 6 -41t6 -45q0 -31 -27.5 -57.5t-66.5 -26.5q-35 0 -61.5 26.5t-26.5 67.5q0 98 104 164q96 61 236 61q166 0 241 -92q37 -43 47.5 -87t10.5 -140v-392q0 -135 63 -135 q41 0 88 39v-57q-78 -98 -184 -98q-117 0 -131 149h-2q-131 -150 -297 -149q-96 0 -155.5 56t-59.5 157zM143 1038l254 342h127l256 -342h-69l-250 211l-248 -211h-70zM256 256q0 -78 39 -118t102 -40q68 0 119 33q43 31 57.5 57.5t14.5 71.5v289q-188 -66 -262 -135 q-70 -63 -70 -158z" />
<glyph unicode="&#xe3;" horiz-adv-x="909" d="M76 193q0 143 143 239q98 66 369 166v111q0 92 -44 138t-116 46q-61 0 -102 -29.5t-41 -70.5q0 -18 6 -41t6 -45q0 -31 -27.5 -57.5t-66.5 -26.5q-35 0 -61.5 26.5t-26.5 67.5q0 98 104 164q96 61 236 61q166 0 241 -92q37 -43 47.5 -87t10.5 -140v-392q0 -135 63 -135 q41 0 88 39v-57q-78 -98 -184 -98q-117 0 -131 149h-2q-131 -150 -297 -149q-96 0 -155.5 56t-59.5 157zM121 1090q23 100 76 153t131 53q70 0 143 -36l49 -25q57 -31 109 -31q35 0 58 23t50 80h60q-33 -117 -82 -167t-133 -50q-66 0 -166 49l-47 22q-49 23 -84 23 q-72 0 -105 -94h-59zM256 256q0 -78 39 -118t102 -40q68 0 119 33q43 31 57.5 57.5t14.5 71.5v289q-188 -66 -262 -135q-70 -63 -70 -158z" />
<glyph unicode="&#xe4;" horiz-adv-x="909" d="M76 193q0 143 143 239q98 66 369 166v111q0 92 -44 138t-116 46q-61 0 -102 -29.5t-41 -70.5q0 -18 6 -41t6 -45q0 -31 -27.5 -57.5t-66.5 -26.5q-35 0 -61.5 26.5t-26.5 67.5q0 98 104 164q96 61 236 61q166 0 241 -92q37 -43 47.5 -87t10.5 -140v-392q0 -135 63 -135 q41 0 88 39v-57q-78 -98 -184 -98q-117 0 -131 149h-2q-131 -150 -297 -149q-96 0 -155.5 56t-59.5 157zM154 1174q0 41 29.5 70.5t70.5 29.5t71.5 -31t30.5 -72t-30.5 -70.5t-73.5 -29.5q-41 0 -69.5 29.5t-28.5 73.5zM256 256q0 -78 39 -118t102 -40q68 0 119 33 q43 31 57.5 57.5t14.5 71.5v289q-188 -66 -262 -135q-70 -63 -70 -158zM561 1174q0 41 30 70.5t70.5 29.5t71.5 -31t31 -72t-31 -70.5t-74 -29.5q-41 0 -69.5 29.5t-28.5 73.5z" />
<glyph unicode="&#xe5;" horiz-adv-x="909" d="M76 193q0 143 143 239q98 66 369 166v111q0 92 -44 138t-116 46q-61 0 -102 -29.5t-41 -70.5q0 -18 6 -41t6 -45q0 -31 -27.5 -57.5t-66.5 -26.5q-35 0 -61.5 26.5t-26.5 67.5q0 98 104 164q96 61 236 61q166 0 241 -92q37 -43 47.5 -87t10.5 -140v-392q0 -135 63 -135 q41 0 88 39v-57q-78 -98 -184 -98q-117 0 -131 149h-2q-131 -150 -297 -149q-96 0 -155.5 56t-59.5 157zM256 256q0 -78 39 -118t102 -40q68 0 119 33q43 31 57.5 57.5t14.5 71.5v289q-188 -66 -262 -135q-70 -63 -70 -158zM256 1257q0 84 60.5 143.5t146.5 59.5 q82 0 141.5 -60.5t59.5 -144.5t-60.5 -143t-146.5 -59q-84 0 -142.5 59t-58.5 145zM326 1257q0 -57 38.5 -96t92.5 -39q57 0 97 39t40 96q0 55 -40 94.5t-97 39.5q-53 0 -92 -40t-39 -94z" />
<glyph unicode="&#xe6;" horiz-adv-x="1366" d="M78 205q0 43 3 72.5t15.5 67.5t36 63.5t64.5 51t100 42.5l264 73v130q0 100 -27.5 142t-97.5 42q-57 0 -98 -25.5t-41 -60.5q0 -14 3 -40t3 -46q0 -43 -24.5 -68.5t-65.5 -25.5t-65.5 26.5t-24.5 71.5q0 94 94 157.5t232 63.5q76 0 129 -21.5t112 -74.5q70 55 121 75.5 t123 20.5q156 0 233.5 -88t94.5 -287h-537q2 -154 12.5 -221t42.5 -127q27 -47 79 -74.5t116 -27.5q88 0 154.5 44.5t140.5 153.5l24 -10q-80 -172 -161 -237q-98 -82 -242 -82q-90 0 -151.5 32.5t-112.5 110.5q-102 -86 -167 -114.5t-145 -28.5q-104 0 -170.5 60t-66.5 159 zM256 256q0 -78 34 -128t101 -50q57 0 133 37t76 65l-2 2v4q-37 122 -37 226v106q-186 -68 -245.5 -119t-59.5 -143zM727 629h340q-2 135 -40 192.5t-122 57.5q-88 0 -129 -57.5t-49 -192.5z" />
<glyph unicode="&#xe7;" horiz-adv-x="909" d="M51 434q0 262 172 404q127 104 277 104q129 0 222 -62.5t93 -148.5q0 -35 -28.5 -60.5t-67.5 -25.5q-72 0 -98 94l-13 45q-16 57 -40.5 78t-80.5 21q-125 0 -201.5 -98.5t-76.5 -258.5q0 -176 88 -287.5t229 -111.5q88 0 151.5 41.5t137.5 150.5l29 -18 q-80 -162 -168 -236.5t-213 -84.5l-43 -113q31 6 53 6q84 0 130 -37t46 -104q0 -80 -68.5 -126t-187.5 -46q-92 0 -172 32l29 64q74 -25 133 -25q51 0 82 25t31 65q0 39 -25 56.5t-84 17.5q-35 0 -57 -8l-15 10l78 187q-156 20 -249 144t-93 306z" />
<glyph unicode="&#xe8;" horiz-adv-x="909" d="M51 444q0 219 117 358.5t307 139.5q184 0 285 -141q59 -82 69 -234h-630q8 -129 25.5 -196.5t68.5 -137.5q86 -113 227 -112q100 0 169 49t147 166l32 -14q-123 -342 -428 -342q-180 0 -284.5 125.5t-104.5 338.5zM176 1323q0 66 74 66q43 0 88 -48l297 -303h-82 l-315 197q-61 39 -62 88zM203 633h418q-18 129 -60.5 182t-140.5 53q-86 0 -143.5 -60t-73.5 -175z" />
<glyph unicode="&#xe9;" horiz-adv-x="909" d="M51 444q0 219 117 358.5t307 139.5q184 0 285 -141q59 -82 69 -234h-630q8 -129 25.5 -196.5t68.5 -137.5q86 -113 227 -112q100 0 169 49t147 166l32 -14q-123 -342 -428 -342q-180 0 -284.5 125.5t-104.5 338.5zM203 633h418q-18 129 -60.5 182t-140.5 53 q-86 0 -143.5 -60t-73.5 -175zM238 1038l301 303q47 47 86 48q72 0 71 -66q0 -47 -61 -86l-316 -199h-81z" />
<glyph unicode="&#xea;" horiz-adv-x="909" d="M51 444q0 219 117 358.5t307 139.5q184 0 285 -141q59 -82 69 -234h-630q8 -129 25.5 -196.5t68.5 -137.5q86 -113 227 -112q100 0 169 49t147 166l32 -14q-123 -342 -428 -342q-180 0 -284.5 125.5t-104.5 338.5zM141 1038l254 342h127l256 -342h-69l-250 211l-248 -211 h-70zM203 633h418q-18 129 -60.5 182t-140.5 53q-86 0 -143.5 -60t-73.5 -175z" />
<glyph unicode="&#xeb;" horiz-adv-x="909" d="M51 444q0 219 117 358.5t307 139.5q184 0 285 -141q59 -82 69 -234h-630q8 -129 25.5 -196.5t68.5 -137.5q86 -113 227 -112q100 0 169 49t147 166l32 -14q-123 -342 -428 -342q-180 0 -284.5 125.5t-104.5 338.5zM152 1174q0 41 29.5 70.5t70.5 29.5t71.5 -31t30.5 -72 t-30.5 -70.5t-73.5 -29.5q-41 0 -69.5 29.5t-28.5 73.5zM203 633h418q-18 129 -60.5 182t-140.5 53q-86 0 -143.5 -60t-73.5 -175zM559 1174q0 41 29.5 70.5t70.5 29.5t72 -31t31 -72t-31 -70.5t-74 -29.5q-41 0 -69.5 29.5t-28.5 73.5z" />
<glyph unicode="&#xec;" horiz-adv-x="569" d="M12 0v31q106 6 134 36.5t28 145.5v465q0 72 -14.5 100.5t-53.5 28.5q-49 0 -86 -10v32l316 113l10 -8v-719q0 -115 25.5 -145.5t126.5 -38.5v-31h-486zM12 1323q0 66 74 66q43 0 88 -48l297 -303h-82l-315 197q-61 39 -62 88z" />
<glyph unicode="&#xed;" horiz-adv-x="569" d="M33 0v31q106 6 134 36.5t28 145.5v465q0 72 -14.5 100.5t-53.5 28.5q-49 0 -86 -10v32l315 113l11 -8v-719q0 -115 25.5 -145.5t125.5 -38.5v-31h-485zM100 1038l301 303q47 47 86 48q72 0 72 -66q0 -47 -61 -86l-316 -199h-82z" />
<glyph unicode="&#xee;" horiz-adv-x="569" d="M-35 0v31q106 6 134 36.5t28 145.5v465q0 72 -14.5 100.5t-53.5 28.5q-49 0 -86 -10v32l316 113l10 -8v-719q0 -115 25.5 -145.5t126.5 -38.5v-31h-486zM-35 1038l254 342h127l256 -342h-70l-249 211l-248 -211h-70z" />
<glyph unicode="&#xef;" horiz-adv-x="569" d="M-20 0v31q106 6 133.5 36.5t27.5 145.5v465q0 72 -14 100.5t-53 28.5q-49 0 -86 -10v32l315 113l10 -8v-719q0 -115 26 -145.5t126 -38.5v-31h-485zM-20 1174q0 41 29.5 70.5t70.5 29.5t71.5 -31t30.5 -72t-30.5 -70.5t-73.5 -29.5q-41 0 -69.5 29.5t-28.5 73.5z M387 1174q0 41 29.5 70.5t70.5 29.5t72 -31t31 -72t-31 -70.5t-74 -29.5q-41 0 -69.5 29.5t-28.5 73.5z" />
<glyph unicode="&#xf0;" horiz-adv-x="1024" d="M59 444q0 215 129 356.5t316 141.5q74 0 124 -24.5t124 -98.5q-23 115 -67 196t-132 163l-252 -134l-68 62l248 131q-100 84 -274 113l86 49q199 -12 313 -96l195 102l67 -62l-186 -98q283 -238 283 -661q0 -231 -109 -406q-127 -199 -354 -198q-195 0 -319 126.5 t-124 337.5zM244 575q0 -84 16 -172t48 -173t92.5 -139t138.5 -54q109 0 175 101.5t66 275.5q0 211 -83 341t-216 130q-102 0 -169.5 -89t-67.5 -221z" />
<glyph unicode="&#xf1;" horiz-adv-x="1024" d="M33 815v35q143 41 280 92l17 -6v-160h2q145 166 295 166q117 0 179 -82t62 -233v-453q0 -82 25 -108.5t100 -34.5v-31h-426l2 31q76 6 101.5 44t25.5 140v408q0 207 -149 206q-51 0 -96 -24.5t-115 -91.5v-566q0 -61 27.5 -85.5t105.5 -30.5v-31h-432v31q78 6 102.5 37.5 t24.5 124.5v497q0 76 -14.5 104.5t-57.5 28.5q-41 0 -59 -8zM186 1090q23 100 76 153t131 53q70 0 144 -36l49 -25q57 -31 108 -31q35 0 58.5 23t50.5 80h59q-33 -117 -82 -167t-133 -50q-66 0 -166 49l-47 22q-49 23 -84 23q-72 0 -104 -94h-60z" />
<glyph unicode="&#xf2;" horiz-adv-x="1024" d="M59 467q0 213 127 344t334 131q190 0 316.5 -130t126.5 -339q0 -215 -128 -354t-333 -139q-188 0 -315.5 138t-127.5 349zM221 1323q0 66 74 66q43 0 88 -48l297 -303h-82l-315 197q-61 39 -62 88zM244 559q0 -262 108 -420q70 -102 185 -102q113 0 177 101.5t64 279.5 q0 233 -102 364q-82 102 -195 103q-106 0 -171.5 -87t-65.5 -239z" />
<glyph unicode="&#xf3;" horiz-adv-x="1024" d="M59 467q0 213 127 344t334 131q190 0 316.5 -130t126.5 -339q0 -215 -128 -354t-333 -139q-188 0 -315.5 138t-127.5 349zM244 559q0 -262 108 -420q70 -102 185 -102q113 0 177 101.5t64 279.5q0 233 -102 364q-82 102 -195 103q-106 0 -171.5 -87t-65.5 -239zM315 1038 l301 303q47 47 86 48q72 0 72 -66q0 -47 -61 -86l-316 -199h-82z" />
<glyph unicode="&#xf4;" horiz-adv-x="1024" d="M59 467q0 213 127 344t334 131q190 0 316.5 -130t126.5 -339q0 -215 -128 -354t-333 -139q-188 0 -315.5 138t-127.5 349zM184 1038l254 342h127l256 -342h-69l-250 211l-248 -211h-70zM244 559q0 -262 108 -420q70 -102 185 -102q113 0 177 101.5t64 279.5 q0 233 -102 364q-82 102 -195 103q-106 0 -171.5 -87t-65.5 -239z" />
<glyph unicode="&#xf5;" horiz-adv-x="1024" d="M59 467q0 213 127 344t334 131q190 0 316.5 -130t126.5 -339q0 -215 -128 -354t-333 -139q-188 0 -315.5 138t-127.5 349zM164 1090q23 100 77 153t130 53q70 0 143 -36l49 -25q57 -31 109 -31q35 0 58 23t50 80h60q-33 -117 -82 -167t-133 -50q-66 0 -166 49l-47 22 q-49 23 -84 23q-72 0 -105 -94h-59zM244 559q0 -262 108 -420q70 -102 185 -102q113 0 177 101.5t64 279.5q0 233 -102 364q-82 102 -195 103q-106 0 -171.5 -87t-65.5 -239z" />
<glyph unicode="&#xf6;" horiz-adv-x="1024" d="M59 467q0 213 127 344t334 131q190 0 316.5 -130t126.5 -339q0 -215 -128 -354t-333 -139q-188 0 -315.5 138t-127.5 349zM197 1174q0 41 29.5 70.5t70.5 29.5t71.5 -31t30.5 -72t-30.5 -70.5t-73.5 -29.5q-41 0 -69.5 29.5t-28.5 73.5zM244 559q0 -262 108 -420 q70 -102 185 -102q113 0 177 101.5t64 279.5q0 233 -102 364q-82 102 -195 103q-106 0 -171.5 -87t-65.5 -239zM604 1174q0 41 30 70.5t70.5 29.5t71.5 -31t31 -72t-31 -70.5t-74 -29.5q-41 0 -69.5 29.5t-28.5 73.5z" />
<glyph unicode="&#xf7;" horiz-adv-x="1155" d="M61 451v135h1033v-135h-1033zM465 92q0 47 33.5 81t81.5 34q45 0 78.5 -35t33.5 -82q0 -45 -33.5 -77.5t-81 -32.5t-80 32.5t-32.5 79.5zM465 942q0 47 33.5 81t81.5 34q45 0 78.5 -35t33.5 -82q0 -45 -33.5 -78t-81 -33t-80 33t-32.5 80z" />
<glyph unicode="&#xf8;" horiz-adv-x="1024" d="M59 465q0 209 126 343t325 134q90 0 188 -37l117 223h80l-133 -256q201 -137 201 -393q0 -213 -131.5 -356t-325.5 -143q-96 0 -191 43l-133 -252h-76l150 286q-92 74 -133 150q-63 117 -64 258zM244 567q0 -207 80 -379l325 623q-76 74 -164 74q-109 0 -175 -87 t-66 -231zM367 123q72 -86 168 -86q115 0 179 99.5t64 279.5q0 178 -82 334z" />
<glyph unicode="&#xf9;" horiz-adv-x="1024" d="M18 893v29h299v-662q0 -70 42 -116t104 -46q100 0 172 64q27 25 37 46t10 73v473q0 80 -28.5 103.5t-123.5 29.5v35h324v-703q0 -72 23.5 -94.5t93.5 -22.5h12v-28q-160 -43 -281 -92l-10 6v168h-4q-129 -176 -293 -176q-117 0 -183.5 71.5t-66.5 190.5v514 q0 76 -26.5 104.5t-100.5 32.5zM236 1323q0 66 73 66q43 0 88 -48l297 -303h-82l-315 197q-61 39 -61 88z" />
<glyph unicode="&#xfa;" horiz-adv-x="1024" d="M18 893v29h299v-662q0 -70 42 -116t104 -46q100 0 172 64q27 25 37 46t10 73v473q0 80 -28.5 103.5t-123.5 29.5v35h324v-703q0 -72 23.5 -94.5t93.5 -22.5h12v-28q-160 -43 -281 -92l-10 6v168h-4q-129 -176 -293 -176q-117 0 -183.5 71.5t-66.5 190.5v514 q0 76 -26.5 104.5t-100.5 32.5zM319 1038l302 303q47 47 86 48q72 0 71 -66q0 -47 -61 -86l-316 -199h-82z" />
<glyph unicode="&#xfb;" horiz-adv-x="1024" d="M18 893v29h299v-662q0 -70 42 -116t104 -46q100 0 172 64q27 25 37 46t10 73v473q0 80 -28.5 103.5t-123.5 29.5v35h324v-703q0 -72 23.5 -94.5t93.5 -22.5h12v-28q-160 -43 -281 -92l-10 6v168h-4q-129 -176 -293 -176q-117 0 -183.5 71.5t-66.5 190.5v514 q0 76 -26.5 104.5t-100.5 32.5zM184 1038l254 342h127l256 -342h-69l-250 211l-248 -211h-70z" />
<glyph unicode="&#xfc;" horiz-adv-x="1024" d="M18 893v29h299v-662q0 -70 42 -116t104 -46q100 0 172 64q27 25 37 46t10 73v473q0 80 -28.5 103.5t-123.5 29.5v35h324v-703q0 -72 23.5 -94.5t93.5 -22.5h12v-28q-160 -43 -281 -92l-10 6v168h-4q-129 -176 -293 -176q-117 0 -183.5 71.5t-66.5 190.5v514 q0 76 -26.5 104.5t-100.5 32.5zM195 1174q0 41 29.5 70.5t70.5 29.5t71.5 -31t30.5 -72t-30.5 -70.5t-73.5 -29.5q-41 0 -69.5 29.5t-28.5 73.5zM602 1174q0 41 30 70.5t70.5 29.5t71.5 -31t31 -72t-31 -70.5t-74 -29.5q-41 0 -69.5 29.5t-28.5 73.5z" />
<glyph unicode="&#xfd;" horiz-adv-x="1024" d="M29 893v29h420v-31q-66 -2 -91.5 -14.5t-25.5 -40.5q0 -23 26 -84l230 -512l198 565q8 18 9 37q0 49 -95 49v31h273v-31q-37 -4 -59.5 -26.5t-43.5 -78.5l-307 -837q-80 -217 -160.5 -306t-197.5 -89q-66 0 -105 33.5t-39 84.5q0 39 26 67t63 28q59 0 106 -27 q27 -14 53 -14q43 0 103 90q29 41 55.5 116.5t26.5 104.5q0 27 -86 207l-271 577q-27 59 -108 72zM293 1038l301 303q47 47 86 48q72 0 72 -66q0 -47 -62 -86l-315 -199h-82z" />
<glyph unicode="&#xfe;" horiz-adv-x="1024" d="M10 -408q90 8 117 36t27 110v1425q0 68 -19.5 91.5t-81.5 23.5q-14 0 -35 -4v35q182 49 295 90l13 -8v-613q121 164 295 164q160 0 251 -116.5t91 -319.5q0 -223 -124 -374.5t-307 -151.5q-63 0 -107 18t-99 70v-316q0 -98 31.5 -128t144.5 -32v-36h-492v36zM326 184 q0 -47 69.5 -93t141.5 -46q115 0 182 109.5t67 281.5q0 383 -251 383q-66 0 -137.5 -47t-71.5 -92v-496z" />
<glyph unicode="&#xff;" horiz-adv-x="1024" d="M29 893v29h420v-31q-66 -2 -91.5 -14.5t-25.5 -40.5q0 -23 26 -84l230 -512l198 565q8 18 9 37q0 49 -95 49v31h273v-31q-37 -4 -59.5 -26.5t-43.5 -78.5l-307 -837q-80 -217 -160.5 -306t-197.5 -89q-66 0 -105 33.5t-39 84.5q0 39 26 67t63 28q59 0 106 -27 q27 -14 53 -14q43 0 103 90q29 41 55.5 116.5t26.5 104.5q0 27 -86 207l-271 577q-27 59 -108 72zM201 1174q0 41 29.5 70.5t70.5 29.5t71.5 -31t30.5 -72t-30.5 -70.5t-73.5 -29.5q-41 0 -69.5 29.5t-28.5 73.5zM608 1174q0 41 30 70.5t71 29.5t71.5 -31t30.5 -72 t-30.5 -70.5t-73.5 -29.5q-41 0 -70 29.5t-29 73.5z" />
<glyph unicode="&#x100;" horiz-adv-x="1478" d="M31 0v39q86 8 125 62.5t133 279.5l422 999h41l503 -1153q45 -106 81 -143t112 -45v-39h-522v39q82 0 112 18q29 14 29 49q0 53 -39 144l-84 192h-536l-95 -233q-18 -47 -18 -86q0 -47 33.5 -65.5t109.5 -18.5v-39h-407zM410 1473v110h637v-110h-637zM442 526h473 l-237 564z" />
<glyph unicode="&#x101;" horiz-adv-x="909" d="M76 193q0 143 143 239q98 66 369 166v111q0 92 -44 138t-116 46q-61 0 -102 -29.5t-41 -70.5q0 -18 6 -41t6 -45q0 -31 -27.5 -57.5t-66.5 -26.5q-35 0 -61.5 26.5t-26.5 67.5q0 98 104 164q96 61 236 61q166 0 241 -92q37 -43 47.5 -87t10.5 -140v-392q0 -135 63 -135 q41 0 88 39v-57q-78 -98 -184 -98q-117 0 -131 149h-2q-131 -150 -297 -149q-96 0 -155.5 56t-59.5 157zM141 1038v111h637v-111h-637zM256 256q0 -78 39 -118t102 -40q68 0 119 33q43 31 57.5 57.5t14.5 71.5v289q-188 -66 -262 -135q-70 -63 -70 -158z" />
<glyph unicode="&#x102;" horiz-adv-x="1478" d="M31 0v39q86 8 125 62.5t133 279.5l422 999h41l503 -1153q45 -106 81 -143t112 -45v-39h-522v39q82 0 112 18q29 14 29 49q0 53 -39 144l-84 192h-536l-95 -233q-18 -47 -18 -86q0 -47 33.5 -65.5t109.5 -18.5v-39h-407zM442 526h473l-237 564zM446 1794h60 q41 -199 229 -199q82 0 132.5 44t95.5 155h59q-37 -322 -291 -321q-141 0 -213 84.5t-72 236.5z" />
<glyph unicode="&#x103;" horiz-adv-x="909" d="M76 193q0 143 143 239q98 66 369 166v111q0 92 -44 138t-116 46q-61 0 -102 -29.5t-41 -70.5q0 -18 6 -41t6 -45q0 -31 -27.5 -57.5t-66.5 -26.5q-35 0 -61.5 26.5t-26.5 67.5q0 98 104 164q96 61 236 61q166 0 241 -92q37 -43 47.5 -87t10.5 -140v-392q0 -135 63 -135 q41 0 88 39v-57q-78 -98 -184 -98q-117 0 -131 149h-2q-131 -150 -297 -149q-96 0 -155.5 56t-59.5 157zM186 1360h60q41 -199 229 -199q82 0 132 44t95 155h60q-37 -322 -291 -322q-141 0 -213 85t-72 237zM256 256q0 -78 39 -118t102 -40q68 0 119 33q43 31 57.5 57.5 t14.5 71.5v289q-188 -66 -262 -135q-70 -63 -70 -158z" />
<glyph unicode="&#x104;" horiz-adv-x="1478" d="M31 0v39q86 8 125 62.5t133 279.5l422 999h41l503 -1153q45 -106 81 -143t112 -45v-39h-205q-90 -72 -90 -143q0 -80 78 -80q66 0 145 73l41 -32q-57 -84 -107 -120t-120 -36q-68 0 -110 40t-42 112q0 108 111 186h-223v39q82 0 112 18q29 14 29 49q0 53 -39 144l-84 192 h-536l-95 -233q-18 -47 -18 -86q0 -47 33.5 -65.5t109.5 -18.5v-39h-407zM442 526h473l-237 564z" />
<glyph unicode="&#x105;" horiz-adv-x="909" d="M76 193q0 143 143 239q98 66 369 166v111q0 92 -44 138t-116 46q-61 0 -102 -29.5t-41 -70.5q0 -18 6 -41t6 -45q0 -31 -27.5 -57.5t-66.5 -26.5q-35 0 -61.5 26.5t-26.5 67.5q0 98 104 164q96 61 236 61q166 0 241 -92q37 -43 47.5 -87t10.5 -140v-392q0 -135 63 -135 q41 0 88 39v-57q-59 -76 -131 -92q-72 -66 -72 -129q0 -80 78 -80q66 -1 146 73l41 -32q-57 -84 -107.5 -120t-120.5 -36q-68 0 -109.5 40t-41.5 112q0 100 90 172q-76 23 -88 143h-2q-131 -150 -297 -149q-96 0 -155.5 56t-59.5 157zM256 256q0 -78 39 -118t102 -40 q68 0 119 33q43 31 57.5 57.5t14.5 71.5v289q-188 -66 -262 -135q-70 -63 -70 -158z" />
<glyph unicode="&#x106;" horiz-adv-x="1366" d="M57 666q0 299 185 505q193 213 497 213q131 0 244 -30q129 -37 141 -37q68 0 86 67h41l19 -464h-47q-33 147 -107 227q-145 156 -330 156q-227 0 -359 -167t-132 -438q0 -330 147 -489q137 -147 365 -148q135 0 233 47t217 160l39 -37q-182 -260 -559 -260 q-297 0 -483 183q-197 193 -197 512zM600 1473l301 303q47 47 86 47q72 0 72 -66q0 -47 -62 -86l-315 -198h-82z" />
<glyph unicode="&#x107;" horiz-adv-x="909" d="M51 434q0 260 172 404q127 104 277 104q129 0 222 -62.5t93 -148.5q0 -35 -28.5 -60.5t-67.5 -25.5q-72 0 -98 94l-13 45q-16 57 -40.5 78t-80.5 21q-125 0 -201.5 -98.5t-76.5 -258.5q0 -176 88 -287.5t229 -111.5q88 0 151.5 41.5t137.5 150.5l29 -18 q-88 -172 -168 -235q-104 -86 -236 -86q-170 0 -279.5 128t-109.5 326zM362 1038l302 303q47 47 86 48q72 0 71 -66q0 -47 -61 -86l-316 -199h-82z" />
<glyph unicode="&#x108;" horiz-adv-x="1366" d="M57 666q0 299 185 505q193 213 497 213q131 0 244 -30q129 -37 141 -37q68 0 86 67h41l19 -464h-47q-33 147 -107 227q-145 156 -330 156q-227 0 -359 -167t-132 -438q0 -330 147 -489q137 -147 365 -148q135 0 233 47t217 160l39 -37q-182 -260 -559 -260 q-297 0 -483 183q-197 193 -197 512zM408 1473l254 342h126l256 -342h-69l-250 210l-248 -210h-69z" />
<glyph unicode="&#x109;" horiz-adv-x="909" d="M51 434q0 260 172 404q127 104 277 104q129 0 222 -62.5t93 -148.5q0 -35 -28.5 -60.5t-67.5 -25.5q-72 0 -98 94l-13 45q-16 57 -40.5 78t-80.5 21q-125 0 -201.5 -98.5t-76.5 -258.5q0 -176 88 -287.5t229 -111.5q88 0 151.5 41.5t137.5 150.5l29 -18 q-88 -172 -168 -235q-104 -86 -236 -86q-170 0 -279.5 128t-109.5 326zM133 1038l254 342h127l256 -342h-70l-249 211l-248 -211h-70z" />
<glyph unicode="&#x10a;" horiz-adv-x="1366" d="M57 666q0 299 185 505q193 213 497 213q131 0 244 -30q129 -37 141 -37q68 0 86 67h41l19 -464h-47q-33 147 -107 227q-145 156 -330 156q-227 0 -359 -167t-132 -438q0 -330 147 -489q137 -147 365 -148q135 0 233 47t217 160l39 -37q-182 -260 -559 -260 q-297 0 -483 183q-197 193 -197 512zM719 1606q0 43 27.5 72.5t72.5 29.5q47 0 75 -28.5t28 -73.5q0 -43 -30 -72t-73 -29q-41 0 -70.5 30t-29.5 71z" />
<glyph unicode="&#x10b;" horiz-adv-x="909" d="M51 434q0 260 172 404q127 104 277 104q129 0 222 -62.5t93 -148.5q0 -35 -28.5 -60.5t-67.5 -25.5q-72 0 -98 94l-13 45q-16 57 -40.5 78t-80.5 21q-125 0 -201.5 -98.5t-76.5 -258.5q0 -176 88 -287.5t229 -111.5q88 0 151.5 41.5t137.5 150.5l29 -18 q-88 -172 -168 -235q-104 -86 -236 -86q-170 0 -279.5 128t-109.5 326zM414 1171q0 43 27.5 73t72.5 30q47 0 74.5 -29t27.5 -74q0 -43 -29.5 -71.5t-72.5 -28.5q-41 0 -70.5 29.5t-29.5 70.5z" />
<glyph unicode="&#x10c;" horiz-adv-x="1366" d="M57 666q0 299 185 505q193 213 497 213q131 0 244 -30q129 -37 141 -37q68 0 86 67h41l19 -464h-47q-33 147 -107 227q-145 156 -330 156q-227 0 -359 -167t-132 -438q0 -330 147 -489q137 -147 365 -148q135 0 233 47t217 160l39 -37q-182 -260 -559 -260 q-297 0 -483 183q-197 193 -197 512zM475 1815h72l246 -211l247 211h72l-254 -342h-131z" />
<glyph unicode="&#x10d;" horiz-adv-x="909" d="M51 434q0 260 172 404q127 104 277 104q129 0 222 -62.5t93 -148.5q0 -35 -28.5 -60.5t-67.5 -25.5q-72 0 -98 94l-13 45q-16 57 -40.5 78t-80.5 21q-125 0 -201.5 -98.5t-76.5 -258.5q0 -176 88 -287.5t229 -111.5q88 0 151.5 41.5t137.5 150.5l29 -18 q-88 -172 -168 -235q-104 -86 -236 -86q-170 0 -279.5 128t-109.5 326zM174 1380h72l246 -211l247 211h72l-254 -342h-131z" />
<glyph unicode="&#x10e;" horiz-adv-x="1478" d="M33 0v39q119 8 149.5 42t30.5 155v890q0 119 -30.5 151t-149.5 40v39h553q399 0 614 -187q203 -174 203 -485q0 -375 -279 -553q-203 -131 -516 -131h-575zM379 1815h72l245 -211l248 211h72l-254 -342h-131zM422 172q0 -55 19.5 -75.5t78.5 -20.5q160 0 258.5 22.5 t188.5 83.5q213 143 213 490q0 297 -195 467q-88 78 -192.5 109.5t-262.5 31.5q-59 0 -83.5 -18.5t-24.5 -67.5v-1022z" />
<glyph unicode="&#x10f;" horiz-adv-x="1200" d="M55 420q0 217 125 369.5t301 152.5q111 0 215 -88v320q0 63 -18.5 83.5t-75.5 20.5q-29 0 -45 -2v33q186 49 301 90l10 -4v-1162q0 -72 17.5 -94t72.5 -22q12 0 48 2v-33l-301 -106l-9 6v131q-98 -137 -262 -137q-170 0 -274.5 121.5t-104.5 318.5zM231 502 q0 -188 77 -302t206 -114q96 0 152 66q30 34 30 57v471q0 82 -62.5 143.5t-146.5 61.5q-117 0 -186.5 -104.5t-69.5 -278.5zM952 1319q0 51 34 84t87 33q70 0 117 -52.5t47 -130.5q0 -92 -63.5 -178t-165.5 -137l-19 39q168 115 168 219q0 27 -29 27q-4 0 -14 -4 q-25 -4 -41 -5q-57 0 -89 28t-32 77z" />
<glyph unicode="&#x110;" horiz-adv-x="1478" d="M33 0v39q117 8 148.5 41t31.5 143v422h-170v90h170v398q0 113 -29.5 143.5t-150.5 40.5v39h553q385 0 601 -177.5t216 -494.5q0 -156 -59.5 -292t-165.5 -224q-205 -168 -564 -168h-581zM422 160q0 -49 22.5 -66.5t81.5 -17.5q256 0 404 84q250 145 250 510 q0 344 -250 512q-143 98 -408 98q-59 0 -79.5 -16.5t-20.5 -63.5v-465h299v-90h-299v-485z" />
<glyph unicode="&#x111;" horiz-adv-x="1024" d="M55 420q0 217 125 369.5t301 152.5q111 0 215 -88v215h-358v80h358v25q0 63 -18.5 83.5t-75.5 20.5q-29 0 -45 -2v33q186 49 301 90l10 -4v-246h170v-80h-170v-836q0 -72 17.5 -94t72.5 -22q12 0 48 2v-33l-301 -106l-9 6v131q-98 -137 -262 -137q-170 0 -274.5 121.5 t-104.5 318.5zM231 502q0 -188 77 -302t206 -114q96 0 152 66q30 34 30 57v471q0 82 -62.5 143.5t-146.5 61.5q-117 0 -186.5 -104.5t-69.5 -278.5z" />
<glyph unicode="&#x112;" horiz-adv-x="1251" d="M25 0v39q117 8 147.5 42t30.5 152v893q0 115 -32 150t-146 41v39h1085l8 -293h-51q-23 137 -80 176t-235 39h-269q-45 0 -58 -13.5t-13 -60.5v-450h309q129 0 171 36.5t60 159.5h47v-479h-47q-18 129 -59 164t-172 35h-309v-498q0 -61 43 -78.5t163 -17.5h74 q219 0 311.5 53t161.5 217h58l-95 -346h-1103zM307 1473v110h637v-110h-637z" />
<glyph unicode="&#x113;" horiz-adv-x="909" d="M51 444q0 219 117 358.5t307 139.5q184 0 285 -141q59 -82 69 -234h-630q8 -129 25.5 -196.5t68.5 -137.5q86 -113 227 -112q100 0 169 49t147 166l32 -14q-123 -342 -428 -342q-180 0 -284.5 125.5t-104.5 338.5zM143 1038v111h637v-111h-637zM203 633h418 q-18 129 -60.5 182t-140.5 53q-86 0 -143.5 -60t-73.5 -175z" />
<glyph unicode="&#x114;" horiz-adv-x="1251" d="M25 0v39q117 8 147.5 42t30.5 152v893q0 115 -32 150t-146 41v39h1085l8 -293h-51q-23 137 -80 176t-235 39h-269q-45 0 -58 -13.5t-13 -60.5v-450h309q129 0 171 36.5t60 159.5h47v-479h-47q-18 129 -59 164t-172 35h-309v-498q0 -61 43 -78.5t163 -17.5h74 q219 0 311.5 53t161.5 217h58l-95 -346h-1103zM350 1794h60q41 -199 229 -199q82 0 132 44t95 155h60q-37 -322 -291 -321q-141 0 -213 84.5t-72 236.5z" />
<glyph unicode="&#x115;" horiz-adv-x="909" d="M51 444q0 219 117 358.5t307 139.5q184 0 285 -141q59 -82 69 -234h-630q8 -129 25.5 -196.5t68.5 -137.5q86 -113 227 -112q100 0 169 49t147 166l32 -14q-123 -342 -428 -342q-180 0 -284.5 125.5t-104.5 338.5zM166 1360h59q41 -199 230 -199q82 0 132 44t95 155h59 q-37 -322 -290 -322q-141 0 -213 85t-72 237zM203 633h418q-18 129 -60.5 182t-140.5 53q-86 0 -143.5 -60t-73.5 -175z" />
<glyph unicode="&#x116;" horiz-adv-x="1251" d="M25 0v39q117 8 147.5 42t30.5 152v893q0 115 -32 150t-146 41v39h1085l8 -293h-51q-23 137 -80 176t-235 39h-269q-45 0 -58 -13.5t-13 -60.5v-450h309q129 0 171 36.5t60 159.5h47v-479h-47q-18 129 -59 164t-172 35h-309v-498q0 -61 43 -78.5t163 -17.5h74 q219 0 311.5 53t161.5 217h58l-95 -346h-1103zM514 1606q0 43 27.5 72.5t72.5 29.5q47 0 75 -28.5t28 -73.5q0 -43 -30 -72t-73 -29q-41 0 -70.5 30t-29.5 71z" />
<glyph unicode="&#x117;" horiz-adv-x="909" d="M51 444q0 219 117 358.5t307 139.5q184 0 285 -141q59 -82 69 -234h-630q8 -129 25.5 -196.5t68.5 -137.5q86 -113 227 -112q100 0 169 49t147 166l32 -14q-123 -342 -428 -342q-180 0 -284.5 125.5t-104.5 338.5zM203 633h418q-18 129 -60.5 182t-140.5 53 q-86 0 -143.5 -60t-73.5 -175zM391 1171q0 43 27.5 73t73.5 30q47 0 74.5 -29t27.5 -74q0 -43 -29.5 -71.5t-72.5 -28.5q-41 0 -71 29.5t-30 70.5z" />
<glyph unicode="&#x118;" horiz-adv-x="1251" d="M25 0v39q117 8 147.5 42t30.5 152v893q0 115 -32 150t-146 41v39h1085l8 -293h-51q-23 137 -80 176t-235 39h-269q-45 0 -58 -13.5t-13 -60.5v-450h309q129 0 171 36.5t60 159.5h47v-479h-47q-18 129 -59 164t-172 35h-309v-498q0 -61 43 -78.5t163 -17.5h74 q219 0 311.5 53t161.5 217h58l-95 -346h-251q-90 -72 -91 -143q0 -80 78 -80q66 0 146 73l41 -32q-57 -84 -107.5 -120t-120.5 -36q-68 0 -109.5 40t-41.5 112q-1 108 110 186h-757z" />
<glyph unicode="&#x119;" horiz-adv-x="909" d="M51 444q0 219 117 358.5t307 139.5q184 0 285 -141q59 -82 69 -234h-630q8 -129 25.5 -196.5t68.5 -137.5q86 -113 227 -112q100 0 169 49t147 166l32 -14q-94 -260 -295 -322q-88 -74 -88 -143q0 -80 78 -80q66 -1 146 73l41 -32q-57 -84 -107.5 -120t-120.5 -36 q-68 0 -109.5 40t-41.5 112q0 96 84 166h-15q-180 0 -284.5 125.5t-104.5 338.5zM203 633h418q-18 129 -60.5 182t-140.5 53q-86 0 -143.5 -60t-73.5 -175z" />
<glyph unicode="&#x11a;" horiz-adv-x="1251" d="M25 0v39q117 8 147.5 42t30.5 152v893q0 115 -32 150t-146 41v39h1085l8 -293h-51q-23 137 -80 176t-235 39h-269q-45 0 -58 -13.5t-13 -60.5v-450h309q129 0 171 36.5t60 159.5h47v-479h-47q-18 129 -59 164t-172 35h-309v-498q0 -61 43 -78.5t163 -17.5h74 q219 0 311.5 53t161.5 217h58l-95 -346h-1103zM324 1815h71l246 -211l248 211h72l-254 -342h-132z" />
<glyph unicode="&#x11b;" horiz-adv-x="909" d="M51 444q0 219 117 358.5t307 139.5q184 0 285 -141q59 -82 69 -234h-630q8 -129 25.5 -196.5t68.5 -137.5q86 -113 227 -112q100 0 169 49t147 166l32 -14q-123 -342 -428 -342q-180 0 -284.5 125.5t-104.5 338.5zM174 1380h72l246 -211l247 211h72l-254 -342h-131z M203 633h418q-18 129 -60.5 182t-140.5 53q-86 0 -143.5 -60t-73.5 -175z" />
<glyph unicode="&#x11c;" horiz-adv-x="1478" d="M66 670q0 340 219 538q193 176 489 176q131 0 273 -47q55 -20 90 -20q33 0 57.5 19.5t34.5 47.5h45l16 -432h-47q-66 160 -145 238q-119 113 -299 113q-205 0 -342 -142q-158 -158 -158 -497q0 -283 147.5 -447t391.5 -164q117 0 194.5 37t77.5 88v322q0 119 -29.5 148.5 t-152.5 39.5v37h524v-37q-90 -8 -116.5 -36.5t-26.5 -127.5v-409q-176 -143 -521 -144q-160 0 -306 57.5t-246 161.5q-170 178 -170 480zM406 1473l253 342h127l256 -342h-69l-250 210l-248 -210h-69z" />
<glyph unicode="&#x11d;" horiz-adv-x="1024" d="M57 -248q0 57 45 113.5t156 136.5q-66 31 -87 53.5t-21 55.5q0 59 94 141q47 41 88 82q-102 51 -146.5 114.5t-44.5 159.5q0 139 99.5 236.5t242.5 97.5q82 0 164 -31l45 -16q59 -20 113 -21h158v-79h-170q39 -88 38 -172q0 -158 -106.5 -238t-212.5 -80q-23 0 -78 6 l-39 4q-41 -12 -82 -55t-41 -74q0 -47 160 -55l264 -12q113 -4 180.5 -63.5t67.5 -155.5q0 -119 -123 -215q-170 -131 -409 -131q-147 0 -251 58t-104 140zM193 1038l253 342h127l256 -342h-69l-250 211l-248 -211h-69zM201 -180q0 -68 80.5 -109t216.5 -41 q174 0 281.5 54.5t107.5 144.5q0 57 -56.5 78.5t-197.5 21.5q-203 0 -332 27q-61 -74 -80.5 -107.5t-19.5 -68.5zM311 686q0 -147 58.5 -238.5t152.5 -91.5q70 0 111 50.5t41 134.5q0 135 -62 247q-51 96 -149 97q-72 0 -112 -51.5t-40 -141.5v-6z" />
<glyph unicode="&#x11e;" horiz-adv-x="1478" d="M66 670q0 340 219 538q193 176 489 176q131 0 273 -47q55 -20 90 -20q33 0 57.5 19.5t34.5 47.5h45l16 -432h-47q-66 160 -145 238q-119 113 -299 113q-205 0 -342 -142q-158 -158 -158 -497q0 -283 147.5 -447t391.5 -164q117 0 194.5 37t77.5 88v322q0 119 -29.5 148.5 t-152.5 39.5v37h524v-37q-90 -8 -116.5 -36.5t-26.5 -127.5v-409q-176 -143 -521 -144q-160 0 -306 57.5t-246 161.5q-170 178 -170 480zM498 1794h59q41 -199 229 -199q82 0 132.5 44t95.5 155h59q-37 -322 -291 -321q-141 0 -212.5 84.5t-71.5 236.5z" />
<glyph unicode="&#x11f;" horiz-adv-x="1024" d="M57 -248q0 57 45 113.5t156 136.5q-66 31 -87 53.5t-21 55.5q0 59 94 141q47 41 88 82q-102 51 -146.5 114.5t-44.5 159.5q0 139 99.5 236.5t242.5 97.5q82 0 164 -31l45 -16q59 -20 113 -21h158v-79h-170q39 -88 38 -172q0 -158 -106.5 -238t-212.5 -80q-23 0 -78 6 l-39 4q-41 -12 -82 -55t-41 -74q0 -47 160 -55l264 -12q113 -4 180.5 -63.5t67.5 -155.5q0 -119 -123 -215q-170 -131 -409 -131q-147 0 -251 58t-104 140zM201 -180q0 -68 80.5 -109t216.5 -41q174 0 281.5 54.5t107.5 144.5q0 57 -56.5 78.5t-197.5 21.5q-203 0 -332 27 q-61 -74 -80.5 -107.5t-19.5 -68.5zM203 1360h59q41 -199 230 -199q82 0 132 44t95 155h59q-37 -322 -291 -322q-141 0 -212.5 85t-71.5 237zM311 686q0 -147 58.5 -238.5t152.5 -91.5q70 0 111 50.5t41 134.5q0 135 -62 247q-51 96 -149 97q-72 0 -112 -51.5t-40 -141.5v-6 z" />
<glyph unicode="&#x120;" horiz-adv-x="1478" d="M66 670q0 340 219 538q193 176 489 176q131 0 273 -47q55 -20 90 -20q33 0 57.5 19.5t34.5 47.5h45l16 -432h-47q-66 160 -145 238q-119 113 -299 113q-205 0 -342 -142q-158 -158 -158 -497q0 -283 147.5 -447t391.5 -164q117 0 194.5 37t77.5 88v322q0 119 -29.5 148.5 t-152.5 39.5v37h524v-37q-90 -8 -116.5 -36.5t-26.5 -127.5v-409q-176 -143 -521 -144q-160 0 -306 57.5t-246 161.5q-170 178 -170 480zM657 1606q0 43 28 72.5t73 29.5q47 0 74.5 -28.5t27.5 -73.5q0 -43 -29.5 -72t-72.5 -29q-41 0 -71 30t-30 71z" />
<glyph unicode="&#x121;" horiz-adv-x="1024" d="M57 -248q0 57 45 113.5t156 136.5q-66 31 -87 53.5t-21 55.5q0 59 94 141q47 41 88 82q-102 51 -146.5 114.5t-44.5 159.5q0 139 99.5 236.5t242.5 97.5q82 0 164 -31l45 -16q59 -20 113 -21h158v-79h-170q39 -88 38 -172q0 -158 -106.5 -238t-212.5 -80q-23 0 -78 6 l-39 4q-41 -12 -82 -55t-41 -74q0 -47 160 -55l264 -12q113 -4 180.5 -63.5t67.5 -155.5q0 -119 -123 -215q-170 -131 -409 -131q-147 0 -251 58t-104 140zM201 -180q0 -68 80.5 -109t216.5 -41q174 0 281.5 54.5t107.5 144.5q0 57 -56.5 78.5t-197.5 21.5q-203 0 -332 27 q-61 -74 -80.5 -107.5t-19.5 -68.5zM311 686q0 -147 58.5 -238.5t152.5 -91.5q70 0 111 50.5t41 134.5q0 135 -62 247q-51 96 -149 97q-72 0 -112 -51.5t-40 -141.5v-6zM412 1171q0 43 27.5 73t72.5 30q47 0 74.5 -29t27.5 -74q0 -43 -29.5 -71.5t-72.5 -28.5 q-41 0 -70.5 29.5t-29.5 70.5z" />
<glyph unicode="&#x122;" horiz-adv-x="1478" d="M66 670q0 340 219 538q193 176 489 176q131 0 273 -47q55 -20 90 -20q33 0 57.5 19.5t34.5 47.5h45l16 -432h-47q-66 160 -145 238q-119 113 -299 113q-205 0 -342 -142q-158 -158 -158 -497q0 -283 147.5 -447t391.5 -164q117 0 194.5 37t77.5 88v322q0 119 -29.5 148.5 t-152.5 39.5v37h524v-37q-90 -8 -116.5 -36.5t-26.5 -127.5v-409q-176 -143 -521 -144q-160 0 -306 57.5t-246 161.5q-170 178 -170 480zM676 -193q0 53 33.5 85t89.5 32q70 0 117 -50t47 -128q0 -94 -63 -182t-167 -137l-20 38q170 115 170 220q0 27 -29 26q-8 0 -27.5 -4 t-31.5 -4q-119 0 -119 104z" />
<glyph unicode="&#x123;" horiz-adv-x="1024" d="M57 -248q0 57 45 113.5t156 136.5q-66 31 -87 53.5t-21 55.5q0 59 94 141q47 41 88 82q-102 51 -146.5 114.5t-44.5 159.5q0 139 99.5 236.5t242.5 97.5q82 0 164 -31l45 -16q59 -20 113 -21h158v-79h-170q39 -88 38 -172q0 -158 -106.5 -238t-212.5 -80q-23 0 -78 6 l-39 4q-41 -12 -82 -55t-41 -74q0 -47 160 -55l264 -12q113 -4 180.5 -63.5t67.5 -155.5q0 -119 -123 -215q-170 -131 -409 -131q-147 0 -251 58t-104 140zM201 -180q0 -68 80.5 -109t216.5 -41q174 0 281.5 54.5t107.5 144.5q0 57 -56.5 78.5t-197.5 21.5q-203 0 -332 27 q-61 -74 -80.5 -107.5t-19.5 -68.5zM311 686q0 -147 58.5 -238.5t152.5 -91.5q70 0 111 50.5t41 134.5q0 135 -62 247q-51 96 -149 97q-72 0 -112 -51.5t-40 -141.5v-6zM371 1253q0 92 63.5 178.5t165.5 137.5l18 -39q-168 -117 -167 -217q0 -29 28 -29q4 0 15 4q25 4 41 4 q57 0 88.5 -27.5t31.5 -76.5q0 -51 -33.5 -84t-86.5 -33q-70 0 -117 52.5t-47 129.5z" />
<glyph unicode="&#x124;" horiz-adv-x="1478" d="M37 0v39q121 8 151.5 44t30.5 167v872q0 119 -31.5 152t-150.5 43v39h573v-39q-115 -10 -148.5 -44t-33.5 -151v-387h621v387q0 119 -32 152t-151 43v39h574v-39q-115 -10 -149 -44t-34 -151v-895q0 -109 34 -144.5t149 -43.5v-39h-572v39q119 8 150 46t31 169v391h-621 v-414q0 -113 33 -149.5t145 -42.5l2 -39h-571zM424 1473l254 342h127l256 -342h-70l-250 210l-247 -210h-70z" />
<glyph unicode="&#x125;" horiz-adv-x="1024" d="M18 0v31q88 12 110 40.5t22 137.5v965q0 66 -19.5 85t-85.5 19q-18 0 -25 -2v33l56 16q158 47 235 74l11 -6v-623q72 92 141 132t160 40q252 0 251 -326v-407q0 -106 19.5 -134t103.5 -44v-31h-434v31q90 10 114.5 40.5t24.5 137.5v405q0 217 -151 217 q-61 0 -112.5 -28.5t-116.5 -100.5v-493q0 -106 24.5 -137t114.5 -41v-31h-443zM133 1473l254 342h127l256 -342h-70l-249 210l-248 -210h-70z" />
<glyph unicode="&#x126;" horiz-adv-x="1480" d="M35 0v39q121 8 151.5 44t30.5 167v725h-182v90h182v57q0 119 -31.5 152t-150.5 43v39h573v-39q-115 -10 -148.5 -44t-33.5 -151v-57h621v57q0 119 -32 152t-151 43v39h574v-39q-115 -10 -149 -44t-34 -151v-57h181v-90h-181v-748q0 -109 34 -144.5t149 -43.5v-39h-572v39 q119 8 150 46t31 169v391h-621v-414q0 -113 34 -149.5t146 -42.5v-39h-571zM426 735h621v240h-621v-240z" />
<glyph unicode="&#x127;" horiz-adv-x="1024" d="M16 1049v110h134v15q0 66 -19.5 85t-85.5 19q-18 0 -25 -2v33l56 16q158 47 235 74l11 -6v-234h331v-110h-331v-279q72 92 141 132t160 40q252 0 251 -326v-407q0 -106 19.5 -134t103.5 -44v-31h-434v31q90 10 114.5 40.5t24.5 137.5v405q0 217 -151 217 q-61 0 -112.5 -28.5t-116.5 -100.5v-493q0 -106 24.5 -137t114.5 -41v-31h-443v31q88 12 110 40.5t22 137.5v840h-134z" />
<glyph unicode="&#x128;" horiz-adv-x="681" d="M2 1524q23 100 76 153.5t131 53.5q70 0 143 -37l49 -25q57 -31 109 -31q35 0 58 23t50 80h60q-33 -117 -82 -167t-133 -50q-66 0 -166 49l-47 22q-49 23 -84 23q-72 0 -105 -94h-59zM37 0v39q129 4 164 38t35 152v899q0 119 -33 150t-166 39v39h608v-39q-129 -6 -165 -39 t-36 -150v-899q0 -115 37 -150.5t164 -39.5v-39h-608z" />
<glyph unicode="&#x129;" horiz-adv-x="569" d="M-51 1090q23 100 76 153t131 53q70 0 143 -36l49 -25q59 -31 109 -31q35 0 58 23t50 80h60q-33 -117 -82 -167t-133 -50q-66 0 -166 49l-47 22q-49 23 -84 23q-72 0 -105 -94h-59zM33 0v31q106 6 134 36.5t28 145.5v465q0 72 -14.5 100.5t-53.5 28.5q-49 0 -86 -10v32 l315 113l11 -8v-719q0 -115 25.5 -145.5t125.5 -38.5v-31h-485z" />
<glyph unicode="&#x12a;" horiz-adv-x="681" d="M23 1473v110h636v-110h-636zM37 0v39q129 4 164 38t35 152v899q0 119 -33 150t-166 39v39h608v-39q-129 -6 -165 -39t-36 -150v-899q0 -115 37 -150.5t164 -39.5v-39h-608z" />
<glyph unicode="&#x12b;" horiz-adv-x="569" d="M-43 1038v111h637v-111h-637zM33 0v31q106 6 134 36.5t28 145.5v465q0 72 -14.5 100.5t-53.5 28.5q-49 0 -86 -10v32l315 113l11 -8v-719q0 -115 25.5 -145.5t125.5 -38.5v-31h-485z" />
<glyph unicode="&#x12c;" horiz-adv-x="681" d="M37 0v39q129 4 164 38t35 152v899q0 119 -33 150t-166 39v39h608v-39q-129 -6 -165 -39t-36 -150v-899q0 -115 37 -150.5t164 -39.5v-39h-608zM49 1794h60q41 -199 229 -199q82 0 132 44t95 155h60q-37 -322 -291 -321q-141 0 -213 84.5t-72 236.5z" />
<glyph unicode="&#x12d;" horiz-adv-x="569" d="M-2 1360h59q41 -199 230 -199q82 0 132 44t95 155h59q-37 -322 -290 -322q-141 0 -213 85t-72 237zM33 0v31q106 6 134 36.5t28 145.5v465q0 72 -14.5 100.5t-53.5 28.5q-49 0 -86 -10v32l315 113l11 -8v-719q0 -115 25.5 -145.5t125.5 -38.5v-31h-485z" />
<glyph unicode="&#x12e;" horiz-adv-x="681" d="M37 0v39q129 4 164 38t35 152v899q0 119 -33 150t-166 39v39h608v-39q-129 -6 -165 -39t-36 -150v-899q0 -115 37 -150.5t164 -39.5v-39h-194q-90 -72 -91 -143q0 -80 78 -80q66 0 146 73l41 -32q-57 -84 -107.5 -120t-120.5 -36q-68 0 -109.5 40t-41.5 112 q-1 108 110 186h-319z" />
<glyph unicode="&#x12f;" horiz-adv-x="569" d="M33 0v31q106 6 134 36.5t28 145.5v465q0 72 -14.5 100.5t-53.5 28.5q-49 0 -86 -10v32l317 113l9 -8v-719q0 -115 25.5 -145.5t125.5 -38.5v-31h-125q-90 -72 -90 -143q0 -80 78 -80q66 0 145 73l41 -32q-57 -84 -107 -120t-120 -36q-68 0 -110 40t-42 112q0 108 111 186 h-266zM160 1294q0 43 30.5 74t73.5 31q45 0 75 -31t30 -74q0 -45 -31 -74.5t-76 -29.5q-43 0 -72.5 29.5t-29.5 74.5z" />
<glyph unicode="&#x130;" horiz-adv-x="681" d="M37 0v39q129 4 164 38t35 152v899q0 119 -33 150t-166 39v39h608v-39q-129 -6 -165 -39t-36 -150v-899q0 -115 37 -150.5t164 -39.5v-39h-608zM238 1606q0 43 27.5 72.5t72.5 29.5q47 0 74.5 -28.5t27.5 -73.5q0 -43 -29.5 -72t-72.5 -29q-41 0 -70.5 30t-29.5 71z" />
<glyph unicode="&#x131;" horiz-adv-x="569" d="M33 0v31q106 6 134 36.5t28 145.5v465q0 72 -14.5 100.5t-53.5 28.5q-49 0 -86 -10v32l315 113l11 -8v-719q0 -115 25.5 -145.5t125.5 -38.5v-31h-485z" />
<glyph unicode="&#x134;" horiz-adv-x="763" d="M-12 119q0 41 29.5 73.5t70.5 32.5q68 0 100 -86q4 -10 10.5 -27.5t9.5 -26.5t9 -18.5t14.5 -13.5t20.5 -4q45 0 60.5 32t15.5 112v933q0 121 -31 151t-160 40v39h588v-39q-125 -10 -156.5 -42t-31.5 -151v-745q0 -408 -342 -408q-94 0 -150.5 39t-56.5 109zM115 1473 l254 342h127l256 -342h-70l-250 210l-248 -210h-69z" />
<glyph unicode="&#x135;" horiz-adv-x="569" d="M-143 -334q0 33 24.5 56.5t59.5 23.5q47 0 98 -65q47 -57 86 -58q47 0 70 37q29 51 28 248v776q0 123 -65 123q-49 0 -82 -6l-10 -2v32q164 51 319 111l10 -6v-936q0 -219 -89 -332.5t-259 -113.5q-84 0 -137 31.5t-53 80.5zM-33 1038l254 342h127l256 -342h-69l-250 211 l-248 -211h-70z" />
<glyph unicode="&#x136;" horiz-adv-x="1478" d="M68 0v39q121 6 153.5 45t32.5 172v868q0 115 -33 150t-151 43v39h577v-39q-125 -8 -154.5 -41t-29.5 -154v-409l364 336q88 82 124 125t36 77q0 33 -17.5 47.5t-66.5 16.5l-51 2v39h530v-39q-104 -8 -158.5 -36t-160.5 -130l-381 -365l479 -524q127 -139 187.5 -181 t132.5 -42v-39h-621v39l55 2q86 2 86 49q0 37 -66.5 116t-213.5 232l-205 211l-53 -43v-379q0 -115 32.5 -146.5t149.5 -41.5v-39h-577zM614 -193q0 53 34 85t89 32q70 0 117 -50t47 -128q0 -94 -62.5 -182t-166.5 -137l-21 38q170 115 170 220q0 27 -28 26q-8 0 -28 -4 t-32 -4q-119 0 -119 104z" />
<glyph unicode="&#x137;" horiz-adv-x="1024" d="M14 0v31q111 18 132.5 37.5t21.5 99.5v987q0 74 -18.5 99.5t-69.5 25.5q-12 0 -66 -4v33l62 16q123 33 256 74l8 -4v-860l281 249q47 43 47 72q0 20 -21.5 27.5t-81.5 9.5v29h418v-31q-102 0 -181 -44t-261 -214l-60 -55l314 -398q111 -141 239 -149v-31h-446v31h39 q43 0 43 30q0 18 -23 48l-307 405v-377q0 -53 25.5 -77.5t87.5 -26.5l41 -2v-31h-480zM328 -193q0 53 33.5 85t89.5 32q70 0 116.5 -50t46.5 -128q0 -94 -62.5 -182t-166.5 -137l-20 38q170 115 170 220q0 27 -29 26q-8 0 -27.5 -4t-32.5 -4q-119 0 -118 104z" />
<glyph unicode="&#x138;" horiz-adv-x="1110" d="M10 0v33q98 0 123 22q35 23 35 103v624q0 80 -33 103q-29 20 -125 22v33h494v-33q-94 -4 -121 -22q-35 -23 -35 -105v-215l92 8q61 6 117 58q61 53 107 180q25 72 69.5 100.5t122.5 28.5q63 0 110.5 -28.5t47.5 -77.5q0 -37 -31 -60.5t-68 -23.5q-51 0 -83.5 39.5 t-49.5 39.5q-25 0 -37 -14t-22 -47q-45 -150 -141 -223q33 -12 63 -45q29 -31 99.5 -157t80.5 -142q90 -129 265 -170v-31h-267q-47 27 -81.5 57.5t-73.5 89.5q-29 45 -72 127t-59 111q-57 98 -78 111q-82 -4 -111 -4v-332q0 -76 35 -99q33 -29 121 -28v-33h-494z" />
<glyph unicode="&#x139;" horiz-adv-x="1251" d="M25 0v39q113 6 145.5 43t32.5 154v882q0 121 -30 156t-148 43v39h579v-39q-125 -8 -158.5 -42t-33.5 -153v-950q0 -57 35.5 -74.5t148.5 -17.5h143q248 0 346 125q41 55 86 151h54l-99 -356h-1101zM268 1473l301 303q47 47 86 47q72 0 72 -66q0 -47 -61 -86l-316 -198 h-82z" />
<glyph unicode="&#x13a;" horiz-adv-x="569" d="M39 1276v33q195 47 323 90l11 -8v-1213q0 -86 28.5 -113.5t124.5 -33.5v-31h-483v31q96 8 127 39.5t31 117.5v961q0 74 -18.5 102.5t-67.5 28.5q-43 0 -76 -4zM59 1473l301 303q47 47 86 47q72 0 72 -66q0 -47 -61 -86l-316 -198h-82z" />
<glyph unicode="&#x13b;" horiz-adv-x="1251" d="M25 0v39q113 6 145.5 43t32.5 154v882q0 121 -30 156t-148 43v39h579v-39q-125 -8 -158.5 -42t-33.5 -153v-950q0 -57 35.5 -74.5t148.5 -17.5h143q248 0 346 125q41 55 86 151h54l-99 -356h-1101zM471 -193q0 53 34 85t89 32q70 0 117 -50t47 -128q0 -94 -63 -182 t-167 -137l-20 38q170 115 170 220q0 27 -29 26q-8 0 -27.5 -4t-31.5 -4q-119 0 -119 104z" />
<glyph unicode="&#x13c;" horiz-adv-x="569" d="M39 1276v33q195 47 323 90l11 -8v-1213q0 -86 28.5 -113.5t124.5 -33.5v-31h-483v31q96 8 127 39.5t31 117.5v961q0 74 -18.5 102.5t-67.5 28.5q-43 0 -76 -4zM143 -193q0 53 34 85t89 32q70 0 117 -50t47 -128q0 -94 -62.5 -182t-166.5 -137l-21 38q170 115 170 220 q0 27 -28 26q-8 0 -28 -4t-32 -4q-119 0 -119 104z" />
<glyph unicode="&#x13d;" horiz-adv-x="1251" d="M25 0v39q113 6 145.5 43t32.5 154v882q0 121 -30 156t-148 43v39h579v-39q-125 -8 -158.5 -42t-33.5 -153v-950q0 -57 35.5 -74.5t148.5 -17.5h143q248 0 346 125q41 55 86 151h54l-99 -356h-1101zM719 1282q0 51 33.5 84t87.5 33q70 0 117 -52.5t47 -129.5 q0 -92 -64 -178.5t-166 -137.5l-18 39q168 115 168 219q0 27 -29 27q-4 0 -14 -4q-25 -4 -41 -4q-57 0 -89 27.5t-32 76.5z" />
<glyph unicode="&#x13e;" horiz-adv-x="780" d="M39 1276v33q195 47 323 90l11 -8v-1213q0 -86 28.5 -113.5t124.5 -33.5v-31h-483v31q96 8 127 39.5t31 117.5v961q0 74 -18.5 102.5t-67.5 28.5q-43 0 -76 -4zM457 1321q0 51 33.5 84t87.5 33q70 0 116.5 -52.5t46.5 -130.5q0 -92 -63.5 -178t-165.5 -137l-18 39 q168 115 168 219q0 27 -29 27q-4 0 -15 -4q-25 -4 -40 -4q-57 0 -89 27.5t-32 76.5z" />
<glyph unicode="&#x13f;" horiz-adv-x="1269" d="M59 0v39q113 6 146 43t33 154v882q0 121 -30 156t-149 43v39h580v-39q-125 -8 -159 -42t-34 -153v-950q0 -57 36 -74.5t149 -17.5h143q248 0 346 125q41 55 86 151h54l-99 -356h-1102zM707 709q0 47 33.5 80.5t80.5 33.5q45 0 79 -34.5t34 -81.5q0 -45 -34 -78t-81 -33 t-79.5 33t-32.5 80z" />
<glyph unicode="&#x140;" horiz-adv-x="757" d="M39 1276v33q195 47 323 90l11 -8v-1213q0 -86 28.5 -113.5t124.5 -33.5v-31h-483v31q96 8 127 39.5t31 117.5v961q0 74 -18.5 102.5t-67.5 28.5q-43 0 -76 -4zM498 702.5q0 47.5 33.5 81t80.5 33.5q45 0 79 -35t34 -82q0 -45 -34 -77.5t-81 -32.5t-79.5 32.5t-32.5 80z " />
<glyph unicode="&#x141;" horiz-adv-x="1251" d="M20 0v39q111 4 146 43t35 145v346l-178 -108v100l178 111v452q0 113 -33 148t-145 41v39h577v-39q-117 -6 -153.5 -41t-36.5 -148v-352l317 195v-101l-317 -192v-510q0 -53 34.5 -70.5t145.5 -17.5h129q207 0 303 67q76 55 147 209h54l-101 -356h-1102z" />
<glyph unicode="&#x142;" horiz-adv-x="569" d="M39 1270v39q195 47 323 90l11 -6v-533l157 109v-90l-157 -109v-594q0 -88 26.5 -111.5t128.5 -33.5v-31h-487v31q102 8 131 34.5t29 116.5v471l-160 -110v90l160 110v408q0 78 -17.5 103.5t-68.5 25.5q-25 0 -76 -10z" />
<glyph unicode="&#x143;" horiz-adv-x="1478" d="M25 0v39q127 14 162.5 60t35.5 208v901q-53 66 -90 87.5t-108 21.5v39h348l790 -989v696q0 156 -39 201q-25 27 -54.5 36t-106.5 17v39h485v-39q-104 -10 -135 -37q-33 -29 -46.5 -78t-13.5 -164v-1061h-36l-904 1125v-795q0 -156 35 -204t156 -64v-39h-479zM571 1473 l301 303q47 47 86 47q72 0 72 -66q0 -47 -61 -86l-316 -198h-82z" />
<glyph unicode="&#x144;" horiz-adv-x="1024" d="M33 815v35q143 41 280 92l17 -6v-160h2q145 166 295 166q117 0 179 -82t62 -233v-453q0 -82 25 -108.5t100 -34.5v-31h-426l2 31q76 6 101.5 44t25.5 140v408q0 207 -149 206q-51 0 -96 -24.5t-115 -91.5v-566q0 -61 27.5 -85.5t105.5 -30.5v-31h-432v31q78 6 102.5 37.5 t24.5 124.5v497q0 76 -14.5 104.5t-57.5 28.5q-41 0 -59 -8zM391 1038l301 303q47 47 86 48q72 0 72 -66q0 -47 -62 -86l-315 -199h-82z" />
<glyph unicode="&#x145;" horiz-adv-x="1478" d="M25 0v39q127 14 162.5 60t35.5 208v901q-53 66 -90 87.5t-108 21.5v39h348l790 -989v696q0 156 -39 201q-25 27 -54.5 36t-106.5 17v39h485v-39q-104 -10 -135 -37q-33 -29 -46.5 -78t-13.5 -164v-1061h-36l-904 1125v-795q0 -156 35 -204t156 -64v-39h-479zM594 -193 q0 53 34 85t89 32q70 0 117 -50t47 -128q0 -94 -63 -182t-167 -137l-20 38q170 115 170 220q0 27 -29 26q-8 0 -27.5 -4t-31.5 -4q-119 0 -119 104z" />
<glyph unicode="&#x146;" horiz-adv-x="1024" d="M33 815v35q143 41 280 92l17 -6v-160h2q145 166 295 166q117 0 179 -82t62 -233v-453q0 -82 25 -108.5t100 -34.5v-31h-426l2 31q76 6 101.5 44t25.5 140v408q0 207 -149 206q-51 0 -96 -24.5t-115 -91.5v-566q0 -61 27.5 -85.5t105.5 -30.5v-31h-432v31q78 6 102.5 37.5 t24.5 124.5v497q0 76 -14.5 104.5t-57.5 28.5q-41 0 -59 -8zM379 -193q0 53 33.5 85t89.5 32q70 0 117 -50t47 -128q0 -94 -63 -182t-167 -137l-20 38q170 115 170 220q0 27 -29 26q-8 0 -27.5 -4t-31.5 -4q-119 0 -119 104z" />
<glyph unicode="&#x147;" horiz-adv-x="1478" d="M25 0v39q127 14 162.5 60t35.5 208v901q-53 66 -90 87.5t-108 21.5v39h348l790 -989v696q0 156 -39 201q-25 27 -54.5 36t-106.5 17v39h485v-39q-104 -10 -135 -37q-33 -29 -46.5 -78t-13.5 -164v-1061h-36l-904 1125v-795q0 -156 35 -204t156 -64v-39h-479zM426 1815h72 l245 -211l248 211h72l-254 -342h-131z" />
<glyph unicode="&#x148;" horiz-adv-x="1024" d="M33 815v35q143 41 280 92l17 -6v-160h2q145 166 295 166q117 0 179 -82t62 -233v-453q0 -82 25 -108.5t100 -34.5v-31h-426l2 31q76 6 101.5 44t25.5 140v408q0 207 -149 206q-51 0 -96 -24.5t-115 -91.5v-566q0 -61 27.5 -85.5t105.5 -30.5v-31h-432v31q78 6 102.5 37.5 t24.5 124.5v497q0 76 -14.5 104.5t-57.5 28.5q-41 0 -59 -8zM195 1380h71l246 -211l248 211h71l-253 -342h-132z" />
<glyph unicode="&#x149;" horiz-adv-x="1208" d="M41 1321q0 51 34 84t87 33q70 0 117 -52.5t47 -130.5q0 -92 -64 -178t-166 -137l-18 39q168 115 168 219q0 27 -29 27q-4 0 -14 -4q-25 -4 -41 -4q-57 0 -89 27.5t-32 76.5zM199 815v35q143 41 280 92l17 -6v-160h2q145 166 295 166q117 0 179 -82t62 -233v-453 q0 -82 24.5 -108.5t100.5 -34.5v-31h-426l2 31q76 6 101.5 44t25.5 140v408q0 207 -149 206q-51 0 -96.5 -24.5t-114.5 -91.5v-566q0 -61 27.5 -85.5t105.5 -30.5v-31h-432v31q78 6 102.5 37.5t24.5 124.5v497q0 76 -14.5 104.5t-57.5 28.5q-41 0 -59 -8z" />
<glyph unicode="&#x14a;" horiz-adv-x="1454" d="M33 1321v35h356v-246q133 279 397 279q193 0 330 -102.5t199.5 -256t62.5 -336.5q0 -123 -34.5 -247.5t-99 -234.5t-174 -179.5t-243.5 -69.5q-98 0 -159.5 52.5t-61.5 138.5q0 59 35 107t94 48q61 0 96 -40t35 -93q0 -12 -8 -46t-8 -42q0 -49 45 -49q115 0 187.5 164 t72.5 434q0 299 -106.5 478t-294.5 179q-121 0 -219.5 -101t-137.5 -288v-678q0 -78 26 -136t77 -58h28v-33h-456v33q74 0 95 39t21 116v932q0 100 -27.5 150.5t-99.5 50.5h-28z" />
<glyph unicode="&#x14b;" horiz-adv-x="1032" d="M33 815v35q143 41 280 92l17 -6v-160h2q145 166 295 166q117 0 179 -81.5t62 -233.5v-627q0 -219 -89 -332.5t-259 -113.5q-84 0 -137 31.5t-53 80.5q0 33 24.5 56.5t59.5 23.5q47 0 98 -65q47 -57 86 -58q47 0 70 37q29 51 28 248v715q0 207 -149 206q-51 0 -96 -24.5 t-115 -91.5v-566q0 -61 27.5 -85.5t105.5 -30.5v-31h-432v31q78 6 102.5 37.5t24.5 124.5v497q0 76 -14.5 104.5t-57.5 28.5q-41 0 -59 -8z" />
<glyph unicode="&#x14c;" horiz-adv-x="1478" d="M70 684q0 311 185 505.5t484 194.5t484.5 -199.5t185.5 -506.5q0 -315 -186.5 -511t-483.5 -196q-299 0 -484 197t-185 516zM303 680q0 -373 184 -543q100 -92 254 -92q160 0 265 98q170 164 170 547q0 174 -49.5 312.5t-137.5 211.5q-115 96 -252 97q-174 0 -293 -137 q-66 -74 -103.5 -210.5t-37.5 -283.5zM420 1473v110h637v-110h-637z" />
<glyph unicode="&#x14d;" horiz-adv-x="1024" d="M59 467q0 213 127 344t334 131q190 0 316.5 -130t126.5 -339q0 -215 -128 -354t-333 -139q-188 0 -315.5 138t-127.5 349zM190 1038v111h637v-111h-637zM244 559q0 -262 108 -420q70 -102 185 -102q113 0 177 101.5t64 279.5q0 233 -102 364q-82 102 -195 103 q-106 0 -171.5 -87t-65.5 -239z" />
<glyph unicode="&#x14e;" horiz-adv-x="1478" d="M70 684q0 311 185 505.5t484 194.5t484.5 -199.5t185.5 -506.5q0 -315 -186.5 -511t-483.5 -196q-299 0 -484 197t-185 516zM303 680q0 -373 184 -543q100 -92 254 -92q160 0 265 98q170 164 170 547q0 174 -49.5 312.5t-137.5 211.5q-115 96 -252 97q-174 0 -293 -137 q-66 -74 -103.5 -210.5t-37.5 -283.5zM449 1794h59q41 -199 229 -199q82 0 132.5 44t95.5 155h59q-37 -322 -291 -321q-141 0 -212.5 84.5t-71.5 236.5z" />
<glyph unicode="&#x14f;" horiz-adv-x="1024" d="M59 467q0 213 127 344t334 131q190 0 316.5 -130t126.5 -339q0 -215 -128 -354t-333 -139q-188 0 -315.5 138t-127.5 349zM225 1360h60q41 -199 229 -199q82 0 132 44t95 155h60q-37 -322 -291 -322q-141 0 -213 85t-72 237zM244 559q0 -262 108 -420q70 -102 185 -102 q113 0 177 101.5t64 279.5q0 233 -102 364q-82 102 -195 103q-106 0 -171.5 -87t-65.5 -239z" />
<glyph unicode="&#x150;" horiz-adv-x="1478" d="M70 684q0 311 185 505.5t484 194.5t484.5 -199.5t185.5 -506.5q0 -315 -186.5 -511t-483.5 -196q-299 0 -484 197t-185 516zM303 680q0 -373 184 -543q100 -92 254 -92q160 0 265 98q170 164 170 547q0 174 -49.5 312.5t-137.5 211.5q-115 96 -252 97q-174 0 -293 -137 q-66 -74 -103.5 -210.5t-37.5 -283.5zM350 1473l299 303q47 47 88 47q70 0 70 -62q0 -55 -59 -92l-316 -196h-82zM670 1473l299 303q47 47 88 47q70 0 69 -62q0 -55 -59 -92l-315 -196h-82z" />
<glyph unicode="&#x151;" horiz-adv-x="1024" d="M59 467q0 213 127 344t334 131q190 0 316.5 -130t126.5 -339q0 -215 -128 -354t-333 -139q-188 0 -315.5 138t-127.5 349zM152 1038l299 303q47 47 88 48q70 0 69 -62q0 -55 -59 -92l-316 -197h-81zM244 559q0 -262 108 -420q70 -102 185 -102q113 0 177 101.5t64 279.5 q0 233 -102 364q-82 102 -195 103q-106 0 -171.5 -87t-65.5 -239zM471 1038l299 303q47 47 88 48q70 0 70 -62q0 -55 -60 -92l-315 -197h-82z" />
<glyph unicode="&#x152;" horiz-adv-x="1820" d="M61 674q0 393 265 583q154 111 374 111q35 0 134 -6q111 -6 231 -6h651v-289h-47q-18 135 -79.5 175t-250.5 40h-108q-84 0 -114 -16.5t-30 -55.5v-460h207q156 0 210.5 38.5t66.5 161.5h43v-479h-43q-14 119 -58.5 161t-152.5 42h-273v-484q0 -61 25 -86.5t98 -25.5h232 q100 0 176 61.5t145 204.5h49l-90 -344h-702q-61 0 -195.5 -6t-181.5 -6q-121 0 -239.5 52t-190.5 140q-152 186 -152 494zM291 674q0 -279 86 -432q100 -178 301 -179q109 0 157 49t48 160v803q0 115 -44 167t-149 52q-188 0 -293.5 -161.5t-105.5 -458.5z" />
<glyph unicode="&#x153;" horiz-adv-x="1478" d="M61 446q0 121 44.5 231.5t119.5 174.5q102 90 250 90q94 0 165 -35t146 -121q63 86 123 121t144 35q166 0 258 -127q61 -82 69 -248h-520q10 -231 74.5 -340.5t189.5 -109.5q74 0 134.5 41t132.5 139l22 -12q-80 -166 -164 -235.5t-202 -69.5q-94 0 -155 45t-108 149 q-57 -106 -126.5 -150t-174.5 -44q-186 0 -304 131t-118 335zM246 522q0 -254 76 -385q61 -104 170 -104q102 0 156 94t54 272q0 483 -239 484q-88 0 -152 -74q-66 -76 -65 -287zM858 629h328v55q0 86 -46 142.5t-116 56.5q-164 0 -166 -254z" />
<glyph unicode="&#x154;" horiz-adv-x="1366" d="M35 0v39q117 10 145.5 45t28.5 170v874q0 115 -28.5 148t-145.5 41v39h557q281 0 428 -121q100 -82 100 -246q0 -279 -370 -336l409 -518q43 -53 82 -71.5t111 -24.5v-39h-332l-488 631l-114 -4v-398q0 -117 31.5 -149.5t150.5 -40.5v-39h-565zM418 702q147 2 219 16.5 t143 53.5q117 66 117 234q0 274 -375 274q-55 0 -79.5 -17.5t-24.5 -68.5v-492zM440 1473l301 303q47 47 86 47q72 0 72 -66q0 -47 -61 -86l-316 -198h-82z" />
<glyph unicode="&#x155;" horiz-adv-x="681" d="M10 0v31q98 18 122 40.5t24 100.5v512q0 68 -15.5 95.5t-54.5 27.5q-33 0 -72 -8v32q129 41 303 111l11 -4v-188q78 111 130 151.5t115 40.5q53 0 83 -28.5t30 -79.5q0 -43 -21.5 -68t-58.5 -25q-39 0 -82 41q-33 31 -53 31q-43 0 -93 -59.5t-50 -108.5v-461 q0 -88 34.5 -118.5t139.5 -34.5v-31h-492zM135 1038l301 303q47 47 86 48q72 0 72 -66q0 -47 -62 -86l-315 -199h-82z" />
<glyph unicode="&#x156;" horiz-adv-x="1366" d="M35 0v39q117 10 145.5 45t28.5 170v874q0 115 -28.5 148t-145.5 41v39h557q281 0 428 -121q100 -82 100 -246q0 -279 -370 -336l409 -518q43 -53 82 -71.5t111 -24.5v-39h-332l-488 631l-114 -4v-398q0 -117 31.5 -149.5t150.5 -40.5v-39h-565zM418 702q147 2 219 16.5 t143 53.5q117 66 117 234q0 274 -375 274q-55 0 -79.5 -17.5t-24.5 -68.5v-492zM573 -193q0 53 34 85t89 32q70 0 117 -50t47 -128q0 -94 -62.5 -182t-166.5 -137l-21 38q170 115 170 220q0 27 -28 26q-8 0 -27.5 -4t-32.5 -4q-119 0 -119 104z" />
<glyph unicode="&#x157;" horiz-adv-x="681" d="M10 0v31q98 18 122 40.5t24 100.5v512q0 68 -15.5 95.5t-54.5 27.5q-33 0 -72 -8v32q129 41 303 111l11 -4v-188q78 111 130 151.5t115 40.5q53 0 83 -28.5t30 -79.5q0 -43 -21.5 -68t-58.5 -25q-39 0 -82 41q-33 31 -53 31q-43 0 -93 -59.5t-50 -108.5v-461 q0 -88 34.5 -118.5t139.5 -34.5v-31h-492zM184 -193q0 53 34 85t89 32q70 0 117 -50t47 -128q0 -94 -62.5 -182t-166.5 -137l-21 38q170 115 170 220q0 27 -29 26q-8 0 -27.5 -4t-31.5 -4q-119 0 -119 104z" />
<glyph unicode="&#x158;" horiz-adv-x="1366" d="M35 0v39q117 10 145.5 45t28.5 170v874q0 115 -28.5 148t-145.5 41v39h557q281 0 428 -121q100 -82 100 -246q0 -279 -370 -336l409 -518q43 -53 82 -71.5t111 -24.5v-39h-332l-488 631l-114 -4v-398q0 -117 31.5 -149.5t150.5 -40.5v-39h-565zM276 1815h72l246 -211 l248 211h71l-254 -342h-131zM418 702q147 2 219 16.5t143 53.5q117 66 117 234q0 274 -375 274q-55 0 -79.5 -17.5t-24.5 -68.5v-492z" />
<glyph unicode="&#x159;" horiz-adv-x="681" d="M10 0v31q98 18 122 40.5t24 100.5v512q0 68 -15.5 95.5t-54.5 27.5q-33 0 -72 -8v32q129 41 303 111l11 -4v-188q78 111 130 151.5t115 40.5q53 0 83 -28.5t30 -79.5q0 -43 -21.5 -68t-58.5 -25q-39 0 -82 41q-33 31 -53 31q-43 0 -93 -59.5t-50 -108.5v-461 q0 -88 34.5 -118.5t139.5 -34.5v-31h-492zM20 1380h72l246 -211l248 211h71l-254 -342h-131z" />
<glyph unicode="&#x15a;" horiz-adv-x="1138" d="M88 408h45q137 -362 422 -363q109 0 176.5 64.5t67.5 164.5q0 96 -60 162q-98 106 -344 238q-250 133 -250 352q0 164 100.5 261t256.5 97q109 0 215 -45q55 -25 90 -24q53 0 65 69h43l46 -436h-52q-35 127 -84 193q-125 160 -297 159q-94 0 -150 -54t-56 -140 q0 -41 20 -80t44 -66.5t83 -68.5t96 -62.5t123 -72.5q166 -96 242 -191.5t76 -210.5q0 -170 -119 -276.5t-299 -106.5q-133 0 -242 47q-53 23 -96 23q-25 0 -41 -18.5t-16 -49.5h-46zM412 1473l301 303q47 47 86 47q72 0 71 -66q0 -47 -61 -86l-315 -198h-82z" />
<glyph unicode="&#x15b;" horiz-adv-x="796" d="M104 688q0 119 77 185.5t206 66.5q90 0 137 -22q37 -16 58 -17q14 0 32 21h23l10 -279h-31q-35 139 -87 195.5t-144 56.5q-70 0 -112 -35t-42 -104q0 -35 23.5 -75t64.5 -65l213 -129q102 -61 141.5 -114.5t39.5 -136.5q0 -102 -85 -179t-202 -77q-96 0 -150 18 q-55 18 -94 18q-35 0 -49 -24h-27v321h33q33 -150 94.5 -219t165.5 -69q76 0 123 43t47 108q0 94 -108 154l-111 61q-246 137 -246 297zM240 1038l301 303q47 47 86 48q72 0 71 -66q0 -47 -61 -86l-315 -199h-82z" />
<glyph unicode="&#x15c;" horiz-adv-x="1138" d="M88 408h45q137 -362 422 -363q109 0 176.5 64.5t67.5 164.5q0 96 -60 162q-98 106 -344 238q-250 133 -250 352q0 164 100.5 261t256.5 97q109 0 215 -45q55 -25 90 -24q53 0 65 69h43l46 -436h-52q-35 127 -84 193q-125 160 -297 159q-94 0 -150 -54t-56 -140 q0 -41 20 -80t44 -66.5t83 -68.5t96 -62.5t123 -72.5q166 -96 242 -191.5t76 -210.5q0 -170 -119 -276.5t-299 -106.5q-133 0 -242 47q-53 23 -96 23q-25 0 -41 -18.5t-16 -49.5h-46zM236 1473l253 342h127l256 -342h-69l-250 210l-248 -210h-69z" />
<glyph unicode="&#x15d;" horiz-adv-x="796" d="M82 1038l254 342h127l256 -342h-70l-250 211l-247 -211h-70zM104 688q0 119 77 185.5t206 66.5q90 0 137 -22q37 -16 58 -17q14 0 32 21h23l10 -279h-31q-35 139 -87 195.5t-144 56.5q-70 0 -112 -35t-42 -104q0 -35 23.5 -75t64.5 -65l213 -129q102 -61 141.5 -114.5 t39.5 -136.5q0 -102 -85 -179t-202 -77q-96 0 -150 18q-55 18 -94 18q-35 0 -49 -24h-27v321h33q33 -150 94.5 -219t165.5 -69q76 0 123 43t47 108q0 94 -108 154l-111 61q-246 137 -246 297z" />
<glyph unicode="&#x15e;" horiz-adv-x="1138" d="M88 408h45q137 -362 422 -363q109 0 176.5 64.5t67.5 164.5q0 96 -60 162q-98 106 -344 238q-250 133 -250 352q0 164 100.5 261t256.5 97q109 0 215 -45q55 -25 90 -24q53 0 65 69h43l46 -436h-52q-35 127 -84 193q-125 160 -297 159q-94 0 -150 -54t-56 -140 q0 -41 20 -80t44 -66.5t83 -68.5t96 -62.5t123 -72.5q166 -96 242 -191.5t76 -210.5q0 -166 -113 -271.5t-287 -111.5l-41 -104q31 6 53 6q84 0 130.5 -37t46.5 -104q0 -80 -69 -126t-187 -46q-92 0 -172 32l28 64q74 -25 133 -25q51 0 82 25t31 65q0 39 -24.5 56.5 t-84.5 17.5q-35 0 -57 -8l-14 10l74 176q-102 6 -189 45q-53 23 -96 23q-25 0 -41 -18.5t-16 -49.5h-46z" />
<glyph unicode="&#x15f;" horiz-adv-x="796" d="M104 688q0 119 77 185.5t206 66.5q90 0 137 -22q37 -16 58 -17q14 0 32 21h23l10 -279h-31q-35 139 -87 195.5t-144 56.5q-70 0 -112 -35t-42 -104q0 -35 24 -75t64 -65l213 -129q102 -61 141.5 -114.5t39.5 -136.5q0 -98 -79 -173t-190 -83l-43 -113q31 6 54 6 q84 0 130 -37t46 -104q0 -80 -68.5 -126t-187.5 -46q-92 0 -172 32l28 64q74 -25 134 -25q51 0 81.5 25t30.5 65q0 39 -24.5 56.5t-83.5 17.5q-35 0 -58 -8l-14 10l76 185q-61 4 -97 16q-55 18 -94 18q-35 0 -49 -24h-27v321h33q33 -150 94.5 -219t165.5 -69q76 0 123 43 t47 108q0 94 -108 154l-111 61q-246 137 -246 297z" />
<glyph unicode="&#x160;" horiz-adv-x="1138" d="M88 408h45q137 -362 422 -363q109 0 176.5 64.5t67.5 164.5q0 96 -60 162q-98 106 -344 238q-250 133 -250 352q0 164 100.5 261t256.5 97q109 0 215 -45q55 -25 90 -24q53 0 65 69h43l46 -436h-52q-35 127 -84 193q-125 160 -297 159q-94 0 -150 -54t-56 -140 q0 -41 20 -80t44 -66.5t83 -68.5t96 -62.5t123 -72.5q166 -96 242 -191.5t76 -210.5q0 -170 -119 -276.5t-299 -106.5q-133 0 -242 47q-53 23 -96 23q-25 0 -41 -18.5t-16 -49.5h-46zM242 1892h71l246 -211l248 211h72l-254 -342h-131z" />
<glyph unicode="&#x161;" horiz-adv-x="796" d="M78 688q0 119 76.5 185.5t205.5 66.5q90 0 138 -22q37 -16 57 -17q14 0 33 21h22l11 -279h-31q-35 139 -87 195.5t-145 56.5q-70 0 -111.5 -35t-41.5 -104q0 -35 23.5 -75t64.5 -65l213 -129q102 -61 141 -114.5t39 -136.5q0 -102 -85 -179t-202 -77q-96 0 -149 18 q-55 18 -94 18q-35 0 -50 -24h-26v321h33q33 -150 94 -219t166 -69q76 0 123 43t47 108q0 94 -109 154l-110 61q-246 137 -246 297zM78 1380h72l245 -211l248 211h72l-254 -342h-131z" />
<glyph unicode="&#x162;" horiz-adv-x="1251" d="M35 1008l14 348h1151l14 -348h-49q-33 168 -92 215t-223 47h-121v-1043q0 -117 35 -149.5t162 -38.5v-39h-269l-51 -133q31 6 53 6q84 0 130.5 -37t46.5 -104q0 -80 -69 -126t-187 -46q-92 0 -172 32l28 64q74 -25 133 -25q51 0 82 25t31 65q0 39 -24.5 56.5t-84.5 17.5 q-35 0 -57 -8l-14 10l84 203h-258v39q129 8 160.5 43t31.5 170v1018h-123q-166 0 -224 -48t-89 -214h-49z" />
<glyph unicode="&#x163;" horiz-adv-x="569" d="M27 870q0 16 34 39q78 45 199 219q4 6 19.5 26t21.5 32q14 0 14 -27v-237h207v-66h-207v-586q0 -98 25 -141t82 -43q61 0 123 72l26 -23q-98 -154 -243 -155l-43 -113q31 6 53 6q84 0 130 -37t46 -104q0 -80 -68.5 -126t-187.5 -46q-92 0 -172 32l29 64q74 -25 133 -25 q51 0 81.5 25t30.5 65q0 39 -24.5 56.5t-83.5 17.5q-35 0 -57 -8l-15 10l80 193q-117 43 -117 250v616h-108q-8 6 -8 14z" />
<glyph unicode="&#x164;" horiz-adv-x="1251" d="M35 1008l14 348h1151l14 -348h-49q-33 168 -92 215t-223 47h-121v-1043q0 -117 35 -149.5t162 -38.5v-39h-598v39q129 8 160.5 43t31.5 170v1018h-123q-166 0 -224 -48t-89 -214h-49zM307 1815h72l246 -211l247 211h72l-254 -342h-131z" />
<glyph unicode="&#x165;" horiz-adv-x="645" d="M27 870q0 16 34 39q78 45 199 219q4 6 19.5 26t21.5 32q14 0 14 -27v-237h105v-66h-105v-586q0 -98 25 -141t82 -43q62 0 123 72l26 -23q-98 -156 -247 -155q-180 0 -181 260v616h-108q-8 6 -8 14zM397 1319q0 51 34 84t87 33q70 0 117 -52.5t47 -130.5q0 -92 -63.5 -178 t-165.5 -137l-19 39q168 115 168 219q0 27 -29 27q-4 0 -14 -4q-25 -4 -41 -5q-57 0 -89 28t-32 77z" />
<glyph unicode="&#x166;" horiz-adv-x="1255" d="M35 1008l14 348h1151l14 -348h-49q-33 168 -92 215t-223 47h-121v-541h258v-90h-258v-412q0 -117 35 -149.5t162 -38.5v-39h-598v39q129 8 160.5 43t31.5 170v387h-262v90h262v541h-123q-166 0 -224 -48t-89 -214h-49z" />
<glyph unicode="&#x167;" horiz-adv-x="571" d="M23 481v90h122v295h-100q-16 0 -16 15q0 10 9 19t30.5 23.5t29.5 20.5q63 53 129 146l76 106q14 0 14 -25v-239h207v-66h-207v-295h199v-90h-199v-205q0 -100 27 -140t80 -40q60 0 123 72l26 -23q-96 -156 -243 -155q-184 0 -185 268v223h-122z" />
<glyph unicode="&#x168;" horiz-adv-x="1478" d="M29 1317v39h579v-39q-123 -10 -154.5 -44t-31.5 -149v-639q0 -133 16.5 -204.5t73.5 -126.5q96 -92 262 -93q207 0 311 121q47 57 61.5 126t14.5 204v539q0 160 -34.5 209t-157.5 57v39h475v-39q-125 -12 -159 -60.5t-34 -199.5v-522q0 -158 -22.5 -248t-87.5 -166 q-131 -150 -414 -150q-223 0 -348 95q-166 123 -166 444v635q0 102 -31.5 133t-152.5 39zM418 1522q23 100 77 153.5t130 53.5q70 0 143 -37l49 -25q57 -31 109 -31q35 0 58 23t50 80h60q-33 -117 -82 -167t-133 -50q-66 0 -166 49l-47 22q-49 23 -84 23q-72 0 -105 -94h-59 z" />
<glyph unicode="&#x169;" horiz-adv-x="1024" d="M18 893v29h299v-662q0 -70 42 -116t104 -46q100 0 172 64q27 25 37 46t10 73v473q0 80 -28.5 103.5t-123.5 29.5v35h324v-703q0 -72 23.5 -94.5t93.5 -22.5h12v-28q-160 -43 -281 -92l-10 6v168h-4q-129 -176 -293 -176q-117 0 -183.5 71.5t-66.5 190.5v514 q0 76 -26.5 104.5t-100.5 32.5zM154 1090q23 100 76 153t130 53q70 0 144 -36l49 -25q59 -31 109 -31q35 0 58 23t50 80h59q-33 -117 -82 -167t-133 -50q-66 0 -165 49l-48 22q-49 23 -84 23q-72 0 -104 -94h-59z" />
<glyph unicode="&#x16a;" horiz-adv-x="1478" d="M29 1317v39h579v-39q-123 -10 -154.5 -44t-31.5 -149v-639q0 -133 16.5 -204.5t73.5 -126.5q96 -92 262 -93q207 0 311 121q47 57 61.5 126t14.5 204v539q0 160 -34.5 209t-157.5 57v39h475v-39q-125 -12 -159 -60.5t-34 -199.5v-522q0 -158 -22.5 -248t-87.5 -166 q-131 -150 -414 -150q-223 0 -348 95q-166 123 -166 444v635q0 102 -31.5 133t-152.5 39zM408 1473v110h636v-110h-636z" />
<glyph unicode="&#x16b;" horiz-adv-x="1024" d="M18 893v29h299v-662q0 -70 42 -116t104 -46q100 0 172 64q27 25 37 46t10 73v473q0 80 -28.5 103.5t-123.5 29.5v35h324v-703q0 -72 23.5 -94.5t93.5 -22.5h12v-28q-160 -43 -281 -92l-10 6v168h-4q-129 -176 -293 -176q-117 0 -183.5 71.5t-66.5 190.5v514 q0 76 -26.5 104.5t-100.5 32.5zM193 1038v111h636v-111h-636z" />
<glyph unicode="&#x16c;" horiz-adv-x="1478" d="M29 1317v39h579v-39q-123 -10 -154.5 -44t-31.5 -149v-639q0 -133 16.5 -204.5t73.5 -126.5q96 -92 262 -93q207 0 311 121q47 57 61.5 126t14.5 204v539q0 160 -34.5 209t-157.5 57v39h475v-39q-125 -12 -159 -60.5t-34 -199.5v-522q0 -158 -22.5 -248t-87.5 -166 q-131 -150 -414 -150q-223 0 -348 95q-166 123 -166 444v635q0 102 -31.5 133t-152.5 39zM473 1794h59q41 -199 230 -199q82 0 132 44t95 155h60q-37 -322 -291 -321q-141 0 -213 84.5t-72 236.5z" />
<glyph unicode="&#x16d;" horiz-adv-x="1024" d="M18 893v29h299v-662q0 -70 42 -116t104 -46q100 0 172 64q27 25 37 46t10 73v473q0 80 -28.5 103.5t-123.5 29.5v35h324v-703q0 -72 23.5 -94.5t93.5 -22.5h12v-28q-160 -43 -281 -92l-10 6v168h-4q-129 -176 -293 -176q-117 0 -183.5 71.5t-66.5 190.5v514 q0 76 -26.5 104.5t-100.5 32.5zM205 1360h59q41 -199 230 -199q82 0 132 44t95 155h59q-37 -322 -291 -322q-141 0 -212.5 85t-71.5 237z" />
<glyph unicode="&#x16e;" horiz-adv-x="1478" d="M29 1317v39h579v-39q-123 -10 -154.5 -44t-31.5 -149v-639q0 -133 16.5 -204.5t73.5 -126.5q96 -92 262 -93q207 0 311 121q47 57 61.5 126t14.5 204v539q0 160 -34.5 209t-157.5 57v39h475v-39q-125 -12 -159 -60.5t-34 -199.5v-522q0 -158 -22.5 -248t-87.5 -166 q-131 -150 -414 -150q-223 0 -348 95q-166 123 -166 444v635q0 102 -31.5 133t-152.5 39zM545 1636q0 84 60.5 143.5t146.5 59.5q82 0 141 -60.5t59 -144.5t-60.5 -143t-146.5 -59q-84 0 -142 59t-58 145zM614 1636q0 -57 39 -96t92 -39q57 0 97.5 39t40.5 96q0 55 -40 94 t-98 39q-53 0 -92 -39.5t-39 -93.5z" />
<glyph unicode="&#x16f;" horiz-adv-x="1024" d="M18 893v29h299v-662q0 -70 42 -116t104 -46q100 0 172 64q27 25 37 46t10 73v473q0 80 -28.5 103.5t-123.5 29.5v35h324v-703q0 -72 23.5 -94.5t93.5 -22.5h12v-28q-160 -43 -281 -92l-10 6v168h-4q-129 -176 -293 -176q-117 0 -183.5 71.5t-66.5 190.5v514 q0 76 -26.5 104.5t-100.5 32.5zM307 1253q0 84 60.5 143.5t146.5 59.5q82 0 141.5 -60.5t59.5 -144.5t-60.5 -143t-146.5 -59q-84 0 -142.5 59t-58.5 145zM377 1253q0 -57 39 -96t92 -39q57 0 97 39t40 96q0 55 -40 94t-97 39q-53 0 -92 -39.5t-39 -93.5z" />
<glyph unicode="&#x170;" horiz-adv-x="1478" d="M29 1317v39h579v-39q-123 -10 -154.5 -44t-31.5 -149v-639q0 -133 16.5 -204.5t73.5 -126.5q96 -92 262 -93q207 0 311 121q47 57 61.5 126t14.5 204v539q0 160 -34.5 209t-157.5 57v39h475v-39q-125 -12 -159 -60.5t-34 -199.5v-522q0 -158 -22.5 -248t-87.5 -166 q-131 -150 -414 -150q-223 0 -348 95q-166 123 -166 444v635q0 102 -31.5 133t-152.5 39zM373 1473l299 303q47 47 88 47q70 0 69 -62q0 -55 -59 -92l-315 -196h-82zM692 1473l299 303q47 47 88 47q70 0 70 -62q0 -55 -59 -92l-316 -196h-82z" />
<glyph unicode="&#x171;" horiz-adv-x="1024" d="M18 893v29h299v-662q0 -70 42 -116t104 -46q100 0 172 64q27 25 37 46t10 73v473q0 80 -28.5 103.5t-123.5 29.5v35h324v-703q0 -72 23.5 -94.5t93.5 -22.5h12v-28q-160 -43 -281 -92l-10 6v168h-4q-129 -176 -293 -176q-117 0 -183.5 71.5t-66.5 190.5v514 q0 76 -26.5 104.5t-100.5 32.5zM113 1038l299 303q47 47 88 48q70 0 69 -62q0 -55 -59 -92l-315 -197h-82zM432 1038l299 303q47 47 88 48q70 0 70 -62q0 -55 -60 -92l-315 -197h-82z" />
<glyph unicode="&#x172;" horiz-adv-x="1478" d="M29 1317v39h579v-39q-123 -10 -154.5 -44t-31.5 -149v-639q0 -133 16.5 -204.5t73.5 -126.5q96 -92 262 -93q207 0 311 121q47 57 61.5 126t14.5 204v539q0 160 -34.5 209t-157.5 57v39h475v-39q-125 -12 -159 -60.5t-34 -199.5v-522q0 -158 -22.5 -248t-87.5 -166 q-96 -111 -279 -139q-68 -61 -67 -125q0 -80 77 -80q66 -1 146 73l41 -32q-57 -84 -107.5 -120t-120.5 -36q-68 0 -109.5 40t-41.5 112q0 90 76 157h-29q-223 0 -348 95q-166 123 -166 444v635q0 102 -31.5 133t-152.5 39z" />
<glyph unicode="&#x173;" horiz-adv-x="1024" d="M18 893v29h299v-662q0 -70 42 -116t104 -46q100 0 172 64q27 25 37 46t10 73v473q0 80 -28.5 103.5t-123.5 29.5v35h324v-703q0 -72 23.5 -94.5t93.5 -22.5h12v-28q-104 -29 -182 -56q-90 -72 -90 -143q0 -80 77 -80q66 0 146 74l41 -33q-57 -84 -107.5 -119.5 t-119.5 -35.5q-68 0 -110 39.5t-42 111.5q0 100 96 176v148h-4q-129 -176 -293 -176q-117 0 -183.5 71.5t-66.5 190.5v514q0 76 -26.5 104.5t-100.5 32.5z" />
<glyph unicode="&#x174;" horiz-adv-x="1933" d="M10 1317v39h500v-39q-76 -2 -103.5 -16.5t-27.5 -47.5q0 -35 22 -96l295 -770l213 580l-57 153q-49 133 -84 164t-125 33v39h543v-39q-158 -4 -158 -72q0 -27 35 -119l293 -745l258 694q35 98 35 158q0 82 -144 84v39h404v-39q-82 -16 -112 -40t-58 -103 q-233 -627 -418 -1197h-31q-125 346 -327 867l-316 -867h-31q-70 207 -208 584t-185 510q-51 147 -93 195.5t-120 50.5zM647 1473l254 342h127l256 -342h-70l-249 210l-248 -210h-70z" />
<glyph unicode="&#x175;" horiz-adv-x="1478" d="M43 891v31h369v-31q-53 -6 -74 -20.5t-21 -47.5q0 -31 13 -61l202 -535l187 408l-41 115q-29 82 -56.5 108.5t-84.5 32.5v31h415v-31q-72 -10 -95 -24.5t-23 -47.5t34 -123l172 -458l185 454q35 86 35 137q0 25 -19.5 38.5t-71.5 23.5v31h252v-31q-31 -10 -45 -29.5 t-39 -81.5l-282 -708q-41 -100 -58 -101q-10 0 -17 13.5t-32 74.5l-186 484l-230 -492q-37 -80 -51 -80q-18 0 -53 90l-276 701q-31 80 -51.5 102.5t-57.5 26.5zM444 1038l254 342h127l256 -342h-69l-250 211l-248 -211h-70z" />
<glyph unicode="&#x176;" horiz-adv-x="1478" d="M45 1317v39h571v-39l-49 -2q-96 -2 -96 -53q0 -43 37 -97l299 -452l297 454q29 43 29 86q-2 35 -32 48.5t-108 15.5v39h447v-39q-90 -8 -142.5 -51t-140.5 -179l-303 -466v-394q0 -117 39 -149.5t172 -38.5v-39h-627v39q139 10 173 44t34 169v350l-268 393 q-139 205 -198.5 261.5t-133.5 60.5zM422 1473l254 342h127l256 -342h-70l-250 210l-247 -210h-70z" />
<glyph unicode="&#x177;" horiz-adv-x="1024" d="M29 893v29h420v-31q-66 -2 -91.5 -14.5t-25.5 -40.5q0 -23 26 -84l230 -512l198 565q8 18 9 37q0 49 -95 49v31h273v-31q-37 -4 -59.5 -26.5t-43.5 -78.5l-307 -837q-80 -217 -160.5 -306t-197.5 -89q-66 0 -105 33.5t-39 84.5q0 39 26 67t63 28q59 0 106 -27 q27 -14 53 -14q43 0 103 90q29 41 55.5 116.5t26.5 104.5q0 27 -86 207l-271 577q-27 59 -108 72zM193 1038l253 342h127l256 -342h-69l-250 211l-248 -211h-69z" />
<glyph unicode="&#x178;" horiz-adv-x="1478" d="M45 1317v39h571v-39l-49 -2q-96 -2 -96 -53q0 -43 37 -97l299 -452l297 454q29 43 29 86q-2 35 -32 48.5t-108 15.5v39h447v-39q-90 -8 -142.5 -51t-140.5 -179l-303 -466v-394q0 -117 39 -149.5t172 -38.5v-39h-627v39q139 10 173 44t34 169v350l-268 393 q-139 205 -198.5 261.5t-133.5 60.5zM451 1686q0 41 29.5 70.5t70.5 29.5t71.5 -31t30.5 -72t-30.5 -70.5t-73.5 -29.5q-41 0 -69.5 29.5t-28.5 73.5zM858 1686q0 41 30 70.5t70.5 29.5t71.5 -31t31 -72t-31 -70.5t-74 -29.5q-41 0 -69.5 29.5t-28.5 73.5z" />
<glyph unicode="&#x179;" horiz-adv-x="1253" d="M20 0v31l895 1247h-438q-203 0 -274 -72q-37 -39 -52.5 -76.5t-31.5 -123.5h-53l43 350h1075v-31l-885 -1247h516q160 0 240 57q47 33 69.5 77t53.5 148h47l-51 -360h-1154zM487 1473l301 303q47 47 86 47q72 0 72 -66q0 -47 -61 -86l-316 -198h-82z" />
<glyph unicode="&#x17a;" horiz-adv-x="909" d="M55 0v31l545 829h-276q-96 0 -130 -33.5t-49 -146.5h-36l8 242h708v-31l-551 -830h273q172 0 217 56q29 35 55 170l37 -8l-31 -279h-770zM315 1038l301 303q47 47 86 48q72 0 72 -66q0 -47 -61 -86l-316 -199h-82z" />
<glyph unicode="&#x17b;" horiz-adv-x="1253" d="M20 0v31l895 1247h-438q-203 0 -274 -72q-37 -39 -52.5 -76.5t-31.5 -123.5h-53l43 350h1075v-31l-885 -1247h516q160 0 240 57q47 33 69.5 77t53.5 148h47l-51 -360h-1154zM553 1606q0 43 27.5 72.5t72.5 29.5q47 0 75 -28.5t28 -73.5q0 -43 -30 -72t-73 -29 q-41 0 -70.5 30t-29.5 71z" />
<glyph unicode="&#x17c;" horiz-adv-x="909" d="M55 0v31l545 829h-276q-96 0 -130 -33.5t-49 -146.5h-36l8 242h708v-31l-551 -830h273q172 0 217 56q29 35 55 170l37 -8l-31 -279h-770zM385 1171q0 43 27.5 73t72.5 30q47 0 75 -29t28 -74q0 -43 -30 -71.5t-73 -28.5q-41 0 -70.5 29.5t-29.5 70.5z" />
<glyph unicode="&#x17d;" horiz-adv-x="1253" d="M20 0v31l895 1247h-438q-203 0 -274 -72q-37 -39 -52.5 -76.5t-31.5 -123.5h-53l43 350h1075v-31l-885 -1247h516q160 0 240 57q47 33 69.5 77t53.5 148h47l-51 -360h-1154zM313 1892h72l246 -211l248 211h71l-254 -342h-131z" />
<glyph unicode="&#x17e;" horiz-adv-x="909" d="M55 0v31l545 829h-276q-96 0 -130 -33.5t-49 -146.5h-36l8 242h708v-31l-551 -830h273q172 0 217 56q29 35 55 170l37 -8l-31 -279h-770zM150 1380h71l246 -211l248 211h71l-254 -342h-131z" />
<glyph unicode="&#x17f;" horiz-adv-x="684" d="M41 0v31q104 6 133 32q37 27 37 121v672h-55v66h55q0 125 16 192q66 285 344 285q78 0 131 -25q82 -37 82 -102q0 -35 -25.5 -59.5t-58.5 -24.5q-51 0 -92 69q-49 84 -108 84q-117 0 -117 -186v-975q0 -88 37 -119q35 -27 153 -30v-31h-532z" />
<glyph unicode="&#x180;" horiz-adv-x="1024" d="M-39 1042v64h189v53q0 76 -18.5 97.5t-82.5 21.5q-14 0 -35 -4v35l62 18q209 63 235 72l11 -4v-289h383v-64h-383v-272q33 78 107.5 125t168.5 47q162 0 265.5 -129t103.5 -321q0 -225 -137.5 -368.5t-342.5 -143.5q-125 0 -231 41.5t-106 93.5v927h-189zM322 152 q0 -47 58 -77t140 -30q109 0 187.5 83t78.5 282q0 55 -11 115.5t-36.5 130t-81 113.5t-133.5 44q-82 0 -142 -48t-60 -114v-499z" />
<glyph unicode="&#x188;" horiz-adv-x="1024" d="M51 430q0 141 54.5 255t152.5 179q113 78 246 78q80 0 162 -33q6 104 69.5 170t167.5 66q55 0 99.5 -33t44.5 -86q0 -57 -52 -57q-29 0 -45 19.5t-22 43t-23.5 43t-46.5 19.5q-82 0 -82 -170q0 -20 1 -52t1 -41q37 -47 37 -96q0 -39 -27.5 -64.5t-66.5 -25.5 q-51 0 -75.5 37t-30 82t-33 82t-82.5 37q-139 0 -215 -99.5t-76 -265.5q0 -154 83 -272.5t230 -118.5q98 0 164 49t129 143l29 -18q-70 -150 -165 -235.5t-241 -85.5q-174 0 -280.5 132t-106.5 318z" />
<glyph unicode="&#x190;" horiz-adv-x="1187" d="M68 352q0 133 76.5 239.5t203.5 129.5q-135 63 -196.5 123.5t-61.5 175.5q0 125 87 214t206 127t250 40q121 0 219 -29q82 -23 146.5 -85t64.5 -134q0 -47 -26.5 -85t-69.5 -38q-92 0 -131 166q-12 49 -75 82t-120 33q-338 0 -338 -340q0 -199 275 -199q18 0 105 11.5 t110 11.5q33 0 63.5 -15.5t30.5 -44.5q0 -37 -54.5 -61.5t-97.5 -24.5q-16 0 -84.5 5t-81.5 5q-139 0 -213.5 -75.5t-74.5 -212.5q0 -260 389 -260q180 0 266 44t141 189l74 -18q-2 -119 -123 -220q-145 -119 -403 -118q-135 0 -254 30.5t-211 116.5t-92 217z" />
<glyph unicode="&#x192;" horiz-adv-x="888" d="M12 -184q0 43 22.5 67.5t63.5 24.5q35 0 57.5 -20.5t22.5 -53.5q0 -31 -12 -55q-10 -18 -10 -29q4 -27 43 -26q141 0 141 356q0 49 -2 164.5t-2 140.5q0 158 16 446h-225v64h233q27 281 105 416t221 135q74 0 130 -40t56 -99q0 -39 -24.5 -66t-61.5 -27q-33 0 -58.5 17.5 t-25.5 50.5q0 27 9.5 48.5t9.5 31.5q0 25 -43 24q-55 0 -82 -36q-66 -90 -66 -455h244v-64h-246q-2 -240 -35.5 -555t-68.5 -403q-80 -199 -236 -199q-74 0 -125 40t-51 102z" />
<glyph unicode="&#x195;" horiz-adv-x="1505" d="M18 0v31q90 10 111 41.5t21 134.5v977q0 61 -22 77.5t-77 16.5q-16 0 -31 -2v33q164 47 291 90l11 -6v-623q37 47 63.5 74.5t93 62.5t142.5 35q72 0 123 -27.5t75.5 -62.5t37.5 -91t15 -89t2 -84v-330q0 -74 53.5 -134.5t125.5 -60.5q145 0 242.5 132.5t97.5 281.5 q0 86 -21.5 149.5t-52.5 96.5t-61.5 56.5t-52 46t-21.5 51t28.5 47t59.5 18.5q57 0 96 -47t56.5 -122t23.5 -134t6 -117q0 -143 -43 -262t-144.5 -199.5t-248.5 -80.5q-156 0 -236 65.5t-80 216.5v352q0 217 -155 217q-113 0 -225 -129v-493q0 -100 24.5 -135t114.5 -43v-31 h-443z" />
<glyph unicode="&#x199;" horiz-adv-x="1024" d="M14 0v31q106 18 130 36.5t24 96.5v788q0 182 131 314.5t326 132.5q78 0 134 -31t56 -84q0 -33 -25.5 -55.5t-56.5 -22.5q-45 0 -96 61.5t-86 61.5q-80 0 -145.5 -82t-65.5 -203v-509l281 249q47 41 47 72q0 35 -103 35v31h418v-31q-92 0 -164 -37q-90 -47 -256 -201 l-82 -75l318 -404q49 -61 97 -94t74.5 -40t63.5 -9v-31h-446v31h39q43 0 43 32q0 18 -43 74l-287 377v-377q0 -59 27.5 -79.5t85.5 -24.5l41 -2v-31h-480z" />
<glyph unicode="&#x19a;" horiz-adv-x="569" d="M39 1276v33q195 47 323 90l11 -8v-617h153v-63h-153v-533q0 -86 28.5 -113.5t124.5 -33.5v-31h-483v31q96 8 127 39.5t31 117.5v523h-158v63h158v375q0 74 -18.5 102.5t-67.5 28.5q-43 0 -76 -4z" />
<glyph unicode="&#x19b;" horiz-adv-x="1064" d="M113 0v31q82 10 108 69l271 578q86 186 86 207q0 29 -35 125l-398 -398v111l363 360q-8 16 -12 23q-59 90 -103 90q-27 0 -53 -14q-47 -27 -107 -27q-37 0 -62.5 27.5t-25.5 66.5q0 51 39 85t105 34q92 0 158.5 -52t125.5 -169l218 221v-111l-181 -184l344 -938 q20 -55 43 -77.5t60 -26.5v-31h-273v31q94 0 95 49q0 18 -9 37l-198 565l-230 -512q-27 -61 -26 -84q0 -29 25.5 -41t90.5 -14v-31h-419z" />
<glyph unicode="&#x19e;" horiz-adv-x="1024" d="M33 815v35q143 41 280 92l17 -6v-160h2q145 166 295 166q117 0 179 -82t62 -233v-930q0 -82 25 -108.5t100 -34.5v-31h-426l2 31q76 6 101.5 43.5t25.5 140.5v885q0 207 -149 206q-51 0 -96 -24.5t-115 -91.5v-566q0 -61 27.5 -85.5t105.5 -30.5v-31h-432v31 q78 6 102.5 37.5t24.5 124.5v497q0 76 -14.5 104.5t-57.5 28.5q-41 0 -59 -8z" />
<glyph unicode="&#x1a0;" horiz-adv-x="1478" d="M70 684q0 311 185 505.5t484 194.5q141 0 260 -47q61 -16 113 -16q63 0 88 9t25 38q-70 39 -70 94q0 31 27.5 56.5t66.5 25.5q43 0 72 -30.5t29 -83.5q0 -113 -136 -140q-39 -6 -84 -6h-28q143 -92 225 -251t82 -355q0 -315 -186.5 -511t-483.5 -196q-299 0 -484 197 t-185 516zM303 680q0 -373 184 -543q100 -92 254 -92q160 0 265 98q170 164 170 547q0 174 -49.5 312.5t-137.5 211.5q-115 96 -252 97q-174 0 -293 -137q-66 -74 -103.5 -210.5t-37.5 -283.5z" />
<glyph unicode="&#x1a1;" horiz-adv-x="1116" d="M59 467q0 213 127 344t334 131q117 0 212 -51t155 -143q25 2 51.5 13t26.5 21l-2 9q-70 51 -70 96q0 31 27.5 57.5t66.5 26.5t69.5 -32t30.5 -83q0 -115 -137 -141l-41 -8q53 -100 54 -234q0 -215 -128 -354t-333 -139q-188 0 -315.5 138t-127.5 349zM244 559 q0 -262 108 -420q70 -102 185 -102q113 0 177 101.5t64 279.5q0 233 -102 364q-82 102 -195 103q-106 0 -171.5 -87t-65.5 -239z" />
<glyph unicode="&#x1a5;" horiz-adv-x="1024" d="M10 -410q90 8 117 35t27 107v1192q0 201 81.5 323.5t266.5 122.5q78 0 134 -30.5t56 -84.5q0 -33 -25.5 -55t-56.5 -22q-45 0 -96 61t-86 61q-102 1 -102 -204v-316q129 162 295 162q150 0 246 -123t96 -313q0 -223 -124 -374.5t-307 -151.5q-63 0 -107 18t-99 70v-322 q0 -96 32.5 -124t147.5 -30v-36h-496v34zM326 180q0 -45 70.5 -90t142.5 -45q111 0 179 104.5t68 274.5q0 180 -68.5 287.5t-182.5 107.5q-72 0 -140.5 -45t-68.5 -90v-504z" />
<glyph unicode="&#x1aa;" horiz-adv-x="884" d="M41 1173.5q0 92.5 66.5 160t158.5 67.5q147 0 232.5 -118t85.5 -271q0 -195 -55.5 -616t-55.5 -619q0 -184 105 -185q37 0 88 61.5t96 61.5q33 0 57.5 -22t24.5 -55q0 -59 -60.5 -87t-128.5 -28q-170 0 -262 106.5t-92 278.5q0 197 50 564.5t57 524.5q-61 -49 -142 -49 q-92 0 -158.5 66.5t-66.5 159zM111 1174q0 -63 45 -109.5t110 -46.5q49 0 89.5 27.5t56.5 70.5q-4 215 -133 215q-74 0 -121 -42t-47 -115z" />
<glyph unicode="&#x1ab;" horiz-adv-x="593" d="M27 870q0 12 12 21.5t35.5 26t42.5 34.5q43 41 88 99.5t70.5 96.5t27.5 38q12 0 12 -27v-237h207v-66h-207v-586q0 -35 2 -57.5t10.5 -56t32 -52t60.5 -18.5q64 0 125 72l26 -23q-4 -59 -4 -182q0 -66 -1 -102.5t-7 -91t-19.5 -85t-35 -61.5t-58 -45t-86.5 -14 q-78 0 -134 30.5t-56 83.5q0 33 25.5 55.5t56.5 22.5q45 0 96 -61.5t86 -61.5q78 0 78 318q0 35 -1 58.5t-2 34.5t-1 15q-4 -6 -25.5 -21.5t-64.5 -31.5t-86 -16q-188 0 -189 260v616h-108q-8 4 -8 14z" />
<glyph unicode="&#x1ad;" horiz-adv-x="634" d="M29 870q0 6 24.5 29t54 48.5t35.5 33.5q0 186 84 302t265 116q70 0 130 -28t60 -87q0 -31 -24.5 -54.5t-55.5 -23.5q-45 0 -96 61.5t-88 61.5q-102 0 -103 -205v-202h207v-66h-207v-590q0 -49 4.5 -80.5t29 -65.5t71.5 -34q66 0 125 72l26 -23q-100 -156 -245 -155 q-182 0 -183 260v616h-108z" />
<glyph unicode="&#x1af;" horiz-adv-x="1568" d="M29 1317v39h579v-39q-123 -10 -154.5 -44t-31.5 -149v-639q0 -133 16.5 -204.5t73.5 -126.5q96 -92 262 -93q207 0 311 121q47 57 61.5 126t14.5 204v539q0 160 -34.5 209t-157.5 57v39h473q29 0 61.5 14.5t32.5 26.5l-2 8q-72 47 -72 94q0 31 28 58.5t69 27.5 q39 0 69.5 -30.5t30.5 -84.5q0 -66 -46 -102.5t-118 -44.5l-70 -8q-113 -14 -143.5 -63.5t-30.5 -194.5v-522q0 -158 -22.5 -248t-87.5 -166q-131 -150 -414 -150q-223 0 -348 95q-166 123 -166 444v635q0 102 -31.5 133t-152.5 39z" />
<glyph unicode="&#x1b0;" horiz-adv-x="1024" d="M18 893v29h299v-662q0 -70 42 -116t104 -46q100 0 172 64q27 25 37 46t10 73v473q0 80 -28.5 103.5t-123.5 29.5v35h324q41 0 83 11t42 28q0 20 -35 44.5t-35 67.5q0 29 26 52.5t69 23.5q37 0 68.5 -32t31.5 -83q0 -68 -52.5 -107.5t-138.5 -39.5h-59v-668 q0 -72 23.5 -94.5t93.5 -22.5h12v-28q-160 -43 -281 -92l-10 6v168h-4q-129 -176 -293 -176q-117 0 -183.5 71.5t-66.5 190.5v514q0 76 -26.5 104.5t-100.5 32.5z" />
<glyph unicode="&#x1b5;" horiz-adv-x="1253" d="M20 0v31l443 618h-254v88h317l389 541h-438q-203 0 -274 -72q-37 -39 -52.5 -76.5t-31.5 -123.5h-53l43 350h1075v-31l-418 -588h297v-88h-358l-406 -571h516q160 0 240 57q47 33 69.5 77t53.5 148h47l-51 -360h-1154z" />
<glyph unicode="&#x1ba;" horiz-adv-x="780" d="M8 616l66 306h663v-43l-391 -381q76 35 135 34q115 0 184.5 -70.5t69.5 -180.5q0 -119 -125 -218q-248 -137 -352 -206q-72 -47 -72 -138q0 -61 49.5 -102t129.5 -41q57 0 101 31t54 82q27 131 107 131q45 0 71.5 -26.5t26.5 -63.5q0 -33 -22.5 -74t-65.5 -70 q-104 -66 -256 -65q-100 0 -186 59q-104 74 -105 201q0 145 137 231q115 72 275 154q74 39 73 119q0 61 -47 97t-135 36q-78 0 -124 -20.5t-105 -78.5q-29 23 -41 37l432 435h-338q-51 0 -107.5 -49.5t-66.5 -125.5h-35z" />
<glyph unicode="&#x1bb;" horiz-adv-x="1024" d="M45 643v94h606q39 104 39 207q0 135 -74.5 212t-209.5 77q-121 0 -183.5 -65.5t-118.5 -200.5l-43 10q35 188 139.5 297.5t286.5 109.5q164 0 271.5 -99t107.5 -261q0 -141 -88 -287h209v-94q-92 -2 -276 -2q-23 -33 -107 -125l-338 -360h479q74 0 114 31.5t83 105.5 l29 -12l-111 -281h-801v25l365 387q123 131 178 229z" />
<glyph unicode="&#x1be;" horiz-adv-x="1024" d="M150 186q0 39 27.5 64.5t66.5 25.5t62.5 -26.5t35.5 -65.5t26.5 -77.5t45 -65.5t78.5 -27q63 0 108 60.5t61.5 131t16.5 132.5q0 125 -91 198.5t-216 73.5h-41v305h-158v64h158v125h96l6 -125h160v-64h-158l6 -127q14 2 47 3q168 0 277.5 -127t109.5 -297 q0 -195 -106 -293.5t-305 -98.5q-102 0 -207.5 58.5t-105.5 152.5z" />
<glyph unicode="&#x1c0;" horiz-adv-x="327" d="M111 0v1507h104v-1507h-104z" />
<glyph unicode="&#x1c1;" horiz-adv-x="573" d="M111 0v1507h104v-1507h-104zM356 0v1507h105v-1507h-105z" />
<glyph unicode="&#x1c2;" horiz-adv-x="890" d="M70 557v105h323v184h-323v104h323v557h105v-557h321v-104h-321v-184h321v-105h-321v-557h-105v557h-323z" />
<glyph unicode="&#x1c3;" horiz-adv-x="681" d="M266 86q0 47 32 80t77 33t76.5 -32t31.5 -79t-30.5 -76.5t-75.5 -29.5q-47 0 -79 29.5t-32 74.5zM266 1219q0 76 29 120.5t80 44.5q109 0 108 -155q0 -27 -6 -88l-86 -781h-29l-92 781q-4 45 -4 78z" />
<glyph unicode="&#x1f0;" horiz-adv-x="569" d="M-143 -334q0 33 24.5 56.5t59.5 23.5q47 0 98 -65q47 -57 86 -58q47 0 70 37q29 51 28 248v776q0 123 -65 123q-49 0 -82 -6l-10 -2v32q164 51 319 111l10 -6v-936q0 -219 -89 -332.5t-259 -113.5q-84 0 -137 31.5t-53 80.5zM-35 1380h72l246 -211l247 211h72l-254 -342 h-131z" />
<glyph unicode="&#x1fa;" horiz-adv-x="1478" d="M31 0v39q86 8 125 62.5t133 279.5l397 942q-49 16 -82 59t-33 99q0 68 48.5 114.5t117.5 46.5q66 0 113 -48t47 -115q0 -55 -34 -98.5t-87 -57.5l479 -1096q45 -106 81 -143t112 -45v-39h-522v39q82 0 112 18q29 14 29 49q0 53 -39 144l-84 192h-536l-95 -233 q-18 -47 -18 -86q0 -47 33.5 -65.5t109.5 -18.5v-39h-407zM442 526h473l-237 564zM524 1634l289 248q29 25 42 32t40 7q51 0 51 -53q0 -33 -65 -72l-289 -162h-68zM639 1483q0 -41 27.5 -70t64.5 -29q43 0 70.5 29t27.5 70q0 39 -28.5 65.5t-69.5 26.5q-35 0 -63.5 -27.5 t-28.5 -64.5z" />
<glyph unicode="&#x1fb;" horiz-adv-x="909" d="M76 193q0 143 143 239q98 66 369 166v111q0 92 -44 138t-116 46q-61 0 -102 -29.5t-41 -70.5q0 -18 6 -41t6 -45q0 -31 -27.5 -57.5t-66.5 -26.5q-35 0 -61.5 26.5t-26.5 67.5q0 98 104 164q96 61 236 61q166 0 241 -92q37 -43 47.5 -87t10.5 -140v-392q0 -135 63 -135 q41 0 88 39v-57q-78 -98 -184 -98q-117 0 -131 149h-2q-131 -150 -297 -149q-96 0 -155.5 56t-59.5 157zM242 1473l301 303q47 47 86 47q72 0 71 -66q0 -47 -61 -86l-315 -198h-82zM256 256q0 -78 39 -118t102 -40q68 0 119 33q43 31 57.5 57.5t14.5 71.5v289 q-188 -66 -262 -135q-70 -63 -70 -158zM268 1253q0 84 60.5 143.5t146.5 59.5q82 0 141.5 -60.5t59.5 -144.5t-60.5 -143t-146.5 -59q-84 0 -142.5 59t-58.5 145zM338 1253q0 -57 39 -96t92 -39q57 0 97 39t40 96q0 55 -40 94t-97 39q-53 0 -92 -39.5t-39 -93.5z" />
<glyph unicode="&#x1fc;" horiz-adv-x="1820" d="M0 0v39q66 10 100.5 40t79.5 120l502 991q18 35 18 57q0 68 -184 68v41h1155v-289h-47q-20 139 -85.5 177t-291.5 38h-172q-57 0 -57 -76v-456h213q158 0 220 39.5t65 160.5h43v-481h-43q-14 121 -58.5 163t-150.5 42h-289v-481q0 -78 22.5 -96.5t120.5 -18.5h150 q174 0 250.5 49t156.5 217h49l-90 -344h-1042v39l35 4q92 10 118.5 46t26.5 140v303h-360q-188 -358 -189 -434q0 -47 137 -59h3v-39h-406zM492 612h323v654zM887 1473l301 303q47 47 86 47q72 0 72 -66q0 -47 -62 -86l-315 -198h-82z" />
<glyph unicode="&#x1fd;" horiz-adv-x="1366" d="M78 205q0 43 3 72.5t15.5 67.5t36 63.5t64.5 51t100 42.5l264 73v130q0 100 -27.5 142t-97.5 42q-57 0 -98 -25.5t-41 -60.5q0 -14 3 -40t3 -46q0 -43 -24.5 -68.5t-65.5 -25.5t-65.5 26.5t-24.5 71.5q0 94 94 157.5t232 63.5q76 0 129 -21.5t112 -74.5q70 55 121 75.5 t123 20.5q156 0 233.5 -88t94.5 -287h-537q2 -154 12.5 -221t42.5 -127q27 -47 79 -74.5t116 -27.5q88 0 154.5 44.5t140.5 153.5l24 -10q-80 -172 -161 -237q-98 -82 -242 -82q-90 0 -151.5 32.5t-112.5 110.5q-102 -86 -167 -114.5t-145 -28.5q-104 0 -170.5 60t-66.5 159 zM256 256q0 -78 34 -128t101 -50q57 0 133 37t76 65l-2 2v4q-37 122 -37 226v106q-186 -68 -245.5 -119t-59.5 -143zM446 1038l302 303q47 47 86 48q72 0 71 -66q0 -47 -61 -86l-316 -199h-82zM727 629h340q-2 135 -40 192.5t-122 57.5q-88 0 -129 -57.5t-49 -192.5z" />
<glyph unicode="&#x1fe;" horiz-adv-x="1478" d="M70 676q0 311 187 509.5t484 198.5q180 0 359 -100l147 219h101l-181 -266q117 -109 162 -203q80 -166 80 -354q0 -315 -187.5 -512t-486.5 -197q-186 0 -358 103l-162 -238h-100l194 285q-68 61 -101.5 103t-60.5 100q-78 160 -77 352zM303 676q0 -246 94 -424l631 926 q-127 133 -289 133q-201 0 -318.5 -171t-117.5 -464zM449 180q123 -135 290 -135q203 0 320 169t117 462q-1 246 -97 430zM502 1473l301 303q47 47 86 47q72 0 72 -66q0 -47 -62 -86l-315 -198h-82z" />
<glyph unicode="&#x1ff;" horiz-adv-x="1024" d="M59 465q0 209 126 343t325 134q90 0 188 -37l117 223h80l-133 -256q201 -137 201 -393q0 -213 -131.5 -356t-325.5 -143q-96 0 -191 43l-133 -252h-76l150 286q-92 74 -133 150q-63 117 -64 258zM244 567q0 -207 80 -379l325 623q-76 74 -164 74q-109 0 -175 -87 t-66 -231zM268 1038l301 303q47 47 86 48q72 0 72 -66q0 -47 -61 -86l-316 -199h-82zM367 123q72 -86 168 -86q115 0 179 99.5t64 279.5q0 178 -82 334z" />
<glyph unicode="&#x221;" horiz-adv-x="1374" d="M55 420q0 199 117 360.5t309 161.5q111 0 215 -88v320q0 61 -19.5 83.5t-66.5 22.5q-12 0 -53 -4v33q176 45 301 90l10 -4v-1211q0 -51 45 -121q35 57 56.5 90t61.5 80.5t86 70t97.5 22.5t86 -43t34.5 -97q0 -76 -63 -133q-84 -74 -260 -73h-70q-80 -131 -158 -287h-73 q68 139 157 295q-53 12 -98 48t-59 87q-109 -143 -277 -143q-180 0 -279.5 128t-99.5 312zM231 502q0 -98 24 -187.5t91.5 -159t167.5 -69.5q94 0 152 66q30 37 30 57v471q0 82 -63.5 143.5t-145.5 61.5q-92 0 -152.5 -65.5t-82 -146.5t-21.5 -171zM983 41h53q88 0 163 32.5 t75 108.5q0 31 -18.5 56.5t-49.5 25.5q-37 0 -71.5 -21.5t-65.5 -63.5t-46 -67.5t-40 -70.5z" />
<glyph unicode="&#x234;" horiz-adv-x="878" d="M39 1276v33q193 47 323 90l11 -8v-1164q0 -113 45 -164q35 57 56.5 90t61 80.5t86 70t97.5 22.5t86 -43t35 -97q0 -76 -64 -133q-84 -74 -260 -73h-70q-80 -131 -157 -287h-74q68 139 158 295q-172 33 -172 252v909q0 68 -18.5 99.5t-80.5 31.5q-23 0 -63 -4zM487 41h54 q88 0 162.5 32.5t74.5 108.5q0 31 -18.5 56.5t-48.5 25.5q-37 0 -70 -19.5t-66.5 -66.5t-45 -64.5t-42.5 -72.5z" />
<glyph unicode="&#x235;" horiz-adv-x="1376" d="M33 815v35q145 41 280 92l17 -6v-160h2q145 166 295 166q127 0 184 -90t57 -225v-443q0 -68 50 -116q31 53 54 86.5t62 79t83 69t93 23.5q55 0 91 -44t36 -100q0 -182 -331 -182h-50q-98 -160 -170 -307h-73q80 156 166 307h-312v31q82 6 105.5 49t23.5 135v408 q0 207 -149 206q-94 0 -211 -116v-566q0 -66 32.5 -89t100.5 -27v-31h-432v31q80 4 103.5 39.5t23.5 122.5v514q0 35 -3 55t-19.5 40.5t-49.5 20.5q-35 0 -59 -8zM995 61q8 0 22.5 -1t20.5 -1q37 0 72 5.5t76 16.5t65.5 37.5t24.5 65.5q0 33 -22.5 57.5t-55.5 24.5 q-84 0 -203 -205z" />
<glyph unicode="&#x236;" horiz-adv-x="821" d="M27 870q0 16 34 39q86 55 199 219q29 37 41 58q14 2 14 -27v-237h207v-66h-207v-586q0 -156 45 -207q35 57 56.5 90t61.5 80.5t86 70t97.5 22.5t86 -43t34.5 -97q0 -76 -63 -133q-84 -74 -260 -73h-70q-86 -147 -158 -287h-73q61 131 155 295q-170 33 -170 252v616h-108 q-8 6 -8 14zM430 41h53q88 0 163 32.5t75 108.5q0 31 -18.5 56.5t-49.5 25.5q-37 0 -71.5 -21.5t-65.5 -63.5t-46 -67.5t-40 -70.5z" />
<glyph unicode="&#x237;" horiz-adv-x="569" d="M-143 -334q0 33 24.5 56.5t59.5 23.5q47 0 98 -65q47 -57 86 -58q47 0 70 37q29 51 28 248v776q0 123 -65 123q-49 0 -82 -6l-10 -2v32q164 51 319 111l10 -6v-936q0 -219 -89 -332.5t-259 -113.5q-84 0 -137 31.5t-53 80.5z" />
<glyph unicode="&#x250;" horiz-adv-x="909" d="M16 786v58q78 98 185 98q117 1 131 -149h2q131 150 297 149q96 0 155.5 -56.5t59.5 -156.5q0 -143 -144 -240q-98 -66 -368 -165v-111q0 -92 44 -138t116 -46q61 0 102 29.5t41 70.5q0 18 -6 41t-6 45q0 31 27.5 57.5t66.5 26.5q35 0 61.5 -26.5t26.5 -67.5 q0 -98 -105 -164q-96 -61 -235 -61q-166 0 -242 92q-37 43 -47 87t-10 140v391q0 135 -64 135q-41 0 -88 -39zM334 373q188 66 262 135q70 63 70 158q0 78 -39 117.5t-103 39.5q-68 0 -118 -32q-43 -31 -57.5 -57.5t-14.5 -71.5v-289z" />
<glyph unicode="&#x251;" horiz-adv-x="1024" d="M55 438q0 203 126 353.5t298 150.5q117 0 217 -88l129 88h43v-709q0 -35 2 -51t10.5 -34.5t30 -24.5t58.5 -6q23 0 37 2v-33l-301 -106l-9 6v125h-4q-88 -131 -264 -131q-33 0 -71 7t-94 34.5t-100 73.5t-76 135t-32 208zM231 506q0 -211 84 -315.5t199 -104.5 q66 0 118 34t64 89v471q-10 98 -71.5 151.5t-139.5 53.5q-100 0 -177 -93.5t-77 -285.5z" />
<glyph unicode="&#x252;" horiz-adv-x="1024" d="M55 803v33l301 106l9 -6v-125h4q88 131 264 131q33 0 70.5 -7t94 -35t100.5 -74t76 -135t32 -208q0 -203 -126 -353t-298 -150q-117 0 -217 88l-129 -88h-43v708q0 35 -2.5 51.5t-10.5 35t-29.5 24.5t-58.5 6q-23 0 -37 -2zM365 242q10 -98 71.5 -151.5t138.5 -53.5 q100 0 177 93t77 286q0 211 -83.5 315.5t-198.5 104.5q-66 0 -118 -34t-64 -89v-471z" />
<glyph unicode="&#x253;" horiz-adv-x="1024" d="M141 115v837q0 182 131 314.5t326 132.5q78 0 134 -31t56 -84q0 -33 -25.5 -55.5t-55.5 -22.5q-45 0 -96.5 61.5t-86.5 61.5q-80 0 -145.5 -82t-65.5 -203v-274q25 63 97.5 117.5t179.5 54.5q174 0 271 -136t97 -323q0 -59 -14 -123.5t-51 -133t-90 -123t-139 -89 t-193 -34.5q-111 0 -220.5 40.5t-109.5 94.5zM313 150q0 -49 61.5 -77t131.5 -28q84 0 141.5 36t84 96.5t36.5 115.5t10 115q0 164 -66.5 284.5t-199.5 120.5q-66 0 -132.5 -44t-66.5 -122v-497z" />
<glyph unicode="&#x254;" horiz-adv-x="909" d="M20 618q88 172 168 236q104 86 236 86q170 0 279.5 -128t109.5 -327q0 -260 -172 -403q-127 -104 -276 -105q-129 0 -222.5 62.5t-93.5 148.5q0 35 28.5 60.5t67.5 25.5q72 0 99 -94l12 -45q16 -57 41 -77.5t80 -20.5q125 0 201.5 98t76.5 258q0 176 -88 288t-229 112 q-88 0 -151.5 -43.5t-137.5 -149.5z" />
<glyph unicode="&#x255;" horiz-adv-x="909" d="M51 436q0 236 138.5 371t314.5 135q131 0 219 -63q92 -68 92 -144q0 -37 -25.5 -63.5t-70.5 -26.5q-37 0 -62.5 26.5t-35.5 67.5q-12 49 -18.5 68.5t-22 41t-39 28t-64.5 6.5q-37 0 -78 -15.5t-86 -52.5t-74.5 -113.5t-29.5 -183.5q0 -111 59.5 -216t151.5 -179 q88 111 134 146.5t126 35.5t127 -41t47 -110q0 -82 -64.5 -134.5t-185.5 -52.5h-45q-92 0 -149 13l-164 -308h-74l162 324q-131 51 -207 163.5t-76 276.5zM471 84q76 -43 139 -43q104 0 140 31t36 84q0 96 -104 96q-47 0 -84 -22.5t-58.5 -50t-68.5 -95.5z" />
<glyph unicode="&#x256;" horiz-adv-x="1132" d="M55 438q0 188 121 346t303 158q117 0 217 -88v320q0 61 -18.5 82.5t-65.5 21.5q-35 0 -55 -2v33q176 45 301 90l10 -4v-1631q0 -172 95 -172q35 0 86 61.5t96 61.5q33 0 57.5 -22.5t24.5 -54.5q0 -59 -60.5 -87t-130.5 -28q-88 0 -152.5 28.5t-100 71.5t-56 110.5 t-26 128t-5.5 142.5v113q-88 -137 -268 -137q-182 0 -277.5 134t-95.5 324zM231 506q0 -100 24 -189.5t91.5 -160t167.5 -70.5q55 0 118.5 36t63.5 87v471q0 84 -64.5 144.5t-146.5 60.5q-131 0 -192.5 -118t-61.5 -261z" />
<glyph unicode="&#x257;" horiz-adv-x="1202" d="M55 424q0 215 125 366.5t299 151.5q117 0 217 -88v98q0 201 81 324t265 123q78 0 134.5 -31t56.5 -84q0 -33 -25.5 -55.5t-56.5 -22.5q-45 0 -96 61.5t-86 61.5q-61 0 -81 -54t-20 -171v-871q0 -35 2 -51t10.5 -34.5t28 -24.5t52.5 -6q31 0 45 2v-33l-301 -106l-9 6v131 q-98 -137 -260 -137q-125 0 -221 69q-160 117 -160 375zM231 506q0 -213 84 -316.5t201 -103.5q66 0 117 34t63 89v461q0 98 -65.5 156.5t-145.5 58.5q-100 0 -177 -93.5t-77 -285.5z" />
<glyph unicode="&#x258;" horiz-adv-x="909" d="M41 322l33 14q25 -41 45 -67.5t60 -66.5t94.5 -60.5t117.5 -20.5q123 0 216.5 100t109.5 346h-637q16 193 111.5 284t248.5 91q68 0 136.5 -26.5t134 -82t106.5 -158t41 -237.5q0 -215 -104.5 -336.5t-278.5 -121.5q-84 0 -156.5 29.5t-117.5 71.5t-82 94t-53.5 86 t-24.5 61zM289 633h422q-23 129 -79.5 182t-146.5 53q-47 0 -81.5 -16t-53 -36.5t-33 -58.5t-18.5 -60.5t-10 -63.5z" />
<glyph unicode="&#x259;" horiz-adv-x="909" d="M29 600q8 27 24.5 60.5t53 86t81.5 94.5t118 71.5t157 29.5q174 0 278.5 -122t104.5 -337q0 -135 -41 -237.5t-106.5 -157.5t-134 -81.5t-136.5 -26.5q-154 0 -249 91t-111 283h637q-16 246 -109.5 346.5t-216.5 100.5q-63 0 -117.5 -20.5t-94.5 -60.5t-60.5 -66.5 t-45.5 -67.5zM276 289q6 -41 10.5 -63.5t18.5 -60.5t32.5 -58.5t53.5 -37t82 -16.5q90 0 146 53.5t79 182.5h-422z" />
<glyph unicode="&#x25a;" horiz-adv-x="1345" d="M74 317l592 342q-39 88 -113 146.5t-164 58.5q-141 0 -272 -104l-35 18q86 90 147.5 127t163.5 37q266 0 410 -203l244 142l12 -9v-28q0 -2 -2 -111.5t-2 -132.5q0 -45 31.5 -76.5t76.5 -31.5q74 -1 109 108l61 -25q-18 -59 -64 -102t-106 -43q-102 0 -137 62.5 t-35 171.5q0 25 1 69.5t1 54.5l-162 -96q63 -113 64 -231q0 -176 -134 -332t-308 -156q-156 0 -261.5 94.5t-117.5 249.5zM156 295q0 -98 58 -168t157 -70q147 0 241.5 126t94.5 278q-1 67 -21 145z" />
<glyph unicode="&#x25b;" horiz-adv-x="897" d="M41 252q0 63 34 120.5t91 88.5q61 33 168 49v4q-238 49 -238 219q0 106 92.5 173t243.5 67q141 0 232 -62q43 -29 65.5 -69.5t22.5 -73.5q0 -37 -27 -63.5t-72 -26.5q-37 0 -62.5 30.5t-35.5 69.5q-23 76 -40 101.5t-54 25.5q-80 0 -132.5 -53t-52.5 -131q0 -80 72 -139 q47 -41 154 -43v-62h-23q-109 0 -177.5 -59.5t-68.5 -153.5q0 -96 61.5 -157.5t158.5 -61.5q161 0 319 127l25 -25q-145 -176 -367 -176q-156 0 -268 70q-53 33 -87 91t-34 120z" />
<glyph unicode="&#x25c;" horiz-adv-x="897" d="M41 147l25 25q160 -127 319 -127q96 0 157.5 61.5t61.5 157.5q0 94 -68.5 153.5t-177.5 59.5h-22v62q106 2 153 43q72 59 72 139q0 78 -52 131t-132 53q-37 0 -54.5 -25.5t-39.5 -101.5q-10 -39 -36 -69.5t-63 -30.5q-45 0 -71.5 26.5t-26.5 63.5q0 33 22.5 74t65.5 69 q90 61 232 62q152 0 243.5 -66.5t91.5 -173.5q1 -170 -237 -219v-4q106 -16 168 -49q57 -31 91 -88.5t34 -120.5q0 -61 -34 -119.5t-87 -91.5q-113 -70 -268 -70q-221 0 -367 176z" />
<glyph unicode="&#x25d;" horiz-adv-x="1275" d="M41 147l25 25q160 -127 319 -127q94 0 156.5 61.5t62.5 157.5q0 109 -76.5 161t-191.5 52v62q94 2 159.5 48t65.5 134q0 78 -53 131t-131 53q-39 0 -60.5 -35.5t-29.5 -77.5t-35 -78t-72 -36q-39 0 -66.5 25.5t-27.5 64.5q0 68 57.5 117t126 68.5t136.5 19.5 q123 0 222 -52.5t111 -160.5l209 121l13 -9l-3 -61q-2 -33 -2 -211q0 -45 32 -76.5t77 -31.5q41 0 71 32.5t38 75.5l61 -25q-16 -59 -63.5 -102t-106.5 -43q-55 0 -91 19.5t-52.5 58.5t-22.5 76t-6 90q0 35 1 67.5t1 46.5l-154 -88q-10 -78 -78.5 -124t-158.5 -62v-4 q293 -45 293 -258q0 -137 -121 -209t-268 -72q-223 0 -367 176z" />
<glyph unicode="&#x25e;" horiz-adv-x="980" d="M41 479q0 217 119 355.5t329 138.5q131 0 233.5 -59.5t102.5 -180.5q1 -170 -237 -219v-4q293 -45 293 -258q0 -137 -121 -209t-268 -72q-225 0 -338 137.5t-113 370.5zM174 481q0 -86 27.5 -182t93 -175t156.5 -79q96 0 166.5 61.5t70.5 157.5q0 109 -77.5 161 t-190.5 52v62q94 2 159.5 47t65.5 135q0 78 -53 131t-131 53q-94 0 -163 -74.5t-96.5 -167t-27.5 -182.5z" />
<glyph unicode="&#x25f;" horiz-adv-x="645" d="M-100 -334q0 33 24.5 56.5t59.5 23.5q47 0 98 -65q47 -57 86 -58q47 0 70 37q29 51 28 248v522h-250v64h250v280q0 88 -41 113q-33 18 -112 24v31h483v-31q-90 -8 -119 -32q-39 -33 -39 -127v-258h168v-64h-168v-430q0 -219 -89 -332.5t-259 -113.5q-84 0 -137 31.5 t-53 80.5z" />
<glyph unicode="&#x260;" horiz-adv-x="1216" d="M66 453q0 211 142 365.5t335 154.5q115 0 219 -82v61q0 201 81 324t265 123q78 0 134 -31t56 -84q0 -33 -25.5 -55.5t-55.5 -22.5q-45 0 -96.5 61.5t-86.5 61.5q-37 0 -58.5 -17.5t-30.5 -64.5t-11 -85t-2 -118v-1099q0 -170 -130 -274.5t-339 -104.5q-143 0 -246.5 48 t-103.5 114q0 33 21.5 54t53.5 21q31 0 54.5 -18t48 -51t37.5 -45q74 -66 172 -66q127 0 202 92q61 74 62 203v191q-133 -137 -291 -138q-164 0 -285.5 143.5t-121.5 338.5zM254 518q0 -178 91 -303t222 -125q111 0 197 90v461q0 106 -62 178q-78 88 -180 88 q-115 0 -191.5 -111.5t-76.5 -277.5z" />
<glyph unicode="&#x261;" horiz-adv-x="1099" d="M66 453q0 203 138 361.5t339 158.5q123 0 243 -105q10 8 18.5 15.5t15.5 16.5t11.5 14.5t10.5 16.5t9 16t10 19.5t11 20.5h60v-1042q0 -182 -139.5 -280.5t-329.5 -98.5q-104 0 -227 40t-123 122q0 33 21.5 54t54 21t63.5 -28.5t55.5 -61t75.5 -61.5t117 -29 q125 0 194.5 84t69.5 211v191q-133 -137 -291 -138q-176 0 -291.5 150.5t-115.5 331.5zM254 518q0 -96 32.5 -191.5t106.5 -166t174 -70.5q111 0 197 90v461q0 104 -68.5 185t-173.5 81q-131 0 -199.5 -124t-68.5 -265z" />
<glyph unicode="&#x262;" horiz-adv-x="1167" d="M61 465q0 203 170 338q152 119 363 119q43 0 199 -29q72 -14 81 -14q49 0 66 43h33l10 -291h-33q-49 104 -108 160q-86 74 -226 73q-160 0 -251 -86q-125 -119 -125 -346q0 -184 108.5 -291.5t288.5 -107.5q74 0 142.5 20.5t68.5 59.5v215q0 82 -23.5 104.5t-111.5 24.5 v24h391v-24q-61 -4 -82 -24.5t-21 -86.5v-268q0 -31 -156.5 -66t-228.5 -35q-274 0 -423 144q-131 129 -132 344z" />
<glyph unicode="&#x263;" horiz-adv-x="1024" d="M39 891v31h420v-31q-117 -6 -117 -53q0 -25 18 -68l238 -530l190 540q16 49 17 62q0 49 -94 49v31h272v-31q-18 -2 -33.5 -10.5t-26 -16.5t-19.5 -24.5t-12 -24.5t-11.5 -28.5t-8.5 -22.5l-225 -612l107 -222q53 -106 53 -202.5t-60.5 -151.5t-156.5 -55q-213 0 -213 176 q0 88 39 166l92 188l-297 633l-64 137q-27 57 -108 70zM465 -281q0 -131 84 -131q49 0 81 34t32 83q0 35 -29 96l-86 172l-60 -139q-23 -55 -22 -115z" />
<glyph unicode="&#x264;" horiz-adv-x="1024" d="M27 760q0 66 48 114t111 48q70 0 120 -44t100 -122l139 -217l170 256q2 2 14 20.5t14 21.5t13.5 18t16.5 19.5t15.5 14.5t18.5 14t20.5 9.5t24.5 7.5t27 2q47 0 81.5 -35t34.5 -82q0 -49 -45 -131q-12 33 -20 53.5t-30.5 42t-51.5 21.5q-63 0 -129 -101l-133 -205 q33 -45 87 -145t54 -152q0 -88 -66.5 -148t-156.5 -60q-88 0 -142.5 45t-54.5 131q0 51 62 139l88 123l-185 280q-59 92 -120 93q-37 0 -59.5 -27t-33 -57.5t-14.5 -32.5q-18 51 -18 86zM379 150q0 -43 30.5 -67t73.5 -24q47 0 73 34t26 81q0 18 -11.5 46t-21.5 46.5 t-32.5 53t-24.5 38.5q-6 -8 -32 -42.5t-40 -55t-27.5 -53.5t-13.5 -57z" />
<glyph unicode="&#x265;" horiz-adv-x="1024" d="M27 891v31h434v-31q-90 -10 -114.5 -41t-24.5 -137v-406q0 -217 151 -217q61 0 112.5 28.5t116.5 100.5v494q0 106 -24.5 137t-114.5 41v31h443v-31q-88 -12 -110 -41t-22 -137v-965q0 -66 19.5 -85t85.5 -19q18 0 25 2v-33l-56 -16q-158 -47 -235 -74l-11 6v623 q-72 -92 -141 -132t-160 -40q-252 0 -251 325v408q0 106 -19.5 133.5t-103.5 44.5z" />
<glyph unicode="&#x266;" horiz-adv-x="1024" d="M18 0v31q86 12 109 39.5t23 132.5v817q0 160 106 269.5t268 109.5q147 0 248.5 -42t101.5 -108q0 -33 -21.5 -54t-53.5 -21q-12 0 -24.5 3t-19.5 7t-18.5 15t-16.5 16.5t-19.5 23.5t-20.5 27q-66 82 -148 82q-84 0 -153 -86q-57 -68 -57 -164v-328q129 172 299 172 q254 0 253 -326v-407q0 -109 22 -136.5t101 -41.5v-31h-434v31q84 10 111.5 37.5t27.5 124.5v421q0 217 -157 217q-113 0 -223 -129v-503q0 -102 28.5 -131t110.5 -37v-31h-443z" />
<glyph unicode="&#x267;" horiz-adv-x="985" d="M18 0v31q86 10 109 39.5t23 138.5v811q0 160 106 269.5t268 109.5q147 0 248.5 -42t101.5 -108q0 -33 -21.5 -54t-53.5 -21q-10 0 -18.5 2t-14.5 3t-14.5 7t-12.5 9t-13 13.5t-12 14.5t-15.5 19t-16.5 22q-66 84 -147 84q-86 0 -156 -86q-57 -68 -57 -164v-328 q127 172 299 172q253 0 253 -332v-641q0 -193 -99 -319.5t-288 -126.5q-78 0 -134 30.5t-56 84.5q0 33 25.5 55t56.5 22q45 0 96 -61.5t86 -61.5q141 0 141 285v737q0 217 -157 217q-113 0 -223 -129v-493q0 -111 27.5 -140.5t111.5 -37.5v-31h-443z" />
<glyph unicode="&#x268;" horiz-adv-x="569" d="M33 0v31q106 6 134 36.5t28 145.5v258h-162v64h162v143q0 72 -14.5 100.5t-53.5 28.5q-49 0 -86 -10v32l317 113l9 -8v-399h151v-64h-151v-256q0 -115 25.5 -145.5t125.5 -38.5v-31h-485zM160 1294q0 43 30.5 74t73.5 31q45 0 75 -31t30 -74q0 -45 -31 -74.5t-76 -29.5 q-43 0 -72.5 29.5t-29.5 74.5z" />
<glyph unicode="&#x269;" horiz-adv-x="681" d="M35 797v32q27 8 107.5 37t133 46.5t64.5 17.5q20 0 20 -41v-676q0 -66 32 -94.5t77 -28.5q63 0 135 74l33 -25q-47 -63 -114.5 -111t-137.5 -48q-111 0 -154 67.5t-43 208.5v430q0 68 -15 94.5t-52 26.5q-49 0 -86 -10z" />
<glyph unicode="&#x26a;" horiz-adv-x="528" d="M43 0v37q92 2 113.5 31.5t21.5 115.5v561q0 84 -20.5 110t-114.5 30v37h430v-37q-92 -2 -111.5 -31t-19.5 -119v-540q0 -86 21.5 -121t109.5 -37v-37h-430z" />
<glyph unicode="&#x26b;" horiz-adv-x="716" d="M20 653q23 100 77.5 153.5t129.5 53.5q14 0 43 -4v293q0 74 -18.5 102.5t-67.5 28.5q-43 0 -75 -4v33q195 47 323 90l10 -8v-605q51 -20 86 -20t58.5 23.5t50.5 80.5h59q-33 -117 -82 -167t-133 -50q-27 0 -39 2v-477q0 -86 29 -113.5t125 -33.5v-31h-483v31 q96 8 126.5 39.5t30.5 117.5v535l-2 2q-49 23 -84 23q-72 0 -104 -95h-60z" />
<glyph unicode="&#x26c;" horiz-adv-x="768" d="M25 702.5q0 90.5 65.5 155t153.5 64.5q18 0 59 -11v244q0 70 -19.5 97.5t-68.5 27.5q-25 0 -74 -4v33q190 47 326 90l8 -4v-801q154 53 244 143l22 -26q-10 -14 -29.5 -35t-88 -70t-148.5 -78v-356q0 -82 31 -109.5t123 -31.5v-31h-484v31q92 8 125 38.5t33 114.5v305 q-20 -4 -59 -4q-90 0 -154.5 63.5t-64.5 154zM131 723q0 -61 38 -105.5t97 -50.5q12 -2 37 -2v289q-20 8 -33 8q-47 0 -93 -45t-46 -94z" />
<glyph unicode="&#x26d;" horiz-adv-x="618" d="M20 1276v33q190 47 326 90l8 -4v-1518q0 -80 2 -118t11.5 -85t31 -64.5t58.5 -17.5q35 0 86 61.5t96 61.5q31 0 56.5 -22.5t25.5 -54.5q0 -53 -56.5 -84t-134.5 -31q-184 0 -266 123t-82 323v1186q0 70 -19.5 97.5t-70.5 27.5q-23 0 -72 -4z" />
<glyph unicode="&#x26e;" horiz-adv-x="1124" d="M39 1276v33q209 51 323 90l11 -4v-473h663v-103l-336 -418q35 6 66 7q137 0 236.5 -109t99.5 -297q0 -121 -42 -216t-110.5 -150.5t-146.5 -84t-156 -28.5q-123 0 -217 63q-43 29 -65.5 70t-22.5 74q0 37 26.5 63.5t73.5 26.5q33 0 60.5 -30t38.5 -77q20 -82 42.5 -106.5 t100.5 -24.5q35 0 75 15.5t85 52.5t74.5 113.5t29.5 183.5q0 168 -86 248.5t-225 80.5q-20 0 -107 -38l-28 22l438 531h-567v-619q0 -84 29.5 -108.5t123.5 -32.5v-31h-483v31q86 6 122 35.5t36 111.5v977q0 70 -19.5 97.5t-69 27.5t-73.5 -4z" />
<glyph unicode="&#x26f;" horiz-adv-x="1593" d="M23 891v31h446v-31q-86 -8 -109.5 -36t-23.5 -118v-422q0 -123 36 -176t122 -53q72 0 122 28.5t97 96.5v516q0 98 -30 130t-118 34v31h459v-31q-90 -6 -114.5 -29.5t-24.5 -116.5v-432q0 -227 133 -227q57 0 121.5 25.5t95.5 62.5q27 31 27 35v569q0 66 -29 87.5 t-111 25.5v31h455v-31q-86 -2 -114.5 -32t-28.5 -118v-508q0 -76 16 -105.5t55 -29.5q31 0 66 8v-34q-139 -39 -285 -92l-16 6v151h-4q-92 -96 -163 -126.5t-151 -30.5q-162 0 -217 172q-160 -172 -334 -172q-238 0 -237 368v416q0 68 -20.5 93.5t-67.5 29.5z" />
<glyph unicode="&#x270;" horiz-adv-x="1644" d="M23 891v31h446v-31q-82 -10 -107.5 -35t-25.5 -113v-426q0 -70 7 -112.5t44 -80.5t107 -38q78 0 126 32t93 93v528q0 53 -9.5 85t-34 45.5t-43 16.5t-61.5 5v31h459v-31q-88 -6 -113.5 -29.5t-25.5 -111.5v-439q0 -225 135 -225q63 0 123.5 28.5t89.5 56.5t29 36v577 q0 37 -9.5 58.5t-33 32t-41 12.5t-56.5 4v31h455v-31q-39 0 -58.5 -4t-43 -16.5t-32.5 -43t-9 -79.5v-1041q0 -51 11 -83t37.5 -46t52.5 -18t73 -6v-31h-492v31q92 16 119 38.5t27 102.5v442q-135 -158 -301 -157q-94 0 -144.5 41.5t-81.5 130.5q-166 -172 -332 -172 q-240 0 -239 364v422q0 115 -84 121z" />
<glyph unicode="&#x271;" horiz-adv-x="1593" d="M33 0v31q80 2 111.5 26.5t31.5 114.5v520q0 84 -19.5 107.5t-52 23.5t-65.5 -8v35q141 39 287 92l14 -4v-156q94 92 161.5 126t153.5 34q92 0 142.5 -46t76.5 -128q154 174 334 174q238 1 238 -364v-609q0 -193 -99.5 -319.5t-287.5 -126.5q-78 0 -134.5 30.5t-56.5 84.5 q0 33 26 55t56 22q45 0 96.5 -61.5t86.5 -61.5q141 0 141 285v725q0 49 -4 82t-18.5 72t-47.5 59.5t-86 20.5q-80 0 -130 -33t-91 -92v-531q0 -51 10.5 -84t36 -45t44 -16t56.5 -4v-31h-458v31q8 2 32.5 4t29.5 3t22.5 5t21.5 9t13.5 15.5t11.5 23.5t5 31.5t3 43.5v450 q0 102 -35 161t-96 59q-66 0 -127 -29t-90 -56.5t-29 -37.5v-574q0 -37 8.5 -58.5t32 -31.5t40.5 -13t58 -5v-31h-454z" />
<glyph unicode="&#x272;" horiz-adv-x="1083" d="M-143 -362q0 33 25.5 55t56.5 22q45 0 96 -61.5t86 -61.5q37 0 58.5 17.5t30.5 64.5t11 85t2 118v823q0 55 -12 84t-24.5 34t-34.5 5q-43 0 -60 -8v35q143 41 281 92l16 -6v-162q150 168 295 168q104 0 174 -71.5t70 -243.5v-461q0 -74 25.5 -101.5t99.5 -33.5v-31h-426 v31q49 6 70.5 15t40 46t18.5 111v420q0 102 -34 154t-120 52q-51 0 -97 -27.5t-110 -88.5v-744q0 -201 -82 -323.5t-266 -122.5q-78 0 -134 30.5t-56 84.5z" />
<glyph unicode="&#x273;" horiz-adv-x="1091" d="M33 815v35q143 41 280 92l17 -6v-162q154 168 295 168q100 0 171.5 -69.5t71.5 -241.5v-754q0 -80 2 -118t11.5 -85t31 -64.5t58.5 -17.5q35 0 86 61.5t96 61.5q31 0 56.5 -22.5t25.5 -54.5q0 -53 -56.5 -84t-134.5 -31q-184 0 -266 123t-82 323v654q0 102 -33.5 154 t-119.5 52t-207 -116v-568q0 -57 27.5 -83.5t105.5 -30.5v-31h-432v31q74 6 100.5 35.5t26.5 117.5v512q0 57 -12.5 87t-24.5 35t-35 5q-43 0 -59 -8z" />
<glyph unicode="&#x274;" horiz-adv-x="1232" d="M59 0v37q104 10 131 39.5t27 140.5v592q-43 47 -71.5 61.5t-86.5 14.5v37h273l596 -664v451q0 111 -29 139q-16 29 -125 37v37h375v-37q-78 -8 -107 -27q-43 -37 -43 -166v-708h-28l-682 753v-520q0 -106 24.5 -138t118.5 -42v-37h-373z" />
<glyph unicode="&#x275;" horiz-adv-x="1024" d="M59 467q0 217 126 346t331 129q193 0 320 -129t127 -340t-127 -352t-320 -141q-201 0 -329 140t-128 347zM244 506h534q0 178 -78.5 278.5t-183.5 100.5q-111 0 -190.5 -99.5t-81.5 -279.5zM246 438q0 -174 82 -287.5t188 -113.5q102 0 182 113.5t80 287.5h-532z" />
<glyph unicode="&#x276;" horiz-adv-x="1474" d="M47 453q0 264 205 393q121 76 303 76q23 0 100 -4q86 -6 185 -7h514v-196h-39q-12 92 -59.5 117.5t-200.5 25.5h-86q-63 0 -86 -10t-23 -37v-307h158q129 0 172 25.5t51 109.5h37v-326h-37q-10 80 -46 109t-126 29h-209v-326q0 -41 19.5 -58.5t74.5 -17.5h183 q82 0 140 40t116 136h34l-69 -229h-553q-51 0 -157.5 -4t-139.5 -4q-98 0 -192.5 35.5t-147.5 95.5q-121 133 -121 334zM225 453q0 -188 70 -293q82 -119 242 -119q84 0 120.5 32.5t36.5 106.5v543q0 76 -33.5 110.5t-113.5 34.5q-152 0 -237 -107.5t-85 -307.5z" />
<glyph unicode="&#x277;" horiz-adv-x="1366" d="M76 397q0 256 180 416t428 160q238 0 421 -161t183 -415q0 -168 -103.5 -286.5t-267 -118.5t-235.5 172q-72 -172 -235.5 -172t-267 118.5t-103.5 286.5zM272 430q0 -53 8.5 -107.5t27 -112.5t59.5 -95t96 -37q63 0 109 45t46 110q0 45 -26.5 146.5t-26.5 163.5 q0 125 117 125t117 -125q0 -61 -27 -162.5t-27 -147.5q0 -66 46.5 -110.5t109.5 -44.5q55 0 96 37t59.5 95t27 112.5t8.5 107.5q0 248 -115 375t-293 127t-295 -127t-117 -375z" />
<glyph unicode="&#x278;" horiz-adv-x="1366" d="M82 451q0 199 149.5 310t364.5 130v330q0 82 -33 111.5t-125 35.5v31h484v-31q-92 -4 -123 -29.5t-31 -111.5v-336q215 -18 364.5 -130t149.5 -310q0 -193 -150.5 -319t-363.5 -138v-299q0 -86 30.5 -111.5t123.5 -29.5v-31h-484v31q92 6 125 35.5t33 111.5v293 q-213 12 -363.5 138t-150.5 319zM287 455q0 -152 82 -268t227 -136v783q-150 -10 -229.5 -115t-79.5 -264zM768 51q147 20 228 136t81 268q0 160 -79.5 264.5t-229.5 114.5v-783z" />
<glyph unicode="&#x279;" horiz-adv-x="757" d="M61 88q0 43 21.5 67.5t58.5 24.5q39 0 82 -41q35 -31 53 -30q43 0 93.5 59t50.5 108v461q0 88 -35 119t-139 35v31h491v-31q-98 -18 -121.5 -41t-23.5 -100v-512q0 -68 15.5 -95.5t54.5 -27.5q33 0 71 8v-33q-129 -41 -303 -110l-10 4v188q-78 -111 -130 -151.5 t-116 -40.5q-53 0 -83 28.5t-30 79.5z" />
<glyph unicode="&#x27a;" horiz-adv-x="757" d="M61 90q0 39 20.5 64.5t57.5 25.5q39 0 79 -35.5t61 -35.5q41 0 91 59t50 108v869q0 74 -18.5 104.5t-67.5 30.5q-27 0 -76 -4v33q190 47 326 90l8 -4v-1223q0 -86 29.5 -109.5t123.5 -31.5v-31h-325v172q-76 -109 -129 -150.5t-117 -41.5q-53 0 -83 29.5t-30 80.5z" />
<glyph unicode="&#x27b;" horiz-adv-x="856" d="M61 90q0 39 20.5 64.5t57.5 25.5q39 0 79 -35.5t63 -35.5q37 0 88 59t51 108v461q0 51 -11.5 83t-38 46.5t-52 18.5t-72.5 6v31h491v-31q-92 -16 -118.5 -38.5t-26.5 -102.5v-510q0 -647 102 -648q35 0 86 61.5t97 61.5q31 0 56 -22.5t25 -54.5q0 -53 -56 -84t-134 -31 q-94 0 -165 65.5t-108.5 168t-56 207t-18.5 202.5q-123 -186 -248 -186q-51 0 -81 29.5t-30 80.5z" />
<glyph unicode="&#x27c;" horiz-adv-x="681" d="M10 -446q92 16 119 38.5t27 102.5v989q0 43 -6.5 69.5t-18.5 37t-21.5 13.5t-25.5 3q-33 0 -70 -8v32q162 53 303 111l11 -4v-188q76 109 128 150.5t117 41.5q55 0 84 -29.5t29 -81.5q0 -39 -20.5 -64.5t-57.5 -25.5q-39 0 -79 36t-62 36q-37 0 -88 -59.5t-51 -106.5 v-940q0 -51 11 -83t37.5 -46t52.5 -18t73 -6v-31h-492v31z" />
<glyph unicode="&#x27d;" horiz-adv-x="757" d="M14 799v32q162 53 303 111l11 -4v-188q78 113 129 152.5t118 39.5q51 0 81 -29.5t30 -81.5q0 -39 -20.5 -64.5t-57.5 -25.5q-39 0 -79 36t-62 36q-39 0 -89 -59.5t-50 -108.5v-768q0 -80 2 -118t11 -85t30.5 -64.5t58.5 -17.5q35 0 86 61.5t96 61.5q31 0 56.5 -22.5 t25.5 -54.5q0 -53 -56 -84t-134 -31q-184 0 -266 123t-82 323v715q0 43 -6.5 69.5t-18.5 37t-21.5 13.5t-25.5 3q-33 0 -70 -8z" />
<glyph unicode="&#x27e;" horiz-adv-x="645" d="M20 0v27q84 6 108 28.5t24 100.5v360q0 201 81.5 324t266.5 123q78 0 134 -31t56 -84q0 -33 -25.5 -55.5t-56.5 -22.5q-45 0 -96 61.5t-86 61.5q-37 0 -58.5 -17.5t-30.5 -64.5t-11 -85t-2 -118v-452q0 -76 23.5 -99.5t107.5 -29.5v-27h-435z" />
<glyph unicode="&#x27f;" horiz-adv-x="716" d="M10 848q0 53 56.5 84t134.5 31q184 0 266 -123t82 -324v-360q0 -78 23.5 -100.5t107.5 -28.5v-27h-434v27q84 6 107.5 29.5t23.5 99.5v452q0 80 -2 118t-11.5 85t-31 64.5t-58.5 17.5q-35 0 -86 -61.5t-96 -61.5q-31 0 -56.5 22.5t-25.5 55.5z" />
<glyph unicode="&#x280;" horiz-adv-x="972" d="M43 0v37q82 2 115 47q23 31 22 117v526q0 104 -28 137q-33 41 -109 49v37h455q156 0 252 -69.5t96 -180.5q0 -176 -248 -245l233 -349q49 -70 111 -69h21v-37h-246l-295 428h-76v-217q0 -96 30 -133t109 -41v-37h-442zM346 496h35q102 0 162 32q113 57 112 172 q0 84 -56 134.5t-155 50.5q-41 0 -98 -15v-374z" />
<glyph unicode="&#x281;" horiz-adv-x="972" d="M43 0v37q76 8 109 49q29 33 28 137v527q0 86 -22 116q-33 45 -115 47v37h442v-37q-80 -4 -109.5 -40.5t-29.5 -133.5v-217h76l295 428h246v-37h-21q-61 0 -111 -69l-233 -348q248 -70 248 -246q0 -111 -96.5 -180.5t-251.5 -69.5h-455zM346 80q57 -14 98 -14 q98 0 154.5 50t56.5 134q0 115 -112 172q-59 33 -162 33h-35v-375z" />
<glyph unicode="&#x282;" horiz-adv-x="796" d="M102 -209q0 29 2 95.5t2 105.5v319h33q33 -150 94.5 -219t165.5 -69q76 0 123 43t47 108q0 94 -108 154l-111 61q-246 137 -246 297q0 119 77 185.5t206 66.5q90 0 137 -23q37 -16 58 -16q14 0 32 21h23l10 -279h-31q-35 139 -87 195.5t-144 56.5q-70 0 -112 -35 t-42 -104q0 -35 23.5 -75t64.5 -65l213 -129q102 -61 141.5 -114.5t39.5 -137.5q0 -102 -85 -179t-202 -77q-96 0 -150 19q-55 18 -94 18h-12q-4 -131 -4 -196q0 -195 78 -195q35 0 86 61.5t96 61.5q31 0 56.5 -22.5t25.5 -55.5q0 -53 -56.5 -83.5t-134.5 -30.5 q-131 0 -173 57t-42 180z" />
<glyph unicode="&#x283;" horiz-adv-x="659" d="M-143 -362q0 33 25.5 55t56.5 22q45 0 96 -61.5t86 -61.5q106 1 106 185v1175q0 446 344 447q78 0 134.5 -31t56.5 -84q0 -33 -25.5 -55.5t-56.5 -22.5q-45 0 -96.5 61.5t-86 61.5t-56 -21.5t-30 -63.5t-10.5 -70.5t-2 -73.5v-1192q0 -170 -89 -277.5t-263 -107.5 q-78 0 -134 30.5t-56 84.5z" />
<glyph unicode="&#x284;" horiz-adv-x="622" d="M-143 -334q0 31 22.5 55.5t59.5 24.5q45 0 96 -61.5t86 -61.5q25 0 42 8.5t28.5 27.5t18.5 37.5t9 56.5t3 66.5t1 82.5v98h-157v63h157v820q0 84 6.5 149.5t28 138t58 119.5t101 78t154.5 31q70 0 130.5 -28t60.5 -87q0 -31 -24.5 -54.5t-55.5 -23.5q-45 0 -95 61.5 t-89 61.5q-102 0 -103 -246v-1020h158v-63h-158q0 -127 -29.5 -222t-110.5 -159.5t-208 -64.5q-78 0 -134 29.5t-56 82.5z" />
<glyph unicode="&#x285;" horiz-adv-x="819" d="M31 848q0 53 56 84t134 31q184 0 266 -123t82 -324v-639q0 -80 2 -118t11.5 -85t31 -64.5t58.5 -17.5q35 0 86 61.5t96 61.5q31 0 56.5 -22.5t25.5 -54.5q0 -53 -56.5 -84t-134.5 -31q-184 0 -266 123t-82 323v639q0 80 -2 118t-11 85t-30.5 64.5t-58.5 17.5 q-35 0 -86 -61.5t-96 -61.5q-31 0 -56.5 22.5t-25.5 55.5z" />
<glyph unicode="&#x286;" horiz-adv-x="894" d="M-47 -219.5q0 104.5 75.5 180.5t182.5 76q76 0 119 -14v940q0 436 344 436q68 0 129 -28t61 -87q0 -31 -24.5 -54.5t-55.5 -23.5q-49 0 -99 61.5t-85 61.5q-98 0 -98 -215v-1171q94 -70 144 -177.5t50 -226.5q0 -12 -4 -37h-53v29q0 217 -137 346q-31 -354 -293 -354 q-104 0 -180 76.5t-76 181zM4 -219q0 -82 61.5 -144.5t143.5 -62.5q121 0 121 193v200q-49 18 -121 19q-82 0 -143.5 -60.5t-61.5 -144.5z" />
<glyph unicode="&#x287;" horiz-adv-x="569" d="M33 786q98 156 248 156q180 0 180 -260v-616h108q8 -6 9 -15q0 -16 -35 -39q-78 -45 -199 -219q-4 -6 -19.5 -25.5t-21.5 -31.5q-14 0 -14 26v238h-207v66h207v585q0 98 -24.5 141.5t-82.5 43.5q-61 0 -123 -72z" />
<glyph unicode="&#x288;" horiz-adv-x="552" d="M27 870q0 12 12 21.5t35.5 26t42.5 34.5q82 84 184 234q14 0 14 -27v-237h207v-66h-207v-1147q0 -117 31 -117q27 0 44.5 19.5t26.5 43t29.5 43t49.5 19.5q33 0 58.5 -22.5t25.5 -56.5q0 -53 -57.5 -84t-135.5 -31t-128 21.5t-74.5 66.5t-33 95t-8.5 124v1026h-108 q-8 4 -8 14z" />
<glyph unicode="&#x289;" horiz-adv-x="1024" d="M18 471v64h127v221q0 76 -26.5 104.5t-100.5 32.5v29h299v-387h365v219q0 80 -28.5 103.5t-123.5 29.5v35h324v-387h127v-64h-127v-252q0 -72 23.5 -95.5t93.5 -23.5h12v-26q-160 -43 -281 -92l-10 6v168h-4q-129 -176 -293 -176q-117 0 -183.5 71.5t-66.5 190.5v229 h-127zM317 260q0 -70 42 -116t104 -46q100 0 172 64q27 25 37 46.5t10 72.5v190h-365v-211z" />
<glyph unicode="&#x28a;" horiz-adv-x="1099" d="M94 881v41h287q-102 -289 -102 -504q0 -66 14 -154q16 -104 86 -174t170 -70t169.5 70t86.5 174q14 88 14 156q0 217 -102 502h287v-41h-78q-33 0 -58.5 -23.5t-25.5 -52.5q0 -41 20 -62q16 -14 44 -50t60.5 -110.5t32.5 -146.5q0 -190 -131 -323t-319 -133 q-186 0 -318.5 133t-132.5 315q0 76 35 155t59.5 110.5t43.5 49.5q20 20 20 58q0 35 -25.5 57.5t-58.5 22.5h-78z" />
<glyph unicode="&#x28b;" horiz-adv-x="1024" d="M66 799v32q164 49 319 111l10 -6v-678q0 -74 53.5 -134.5t124.5 -60.5q145 0 242.5 132.5t97.5 281.5q0 104 -32.5 177t-71.5 100.5t-71.5 58.5t-32.5 61q0 29 29.5 48.5t58.5 19.5q57 0 96 -47t56.5 -122t23.5 -134t6 -117q0 -141 -43 -260t-144.5 -200.5t-248.5 -81.5 q-154 0 -235 65.5t-81 216.5v422q0 39 -2 59.5t-19.5 42t-49.5 21.5q-29 0 -86 -8z" />
<glyph unicode="&#x28c;" horiz-adv-x="1024" d="M-8 0v31q47 4 69.5 30.5t63.5 128.5l262 658q41 102 57 102q14 0 37 -53l262 -631q66 -156 96.5 -193.5t90.5 -41.5v-31h-402v31q53 4 74 16t21 39q0 33 -19 78l-209 524l-202 -530q-12 -31 -13 -62q0 -57 96 -65v-31h-284z" />
<glyph unicode="&#x28d;" horiz-adv-x="1478" d="M43 0v31q31 10 45 29.5t39 80.5l283 709q41 100 57 100q10 0 17.5 -13t31.5 -75l186 -483l230 491q37 80 51 80q18 0 53 -90l277 -700q31 -80 51 -102.5t57 -26.5v-31h-368v31q53 6 73.5 20.5t20.5 46.5q0 31 -12 62l-203 534l-187 -407l41 -115q29 -82 56.5 -108.5 t85.5 -32.5v-31h-416v31q72 10 95.5 24.5t23.5 47t-35 122.5l-172 459l-184 -455q-35 -86 -35 -137q0 -25 19.5 -38t70.5 -23v-31h-252z" />
<glyph unicode="&#x28e;" horiz-adv-x="909" d="M-4 0v31q37 4 59.5 26.5t42.5 77.5l308 838q80 217 160.5 306t197.5 89q66 0 104.5 -34t38.5 -85q0 -39 -25.5 -66.5t-62.5 -27.5q-59 0 -106 27q-27 14 -54 14q-43 0 -102 -90q-29 -41 -55.5 -117t-26.5 -104q0 -27 86 -207l270 -578q27 -59 109 -71v-29h-420v31 q66 2 91.5 14t25.5 41q0 23 -27 84l-229 512l-199 -565q-8 -18 -8 -37q0 -49 94 -49v-31h-272z" />
<glyph unicode="&#x28f;" horiz-adv-x="1202" d="M47 913v37h430v-37l-43 -2q-39 -2 -48 -9t-9 -28q0 -18 39 -65l235 -309l238 309q25 35 24 70q0 18 -13 25t-69 9v37h324v-37q-74 -6 -108.5 -33.5t-112.5 -127.5l-244 -318v-217q0 -43 3 -67.5t16.5 -54t43 -44t76.5 -14.5v-37h-442v37q47 0 78 13t42 42t14 49.5t3 55.5 v225l-213 272q-111 141 -156.5 178t-107.5 41z" />
<glyph unicode="&#x290;" horiz-adv-x="1081" d="M55 0v31l545 829h-291q-41 0 -69.5 -10t-44 -21.5t-25.5 -40t-14 -47t-11 -61.5h-36l8 242h708v-31l-551 -830h273q168 0 217 56q28 31 55 170l37 -8q-37 -451 -37 -512q0 -76 18.5 -110t63.5 -34q35 0 86 61.5t96 61.5q31 0 56.5 -22.5t25.5 -55.5q0 -53 -56 -83.5 t-134 -30.5q-125 0 -169 72.5t-44 195.5q0 37 4 101.5t4 76.5h-715z" />
<glyph unicode="&#x291;" horiz-adv-x="1038" d="M55 0v31l545 829h-289q-51 0 -81.5 -9t-47 -40t-21.5 -52.5t-16 -78.5h-36l8 242h708v-31l-551 -830h234q160 246 264 261q37 4 51 4q80 0 127 -41t47 -111q0 -80 -61.5 -127t-183.5 -47h-203q-39 -66 -79 -142.5t-60 -119.5l-21 -45h-74q66 152 156 307h-416zM586 61 h168q176 0 176 115q0 96 -105 96q-27 0 -53 -6q-67 -17 -186 -205z" />
<glyph unicode="&#x292;" horiz-adv-x="845" d="M25 614l49 308h663v-103l-336 -418q35 6 66 7q137 0 236.5 -109t99.5 -297q0 -229 -139.5 -354t-319.5 -125q-119 0 -213 63q-43 29 -65.5 70t-22.5 74q0 37 26.5 63.5t73.5 26.5q37 0 62.5 -32t34.5 -71q20 -86 44.5 -110.5t100.5 -24.5q35 0 75 15.5t85 52.5 t74.5 113.5t29.5 183.5q0 168 -86 248.5t-225 80.5q-20 0 -107 -38l-28 22l438 531h-408q-102 0 -130.5 -38t-41.5 -139h-36z" />
<glyph unicode="&#x293;" horiz-adv-x="882" d="M25 -293q0 72 47 117t133 45t148.5 -55.5t162.5 -202.5q139 78 139 336q0 137 -88 233t-225 96q-29 0 -115 -38l-28 22l391 600h-283q-102 0 -131 -40t-41 -140h-37l8 242h709v-31l-364 -549q4 0 14 1t18 1q131 0 244 -95t113 -257q0 -172 -82 -283.5t-205 -154.5 l94 -179h-76l-88 158q-43 -10 -157 -10q-301 0 -301 184zM168 -291q0 -66 60.5 -96.5t129.5 -30.5q81 0 95 4q-141 213 -213 213q-35 0 -53.5 -25.5t-18.5 -64.5z" />
<glyph unicode="&#x294;" horiz-adv-x="921" d="M96 1192q0 33 22.5 74t65.5 69q94 63 232 64q115 0 198.5 -35t125.5 -92.5t60.5 -114.5t18.5 -119q0 -160 -94 -242.5t-225 -107.5v-479q0 -115 30.5 -144.5t131.5 -33.5v-31h-486v31q102 6 127 39t25 139v520q117 0 207 94.5t90 216.5q0 117 -49.5 220.5t-139.5 103.5 q-49 0 -87 -40t-48 -91q-27 -131 -106 -131q-45 0 -72 26.5t-27 63.5z" />
<glyph unicode="&#x295;" horiz-adv-x="921" d="M98 1038q0 61 18.5 118.5t60.5 115t126 92.5t199 35q137 0 231 -64q43 -29 65.5 -69.5t22.5 -73.5q0 -37 -26.5 -63.5t-71.5 -26.5q-80 0 -107 131q-10 51 -48 91t-87 40q-90 0 -139 -103.5t-49 -220.5q0 -123 90 -217t207 -94v-520q0 -106 24.5 -139t126.5 -39v-31h-485 v31q100 4 131 33.5t31 144.5v479q-131 25 -225.5 108t-94.5 242z" />
<glyph unicode="&#x296;" horiz-adv-x="921" d="M96 178q0 37 27 63.5t72 26.5q80 0 106 -131q10 -51 48 -91t87 -40q90 0 139.5 103.5t49.5 220.5q0 123 -90.5 217t-206.5 94v506q0 106 -24.5 139t-127.5 39v31h486v-31q-100 -4 -131 -33.5t-31 -144.5v-465q131 -25 225 -107.5t94 -242.5q0 -61 -18.5 -118.5 t-60.5 -115t-126 -92.5t-198 -35q-137 0 -232 64q-43 29 -65.5 69.5t-22.5 73.5z" />
<glyph unicode="&#x297;" horiz-adv-x="921" d="M164 -156v774q0 143 113.5 233.5t261.5 90.5q109 0 184.5 -66.5t75.5 -173.5q0 -43 -21.5 -83.5t-60.5 -40.5q-23 0 -41.5 17t-18.5 40q0 20 14.5 52t14.5 50q0 55 -39 94t-94 39q-78 0 -147.5 -58t-69.5 -136v-815q0 -94 66.5 -166t160.5 -72q109 0 169.5 70.5 t60.5 177.5q0 16 -5 49h52v-78q0 -125 -105.5 -219t-232.5 -94q-129 0 -233.5 94t-104.5 221z" />
<glyph unicode="&#x298;" horiz-adv-x="1480" d="M68 677.5q0 317.5 190.5 515.5t489.5 198t482 -203t183 -512q0 -303 -183 -507t-487 -204q-285 0 -480 197.5t-195 515zM258 682q0 -283 127 -466t356 -183q197 0 339.5 189.5t142.5 459.5q0 281 -133.5 466t-354.5 185q-207 0 -342 -174t-135 -477zM604 678q0 53 38 91 t93 38q53 0 90 -38t37 -91t-37 -91t-90 -38t-92 38t-39 91z" />
<glyph unicode="&#x299;" horiz-adv-x="942" d="M31 0v37q90 0 122.5 33.5t32.5 111.5v576q0 74 -32.5 109.5t-122.5 45.5v37h415q406 0 406 -239q0 -96 -55 -142.5t-164 -66.5v-2q276 -49 276 -244q0 -119 -104.5 -187.5t-282.5 -68.5h-491zM352 131q0 -39 21.5 -52t79.5 -13q272 0 272 190q0 55 -18.5 94t-46 60.5 t-73.5 34t-88 15.5t-104 3h-43v-332zM352 532h109q123 0 176 41t53 132q0 180 -268 180h-33q-37 0 -37 -45v-308z" />
<glyph unicode="&#x29a;" horiz-adv-x="980" d="M41 252q0 213 293 258v4q-238 49 -238 219q0 121 102.5 180.5t233.5 59.5q211 0 330 -138.5t119 -355.5q0 -233 -113 -370.5t-338 -137.5q-147 0 -268 72t-121 209zM233 264q0 -96 71 -157.5t167 -61.5q90 0 155.5 79t93.5 175t28 182q0 90 -28 182.5t-96.5 167 t-162.5 74.5q-78 0 -131.5 -53t-53.5 -131q0 -90 66 -135t160 -47v-62q-113 0 -191 -52t-78 -161z" />
<glyph unicode="&#x29b;" horiz-adv-x="1228" d="M59 461q0 205 160 333t369 128q45 0 89 -6.5t111.5 -21.5t88.5 -20q4 88 57 142.5t139 54.5q47 0 84 -26.5t37 -69.5q0 -47 -43 -47q-37 0 -58.5 50t-56.5 50q-68 0 -67 -139q0 -43 10 -258h-35q-94 236 -338 235q-180 0 -276.5 -122.5t-96.5 -307t109 -294t293 -109.5 q61 0 135 18.5t74 61.5v223q0 78 -24.5 95.5t-112.5 23.5v26h395v-26q-66 -4 -87.5 -24t-21.5 -81v-272q0 -31 -158.5 -66t-216.5 -35q-250 0 -404.5 122t-154.5 362z" />
<glyph unicode="&#x29c;" horiz-adv-x="1171" d="M43 0v37q92 6 114.5 34.5t22.5 127.5v577q0 84 -23.5 107.5t-113.5 29.5v37h440v-37q-88 -6 -112.5 -29.5t-24.5 -107.5v-258h496v258q0 86 -22.5 107.5t-114.5 29.5v37h442v-37q-90 -6 -114.5 -30.5t-24.5 -106.5v-592q0 -82 27.5 -113.5t111.5 -33.5v-37h-442v37 q92 4 114.5 32.5t22.5 123.5v258h-496v-258q0 -84 25.5 -118t111.5 -38v-37h-440z" />
<glyph unicode="&#x29d;" horiz-adv-x="792" d="M-47 -236q0 98 80 167t178 69q55 0 197 -41v735q0 113 -72 113q-29 0 -86 -8v32q164 49 319 111l11 -6v-1100q141 -135 264 -313h-82q-27 37 -59.5 73.5t-77.5 86t-64 69.5q-94 -229 -342 -229q-104 0 -185 68.5t-81 172.5zM25 -225q0 -82 65.5 -131.5t151.5 -49.5 q166 0 166 213v78q-86 43 -189 43q-74 0 -134 -42t-60 -111zM373 1294q0 41 30.5 73t71.5 32q43 0 75 -31t32 -74q0 -45 -31 -74.5t-76 -29.5q-41 0 -71.5 31.5t-30.5 72.5z" />
<glyph unicode="&#x29e;" horiz-adv-x="1062" d="M2 891v31h447v-31h-39q-43 0 -43 -31q0 -18 22 -47l307 -405v376q0 53 -25.5 78t-86.5 27l-41 2v31h479v-31q-111 -18 -132.5 -37.5t-21.5 -99.5v-987q0 -74 18.5 -99.5t69.5 -25.5q12 0 66 4v-33l-61 -16q-123 -33 -256 -74l-9 4v860l-280 -250q-47 -43 -47 -71 q0 -20 21.5 -27.5t80.5 -9.5v-29h-418v31q102 0 181 44t262 214l59 55l-313 397q-111 141 -240 150z" />
<glyph unicode="&#x29f;" horiz-adv-x="962" d="M43 0v37q78 2 100.5 29.5t22.5 103.5v602q0 84 -19.5 109.5t-103.5 31.5v37h395v-37q-84 -4 -103.5 -33.5t-19.5 -109.5v-639q0 -41 26 -53t108 -12h102q182 0 252 88q29 39 61 106h39l-72 -260h-788z" />
<glyph unicode="&#x2a0;" horiz-adv-x="1228" d="M49 420q0 221 130 371.5t321 150.5q112 0 241 -70l7 76q8 113 69.5 178.5t147.5 65.5q109 0 174 -37q70 -39 69 -108q0 -27 -17 -47.5t-52 -20.5q-61 0 -92 57q-35 68 -82 68q-94 0 -95 -178v-1215q0 -66 25 -89t104 -32v-34h-483v34q109 8 145.5 39t36.5 117v385 q-139 -152 -321 -151q-143 0 -235.5 122.5t-92.5 317.5zM225 494q0 -106 32 -197.5t83 -136.5q61 -55 154 -56q109 0 180 66q24 22 24 90v422q0 201 -190 201q-131 0 -207 -104.5t-76 -284.5z" />
<glyph unicode="&#x2a1;" horiz-adv-x="921" d="M98 1188q0 92 102.5 151.5t202.5 59.5q184 0 301 -91t117 -270q0 -147 -86 -237t-235 -117v-289h159v-63h-159v-142q0 -82 30.5 -118.5t133.5 -40.5v-31h-486v31q102 6 127 38.5t25 139.5v123h-158v63h158v330q119 0 208 95t89 216q0 61 -16.5 132t-61.5 131.5t-109 60.5 q-47 0 -77.5 -26.5t-45 -65.5t-26.5 -78t-36 -65.5t-62.5 -26.5t-66.5 25.5t-28 64.5z" />
<glyph unicode="&#x2a2;" horiz-adv-x="921" d="M98 1038q0 178 117 269.5t301 91.5q100 0 202.5 -59.5t102.5 -151.5q0 -39 -27.5 -64.5t-66.5 -25.5t-62.5 26.5t-36 65.5t-26.5 78t-45 65.5t-78 26.5q-63 0 -108 -60.5t-61.5 -131t-16.5 -132.5q0 -121 89 -216t208 -95v-330h158v-63h-158v-123q0 -106 24.5 -139 t126.5 -39v-31h-485v31q102 4 133 41t31 118v142h-160v63h160v289q-150 27 -236 117t-86 237z" />
<glyph unicode="&#x2a3;" horiz-adv-x="1642" d="M55 420q0 217 125 369.5t301 152.5q111 0 215 -88v320q0 63 -18.5 83.5t-75.5 20.5q-29 0 -45 -2v33q186 49 301 90l10 -4v-494h688v-31l-550 -829h272q172 0 217 55q29 35 55 170l37 -8l-31 -278h-851l-9 6v131q-98 -137 -262 -137q-170 0 -274.5 121.5t-104.5 318.5z M231 502q0 -188 77 -302t206 -114q96 0 152 66q30 34 30 57v471q0 82 -62.5 143.5t-146.5 61.5q-117 0 -186.5 -104.5t-69.5 -278.5zM868 233q0 -61 11 -83l452 690h-276q-96 0 -130 -34t-48 -147h-9v-426z" />
<glyph unicode="&#x2a4;" horiz-adv-x="1521" d="M55 426q0 213 125 364.5t299 151.5q117 0 217 -88v320q0 39 -3 56t-23.5 32.5t-63.5 15.5q-33 0 -49 -2v33q176 45 301 90l10 -4v-473h545v-103l-336 -418q33 6 66 7q139 0 237.5 -113t98.5 -303q0 -121 -43 -215t-113 -147.5t-146.5 -80t-156.5 -26.5q-119 0 -213 63 q-43 29 -65.5 70t-22.5 74q0 37 25.5 63.5t68.5 26.5q84 0 113 -137q10 -53 35.5 -77t99.5 -24q35 0 75 15.5t85 52.5t74.5 113.5t29.5 183.5q0 168 -86 248.5t-225 80.5q-33 0 -86 -47q-25 -23 -51.5 -53.5t-44 -53l-52.5 -67.5t-55 -71l-29 2v131q-29 -39 -51 -62.5 t-81.5 -49t-135.5 -25.5q-53 0 -110.5 19t-120 64.5t-102.5 139.5t-40 223zM231 506q0 -213 84 -316.5t207 -103.5q63 0 118.5 43t55.5 84v459q0 96 -65.5 154.5t-145.5 58.5q-100 0 -177 -93.5t-77 -285.5zM868 256l449 535h-449v-535z" />
<glyph unicode="&#x2a5;" horiz-adv-x="1769" d="M55 420q0 217 125 369.5t301 152.5q111 0 215 -88v320q0 63 -18.5 83.5t-75.5 20.5q-29 0 -45 -2v33q186 49 301 90l10 -4v-494h688v-31l-550 -829h233q160 246 264 260q37 4 51 4q80 0 127.5 -41t47.5 -110q0 -80 -61.5 -127t-184.5 -47h-203q-39 -66 -79 -143t-60 -120 l-21 -45h-73q66 152 155 308h-497l-9 6v131q-98 -137 -262 -137q-170 0 -274.5 121.5t-104.5 318.5zM231 502q0 -188 77 -302t206 -114q96 0 152 66q30 34 30 57v471q0 82 -62.5 143.5t-146.5 61.5q-117 0 -186.5 -104.5t-69.5 -278.5zM868 233q0 -61 11 -83l452 690h-289 q-51 0 -81.5 -9.5t-47 -40t-21.5 -52t-15 -79.5h-9v-426zM1317 41h168q176 0 176 115q0 96 -105 96q-25 0 -53 -6q-67 -17 -186 -205z" />
<glyph unicode="&#x2a6;" horiz-adv-x="1097" d="M27 870q0 16 34 39q78 45 199 219q29 43 41 58q14 0 14 -27v-237h246q61 20 127 20q90 0 137 -22q37 -16 58 -17q14 0 32 21h23l10 -279h-30q-35 139 -87.5 195.5t-144.5 56.5q-70 0 -112 -35t-42 -104q0 -35 24 -75t65 -65l213 -129q102 -61 141 -114t39 -137 q0 -102 -85 -180t-202 -78q-90 0 -149 20q-55 18 -95 18q-12 0 -18 2q-63 -41 -141 -40q-180 0 -181 260v616h-108q-8 6 -8 14zM315 270q0 -98 25 -141t82 -43q62 0 123 72l26 -23l-32 -47q66 -63 161 -63q76 0 123 44t47 109q0 94 -108 154l-111 61q-246 137 -245 297 q0 102 57 166h-148v-586z" />
<glyph unicode="&#x2a7;" horiz-adv-x="989" d="M27 868q0 14 12 24.5t36.5 27t41.5 32.5q16 14 29.5 28.5t28.5 33t23.5 29t26 35l22.5 31.5t27.5 39t26.5 38q14 0 14 -27v-237h256q0 168 33 264q74 213 311 213q78 0 134.5 -31t56.5 -84q0 -33 -25.5 -55.5t-56.5 -22.5q-45 0 -96 61.5t-86 61.5q-98 0 -99 -209v-1214 q0 -168 -90 -275.5t-262 -107.5q-78 0 -134 30.5t-56 84.5q0 33 25.5 55t56.5 22q45 0 96 -61.5t86 -61.5q106 0 106 185v293q-147 -90 -239 -90q-188 0 -189 258v618h-108q-8 4 -8 12zM315 268q0 -182 105 -182q79 0 151 43v727h-256v-588z" />
<glyph unicode="&#x2a8;" horiz-adv-x="1331" d="M27 870q0 16 34 39q78 45 199 219q4 6 19.5 26t21.5 32q14 0 14 -27v-237h207v-66h-207v-586q0 -98 25 -141t82 -43q84 0 190 49q-100 129 -100 314q0 236 138 370.5t315 134.5q131 0 219 -63q92 -68 92 -143q0 -37 -25.5 -64t-70.5 -27q-74 0 -99 95q-12 49 -18 68.5 t-21.5 41t-39 27.5t-64.5 6q-37 0 -78 -15.5t-86 -52t-74.5 -113.5t-29.5 -184q0 -156 114 -299q106 68 172 92.5t152 24.5q82 0 143.5 -50t61.5 -132q0 -86 -65.5 -136t-186.5 -50q-180 0 -266 30q-68 25 -140 80q-102 -61 -174.5 -85.5t-156.5 -24.5q-180 0 -181 260v616 h-108q-8 6 -8 14zM825 184q131 -131 244 -131q104 0 141 32t37 83q0 55 -44 91t-97 36q-70 0 -119 -20.5t-162 -90.5z" />
<glyph unicode="&#x2ae;" horiz-adv-x="1267" d="M31 848q0 53 56 83t134 30q184 0 266 -123t82 -322v-207q0 -217 152 -217q61 0 112.5 29t116.5 100v494q0 106 -24.5 137t-114.5 41v29h442v-29q-88 -12 -109.5 -41t-21.5 -137v-965q0 -66 19.5 -85t85.5 -19q18 0 24 2v-33l-55 -16q-158 -47 -235 -74l-11 6v623 q-70 -92 -140.5 -132t-160.5 -40q-252 0 -252 325v373q0 106 -21.5 159.5t-80.5 53.5q-35 0 -86 -61.5t-96 -61.5q-31 0 -56.5 22.5t-25.5 55.5z" />
<glyph unicode="&#x2af;" horiz-adv-x="1390" d="M31 848q0 53 56 83t134 30q184 0 266 -123t82 -322v-207q0 -217 152 -217q61 0 112.5 29t116.5 100v494q0 106 -24.5 137t-114.5 41v29h442v-29q-88 -12 -109.5 -40.5t-21.5 -137.5v-938q0 -184 107 -185q35 0 86 61.5t96 61.5q31 0 56.5 -22.5t25.5 -54.5 q0 -53 -56.5 -84t-133.5 -31q-174 0 -263.5 107.5t-89.5 277.5v246q-70 -92 -140.5 -132t-160.5 -40q-252 0 -252 325v373q0 106 -21.5 159.5t-80.5 53.5q-35 0 -86 -61.5t-96 -61.5q-31 0 -56.5 22.5t-25.5 55.5z" />
<glyph unicode="&#x2b0;" horiz-adv-x="774" d="M14 688v23q66 8 82.5 29.5t16.5 99.5v729q0 49 -13.5 63.5t-64.5 14.5q-12 0 -19 -2v24l217 68l9 -4v-467q96 127 221 127q195 0 194 -236v-305q0 -84 14.5 -107.5t76.5 -33.5v-23h-326v23q68 8 87 30.5t19 96.5v313q0 162 -116 162q-82 0 -170 -99v-370 q0 -78 19.5 -102.5t84.5 -30.5v-23h-332z" />
<glyph unicode="&#x2b1;" horiz-adv-x="774" d="M14 688v23q66 10 82.5 29.5t16.5 99.5v612q0 119 80.5 202t201.5 83q109 0 185.5 -32t76.5 -81q0 -23 -16 -39t-41 -16q-10 0 -18.5 3t-14.5 5t-14 10t-12 13.5t-14.5 17.5t-16.5 18q-49 61 -109 62q-63 0 -116 -66q-43 -49 -43 -121v-245q96 127 223 127q193 0 192 -244 v-305q0 -80 15.5 -101.5t75.5 -31.5v-23h-326v23q63 8 84.5 28.5t21.5 91.5v318q0 164 -118 164q-84 0 -168 -99v-378q0 -76 20.5 -97.5t83.5 -27.5v-23h-332z" />
<glyph unicode="&#x2b2;" horiz-adv-x="614" d="M90 432q0 25 18.5 42.5t45.5 17.5q35 0 75 -50q33 -43 64 -43q39 0 53 27q23 43 23 188v590q0 92 -52 92q-12 0 -61 -4l-8 -2v25q121 37 244 84l6 -4v-711q0 -164 -66.5 -251t-195.5 -87q-63 0 -104.5 23.5t-41.5 62.5zM342 1665q0 33 22.5 56.5t55.5 23.5 q35 0 57.5 -22.5t22.5 -57.5q0 -33 -22.5 -55.5t-57.5 -22.5q-33 0 -55.5 22.5t-22.5 55.5z" />
<glyph unicode="&#x2b3;" horiz-adv-x="516" d="M10 688v23q74 14 91.5 31.5t17.5 74.5v385q0 51 -12.5 71.5t-40.5 20.5q-20 0 -54 -6v25q111 35 228 82l8 -2v-142q57 82 96 113t88 31q39 0 61.5 -21.5t22.5 -60.5q0 -68 -59 -68q-31 0 -62 31q-29 23 -41 22q-33 0 -69.5 -45t-36.5 -82v-344q0 -66 25.5 -89t103.5 -27 v-23h-367z" />
<glyph unicode="&#x2b4;" horiz-adv-x="567" d="M20 768q0 68 60 68q31 0 61 -31q29 -23 41 -23q33 0 70 45t37 82v344q0 66 -25.5 89.5t-103.5 27.5v23h366v-23q-74 -14 -91 -31.5t-17 -74.5v-385q0 -51 12 -72t41 -21q20 0 53 7v-25q-111 -35 -227 -82l-8 2v141q-57 -82 -96 -112.5t-89 -30.5q-39 0 -61.5 21.5 t-22.5 60.5z" />
<glyph unicode="&#x2b5;" horiz-adv-x="665" d="M20 768q0 68 60 68q29 0 58.5 -27t43.5 -27q33 0 70 45t37 82v357q0 59 -31 80.5t-98 23.5v23h366v-23q-70 -12 -89 -29.5t-19 -70.5v-408q0 -465 76 -465q27 0 64.5 46t72.5 46q23 0 42 -16t19 -43q0 -39 -43 -62.5t-100 -23.5q-92 0 -154.5 87t-84 190.5t-21.5 207.5 q-57 -82 -96 -112.5t-89 -30.5q-84 0 -84 82z" />
<glyph unicode="&#x2b6;" horiz-adv-x="798" d="M12 686v27q66 6 90 37q25 25 25 100v395q0 61 -18 86q-27 33 -97 35v27h369v-27q-66 -4 -91.5 -30.5t-25.5 -96.5v-172h64l245 326h203v-27h-16q-55 0 -92 -51l-193 -266q205 -51 205 -181q0 -80 -80 -131t-209 -51h-379zM264 743q57 -10 82 -10q82 0 129 37t47 98 q0 82 -94 127q-45 23 -133 23h-31v-275z" />
<glyph unicode="&#x2b7;" horiz-adv-x="1064" d="M12 1370v23h277v-23q-39 -4 -54.5 -15.5t-15.5 -35.5q0 -27 8 -45l152 -404l141 308l-31 86q-23 61 -43 81.5t-63 24.5v23h313v-23q-55 -8 -72.5 -18.5t-17.5 -35t27 -91.5l129 -346l139 342q25 66 25 104q0 33 -68 45v23h191v-23q-23 -8 -34 -22.5t-30 -59.5l-213 -534 q-31 -76 -43 -76q-10 0 -37 67l-139 363l-174 -369q-27 -61 -37 -61q-14 0 -41 70l-207 526q-25 59 -40 76.5t-42 19.5z" />
<glyph unicode="&#x2b8;" horiz-adv-x="757" d="M29 1368v25h315v-25q-88 -2 -88 -41q0 -23 20 -63l173 -387l149 428q6 14 6 26q0 37 -72 37v25h207v-25q-29 -4 -46 -19.5t-31 -58.5l-232 -633q-59 -164 -120.5 -230.5t-149.5 -66.5q-49 0 -78 25t-29 64q0 29 19.5 50t46.5 21q47 0 80 -20q20 -10 41 -11q31 0 75 68 q20 31 41 89.5t21 78.5t-64 156l-204 436q-20 45 -80 51z" />
<glyph unicode="&#x2b9;" horiz-adv-x="425" d="M184 885l191 434q20 47 39.5 64.5t52.5 17.5q59 0 59 -66q0 -29 -39 -84l-268 -389z" />
<glyph unicode="&#x2ba;" horiz-adv-x="624" d="M39 885l190 434q20 47 40 64.5t53 17.5q59 0 59 -66q0 -29 -39 -84l-268 -389zM322 885l190 434q20 47 39.5 64.5t52.5 17.5q59 0 60 -66q0 -29 -39 -84l-269 -389z" />
<glyph unicode="&#x2bb;" horiz-adv-x="681" d="M162 1104q0 96 84 188.5t145 112.5l19 -39q-90 -57 -129 -117.5t-39 -99.5q0 -29 28 -29q4 0 20.5 4t28.5 4q49 0 88 -23.5t39 -78.5q0 -59 -36.5 -89t-81.5 -30q-23 0 -47.5 7.5t-53 27t-47 61t-18.5 101.5z" />
<glyph unicode="&#x2bc;" horiz-adv-x="681" d="M162 1286q0 59 37 89t82 30q23 0 47 -7t53 -26.5t47 -61.5t18 -102q0 -96 -84 -188.5t-145 -112.5l-18 39q90 57 129 117.5t39 99.5q0 29 -29 29q-4 0 -20.5 -4t-28.5 -4q-49 0 -88 23.5t-39 78.5z" />
<glyph unicode="&#x2bd;" horiz-adv-x="681" d="M162 1208q0 59 18.5 101.5t47 62t53 26.5t47.5 7q45 0 81.5 -29.5t36.5 -89.5q0 -55 -38.5 -78.5t-88.5 -23.5q-12 0 -28.5 4t-20.5 4q-29 0 -28 -29q0 -39 39 -99.5t129 -117.5l-19 -39q-61 20 -145 112.5t-84 188.5z" />
<glyph unicode="&#x2be;" horiz-adv-x="405" d="M72 993v76h61q51 0 88 37t37 88t-36 87t-89 36h-61v76h61q84 0 142.5 -58.5t58.5 -140.5q0 -84 -58.5 -142.5t-142.5 -58.5h-61z" />
<glyph unicode="&#x2bf;" horiz-adv-x="405" d="M72 1194q0 82 58 140.5t142 58.5h62v-76h-62q-53 0 -89 -36t-36 -87t37 -88t88 -37h62v-76h-62q-84 0 -142 58.5t-58 142.5z" />
<glyph unicode="&#x2c0;" horiz-adv-x="667" d="M47 1249q0 66 70 113q76 51 184 51q319 0 320 -309q0 -141 -90.5 -237.5t-215.5 -96.5q-27 0 -36 2l-13 -168h-76v309h25q111 0 181.5 61.5t70.5 153.5q0 94 -40 176t-114 82q-35 0 -65.5 -32.5t-38.5 -69.5q-23 -106 -84 -106q-35 0 -56.5 21.5t-21.5 49.5z" />
<glyph unicode="&#x2c1;" horiz-adv-x="667" d="M47 1104q0 309 320 309q109 0 184 -51q70 -47 70 -113q0 -29 -21.5 -50t-56.5 -21q-61 0 -84 106q-8 37 -39 69.5t-66 32.5q-74 0 -113.5 -81.5t-39.5 -176.5q0 -92 70.5 -153.5t181.5 -61.5h24v-309h-76l-12 168q-10 -2 -37 -2q-125 0 -215 96.5t-90 237.5z" />
<glyph unicode="&#x2c2;" horiz-adv-x="649" d="M68 1171v62l516 313v-139l-334 -205l334 -205v-139z" />
<glyph unicode="&#x2c3;" horiz-adv-x="649" d="M68 858v139l333 205l-333 205v139l516 -313v-62z" />
<glyph unicode="&#x2c4;" horiz-adv-x="649" d="M-18 944l313 516h61l314 -516h-140l-204 334l-205 -334h-139z" />
<glyph unicode="&#x2c5;" horiz-adv-x="649" d="M-18 1460h139l205 -334l204 334h140l-314 -516h-61z" />
<glyph unicode="&#x2c6;" horiz-adv-x="681" d="M23 1038l253 342h127l256 -342h-69l-250 211l-248 -211h-69z" />
<glyph unicode="&#x2c7;" horiz-adv-x="681" d="M23 1380h71l246 -211l248 211h71l-253 -342h-132z" />
<glyph unicode="&#x2c8;" horiz-adv-x="569" d="M244 918v542h82v-542h-82z" />
<glyph unicode="&#x2c9;" horiz-adv-x="684" d="M23 1120v111h636v-111h-636z" />
<glyph unicode="&#x2ca;" horiz-adv-x="681" d="M190 1042l279 279q70 70 121 70q66 0 65 -74q0 -35 -71 -80l-312 -195h-82z" />
<glyph unicode="&#x2cb;" horiz-adv-x="681" d="M45 1317q0 74 66 74q51 0 120 -70l279 -279h-82l-311 195q-72 45 -72 80z" />
<glyph unicode="&#x2cc;" horiz-adv-x="569" d="M244 143h82v-542h-82v542z" />
<glyph unicode="&#x2cd;" horiz-adv-x="684" d="M23 -213h639v-113h-639v113z" />
<glyph unicode="&#x2ce;" horiz-adv-x="681" d="M51 -109q0 66 74 66q43 0 88 -47l297 -303h-82l-315 196q-61 39 -62 88z" />
<glyph unicode="&#x2cf;" horiz-adv-x="681" d="M172 -393l301 303q47 47 86 47q72 0 72 -66q0 -47 -62 -86l-315 -198h-82z" />
<glyph unicode="&#x2d0;" horiz-adv-x="681" d="M182 39l113 330h92l113 -330h-318zM182 942h318l-113 -330h-92z" />
<glyph unicode="&#x2d1;" horiz-adv-x="681" d="M182 942h318l-113 -330h-92z" />
<glyph unicode="&#x2d2;" horiz-adv-x="681" d="M147 154v112h93q76 0 130 53.5t54 131t-54.5 131t-129.5 53.5h-93v113h93q123 0 210 -87.5t87 -210t-87.5 -209.5t-209.5 -87h-93z" />
<glyph unicode="&#x2d3;" horiz-adv-x="681" d="M145 450.5q0 122.5 87 210t210 87.5h93v-113h-93q-78 0 -131 -53.5t-53 -131t53.5 -131t130.5 -53.5h93v-112h-93q-123 0 -210 87t-87 209.5z" />
<glyph unicode="&#x2d4;" horiz-adv-x="681" d="M104 37v82h195v301h82v-301h194v-82h-471z" />
<glyph unicode="&#x2d5;" horiz-adv-x="681" d="M104 338v82h471v-82h-194v-301h-82v301h-195z" />
<glyph unicode="&#x2d6;" horiz-adv-x="681" d="M145 205v90h158v151h78v-151h158v-90h-158v-152h-78v152h-158z" />
<glyph unicode="&#x2d7;" horiz-adv-x="681" d="M145 205v90h394v-90h-394z" />
<glyph unicode="&#x2d8;" horiz-adv-x="686" d="M55 1360h60q41 -199 229 -199q82 0 132 44t95 155h60q-37 -322 -291 -322q-141 0 -213 85t-72 237z" />
<glyph unicode="&#x2d9;" horiz-adv-x="681" d="M242 1171q0 43 27.5 73t72.5 30q47 0 74.5 -29t27.5 -74q0 -43 -29.5 -71.5t-72.5 -28.5q-41 0 -70.5 29.5t-29.5 70.5z" />
<glyph unicode="&#x2da;" horiz-adv-x="681" d="M137 1253q0 84 60.5 143.5t146.5 59.5q82 0 141.5 -60.5t59.5 -144.5t-60.5 -143t-146.5 -59q-84 0 -142.5 59t-58.5 145zM207 1253q0 -57 39 -96t92 -39q57 0 97 39t40 96q0 55 -40 94t-97 39q-53 0 -92 -39.5t-39 -93.5z" />
<glyph unicode="&#x2db;" horiz-adv-x="681" d="M131 -186q0 109 111 186h94q-90 -72 -90 -143q0 -80 78 -80q65 -1 145 73l41 -32q-57 -84 -107.5 -120t-119.5 -36q-68 0 -110 40t-42 112z" />
<glyph unicode="&#x2dc;" horiz-adv-x="681" d="M2 1090q23 100 76 153t131 53q70 0 143 -36l49 -25q57 -31 109 -31q35 0 58 23t50 80h60q-33 -117 -82 -167t-133 -50q-66 0 -166 49l-47 22q-49 23 -84 23q-72 0 -105 -94h-59z" />
<glyph unicode="&#x2dd;" horiz-adv-x="681" d="M-6 1038l299 303q47 47 88 48q70 0 70 -62q0 -55 -60 -92l-315 -197h-82zM313 1038l299 303q47 47 88 48q70 0 70 -62q0 -55 -59 -92l-316 -197h-82z" />
<glyph unicode="&#x2de;" horiz-adv-x="610" d="M0 684q4 2 19.5 13.5t27.5 19.5t29.5 24.5t34.5 36.5q35 45 55 129q2 -4 15.5 -45t25.5 -73.5t31.5 -79.5t42 -89t45.5 -73q33 -43 61 -43q43 0 74 55q19 34 37 100l41 -114q-20 -70 -50 -107q-45 -57 -122 -57q-55 0 -115 100q-57 98 -107 205q-8 -14 -20 -27.5 t-25.5 -22.5t-30 -18.5t-26.5 -14.5t-22.5 -11t-14.5 -6z" />
<glyph unicode="&#x2df;" horiz-adv-x="681" d="M98 1286l74 70l166 -170l176 170l68 -70l-170 -174l166 -166l-70 -76l-170 170l-166 -170l-66 72l164 170z" />
<glyph unicode="&#x2e0;" horiz-adv-x="774" d="M49 1380v21h273v-21q-63 0 -64 -43q0 -20 29.5 -100t76 -190.5t48.5 -114.5q6 16 47 117.5t69.5 180.5t28.5 103q0 47 -63 47v21h192v-21q-14 0 -26.5 -7t-19.5 -12t-15.5 -20.5t-11.5 -21.5t-10 -25.5t-7 -21.5l-156 -391q10 -23 35 -68t38 -73.5t25.5 -70.5t12.5 -79 q0 -66 -39 -103.5t-104 -37.5q-145 0 -146 118q0 86 82 250l-133 322q-61 150 -86 190q-29 49 -76 51zM315 584q0 -35 16.5 -62.5t49.5 -27.5t54.5 22t21.5 57q0 41 -86 191q-4 -12 -21.5 -53t-26 -70t-8.5 -57z" />
<glyph unicode="&#x2e1;" horiz-adv-x="440" d="M39 1645v24q156 39 242 68l8 -6v-910q0 -63 21.5 -84.5t92.5 -25.5v-23h-360v23q72 6 94.5 30.5t22.5 87.5v721q0 55 -13.5 77t-50.5 22q-33 0 -57 -4z" />
<glyph unicode="&#x2e2;" horiz-adv-x="595" d="M74 688v236h24q37 -213 201 -213q53 0 88 30.5t35 81.5q0 49 -51 95q-33 25 -117 71.5t-123 83.5q-57 57 -57 131q0 86 65 139q63 51 150 52q18 0 82 -19q55 -16 63 -16q18 0 25 22h18v-208h-22q-47 186 -164 186q-47 0 -81 -26.5t-34 -71.5q0 -66 92 -123q16 -10 80 -47 t92 -60q94 -70 95 -151q0 -94 -70 -152q-59 -51 -164 -51q-47 0 -92 14q-43 14 -82 19q-25 -4 -31 -23h-22z" />
<glyph unicode="&#x2e3;" horiz-adv-x="778" d="M10 688v25q39 2 58.5 17t58.5 65l186 241l-153 234q-39 59 -63.5 78.5t-61.5 19.5h-15v25h336v-25q-70 -2 -69 -35q0 -20 18 -49l80 -129l86 123q23 31 23 55q0 33 -66 35v25h258v-25q-84 -4 -131 -72l-135 -194l207 -293q68 -96 135 -96v-25h-328v25q39 2 52.5 9 t13.5 30q0 12 -11 28l-147 201l-129 -172q-33 -53 -33 -68q0 -29 66 -28v-25h-236z" />
<glyph unicode="&#x2e4;" horiz-adv-x="698" d="M92 1460q0 109 72 195t242 86q104 0 178 -49q70 -47 69 -111q0 -29 -21.5 -50.5t-56.5 -21.5q-61 0 -81 103q-8 39 -38 70.5t-67 31.5q-70 0 -108.5 -81t-38.5 -171q0 -94 70.5 -167.5t160.5 -73.5v-371q0 -82 19.5 -107.5t97.5 -29.5v-25h-377v25q80 4 103.5 26.5 t23.5 110.5v340q-102 18 -175 82.5t-73 187.5z" />
<glyph unicode="&#x2e5;" horiz-adv-x="845" d="M98 1253v103h666v-1356h-102v1253h-564z" />
<glyph unicode="&#x2e6;" horiz-adv-x="829" d="M82 883v102h563v371h103v-1356h-103v883h-563z" />
<glyph unicode="&#x2e7;" horiz-adv-x="829" d="M82 627v102h563v627h103v-1356h-103v627h-563z" />
<glyph unicode="&#x2e8;" horiz-adv-x="829" d="M82 371v102h563v883h103v-1356h-103v371h-563z" />
<glyph unicode="&#x2e9;" horiz-adv-x="829" d="M82 0v102h563v1254h103v-1356h-666z" />
<glyph unicode="&#x2ec;" horiz-adv-x="681" d="M43 143h141l156 -245l156 245h141l-270 -444h-54z" />
<glyph unicode="&#x2ed;" horiz-adv-x="829" d="M20 1038v111h789v-111h-789zM20 1251v111h789v-111h-789z" />
<glyph unicode="&#x2f7;" horiz-adv-x="681" d="M2 -449q23 100 76 153.5t131 53.5q70 0 143 -37q113 -57 158 -57q35 0 58 24t50 81h60q-33 -117 -82 -167.5t-133 -50.5q-66 0 -166 50q-94 45 -131 45q-72 0 -105 -95h-59z" />
<glyph unicode="&#x300;" horiz-adv-x="0" d="M-760 1323q0 66 74 66q43 0 88 -48l297 -303h-82l-315 197q-61 39 -62 88z" />
<glyph unicode="&#x301;" horiz-adv-x="0" d="M-760 1038l297 303q45 47 88 48q74 0 74 -66q0 -49 -61 -88l-316 -197h-82z" />
<glyph unicode="&#x302;" horiz-adv-x="0" d="M-791 1038l254 342h127l256 -342h-69l-250 211l-248 -211h-70z" />
<glyph unicode="&#x303;" horiz-adv-x="0" d="M-809 1090q23 100 76 153t131 53q70 0 143 -36q113 -57 158 -58q35 0 58 24t50 81h60q-33 -117 -82 -167t-133 -50q-66 0 -166 49q-94 45 -131 45q-72 0 -105 -94h-59z" />
<glyph unicode="&#x304;" horiz-adv-x="0" d="M-788 1120v111h636v-111h-636z" />
<glyph unicode="&#x305;" horiz-adv-x="0" d="M-983 1577v102h1024v-102h-1024z" />
<glyph unicode="&#x306;" horiz-adv-x="0" d="M-764 1360h59q41 -199 230 -199q82 0 132 44t95 155h60q-37 -322 -291 -322q-141 0 -213 85t-72 237z" />
<glyph unicode="&#x307;" horiz-adv-x="0" d="M-573 1171q0 43 27.5 73t72.5 30q47 0 74.5 -29t27.5 -74q0 -43 -29.5 -71.5t-72.5 -28.5q-41 0 -70.5 29.5t-29.5 70.5z" />
<glyph unicode="&#x308;" horiz-adv-x="0" d="M-776 1174q0 41 29.5 70.5t70.5 29.5t72 -31t31 -72t-31 -70.5t-74 -29.5q-41 0 -69.5 29.5t-28.5 73.5zM-369 1174q0 41 30 70.5t71 29.5t71.5 -31t30.5 -72t-30.5 -70.5t-73.5 -29.5q-41 0 -70 29.5t-29 73.5z" />
<glyph unicode="&#x309;" horiz-adv-x="0" d="M-629 1417q0 49 49 84q51 37 125 37q213 0 213 -221q0 -100 -60 -169t-144 -69h-17l-4 -71h-68v182h25q68 0 112 41t44 102q0 63 -23.5 110.5t-68.5 47.5q-29 0 -45.5 -20.5t-21.5 -45t-19.5 -45t-39 -20.5t-41 17.5t-16.5 39.5z" />
<glyph unicode="&#x30a;" horiz-adv-x="0" d="M-674 1253q0 84 60.5 143.5t146.5 59.5q82 0 141.5 -60.5t59.5 -144.5t-60.5 -143t-146.5 -59q-84 0 -142.5 59t-58.5 145zM-604 1253q0 -57 39 -96t92 -39q57 0 97 39t40 96q0 55 -40 94t-97 39q-53 0 -92 -39.5t-39 -93.5z" />
<glyph unicode="&#x30b;" horiz-adv-x="0" d="M-821 1038l299 303q47 47 88 48q70 0 69 -62q0 -55 -59 -92l-315 -197h-82zM-502 1038l299 303q47 47 88 48q70 0 70 -62q0 -55 -59 -92l-316 -197h-82z" />
<glyph unicode="&#x30c;" horiz-adv-x="0" d="M-788 1380h71l246 -211l248 211h71l-254 -342h-131z" />
<glyph unicode="&#x30d;" horiz-adv-x="0" d="M-512 1024v410h113v-410h-113z" />
<glyph unicode="&#x30e;" horiz-adv-x="0" d="M-668 1024v410h111v-410h-111zM-385 1024v410h113v-410h-113z" />
<glyph unicode="&#x30f;" horiz-adv-x="0" d="M-821 1327q0 61 69 62q41 0 88 -48l299 -303h-81l-316 197q-59 37 -59 92zM-502 1327q0 61 70 62q41 0 88 -48l299 -303h-82l-315 197q-59 37 -60 92z" />
<glyph unicode="&#x310;" horiz-adv-x="0" d="M-764 1360h59q41 -199 230 -199q82 0 132 44t95 155h60q-37 -322 -291 -322q-141 0 -213 85t-72 237zM-573 1468q0 43 27.5 73t72.5 30q47 0 74.5 -29t27.5 -74q0 -43 -29.5 -71.5t-72.5 -28.5q-41 0 -70.5 29.5t-29.5 70.5z" />
<glyph unicode="&#x311;" horiz-adv-x="0" d="M-764 1038q0 152 71.5 237t213.5 85q254 0 291 -322h-60q-45 111 -95 155t-132 44q-188 0 -230 -199h-59z" />
<glyph unicode="&#x312;" horiz-adv-x="0" d="M-612 1225q0 96 84 188.5t145 112.5l18 -39q-90 -57 -128.5 -117.5t-38.5 -99.5q0 -29 28 -29q4 0 20.5 4t28.5 4q49 0 88 -23.5t39 -78.5q0 -59 -36.5 -89t-81.5 -30q-23 0 -47.5 7t-53 26.5t-47 61.5t-18.5 102z" />
<glyph unicode="&#x313;" horiz-adv-x="0" d="M-612 1407q0 59 36.5 89t81.5 30q23 0 47.5 -7.5t53 -26.5t47 -61t18.5 -102q0 -96 -84 -188.5t-145 -112.5l-18 39q90 57 128.5 117.5t38.5 99.5q0 29 -28 29q-4 0 -20.5 -4t-28.5 -4q-49 0 -88 23.5t-39 78.5z" />
<glyph unicode="&#x314;" horiz-adv-x="0" d="M-612 1329q0 59 18.5 101.5t47 61.5t53 26.5t47.5 7.5q45 0 81.5 -30t36.5 -89q0 -55 -39 -78.5t-88 -23.5q-12 0 -28.5 4t-20.5 4q-29 0 -28 -29q0 -39 38.5 -99.5t128.5 -117.5l-18 -39q-61 20 -145 112.5t-84 188.5z" />
<glyph unicode="&#x315;" horiz-adv-x="0" d="M-174 1407q0 59 37 89t82 30q23 0 47 -7.5t53 -26.5t47.5 -61t18.5 -102q0 -96 -84.5 -188.5t-145.5 -112.5l-18 39q90 57 129 117.5t39 99.5q0 29 -29 29q-4 0 -20.5 -4t-28.5 -4q-49 0 -88 23.5t-39 78.5z" />
<glyph unicode="&#x316;" horiz-adv-x="0" d="M-719 -174q0 66 74 65q43 0 88 -47l297 -303h-82l-315 197q-61 39 -62 88z" />
<glyph unicode="&#x317;" horiz-adv-x="0" d="M-760 -459l297 303q45 47 88 47q74 0 74 -65q0 -49 -61 -88l-316 -197h-82z" />
<glyph unicode="&#x318;" horiz-adv-x="0" d="M-813 -303h301v194h82v-471h-82v195h-301v82z" />
<glyph unicode="&#x319;" horiz-adv-x="0" d="M-547 -109h82v-194h301v-82h-301v-195h-82v471z" />
<glyph unicode="&#x31a;" horiz-adv-x="0" d="M-778 1393v112h614v-418h-112v306h-502z" />
<glyph unicode="&#x31b;" horiz-adv-x="0" d="M-90 887q0 31 27.5 57.5t66.5 26.5t69.5 -32t30.5 -83q0 -78 -67 -117q-39 -22 -111 -32v45q55 12 56 30q0 4 -36 35t-36 70z" />
<glyph unicode="&#x31c;" horiz-adv-x="0" d="M-737 -344q0 82 58 140.5t142 58.5h62v-76h-62q-53 0 -89 -36t-36 -87q0 -53 36 -89t89 -36h62v-76h-62q-82 0 -141 59.5t-59 141.5z" />
<glyph unicode="&#x31d;" horiz-adv-x="0" d="M-707 -410h195v301h82v-301h194v-82h-471v82z" />
<glyph unicode="&#x31e;" horiz-adv-x="0" d="M-707 -109h471v-81h-194v-302h-82v302h-195v81z" />
<glyph unicode="&#x31f;" horiz-adv-x="0" d="M-668 -254h158v145h78v-145h158v-90h-158v-168h-78v168h-158v90z" />
<glyph unicode="&#x320;" horiz-adv-x="0" d="M-668 -254h394v-90h-394v90z" />
<glyph unicode="&#x321;" horiz-adv-x="0" d="M-481 -475q0 23 16 39t41 16q14 0 28.5 -7t19.5 -12t20.5 -23.5t19.5 -22.5q55 -63 111 -64q115 0 114 187v516h113v-457q0 -119 -63.5 -202t-157.5 -83q-109 0 -185.5 32t-76.5 81z" />
<glyph unicode="&#x322;" horiz-adv-x="0" d="M-111 154h113v-516q0 -186 115 -187q55 0 110 64q6 6 16.5 18t15.5 18.5t14.5 14.5t19.5 11t22 3q25 0 41.5 -16.5t16.5 -38.5q0 -49 -77 -81t-185 -32q-94 0 -158 83t-64 202v457z" />
<glyph unicode="&#x323;" horiz-adv-x="0" d="M-573 -344q0 43 27.5 72.5t72.5 29.5q47 0 74.5 -28.5t27.5 -73.5q0 -43 -29.5 -71.5t-72.5 -28.5q-41 0 -70.5 29.5t-29.5 70.5z" />
<glyph unicode="&#x324;" horiz-adv-x="0" d="M-776 -344q0 41 29.5 70.5t70.5 29.5t72 -29.5t31 -70.5q0 -43 -31 -72.5t-74 -29.5q-41 0 -69.5 29.5t-28.5 72.5zM-369 -344q0 41 30 70.5t71 29.5t71.5 -29.5t30.5 -70.5q0 -43 -30.5 -72.5t-73.5 -29.5q-41 0 -70 29.5t-29 72.5z" />
<glyph unicode="&#x325;" horiz-adv-x="0" d="M-674 -344q0 84 60.5 143.5t146.5 59.5q82 0 141.5 -60.5t59.5 -142.5q0 -84 -60.5 -144.5t-146.5 -60.5q-84 0 -142.5 59.5t-58.5 145.5zM-604 -344q0 -57 39 -96t92 -39q57 0 97 39t40 96q0 55 -40 94t-97 39q-53 0 -92 -40t-39 -93z" />
<glyph unicode="&#x326;" horiz-adv-x="0" d="M-612 -344q0 59 36.5 89t81.5 30q23 0 47.5 -7.5t53 -27t47 -61t18.5 -101.5q0 -96 -84 -188.5t-145 -112.5l-18 39q90 57 128.5 117.5t38.5 99.5q0 29 -28 29q-4 0 -20.5 -4t-28.5 -4q-49 0 -88 23.5t-39 78.5z" />
<glyph unicode="&#x327;" horiz-adv-x="0" d="M-684 -408l29 64q74 -25 133 -25q51 0 81.5 25t30.5 65q0 39 -24.5 56.5t-83.5 17.5q-35 0 -57 -8l-15 10l84 203h72l-51 -133q31 6 53 6q84 0 130 -37t46 -104q0 -80 -68.5 -126t-187.5 -46q-92 0 -172 32z" />
<glyph unicode="&#x328;" horiz-adv-x="0" d="M-659 -186q0 109 110 186h94q-90 -72 -90 -143q0 -80 78 -80q65 -1 145 73l41 -32q-57 -84 -107 -120t-120 -36q-68 0 -109.5 40t-41.5 112z" />
<glyph unicode="&#x329;" horiz-adv-x="0" d="M-512 -209h82v-270h-82v270z" />
<glyph unicode="&#x32a;" horiz-adv-x="0" d="M-788 -201h638v-280h-112v168h-414v-168h-112v280z" />
<glyph unicode="&#x32b;" horiz-adv-x="0" d="M-778 -225h82v-74q0 -84 96 -84q47 0 67.5 19.5t20.5 64.5v74h82v-72q0 -41 26.5 -63.5t67.5 -22.5q100 0 100 86v72h82v-72q0 -78 -48 -123t-130 -45q-47 0 -88 20.5t-51 49.5q-31 -70 -125 -70q-84 0 -133 46t-49 122v72z" />
<glyph unicode="&#x32c;" horiz-adv-x="0" d="M-788 -150h71l246 -210l248 210h71l-254 -342h-131z" />
<glyph unicode="&#x32d;" horiz-adv-x="0" d="M-788 -492l253 342h127l256 -342h-69l-250 211l-248 -211h-69z" />
<glyph unicode="&#x32e;" horiz-adv-x="0" d="M-758 -139h60q41 -199 229 -199q82 0 132 44t95 155h60q-37 -322 -291 -322q-141 0 -213 85t-72 237z" />
<glyph unicode="&#x32f;" horiz-adv-x="0" d="M-758 -442q0 152 72 236.5t213 84.5q254 1 291 -321h-60q-45 111 -95 154.5t-132 43.5q-188 0 -229 -198h-60z" />
<glyph unicode="&#x330;" horiz-adv-x="0" d="M-809 -449q23 100 76 153.5t131 53.5q70 0 143 -37q113 -57 158 -57q35 0 58 24t50 81h60q-33 -117 -82 -167.5t-133 -50.5q-66 0 -166 50q-94 45 -131 45q-72 0 -105 -95h-59z" />
<glyph unicode="&#x331;" horiz-adv-x="0" d="M-788 -289h636v-110h-636v110z" />
<glyph unicode="&#x332;" horiz-adv-x="0" d="M-983 -289h1024v-102h-1024v102z" />
<glyph unicode="&#x333;" horiz-adv-x="0" d="M-983 -289h1024v-102h-1024v102zM-983 -512h1024v-102h-1024v102z" />
<glyph unicode="&#x334;" horiz-adv-x="0" d="M-821 438q23 100 76 153.5t131 53.5q70 0 143 -37q113 -57 158 -57q35 0 58 23.5t50 80.5h60q-33 -117 -82 -167t-133 -50q-66 0 -166 49q-94 45 -131 45q-72 0 -105 -94h-59z" />
<glyph unicode="&#x335;" horiz-adv-x="0" d="M-786 471v90h626v-90h-626z" />
<glyph unicode="&#x336;" horiz-adv-x="0" d="M-983 471v90h1024v-90h-1024z" />
<glyph unicode="&#x337;" horiz-adv-x="0" d="M-778 -152l583 1340h111l-584 -1340h-110z" />
<glyph unicode="&#x338;" horiz-adv-x="0" d="M-778 -319l731 1675h110l-731 -1675h-110z" />
<glyph unicode="&#x339;" horiz-adv-x="0" d="M-573 -145h61q84 0 142.5 -58.5t58.5 -140.5t-59.5 -141.5t-141.5 -59.5h-61v76h61q53 0 89 36t36 89q0 51 -36 87t-89 36h-61v76z" />
</font>
</defs>
</svg>
