<?xml version="1.0" standalone="no"?>
<!DOCTYPE svg PUBLIC "-//W3C//DTD SVG 1.1//EN" "http://www.w3.org/Graphics/SVG/1.1/DTD/svg11.dtd" >
<svg xmlns="http://www.w3.org/2000/svg" xmlns:xlink="http://www.w3.org/1999/xlink" version="1.1">
<metadata></metadata>
<defs>
<font id="driver_gothic_proregular" horiz-adv-x="860" >
<font-face units-per-em="2048" ascent="1638" descent="-410" />
<missing-glyph horiz-adv-x="614" />
<glyph unicode="D&#x17d;" horiz-adv-x="1556" d="M92 78v1483q0 29 3 45t12 23t16.5 8t26.5 1h344q86 0 139.5 -18.5t82 -61.5t38.5 -97.5t10 -141.5v-1000q0 -87 -9.5 -141.5t-37.5 -97.5t-81.5 -61.5t-139.5 -18.5h-346q-24 0 -33.5 3t-17 20t-7.5 55zM256 205q0 -31 10 -41t41 -10h154q29 0 49 3.5t35.5 9t25 18.5 t16 26.5t9 38t3.5 48t1 62.5v918q0 55 -2 84t-9 57t-22.5 40t-40.5 19t-65 7h-154q-31 0 -41 -10t-10 -41v-1229zM887 78v78q0 47 37 151l415 1100q9 31 9 39q0 39 -48 39h-354q-18 0 -26 1.5t-17.5 8t-12.5 22.5t-3 44q0 29 3 45t12.5 23t17 8t26.5 1h512q19 0 26.5 -1 t16.5 -8t12 -23t3 -45v-78q0 -48 -37 -152l-410 -1083q-14 -40 -14 -55q0 -39 47 -39h354q18 0 26.5 -1.5t17.5 -8t12.5 -22.5t3.5 -44q0 -29 -3.5 -45t-12.5 -23t-17.5 -8.5t-26.5 -1.5h-512q-24 0 -33.5 3t-16.5 20t-7 55zM934 1999q0 17 31 46.5t47 29.5q9 0 28 -19 l160 -160l162 160q18 21 29 21q15 0 46 -30.5t31 -45.5q0 -14 -20 -31l-201 -201q-25 -28 -47 -28t-47 28l-201 201q-18 18 -18 29z" />
<glyph unicode="DZ" horiz-adv-x="1556" d="M92 78v1483q0 29 3 45t12 23t16.5 8t26.5 1h344q86 0 139.5 -18.5t82 -61.5t38.5 -97.5t10 -141.5v-1000q0 -87 -9.5 -141.5t-37.5 -97.5t-81.5 -61.5t-139.5 -18.5h-346q-24 0 -33.5 3t-17 20t-7.5 55zM256 205q0 -31 10 -41t41 -10h154q29 0 49 3.5t35.5 9t25 18.5 t16 26.5t9 38t3.5 48t1 62.5v918q0 55 -2 84t-9 57t-22.5 40t-40.5 19t-65 7h-154q-31 0 -41 -10t-10 -41v-1229zM887 78v78q0 47 37 151l415 1100q9 31 9 39q0 39 -48 39h-354q-18 0 -26 1.5t-17.5 8t-12.5 22.5t-3 44q0 29 3 45t12.5 23t17 8t26.5 1h512q19 0 26.5 -1 t16.5 -8t12 -23t3 -45v-78q0 -48 -37 -152l-410 -1083q-14 -40 -14 -55q0 -39 47 -39h354q18 0 26.5 -1.5t17.5 -8t12.5 -22.5t3.5 -44q0 -29 -3.5 -45t-12.5 -23t-17.5 -8.5t-26.5 -1.5h-512q-24 0 -33.5 3t-16.5 20t-7 55z" />
<glyph unicode="FI" horiz-adv-x="1312" d="M92 59v1502q0 29 3 45t12 23t16.5 8t26.5 1h552q19 0 26.5 -1t17.5 -8t13 -23t3 -45q0 -28 -3.5 -44t-12.5 -22.5t-17.5 -8t-26.5 -1.5h-395q-31 0 -41 -10t-10 -41v-476q0 -31 10 -41t41 -10h217q18 0 26.5 -1.5t17.5 -8.5t12.5 -23t3.5 -45q0 -28 -3 -44t-13 -22.5 t-17.5 -7.5t-26.5 -1h-217q-29 0 -40 -8.5t-11 -32.5v-654q0 -18 -1.5 -26t-9 -17.5t-25 -12.5t-48.5 -3q-38 0 -56 7.5t-21 17.5t-3 34zM823 78q0 28 3.5 44t12.5 22.5t17.5 8t26.5 1.5h32q31 0 41.5 10t10.5 41v1229q0 31 -10.5 41t-41.5 10h-32q-18 0 -26.5 1.5t-17.5 8 t-12.5 22.5t-3.5 44q0 29 3 45t13 23t17.5 8t26.5 1h329q19 0 26.5 -1t17.5 -8t13 -23t3 -45q0 -28 -3.5 -44t-12.5 -22.5t-17.5 -8t-26.5 -1.5h-30q-31 0 -41.5 -10t-10.5 -41v-1229q0 -31 10.5 -41t41.5 -10h30q18 0 26.5 -1.5t17.5 -8t12.5 -22.5t3.5 -44q0 -29 -3.5 -45 t-12.5 -23t-17.5 -8.5t-26.5 -1.5h-329q-18 0 -26.5 1.5t-17.5 8.5t-12.5 23t-3.5 45z" />
<glyph unicode="FL" horiz-adv-x="1564" d="M92 59v1502q0 29 3 45t12 23t16.5 8t26.5 1h552q19 0 26.5 -1t17.5 -8t13 -23t3 -45q0 -28 -3.5 -44t-12.5 -22.5t-17.5 -8t-26.5 -1.5h-395q-31 0 -41 -10t-10 -41v-476q0 -31 10 -41t41 -10h217q18 0 26.5 -1.5t17.5 -8.5t12.5 -23t3.5 -45q0 -28 -3 -44t-13 -22.5 t-17.5 -7.5t-26.5 -1h-217q-29 0 -40 -8.5t-11 -32.5v-654q0 -18 -1.5 -26t-9 -17.5t-25 -12.5t-48.5 -3q-38 0 -56 7.5t-21 17.5t-3 34zM874 78v1501q0 24 3 34t21 17.5t56 7.5q31 0 48.5 -3t25 -12.5t9 -17.5t1.5 -26v-1374q0 -31 10.5 -41t41.5 -10h395q18 0 26 -1.5 t17.5 -8t12.5 -22.5t3 -44q0 -38 -7.5 -55t-17.5 -20t-34 -3h-553q-24 0 -33.5 3t-17 20t-7.5 55z" />
<glyph unicode=" "  horiz-adv-x="614" />
<glyph unicode="&#x09;" horiz-adv-x="614" />
<glyph unicode="&#xa0;" horiz-adv-x="614" />
<glyph unicode="!" horiz-adv-x="348" d="M92 94q0 26 0.5 41.5t4 27.5t6 17.5t12 8.5t17.5 3.5t26 0.5h32q18 0 26 -0.5t17.5 -3.5t12 -8.5t6 -17.5t4 -27.5t0.5 -41.5q0 -37 -1.5 -54.5t-10 -27.5t-18.5 -11t-36 -1h-32q-26 0 -36 1t-18.5 11t-10 27.5t-1.5 54.5zM92 428v1151q0 24 3 34t21 17.5t56 7.5 q31 0 48.5 -3t25 -12.5t9 -17.5t1.5 -26v-1151q0 -18 -1.5 -26t-9 -17.5t-25 -12.5t-48.5 -3q-38 0 -56 7.5t-21 17.5t-3 34z" />
<glyph unicode="&#x22;" horiz-adv-x="491" d="M41 1309v270q0 24 3 34t21 17.5t56 7.5q31 0 48.5 -3t25 -12.5t9 -17.5t1.5 -26v-270q0 -24 -3 -34t-22 -18t-59 -8q-38 0 -56 8t-21 18t-3 34zM287 1309v270q0 24 3 34t21 17.5t56 7.5q31 0 48.5 -3t25 -12.5t9 -17.5t1.5 -26v-270q0 -24 -3 -34t-22 -18t-59 -8 q-38 0 -56 8t-21 18t-3 34z" />
<glyph unicode="#" horiz-adv-x="1435" d="M92 59v1520q0 24 3 34t21 17.5t56 7.5q41 0 62.5 -7.5t28 -17.5t13.5 -34l285 -926q16 -51 29 -51q9 0 11.5 11t2.5 42v924q0 24 3 34t21 17.5t56 7.5q31 0 48.5 -3t25 -12.5t9 -17.5t1.5 -26v-1520q0 -23 -4 -33.5t-24.5 -18t-63.5 -7.5q-51 0 -69 13.5t-27 45.5 l-279 908q-15 51 -31 51q-9 0 -11.5 -11t-2.5 -40v-908q0 -18 -1.5 -26t-9 -17.5t-25 -12.5t-48.5 -3q-38 0 -56 7.5t-21 17.5t-3 34zM901 881v192q0 101 61 165.5t179 64.5q119 0 181 -64.5t62 -165.5v-192q0 -103 -62 -167.5t-181 -64.5q-118 0 -179 65t-61 167zM946 422 q0 33 5.5 47.5t12.5 17t25 2.5h305q14 0 20 -1t13 -7t9.5 -20t2.5 -39q0 -32 -6 -46.5t-13.5 -17t-25.5 -2.5h-305q-25 0 -34 11t-9 55zM1038 915q0 -68 23 -101.5t80 -33.5q60 0 83 32.5t23 102.5v123q0 69 -23 102.5t-83 33.5q-57 0 -80 -34.5t-23 -101.5v-123z" />
<glyph unicode="$" horiz-adv-x="778" d="M72 494q0 39 17 48t69 9q78 0 78 -37q0 -90 41 -138t114 -48q71 0 111.5 48.5t40.5 137.5v23q0 106 -35 161.5t-117 55.5q-86 0 -149 27t-99.5 76t-53.5 110t-17 135v63q0 119 60.5 204.5t176.5 107.5v102q0 24 3 34t21 17.5t56 7.5q31 0 48.5 -3t25 -12.5t9 -17.5 t1.5 -26v-102q114 -24 174 -108.5t60 -203.5q0 -39 -17 -48t-69 -9q-78 0 -78 37q0 90 -41.5 138t-114.5 48q-71 0 -111 -48.5t-40 -137.5v-23q0 -106 34.5 -160.5t116.5 -54.5q86 0 149.5 -27.5t99.5 -77t53.5 -110.5t17.5 -135v-63q0 -118 -60.5 -203t-173.5 -109v-123 q0 -18 -1.5 -26t-9 -17.5t-25 -12.5t-48.5 -3q-38 0 -56 7.5t-21 17.5t-3 34v121q-116 24 -176.5 108.5t-60.5 205.5z" />
<glyph unicode="%" horiz-adv-x="1175" d="M51 1227v192q0 103 62 167.5t182 64.5q118 0 179 -65t61 -167v-192q0 -101 -61 -165.5t-179 -64.5q-119 0 -181.5 64.5t-62.5 165.5zM160 57q0 24 22 70l725 1475q14 38 45 38q23 0 41.5 -21.5t18.5 -53.5q0 -21 -13 -47l-727 -1473q-20 -45 -61 -45q-22 0 -36.5 14.5 t-14.5 42.5zM188 1262q0 -69 23.5 -102.5t83.5 -33.5q57 0 79.5 34t22.5 102v122q0 69 -22.5 102.5t-79.5 33.5q-60 0 -83.5 -33t-23.5 -103v-122zM641 221v193q0 103 62 167t182 64q118 0 178.5 -64.5t60.5 -166.5v-193q0 -101 -60.5 -165t-178.5 -64q-119 0 -181.5 64 t-62.5 165zM778 256q0 -69 23.5 -102t83.5 -33q57 0 79.5 33.5t22.5 101.5v123q0 69 -22.5 102t-79.5 33q-60 0 -83.5 -32.5t-23.5 -102.5v-123z" />
<glyph unicode="&#x26;" horiz-adv-x="919" d="M72 299v289q0 65 47 130t135 142q20 17 20 29q0 9 -18 43q-11 20 -51 90.5t-54 98t-38 78.5t-32.5 87t-8.5 68q0 134 98 219.5t240 85.5q160 -1 249 -85t89 -231v-49q0 -29 -3 -45t-12 -23t-16.5 -8t-26.5 -1h-47q-19 0 -26.5 1t-17 8t-12.5 23t-3 45v29q0 89 -43.5 137 t-128.5 49q-62 0 -108 -41t-46 -110q0 -29 12 -67.5t45.5 -109t71 -144.5t111 -221.5t143.5 -293.5q21 -47 33 -47q4 0 5.5 7t1.5 19t1 15q4 58 4 90v70q0 38 7.5 55t17.5 20t34 3h48q24 0 33.5 -3t16.5 -20t7 -55v-90q0 -165 -45 -295q-2 -6 -6 -15t-6 -16t-2 -14 q0 -18 16 -51l49 -99q12 -21 12 -43q0 -55 -75 -55q-41 0 -54 10t-34 53q-14 25 -21 25q-4 0 -8.5 -3t-13.5 -11t-15 -13q-105 -79 -239 -79q-165 0 -250.5 89.5t-85.5 229.5zM236 319q0 -90 43.5 -138t128.5 -48q44 0 83.5 15t62.5 35t36.5 37.5t13.5 25.5q0 5 -2.5 12 t-5 12.5t-9.5 19t-12 23.5l-194 377q-17 35 -29 35q-8 0 -45 -41q-71 -80 -71 -147v-218z" />
<glyph unicode="'" horiz-adv-x="245" d="M41 1309v270q0 24 3 34t21 17.5t56 7.5q31 0 48.5 -3t25 -12.5t9 -17.5t1.5 -26v-270q0 -24 -3 -34t-22 -18t-59 -8q-38 0 -56 8t-21 18t-3 34z" />
<glyph unicode="(" horiz-adv-x="405" d="M92 70v1503q0 120 63 195t185 75q24 0 34.5 -16t10.5 -74q0 -42 -10 -57t-35 -15q-47 0 -65.5 -31t-18.5 -98v-1462q0 -67 18.5 -98t65.5 -31q25 0 35 -15t10 -57q0 -58 -10.5 -74t-34.5 -16q-122 0 -185 75.5t-63 195.5z" />
<glyph unicode=")" horiz-adv-x="405" d="M20 -111q0 42 10.5 57t35.5 15q47 0 65.5 31t18.5 98v1462q0 67 -18.5 98t-65.5 31q-25 0 -35.5 15t-10.5 57q0 57 11 73.5t35 16.5q122 0 184.5 -75t62.5 -195v-1503q0 -121 -62.5 -196t-184.5 -75q-16 0 -24.5 4.5t-15 25t-6.5 60.5z" />
<glyph unicode="*" horiz-adv-x="747" d="M41 1386q0 15 2 23q6 18 23 29.5t36 11.5q9 0 21 -4l188 -64v195q0 25 18.5 43t43.5 18t42 -18t17 -43v-195l191 64q12 4 22 4q19 0 35 -11.5t22 -29.5q5 -15 5 -20q0 -19 -12 -35.5t-31 -22.5l-191 -65l123 -166q12 -15 12 -35q0 -33 -24 -51q-12 -10 -35 -10 q-33 0 -51 24l-125 170l-127 -170q-18 -24 -49 -24q-23 0 -35 10q-25 19 -25 47q0 24 10 39l123 166l-188 65q-19 6 -30 21t-11 34z" />
<glyph unicode="+" horiz-adv-x="919" d="M41 829q0 38 7.5 55t17.5 20t34 3h234q24 0 32.5 11.5t8.5 39.5v232q0 33 15 46t69 13q53 0 66.5 -13t13.5 -46v-232q0 -27 8.5 -39t30.5 -12h241q18 0 26.5 -1.5t17.5 -8.5t12.5 -23t3.5 -45q0 -28 -3 -44t-13 -22.5t-17.5 -7.5t-26.5 -1h-241q-22 0 -30.5 -12t-8.5 -40 v-231q0 -33 -13.5 -46t-66.5 -13q-54 0 -69 13t-15 46v231q0 28 -8.5 40t-32.5 12h-234q-19 0 -26.5 1t-17 8t-12.5 22.5t-3 43.5z" />
<glyph unicode="," horiz-adv-x="245" d="M41 133q0 24 3 34t21 18t56 8q40 0 59 -8t22 -18t3 -34v-270q0 -24 -3 -34t-22 -18t-59 -8q-38 0 -56 8t-21 18t-3 34v270z" />
<glyph unicode="-" horiz-adv-x="591" d="M41 829q0 38 7.5 55t17.5 20t34 3h392q24 0 34 -3t17.5 -20t7.5 -55q0 -28 -3 -43.5t-12.5 -22.5t-17 -8t-26.5 -1h-392q-19 0 -26.5 1t-17 8t-12.5 22.5t-3 43.5z" />
<glyph unicode="." horiz-adv-x="245" d="M41 94q0 72 9.5 85.5t55.5 13.5h33q18 0 26 -0.5t17.5 -3.5t12 -8.5t6 -17.5t4 -27.5t0.5 -41.5q0 -37 -1.5 -54.5t-10 -27.5t-18.5 -11t-36 -1h-33q-46 0 -55.5 12.5t-9.5 81.5z" />
<glyph unicode="/" horiz-adv-x="473" d="M-63 -238q0 21 6 48l452 2076q6 49 47 49q24 0 45 -23.5t21 -58.5q0 -18 -2 -26l-455 -2075q-12 -59 -63 -59q-22 0 -36.5 18t-14.5 51z" />
<glyph unicode="0" horiz-adv-x="880" d="M102 319v1000q0 69 6 116t23 88.5t47 65t78 36.5t117 13h135q86 0 139.5 -18.5t82 -61.5t38.5 -97.5t10 -141.5v-1000q0 -87 -9.5 -141.5t-37.5 -97.5t-81.5 -61.5t-139.5 -18.5h-139q-86 0 -139.5 18.5t-82 61.5t-38 97.5t-9.5 141.5zM266 360q0 -54 2 -83.5t9.5 -57.5 t23 -39.5t40.5 -18.5t65 -7h69q29 0 49 3.5t35.5 9t25 18.5t16 26.5t9 38t3.5 48t1 62.5v918q0 55 -2 84t-9 57t-22.5 40t-40.5 19t-65 7h-69q-40 0 -65 -7t-40.5 -19t-23 -40t-9.5 -57.5t-2 -83.5v-918z" />
<glyph unicode="1" horiz-adv-x="530" d="M41 78q0 28 3 44t12.5 22.5t17.5 8t26 1.5h33q31 0 41 10t10 41v1227q0 32 -14.5 43.5t-32.5 8t-32.5 3.5t-14.5 31v28q0 5 1 8.5t2.5 5.5t4 4t4 2.5l4.5 1.5l3 1q57 15 73 47q7 15 13 18.5t20 3.5h72q19 0 26.5 -1t17 -8t12.5 -23t3 -45l2 -1356q0 -31 10 -41t41 -10h31 q18 0 26 -1.5t17.5 -8t12.5 -22.5t3 -44q0 -38 -7.5 -55t-17.5 -20t-34 -3h-330q-24 0 -34 3t-17.5 20t-7.5 55z" />
<glyph unicode="2" horiz-adv-x="819" d="M92 78v469q0 53 35 111t87 107t113.5 101.5t113.5 96t87 90t35 84.5v182q0 89 -40 137.5t-111 48.5q-73 0 -114.5 -48t-41.5 -138q0 -37 -78 -37q-52 0 -69 9t-17 48q0 141 83 230.5t237 89.5q152 0 233.5 -90.5t81.5 -229.5v-254q0 -51 -48.5 -113.5t-117.5 -122 t-138.5 -119t-118 -121.5t-48.5 -113v-291q0 -31 10 -41t41 -10h361q18 0 26 -1.5t17.5 -8t12.5 -22.5t3 -44q0 -38 -7.5 -55t-17.5 -20t-34 -3h-518q-24 0 -33.5 3t-17 20t-7.5 55z" />
<glyph unicode="3" horiz-adv-x="849" d="M72 299q0 39 17 48t69 9q78 0 78 -37q0 -186 176 -186q85 0 128.5 48t43.5 138v310q0 186 -176 186h-27q-18 0 -26 1.5t-17.5 8t-12.5 22.5t-3 44q0 38 7.5 55t17.5 20t34 3h27q176 0 176 186v164q0 90 -43.5 138t-128.5 48q-176 0 -176 -186q0 -37 -78 -37q-52 0 -69 9 t-17 48q0 142 86.5 231t253.5 89q165 0 250.5 -90t85.5 -230v-204q0 -156 -101 -244q101 -85 101 -242v-350q0 -140 -85.5 -229.5t-250.5 -89.5q-168 0 -254 88.5t-86 230.5z" />
<glyph unicode="4" horiz-adv-x="792" d="M51 276v111q0 27 33 145l297 1045q8 32 28 46.5t68 14.5h86q31 0 48.5 -3t25 -12.5t9 -17.5t1.5 -26v-1151q0 -25 5 -32t20 -7q24 0 34 -3t17.5 -20t7.5 -55q0 -28 -3 -43.5t-12.5 -22.5t-17 -8t-26.5 -1q-15 0 -20 -7t-5 -32v-138q0 -18 -1.5 -26t-9 -17.5t-25 -12.5 t-48.5 -3q-38 0 -56 7.5t-21 17.5t-3 34v136q0 24 -8 32.5t-31 8.5h-360q-21 0 -27 7.5t-6 32.5zM227 430q0 -23 7.5 -32t29.5 -9h176q25 0 34 7.5t9 31.5v477q0 100 -1 157t-4.5 87.5t-7.5 38.5t-11 8q-14 0 -30.5 -45.5t-74.5 -243.5l-92 -311q-2 -9 -12 -39.5t-16.5 -56 t-6.5 -37.5v-33z" />
<glyph unicode="5" horiz-adv-x="829" d="M82 299q0 39 17 48t69 9q78 0 78 -37q0 -186 176 -186q85 0 128.5 48t43.5 138v330q0 91 -44.5 139t-131.5 48q-76 0 -119.5 -32.5t-52.5 -64.5q-6 -23 -22 -32t-60 -9q-45 0 -63.5 9.5t-18.5 31.5v822q0 38 7.5 55t16.5 19.5t33 2.5h518q19 0 26.5 -1t17.5 -8t13 -23 t3 -45q0 -28 -3.5 -44t-12.5 -22.5t-17.5 -8t-26.5 -1.5h-360q-31 0 -41 -10t-10 -41v-459q0 -21 1.5 -31.5t3.5 -13t7 -2.5q3 0 25.5 15t62.5 30.5t84 15.5q159 0 243.5 -89.5t84.5 -229.5v-371q0 -140 -85.5 -229.5t-250.5 -89.5q-168 0 -254 88.5t-86 230.5z" />
<glyph unicode="6" d="M102 299v1040q0 140 85.5 230t250.5 90q167 0 253.5 -89t86.5 -231q0 -39 -17 -48t-69 -9q-78 0 -78 37q0 186 -176 186q-85 0 -128.5 -48t-43.5 -138v-426q0 -21 1.5 -31.5t4 -13t7.5 -2.5q3 0 25.5 15t62.5 30.5t84 15.5q159 0 243 -89t84 -230v-289q0 -141 -86.5 -230 t-253.5 -89q-165 0 -250.5 89.5t-85.5 229.5zM266 319q0 -90 43.5 -138t128.5 -48q176 0 176 186v248q0 91 -44.5 139t-131.5 48q-85 0 -128.5 -48.5t-43.5 -138.5v-248z" />
<glyph unicode="7" horiz-adv-x="782" d="M61 1509v52q0 29 3 45t13 23t17.5 8t26.5 1h543q24 0 33 -2.5t16.5 -19.5t7.5 -55v-78q0 -17 -5.5 -46t-10 -49.5t-14.5 -56.5t-11 -41l-311 -1229q-11 -44 -26.5 -53.5t-61.5 -9.5q-45 0 -58.5 12t-13.5 45q0 16 93 381q123 483 237 930q14 63 14 72q0 47 -47 47h-221 q-24 0 -41 -11t-24.5 -24t-21 -24t-30.5 -11h-41q-26 0 -36 1t-18.5 11t-10 27.5t-1.5 54.5z" />
<glyph unicode="8" horiz-adv-x="880" d="M102 299v350q0 159 99 242q-99 86 -99 244v202q0 140 85.5 230t250.5 90q167 0 253.5 -89.5t86.5 -230.5v-202q0 -157 -100 -244q100 -84 100 -242v-350q0 -141 -86.5 -230t-253.5 -89q-165 0 -250.5 89.5t-85.5 229.5zM266 319q0 -90 43.5 -138t128.5 -48q176 0 176 186 v310q0 186 -176 186q-88 0 -130 -49t-42 -137v-310zM266 1155q0 -90 43.5 -138t128.5 -48q176 0 176 186v162q0 186 -176 186q-85 0 -128.5 -48t-43.5 -138v-162z" />
<glyph unicode="9" d="M82 299q0 39 17 48t69 9q78 0 78 -37q0 -186 176 -186q85 0 128.5 48t43.5 138v449q0 21 -1.5 31.5t-3.5 13t-7 2.5q-3 0 -25.5 -15.5t-62.5 -30.5t-84 -15q-159 0 -243.5 89.5t-84.5 229.5v266q0 141 86.5 230.5t253.5 89.5q165 0 250.5 -90t85.5 -230v-1040 q0 -140 -85.5 -229.5t-250.5 -89.5q-168 0 -254 88.5t-86 230.5zM246 1094q0 -91 44.5 -139t131.5 -48q85 0 128.5 48.5t43.5 138.5v225q0 90 -43.5 138t-128.5 48q-176 0 -176 -186v-225z" />
<glyph unicode=":" horiz-adv-x="245" d="M41 94q0 72 9.5 85.5t55.5 13.5h33q18 0 26 -0.5t17.5 -3.5t12 -8.5t6 -17.5t4 -27.5t0.5 -41.5q0 -37 -1.5 -54.5t-10 -27.5t-18.5 -11t-36 -1h-33q-46 0 -55.5 12.5t-9.5 81.5zM41 655q0 72 9.5 85.5t55.5 13.5h33q18 0 26 -0.5t17.5 -3.5t12 -8.5t6 -17.5t4 -27.5 t0.5 -41.5q0 -37 -1.5 -54.5t-10 -27.5t-18.5 -11t-36 -1h-33q-46 0 -55.5 12.5t-9.5 81.5z" />
<glyph unicode=";" horiz-adv-x="245" d="M41 133q0 24 3 34t21 18t56 8q40 0 59 -8t22 -18t3 -34v-270q0 -24 -3 -34t-22 -18t-59 -8q-38 0 -56 8t-21 18t-3 34v270zM41 655q0 72 9.5 85.5t55.5 13.5h33q18 0 26 -0.5t17.5 -3.5t12 -8.5t6 -17.5t4 -27.5t0.5 -41.5q0 -37 -1.5 -54.5t-10 -27.5t-18.5 -11t-36 -1 h-33q-46 0 -55.5 12.5t-9.5 81.5z" />
<glyph unicode="&#x3c;" horiz-adv-x="507" d="M20 823q0 41 25 86l260 449q2 4 8.5 16t9 15.5t10 11t16 9.5t23.5 4.5t36 2.5q79 0 79 -33q0 -13 -8 -26l-233 -400q-56 -92 -56 -137q0 -25 12 -52t44 -85l231 -397q8 -13 8 -25q0 -35 -84 -35q-23 0 -38.5 2t-25.5 10t-13.5 11t-11 18l-9.5 19l-264 467q-19 36 -19 69z " />
<glyph unicode="=" horiz-adv-x="919" d="M41 631q0 38 7.5 55t17.5 20t34 3h719q18 0 26.5 -1.5t17.5 -8.5t12.5 -23t3.5 -45q0 -28 -3.5 -44t-12.5 -22.5t-17.5 -8t-26.5 -1.5h-719q-18 0 -26 1.5t-17.5 8t-12.5 22.5t-3 44zM41 1028q0 38 7.5 55t17.5 20t34 3h719q18 0 26.5 -1.5t17.5 -8.5t12.5 -23t3.5 -45 q0 -28 -3.5 -44t-12.5 -22.5t-17.5 -8t-26.5 -1.5h-719q-18 0 -26 1.5t-17.5 8t-12.5 22.5t-3 44z" />
<glyph unicode="&#x3e;" horiz-adv-x="507" d="M20 1384q0 33 80 33q21 0 36 -2.5t23.5 -4.5t16 -9.5t10 -11t9 -15.5t8.5 -16l260 -449q24 -43 24 -86q0 -35 -18 -69l-264 -467q-3 -5 -8.5 -16.5t-8.5 -15t-10 -11t-15.5 -10t-22.5 -5t-34 -2.5q-83 0 -83 35q0 12 8 25l231 397q31 56 43 83.5t12 53.5q0 46 -55 137 l-233 400q-9 15 -9 26z" />
<glyph unicode="?" horiz-adv-x="778" d="M72 1339q0 141 82.5 230.5t236.5 89.5q152 0 234 -90.5t82 -229.5v-235q0 -60 -21.5 -110.5t-56 -86t-76 -67.5t-83 -63t-76 -63.5t-56 -78t-21.5 -98.5v-109q0 -18 -1.5 -26t-9 -17.5t-25 -12.5t-48.5 -3q-29 0 -46 3t-24 12.5t-8 17t-1 26.5v160q0 60 21.5 110t56 85.5 t76 67.5t82.5 63t75.5 64t56 78.5t21.5 98.5v164q0 89 -40.5 137.5t-111.5 48.5q-73 0 -114 -48t-41 -138q0 -37 -78 -37q-52 0 -69 9t-17 48zM154 94q0 72 9.5 85.5t55.5 13.5h33q46 0 55.5 -13.5t9.5 -85.5q0 -69 -9.5 -81.5t-55.5 -12.5h-33q-46 0 -55.5 12.5t-9.5 81.5z " />
<glyph unicode="@" horiz-adv-x="1597" d="M82 12v1071q0 361 311 361h811q312 0 312 -361v-743q0 -168 -68 -254t-221 -86h-185q-52 0 -65.5 15t-13.5 67v22q-80 -104 -218 -104t-216 90.5t-78 228.5v447q0 138 78 228.5t216 90.5q142 0 218 -94q0 60 12.5 77t66.5 17q31 0 48.5 -3t25 -12.5t9 -17.5t1.5 -26v-782 q0 -63 13 -76.5t73 -13.5q32 0 55.5 6.5t39 22.5t24.5 34t13.5 49.5t6 60t1.5 74.5v662q0 121 -41.5 174t-139.5 53h-745q-97 0 -138.5 -53t-41.5 -174v-1030q0 -121 41.5 -174.5t138.5 -53.5h643q19 0 26.5 -1t17 -8t12.5 -23t3 -45q0 -28 -3 -44t-12.5 -22.5t-17.5 -8 t-26 -1.5h-678q-165 0 -237 94t-72 266zM614 340q0 -90 43.5 -138t128.5 -48q177 0 177 247v310q0 117 -45 169t-132 52q-85 0 -128.5 -48.5t-43.5 -138.5v-405z" />
<glyph unicode="A" horiz-adv-x="716" d="M20 31q0 13 3 28l235 1463q6 32 10.5 48.5t14.5 34.5t27.5 25.5t45.5 7.5q30 0 50 -9.5t30.5 -29t14.5 -35t8 -42.5l235 -1463q2 -10 2 -28q0 -31 -71 -31q-57 0 -72.5 12.5t-20.5 46.5l-26 162q-5 33 -51 33h-195q-23 0 -34.5 -7t-14.5 -26l-27 -162q-4 -24 -8 -34 t-24.5 -17.5t-59.5 -7.5q-72 0 -72 31zM244 438q0 -18 12 -24t39 -6h131q25 0 36 6.5t11 23.5q0 4 -88 553q-7 47 -12 59.5t-15 12.5t-14.5 -11.5t-11.5 -60.5q-69 -437 -87 -547z" />
<glyph unicode="B" horiz-adv-x="845" d="M92 78v1483q0 29 3 45t12 23t16.5 8t26.5 1h344q86 0 139.5 -18.5t82 -61.5t38.5 -97.5t10 -141.5v-246q0 -92 -14.5 -149.5t-55.5 -94.5q41 -37 55.5 -93.5t14.5 -147.5v-269q0 -87 -9.5 -141.5t-37.5 -97.5t-81.5 -61.5t-139.5 -18.5h-346q-24 0 -33.5 3t-17 20 t-7.5 55zM256 205q0 -31 10 -41t41 -10h154q29 0 49 3.5t35.5 9t25 18.5t16 26.5t9 38t3.5 48t1 62.5v187q0 124 -20.5 165.5t-100.5 41.5h-172q-31 0 -41 -10.5t-10 -41.5v-497zM256 958q0 -28 8 -39.5t31 -11.5h184q80 0 100.5 41.5t20.5 165.5v164q0 55 -2 84t-9 57 t-22.5 40t-40.5 19t-65 7h-154q-31 0 -41 -10t-10 -41v-476z" />
<glyph unicode="C" horiz-adv-x="808" d="M82 299v1040q0 140 85.5 230t250.5 90q167 0 253.5 -89t86.5 -231q0 -39 -17 -48t-69 -9q-78 0 -78 37q0 186 -176 186q-85 0 -128.5 -48t-43.5 -138v-1000q0 -90 43.5 -138t128.5 -48q176 0 176 186q0 37 78 37q52 0 69 -9t17 -48q0 -142 -86 -230.5t-254 -88.5 q-165 0 -250.5 89.5t-85.5 229.5z" />
<glyph unicode="D" horiz-adv-x="845" d="M92 78v1483q0 29 3 45t12 23t16.5 8t26.5 1h344q86 0 139.5 -18.5t82 -61.5t38.5 -97.5t10 -141.5v-1000q0 -87 -9.5 -141.5t-37.5 -97.5t-81.5 -61.5t-139.5 -18.5h-346q-24 0 -33.5 3t-17 20t-7.5 55zM256 205q0 -31 10 -41t41 -10h154q29 0 49 3.5t35.5 9t25 18.5 t16 26.5t9 38t3.5 48t1 62.5v918q0 55 -2 84t-9 57t-22.5 40t-40.5 19t-65 7h-154q-31 0 -41 -10t-10 -41v-1229z" />
<glyph unicode="E" horiz-adv-x="833" d="M92 78v1483q0 29 3 45t12 23t16.5 8t26.5 1h593q19 0 26.5 -1t17.5 -8t13 -23t3 -45q0 -28 -3.5 -44t-12.5 -22.5t-17.5 -8t-26.5 -1.5h-436q-31 0 -41 -10t-10 -41v-476q0 -31 10 -41t41 -10h217q18 0 26.5 -1.5t17.5 -8.5t12.5 -23t3.5 -45q0 -28 -3 -44t-13 -22.5 t-17.5 -7.5t-26.5 -1h-217q-29 0 -40 -8.5t-11 -32.5v-508q0 -31 10 -41t41 -10h436q18 0 26.5 -1.5t17.5 -8t12.5 -22.5t3.5 -44q0 -29 -3.5 -45t-12.5 -23t-17.5 -8.5t-26.5 -1.5h-593q-24 0 -33.5 3t-17 20t-7.5 55z" />
<glyph unicode="F" horiz-adv-x="782" d="M92 59v1502q0 29 3 45t12 23t16.5 8t26.5 1h552q19 0 26.5 -1t17.5 -8t13 -23t3 -45q0 -28 -3.5 -44t-12.5 -22.5t-17.5 -8t-26.5 -1.5h-395q-31 0 -41 -10t-10 -41v-476q0 -31 10 -41t41 -10h217q18 0 26.5 -1.5t17.5 -8.5t12.5 -23t3.5 -45q0 -28 -3 -44t-13 -22.5 t-17.5 -7.5t-26.5 -1h-217q-29 0 -40 -8.5t-11 -32.5v-654q0 -18 -1.5 -26t-9 -17.5t-25 -12.5t-48.5 -3q-38 0 -56 7.5t-21 17.5t-3 34z" />
<glyph unicode="G" horiz-adv-x="819" d="M82 299v1040q0 140 85.5 230t250.5 90q167 0 253.5 -89t86.5 -231q0 -39 -17 -48t-69 -9q-78 0 -78 37q0 186 -176 186q-85 0 -128.5 -48t-43.5 -138v-1000q0 -90 43.5 -138t128.5 -48q176 0 176 186v281q0 31 -10 41t-41 10h-17q-18 0 -26 1.5t-17.5 8t-12.5 22.5t-3 44 q0 38 7.5 55t17.5 20t34 3h174q24 0 33.5 -3t17 -20t7.5 -55v-428q0 -153 -92 -236t-248 -83q-165 0 -250.5 89.5t-85.5 229.5z" />
<glyph unicode="H" d="M92 59v1520q0 24 3 34t21 17.5t56 7.5q31 0 48.5 -3t25 -12.5t9 -17.5t1.5 -26v-633q0 -23 11.5 -31t39.5 -8h246q28 0 39.5 8t11.5 31v633q0 24 3 34t21 17.5t56 7.5q31 0 48.5 -3t25 -12.5t9 -17.5t1.5 -26v-1520q0 -18 -1.5 -26t-9 -17.5t-25 -12.5t-48.5 -3 q-38 0 -56 7.5t-21 17.5t-3 34v662q0 33 -51 33h-246q-29 0 -40 -8.5t-11 -32.5v-654q0 -18 -1.5 -26t-9 -17.5t-25 -12.5t-48.5 -3q-38 0 -56 7.5t-21 17.5t-3 34z" />
<glyph unicode="I" horiz-adv-x="530" d="M41 78q0 28 3 44t12.5 22.5t17.5 8t26 1.5h33q31 0 41 10t10 41v1229q0 31 -10 41t-41 10h-33q-18 0 -26 1.5t-17.5 8t-12.5 22.5t-3 44q0 29 3 45t12.5 23t17 8t26.5 1h330q19 0 26.5 -1t17 -8t12.5 -23t3 -45q0 -28 -3 -44t-12.5 -22.5t-17.5 -8t-26 -1.5h-31 q-31 0 -41 -10t-10 -41v-1229q0 -31 10 -41t41 -10h31q18 0 26 -1.5t17.5 -8t12.5 -22.5t3 -44q0 -38 -7.5 -55t-17.5 -20t-34 -3h-330q-24 0 -34 3t-17.5 20t-7.5 55z" />
<glyph unicode="J" horiz-adv-x="788" d="M20 297q0 24 3 34t21 17.5t56 7.5q50 0 67 -9.5t17 -31.5q6 -182 172 -182q176 0 176 186v1260q0 24 3 34t21 17.5t56 7.5q31 0 48.5 -3t25 -12.5t9 -17.5t1.5 -26v-1280q0 -141 -86.5 -230t-253.5 -89q-166 0 -251 88.5t-85 228.5z" />
<glyph unicode="K" horiz-adv-x="755" d="M92 59v1520q0 24 3 34t21 17.5t56 7.5q31 0 48.5 -3t25 -12.5t9 -17.5t1.5 -26v-578q0 -47 12 -47q5 0 8 2t8.5 12.5t14.5 32.5l236 578q10 23 17.5 33.5t28.5 18t60 7.5q66 0 66 -24q0 -12 -9 -35l-149 -360q-31 -73 -31 -111q0 -35 31 -178l192 -871q4 -20 3 -28 q0 -16 -15 -23.5t-57 -7.5q-39 0 -58.5 7.5t-25 18t-10.5 33.5l-156 701q-7 34 -13 44.5t-14 10.5t-15.5 -10t-21.5 -45l-73 -178q-21 -49 -25 -78t-4 -115v-330q0 -18 -1.5 -26t-9 -17.5t-25 -12.5t-48.5 -3q-38 0 -56 7.5t-21 17.5t-3 34z" />
<glyph unicode="L" horiz-adv-x="782" d="M92 78v1501q0 24 3 34t21 17.5t56 7.5q31 0 48.5 -3t25 -12.5t9 -17.5t1.5 -26v-1374q0 -31 10 -41t41 -10h395q18 0 26.5 -1.5t17.5 -8t12.5 -22.5t3.5 -44q0 -29 -3.5 -45t-12.5 -23t-17.5 -8.5t-26.5 -1.5h-552q-24 0 -33.5 3t-17 20t-7.5 55z" />
<glyph unicode="M" horiz-adv-x="917" d="M92 59v1520q0 24 3 34t21 17.5t56 7.5q41 0 62.5 -7.5t28 -17.5t13.5 -34l121 -391q21 -67 34.5 -90t29.5 -23q15 0 27.5 22t33.5 91l119 391q7 24 13.5 34t28 17.5t62.5 7.5q38 0 56 -7.5t21 -17.5t3 -34v-1520q0 -24 -3 -34t-21 -17.5t-56 -7.5q-31 0 -48.5 3 t-24.5 12.5t-8.5 17t-1.5 26.5v949q0 51 -15 51q-16 0 -31 -51l-75 -250q-35 -115 -51.5 -154t-30.5 -39q-16 0 -30.5 35.5t-51.5 157.5l-76 250q-15 51 -31 51q-9 0 -11.5 -11t-2.5 -40v-949q0 -18 -1.5 -26t-9 -17.5t-25 -12.5t-48.5 -3q-38 0 -56 7.5t-21 17.5t-3 34z " />
<glyph unicode="N" d="M92 59v1520q0 24 3 34t21 17.5t56 7.5q41 0 62.5 -7.5t28 -17.5t13.5 -34l285 -926q16 -51 29 -51q9 0 11.5 11t2.5 42v924q0 24 3 34t21 17.5t56 7.5q31 0 48.5 -3t25 -12.5t9 -17.5t1.5 -26v-1520q0 -23 -4 -33.5t-24.5 -18t-63.5 -7.5q-51 0 -69 13.5t-27 45.5 l-279 908q-15 51 -31 51q-9 0 -11.5 -11t-2.5 -40v-908q0 -18 -1.5 -26t-9 -17.5t-25 -12.5t-48.5 -3q-38 0 -56 7.5t-21 17.5t-3 34z" />
<glyph unicode="O" horiz-adv-x="839" d="M82 299v1040q0 140 85.5 230t250.5 90q167 0 253.5 -89.5t86.5 -230.5v-1040q0 -141 -86.5 -230t-253.5 -89q-165 0 -250.5 89.5t-85.5 229.5zM246 319q0 -90 43.5 -138t128.5 -48q176 0 176 186v1000q0 186 -176 186q-85 0 -128.5 -48t-43.5 -138v-1000z" />
<glyph unicode="P" horiz-adv-x="825" d="M92 59v1502q0 29 3 45t12 23t16.5 8t26.5 1h344q86 0 139.5 -18.5t82 -61.5t38.5 -97.5t10 -141.5v-246q0 -87 -9.5 -141.5t-37.5 -97.5t-81.5 -61.5t-139.5 -18.5h-201q-23 0 -31 -11.5t-8 -40.5v-643q0 -18 -1.5 -26t-9 -17.5t-25 -12.5t-48.5 -3q-38 0 -56 7.5 t-21 17.5t-3 34zM256 958q0 -31 10 -41t41 -10h154q40 0 65 7t40.5 19t22.5 40t9 57t2 84v164q0 55 -2 84t-9 57t-22.5 40t-40.5 19t-65 7h-154q-31 0 -41 -10t-10 -41v-476z" />
<glyph unicode="Q" horiz-adv-x="839" d="M82 299v1040q0 140 85.5 230t250.5 90q167 0 253.5 -89.5t86.5 -230.5v-1040q0 -113 -56 -193l39 -47q11 -14 11 -36q0 -29 -31.5 -56.5t-63.5 -27.5q-27 0 -43 22l-36 45q-65 -26 -160 -26q-165 0 -250.5 89.5t-85.5 229.5zM246 319q0 -90 43.5 -138t128.5 -48 q31 0 39 1t8 7t-8 17l-29 37q-14 21 -14 43q0 26 35 53.5t65 27.5q23 0 43 -26l16 -21q9 -12 13 -12q8 0 8 59v1000q0 186 -176 186q-85 0 -128.5 -48t-43.5 -138v-1000z" />
<glyph unicode="R" horiz-adv-x="825" d="M92 59v1502q0 29 3 45t12 23t16.5 8t26.5 1h344q86 0 139.5 -18.5t82 -61.5t38.5 -97.5t10 -141.5v-246q0 -71 -4.5 -116.5t-18.5 -87.5t-40 -65t-69 -36.5t-106 -13.5q-24 0 -24 -11q0 -4 10 -34l242 -650q8 -16 8 -34q0 -25 -70 -25q-55 0 -72.5 12.5t-29.5 46.5 l-238 639q-10 28 -25 42t-30 14q-17 0 -29 -15.5t-12 -38.5v-641q0 -18 -1.5 -26t-9 -17.5t-25 -12.5t-48.5 -3q-38 0 -56 7.5t-21 17.5t-3 34zM256 958q0 -31 10 -41t41 -10h154q40 0 65 7t40.5 19t22.5 40t9 57t2 84v164q0 55 -2 84t-9 57t-22.5 40t-40.5 19t-65 7h-154 q-31 0 -41 -10t-10 -41v-476z" />
<glyph unicode="S" horiz-adv-x="778" d="M72 299q0 39 17 48t69 9q78 0 78 -37q0 -90 41 -138t114 -48q71 0 111.5 48.5t40.5 137.5v207q0 106 -35 161.5t-117 55.5q-86 0 -149 27.5t-99.5 76.5t-53.5 110t-17 135v247q0 139 81.5 229.5t233.5 90.5q154 0 237 -89.5t83 -230.5q0 -39 -17 -48t-69 -9q-78 0 -78 37 q0 90 -41.5 138t-114.5 48q-71 0 -111 -48.5t-40 -137.5v-207q0 -106 34.5 -160.5t116.5 -54.5q86 0 149.5 -27.5t99.5 -77t53.5 -110.5t17.5 -135v-248q0 -139 -82 -229t-234 -90q-154 0 -236.5 89t-82.5 230z" />
<glyph unicode="T" horiz-adv-x="714" d="M20 1561q0 29 3 45t13 23t17.5 8t26.5 1h555q19 0 26.5 -1t17 -8t12.5 -23t3 -45q0 -28 -3 -44t-12.5 -22.5t-17.5 -8t-26 -1.5h-143q-31 0 -41.5 -10t-10.5 -41v-1375q0 -18 -1.5 -26t-9 -17.5t-25 -12.5t-48.5 -3q-38 0 -56 7.5t-21 17.5t-3 34v1375q0 31 -10 41 t-41 10h-145q-18 0 -26.5 1.5t-17.5 8t-12.5 22.5t-3.5 44z" />
<glyph unicode="U" d="M92 299v1280q0 24 3 34t21 17.5t56 7.5q31 0 48.5 -3t25 -12.5t9 -17.5t1.5 -26v-1260q0 -90 43.5 -138t128.5 -48q176 0 176 186v1260q0 24 3 34t21 17.5t56 7.5q31 0 48.5 -3t25 -12.5t9 -17.5t1.5 -26v-1280q0 -141 -86.5 -230t-253.5 -89q-165 0 -250.5 89.5 t-85.5 229.5z" />
<glyph unicode="V" horiz-adv-x="720" d="M20 1608q0 30 74 30q39 0 59 -7.5t24.5 -17.5t8.5 -34l152 -932q5 -33 8.5 -49t6 -19.5t7.5 -3.5t7.5 4t6.5 20t9 48l152 932q4 24 8.5 34t24.5 17.5t59 7.5q73 0 73 -30q0 -9 -4 -29l-235 -1462q-4 -27 -8 -42.5t-14.5 -35.5t-30.5 -29.5t-50 -9.5q-52 0 -69.5 27 t-28.5 90l-235 1462q-5 25 -5 29z" />
<glyph unicode="W" horiz-adv-x="858" d="M63 1579q-2 31 14.5 45t65.5 14q52 0 67 -13t17 -46l41 -907q2 -29 5.5 -40t13.5 -11q14 0 26 51l56 250q34 157 41 174q9 17 20 18q12 0 24.5 -39t37.5 -153l55 -250q12 -51 26 -51q10 0 13.5 11t5.5 40l41 907q1 24 5 34t21.5 17.5t55.5 7.5q52 0 67 -13.5t13 -45.5 l-52 -1520q-1 -23 -5 -33.5t-21 -18t-53 -7.5q-61 0 -79.5 12.5t-23.5 46.5l-51 306q-12 67 -26 101t-25 41t-31 7t-31 -7t-24.5 -41t-24.5 -101l-49 -306q-5 -34 -24 -46.5t-80 -12.5q-47 0 -62.5 13.5t-17.5 45.5z" />
<glyph unicode="X" horiz-adv-x="679" d="M20 29q0 9 7 30l190 633q29 99 29 131q0 33 -29 131l-188 625q-9 27 -9 31q0 28 70 28q58 0 75.5 -12.5t27.5 -46.5l102 -340q19 -59 27 -74.5t18 -15.5q9 0 18 17t27 73l102 340q10 34 27.5 46.5t75.5 12.5q39 0 54 -7t15 -21q0 -7 -8 -31l-188 -621q-31 -108 -31 -139 q0 -33 31 -135l190 -625q6 -18 6 -30q0 -29 -71 -29q-55 0 -72 12.5t-27 46.5l-106 349q-18 57 -26 72.5t-17 15.5t-17 -15.5t-26 -72.5l-107 -349q-7 -24 -13 -34t-26.5 -17.5t-58.5 -7.5q-72 0 -72 29z" />
<glyph unicode="Y" horiz-adv-x="679" d="M20 1610q0 28 70 28q58 0 75.5 -12.5t27.5 -46.5l102 -340q19 -59 27 -74.5t18 -15.5q9 0 18 17t27 73l102 340q10 34 27.5 46.5t75.5 12.5q39 0 54 -7t15 -21q0 -7 -8 -31l-188 -621q-39 -125 -39 -176v-723q0 -18 -1.5 -26t-9 -17.5t-25 -12.5t-48.5 -3q-38 0 -56 7.5 t-21 17.5t-3 34v723q0 5 -0.5 10.5t-1 10.5t-2 12.5l-2.5 12.5t-4 15t-4.5 16t-5.5 19.5t-6.5 21.5t-8 25.5t-8.5 28.5l-188 625q-9 27 -9 31z" />
<glyph unicode="Z" horiz-adv-x="710" d="M41 78v78q0 47 37 151l416 1100q8 28 8 39q0 39 -47 39h-355q-18 0 -26 1.5t-17.5 8t-12.5 22.5t-3 44q0 29 3 45t12.5 23t17 8t26.5 1h512q19 0 26.5 -1t16.5 -8t12 -23t3 -45v-78q0 -48 -37 -152l-410 -1083q-14 -40 -14 -55q0 -39 47 -39h354q18 0 26.5 -1.5t17.5 -8 t12.5 -22.5t3.5 -44q0 -29 -3.5 -45t-12.5 -23t-17.5 -8.5t-26.5 -1.5h-512q-24 0 -33.5 3t-16.5 20t-7 55z" />
<glyph unicode="[" horiz-adv-x="495" d="M92 -127v1892q0 38 7.5 55t17 20t33.5 3h266q24 0 34 -3t17.5 -20t7.5 -55q0 -28 -3 -43.5t-12.5 -22.5t-17 -8t-26.5 -1h-109q-31 0 -41 -10.5t-10 -41.5v-1638q0 -31 10 -41t41 -10h109q18 0 26 -1.5t17.5 -8t12.5 -22.5t3 -44q0 -38 -7.5 -55t-17.5 -20t-34 -3h-266 q-24 0 -33.5 3t-17 20t-7.5 55z" />
<glyph unicode="\" horiz-adv-x="473" d="M-63 1853q0 35 20.5 58.5t44.5 23.5q36 0 47 -49l453 -2076q6 -27 6 -48q0 -33 -14.5 -51t-36.5 -18q-52 0 -64 59l-454 2075q-2 8 -2 26z" />
<glyph unicode="]" horiz-adv-x="495" d="M20 -127q0 28 3.5 44t12.5 22.5t17.5 8t26.5 1.5h108q31 0 41.5 10t10.5 41v1638q0 31 -10.5 41.5t-41.5 10.5h-108q-19 0 -26.5 1t-17.5 7.5t-13 22.5t-3 44q0 29 3.5 45t12.5 23t17.5 8.5t26.5 1.5h266q24 0 33.5 -3t16.5 -20t7 -55v-1892q0 -38 -7 -55t-16.5 -20 t-33.5 -3h-266q-18 0 -26.5 1.5t-17.5 8.5t-12.5 23t-3.5 45z" />
<glyph unicode="^" horiz-adv-x="858" d="M63 1579q-2 31 14.5 45t65.5 14q52 0 67 -13t17 -46l25 -553q3 -75 6 -101t10 -26q8 0 13.5 5.5t14.5 35.5t17 86l64 414q21 135 28.5 163.5t24.5 28.5q9 0 15 -11t15.5 -53.5t22.5 -127.5l64 -414q19 -127 45 -127q10 0 14 92q1 23 2 35l25 553q1 24 5 34t21.5 17.5 t55.5 7.5q52 0 67 -13.5t13 -45.5l-52 -1520q-1 -23 -5 -33.5t-21 -18t-53 -7.5q-61 0 -79.5 12.5t-23.5 46.5l-108 732q-12 81 -21 81q-10 0 -22 -84l-111 -729q-5 -34 -24 -46.5t-80 -12.5q-47 0 -62.5 13.5t-17.5 45.5z" />
<glyph unicode="_" horiz-adv-x="837" d="M0 0q0 38 7.5 55t17.5 20t34 3h719q18 0 26.5 -1.5t17.5 -8.5t12.5 -23t3.5 -45q0 -28 -3.5 -44t-12.5 -22.5t-17.5 -8t-26.5 -1.5h-719q-18 0 -26 1.5t-17.5 8t-12.5 22.5t-3 44z" />
<glyph unicode="`" horiz-adv-x="749" d="M209 1999q0 17 31 46.5t47 29.5q9 0 28 -19l209 -209q19 -19 19 -28q0 -17 -31 -46.5t-47 -29.5q-11 0 -29 18l-209 209q-18 18 -18 29z" />
<glyph unicode="a" horiz-adv-x="716" d="M20 31q0 13 3 28l235 1463q6 32 10.5 48.5t14.5 34.5t27.5 25.5t45.5 7.5q30 0 50 -9.5t30.5 -29t14.5 -35t8 -42.5l235 -1463q2 -10 2 -28q0 -31 -71 -31q-57 0 -72.5 12.5t-20.5 46.5l-26 162q-5 33 -51 33h-195q-23 0 -34.5 -7t-14.5 -26l-27 -162q-4 -24 -8 -34 t-24.5 -17.5t-59.5 -7.5q-72 0 -72 31zM244 438q0 -18 12 -24t39 -6h131q25 0 36 6.5t11 23.5q0 4 -88 553q-7 47 -12 59.5t-15 12.5t-14.5 -11.5t-11.5 -60.5q-69 -437 -87 -547z" />
<glyph unicode="b" horiz-adv-x="845" d="M92 78v1483q0 29 3 45t12 23t16.5 8t26.5 1h344q86 0 139.5 -18.5t82 -61.5t38.5 -97.5t10 -141.5v-246q0 -92 -14.5 -149.5t-55.5 -94.5q41 -37 55.5 -93.5t14.5 -147.5v-269q0 -87 -9.5 -141.5t-37.5 -97.5t-81.5 -61.5t-139.5 -18.5h-346q-24 0 -33.5 3t-17 20 t-7.5 55zM256 205q0 -31 10 -41t41 -10h154q29 0 49 3.5t35.5 9t25 18.5t16 26.5t9 38t3.5 48t1 62.5v187q0 124 -20.5 165.5t-100.5 41.5h-172q-31 0 -41 -10.5t-10 -41.5v-497zM256 958q0 -28 8 -39.5t31 -11.5h184q80 0 100.5 41.5t20.5 165.5v164q0 55 -2 84t-9 57 t-22.5 40t-40.5 19t-65 7h-154q-31 0 -41 -10t-10 -41v-476z" />
<glyph unicode="c" horiz-adv-x="808" d="M82 299v1040q0 140 85.5 230t250.5 90q167 0 253.5 -89t86.5 -231q0 -39 -17 -48t-69 -9q-78 0 -78 37q0 186 -176 186q-85 0 -128.5 -48t-43.5 -138v-1000q0 -90 43.5 -138t128.5 -48q176 0 176 186q0 37 78 37q52 0 69 -9t17 -48q0 -142 -86 -230.5t-254 -88.5 q-165 0 -250.5 89.5t-85.5 229.5z" />
<glyph unicode="d" horiz-adv-x="845" d="M92 78v1483q0 29 3 45t12 23t16.5 8t26.5 1h344q86 0 139.5 -18.5t82 -61.5t38.5 -97.5t10 -141.5v-1000q0 -87 -9.5 -141.5t-37.5 -97.5t-81.5 -61.5t-139.5 -18.5h-346q-24 0 -33.5 3t-17 20t-7.5 55zM256 205q0 -31 10 -41t41 -10h154q29 0 49 3.5t35.5 9t25 18.5 t16 26.5t9 38t3.5 48t1 62.5v918q0 55 -2 84t-9 57t-22.5 40t-40.5 19t-65 7h-154q-31 0 -41 -10t-10 -41v-1229z" />
<glyph unicode="e" horiz-adv-x="833" d="M92 78v1483q0 29 3 45t12 23t16.5 8t26.5 1h593q19 0 26.5 -1t17.5 -8t13 -23t3 -45q0 -28 -3.5 -44t-12.5 -22.5t-17.5 -8t-26.5 -1.5h-436q-31 0 -41 -10t-10 -41v-476q0 -31 10 -41t41 -10h217q18 0 26.5 -1.5t17.5 -8.5t12.5 -23t3.5 -45q0 -28 -3 -44t-13 -22.5 t-17.5 -7.5t-26.5 -1h-217q-29 0 -40 -8.5t-11 -32.5v-508q0 -31 10 -41t41 -10h436q18 0 26.5 -1.5t17.5 -8t12.5 -22.5t3.5 -44q0 -29 -3.5 -45t-12.5 -23t-17.5 -8.5t-26.5 -1.5h-593q-24 0 -33.5 3t-17 20t-7.5 55z" />
<glyph unicode="f" horiz-adv-x="782" d="M92 59v1502q0 29 3 45t12 23t16.5 8t26.5 1h552q19 0 26.5 -1t17.5 -8t13 -23t3 -45q0 -28 -3.5 -44t-12.5 -22.5t-17.5 -8t-26.5 -1.5h-395q-31 0 -41 -10t-10 -41v-476q0 -31 10 -41t41 -10h217q18 0 26.5 -1.5t17.5 -8.5t12.5 -23t3.5 -45q0 -28 -3 -44t-13 -22.5 t-17.5 -7.5t-26.5 -1h-217q-29 0 -40 -8.5t-11 -32.5v-654q0 -18 -1.5 -26t-9 -17.5t-25 -12.5t-48.5 -3q-38 0 -56 7.5t-21 17.5t-3 34z" />
<glyph unicode="g" horiz-adv-x="819" d="M82 299v1040q0 140 85.5 230t250.5 90q167 0 253.5 -89t86.5 -231q0 -39 -17 -48t-69 -9q-78 0 -78 37q0 186 -176 186q-85 0 -128.5 -48t-43.5 -138v-1000q0 -90 43.5 -138t128.5 -48q176 0 176 186v281q0 31 -10 41t-41 10h-17q-18 0 -26 1.5t-17.5 8t-12.5 22.5t-3 44 q0 38 7.5 55t17.5 20t34 3h174q24 0 33.5 -3t17 -20t7.5 -55v-428q0 -153 -92 -236t-248 -83q-165 0 -250.5 89.5t-85.5 229.5z" />
<glyph unicode="h" d="M92 59v1520q0 24 3 34t21 17.5t56 7.5q31 0 48.5 -3t25 -12.5t9 -17.5t1.5 -26v-633q0 -23 11.5 -31t39.5 -8h246q28 0 39.5 8t11.5 31v633q0 24 3 34t21 17.5t56 7.5q31 0 48.5 -3t25 -12.5t9 -17.5t1.5 -26v-1520q0 -18 -1.5 -26t-9 -17.5t-25 -12.5t-48.5 -3 q-38 0 -56 7.5t-21 17.5t-3 34v662q0 33 -51 33h-246q-29 0 -40 -8.5t-11 -32.5v-654q0 -18 -1.5 -26t-9 -17.5t-25 -12.5t-48.5 -3q-38 0 -56 7.5t-21 17.5t-3 34z" />
<glyph unicode="i" horiz-adv-x="530" d="M41 78q0 28 3 44t12.5 22.5t17.5 8t26 1.5h33q31 0 41 10t10 41v1229q0 31 -10 41t-41 10h-33q-18 0 -26 1.5t-17.5 8t-12.5 22.5t-3 44q0 29 3 45t12.5 23t17 8t26.5 1h330q19 0 26.5 -1t17 -8t12.5 -23t3 -45q0 -28 -3 -44t-12.5 -22.5t-17.5 -8t-26 -1.5h-31 q-31 0 -41 -10t-10 -41v-1229q0 -31 10 -41t41 -10h31q18 0 26 -1.5t17.5 -8t12.5 -22.5t3 -44q0 -38 -7.5 -55t-17.5 -20t-34 -3h-330q-24 0 -34 3t-17.5 20t-7.5 55z" />
<glyph unicode="j" horiz-adv-x="788" d="M20 297q0 24 3 34t21 17.5t56 7.5q50 0 67 -9.5t17 -31.5q6 -182 172 -182q176 0 176 186v1260q0 24 3 34t21 17.5t56 7.5q31 0 48.5 -3t25 -12.5t9 -17.5t1.5 -26v-1280q0 -141 -86.5 -230t-253.5 -89q-166 0 -251 88.5t-85 228.5z" />
<glyph unicode="k" horiz-adv-x="755" d="M92 59v1520q0 24 3 34t21 17.5t56 7.5q31 0 48.5 -3t25 -12.5t9 -17.5t1.5 -26v-578q0 -47 12 -47q5 0 8 2t8.5 12.5t14.5 32.5l236 578q10 23 17.5 33.5t28.5 18t60 7.5q66 0 66 -24q0 -12 -9 -35l-149 -360q-31 -73 -31 -111q0 -35 31 -178l192 -871q4 -20 3 -28 q0 -16 -15 -23.5t-57 -7.5q-39 0 -58.5 7.5t-25 18t-10.5 33.5l-156 701q-7 34 -13 44.5t-14 10.5t-15.5 -10t-21.5 -45l-73 -178q-21 -49 -25 -78t-4 -115v-330q0 -18 -1.5 -26t-9 -17.5t-25 -12.5t-48.5 -3q-38 0 -56 7.5t-21 17.5t-3 34z" />
<glyph unicode="l" horiz-adv-x="782" d="M92 78v1501q0 24 3 34t21 17.5t56 7.5q31 0 48.5 -3t25 -12.5t9 -17.5t1.5 -26v-1374q0 -31 10 -41t41 -10h395q18 0 26.5 -1.5t17.5 -8t12.5 -22.5t3.5 -44q0 -29 -3.5 -45t-12.5 -23t-17.5 -8.5t-26.5 -1.5h-552q-24 0 -33.5 3t-17 20t-7.5 55z" />
<glyph unicode="m" horiz-adv-x="917" d="M92 59v1520q0 24 3 34t21 17.5t56 7.5q41 0 62.5 -7.5t28 -17.5t13.5 -34l121 -391q21 -67 34.5 -90t29.5 -23q15 0 27.5 22t33.5 91l119 391q7 24 13.5 34t28 17.5t62.5 7.5q38 0 56 -7.5t21 -17.5t3 -34v-1520q0 -24 -3 -34t-21 -17.5t-56 -7.5q-31 0 -48.5 3 t-24.5 12.5t-8.5 17t-1.5 26.5v949q0 51 -15 51q-16 0 -31 -51l-75 -250q-35 -115 -51.5 -154t-30.5 -39q-16 0 -30.5 35.5t-51.5 157.5l-76 250q-15 51 -31 51q-9 0 -11.5 -11t-2.5 -40v-949q0 -18 -1.5 -26t-9 -17.5t-25 -12.5t-48.5 -3q-38 0 -56 7.5t-21 17.5t-3 34z " />
<glyph unicode="n" d="M92 59v1520q0 24 3 34t21 17.5t56 7.5q41 0 62.5 -7.5t28 -17.5t13.5 -34l285 -926q16 -51 29 -51q9 0 11.5 11t2.5 42v924q0 24 3 34t21 17.5t56 7.5q31 0 48.5 -3t25 -12.5t9 -17.5t1.5 -26v-1520q0 -23 -4 -33.5t-24.5 -18t-63.5 -7.5q-51 0 -69 13.5t-27 45.5 l-279 908q-15 51 -31 51q-9 0 -11.5 -11t-2.5 -40v-908q0 -18 -1.5 -26t-9 -17.5t-25 -12.5t-48.5 -3q-38 0 -56 7.5t-21 17.5t-3 34z" />
<glyph unicode="o" horiz-adv-x="839" d="M82 299v1040q0 140 85.5 230t250.5 90q167 0 253.5 -89.5t86.5 -230.5v-1040q0 -141 -86.5 -230t-253.5 -89q-165 0 -250.5 89.5t-85.5 229.5zM246 319q0 -90 43.5 -138t128.5 -48q176 0 176 186v1000q0 186 -176 186q-85 0 -128.5 -48t-43.5 -138v-1000z" />
<glyph unicode="p" horiz-adv-x="825" d="M92 59v1502q0 29 3 45t12 23t16.5 8t26.5 1h344q86 0 139.5 -18.5t82 -61.5t38.5 -97.5t10 -141.5v-246q0 -87 -9.5 -141.5t-37.5 -97.5t-81.5 -61.5t-139.5 -18.5h-201q-23 0 -31 -11.5t-8 -40.5v-643q0 -18 -1.5 -26t-9 -17.5t-25 -12.5t-48.5 -3q-38 0 -56 7.5 t-21 17.5t-3 34zM256 958q0 -31 10 -41t41 -10h154q40 0 65 7t40.5 19t22.5 40t9 57t2 84v164q0 55 -2 84t-9 57t-22.5 40t-40.5 19t-65 7h-154q-31 0 -41 -10t-10 -41v-476z" />
<glyph unicode="q" horiz-adv-x="839" d="M82 299v1040q0 140 85.5 230t250.5 90q167 0 253.5 -89.5t86.5 -230.5v-1040q0 -113 -56 -193l39 -47q11 -14 11 -36q0 -29 -31.5 -56.5t-63.5 -27.5q-27 0 -43 22l-36 45q-65 -26 -160 -26q-165 0 -250.5 89.5t-85.5 229.5zM246 319q0 -90 43.5 -138t128.5 -48 q31 0 39 1t8 7t-8 17l-29 37q-14 21 -14 43q0 26 35 53.5t65 27.5q23 0 43 -26l16 -21q9 -12 13 -12q8 0 8 59v1000q0 186 -176 186q-85 0 -128.5 -48t-43.5 -138v-1000z" />
<glyph unicode="r" horiz-adv-x="825" d="M92 59v1502q0 29 3 45t12 23t16.5 8t26.5 1h344q86 0 139.5 -18.5t82 -61.5t38.5 -97.5t10 -141.5v-246q0 -71 -4.5 -116.5t-18.5 -87.5t-40 -65t-69 -36.5t-106 -13.5q-24 0 -24 -11q0 -4 10 -34l242 -650q8 -16 8 -34q0 -25 -70 -25q-55 0 -72.5 12.5t-29.5 46.5 l-238 639q-10 28 -25 42t-30 14q-17 0 -29 -15.5t-12 -38.5v-641q0 -18 -1.5 -26t-9 -17.5t-25 -12.5t-48.5 -3q-38 0 -56 7.5t-21 17.5t-3 34zM256 958q0 -31 10 -41t41 -10h154q40 0 65 7t40.5 19t22.5 40t9 57t2 84v164q0 55 -2 84t-9 57t-22.5 40t-40.5 19t-65 7h-154 q-31 0 -41 -10t-10 -41v-476z" />
<glyph unicode="s" horiz-adv-x="778" d="M72 299q0 39 17 48t69 9q78 0 78 -37q0 -90 41 -138t114 -48q71 0 111.5 48.5t40.5 137.5v207q0 106 -35 161.5t-117 55.5q-86 0 -149 27.5t-99.5 76.5t-53.5 110t-17 135v247q0 139 81.5 229.5t233.5 90.5q154 0 237 -89.5t83 -230.5q0 -39 -17 -48t-69 -9q-78 0 -78 37 q0 90 -41.5 138t-114.5 48q-71 0 -111 -48.5t-40 -137.5v-207q0 -106 34.5 -160.5t116.5 -54.5q86 0 149.5 -27.5t99.5 -77t53.5 -110.5t17.5 -135v-248q0 -139 -82 -229t-234 -90q-154 0 -236.5 89t-82.5 230z" />
<glyph unicode="t" horiz-adv-x="714" d="M20 1561q0 29 3 45t13 23t17.5 8t26.5 1h555q19 0 26.5 -1t17 -8t12.5 -23t3 -45q0 -28 -3 -44t-12.5 -22.5t-17.5 -8t-26 -1.5h-143q-31 0 -41.5 -10t-10.5 -41v-1375q0 -18 -1.5 -26t-9 -17.5t-25 -12.5t-48.5 -3q-38 0 -56 7.5t-21 17.5t-3 34v1375q0 31 -10 41 t-41 10h-145q-18 0 -26.5 1.5t-17.5 8t-12.5 22.5t-3.5 44z" />
<glyph unicode="u" d="M92 299v1280q0 24 3 34t21 17.5t56 7.5q31 0 48.5 -3t25 -12.5t9 -17.5t1.5 -26v-1260q0 -90 43.5 -138t128.5 -48q176 0 176 186v1260q0 24 3 34t21 17.5t56 7.5q31 0 48.5 -3t25 -12.5t9 -17.5t1.5 -26v-1280q0 -141 -86.5 -230t-253.5 -89q-165 0 -250.5 89.5 t-85.5 229.5z" />
<glyph unicode="v" horiz-adv-x="720" d="M20 1608q0 30 74 30q39 0 59 -7.5t24.5 -17.5t8.5 -34l152 -932q5 -33 8.5 -49t6 -19.5t7.5 -3.5t7.5 4t6.5 20t9 48l152 932q4 24 8.5 34t24.5 17.5t59 7.5q73 0 73 -30q0 -9 -4 -29l-235 -1462q-4 -27 -8 -42.5t-14.5 -35.5t-30.5 -29.5t-50 -9.5q-52 0 -69.5 27 t-28.5 90l-235 1462q-5 25 -5 29z" />
<glyph unicode="w" horiz-adv-x="858" d="M63 1579q-2 31 14.5 45t65.5 14q52 0 67 -13t17 -46l41 -907q2 -29 5.5 -40t13.5 -11q14 0 26 51l56 250q34 157 41 174q9 17 20 18q12 0 24.5 -39t37.5 -153l55 -250q12 -51 26 -51q10 0 13.5 11t5.5 40l41 907q1 24 5 34t21.5 17.5t55.5 7.5q52 0 67 -13.5t13 -45.5 l-52 -1520q-1 -23 -5 -33.5t-21 -18t-53 -7.5q-61 0 -79.5 12.5t-23.5 46.5l-51 306q-12 67 -26 101t-25 41t-31 7t-31 -7t-24.5 -41t-24.5 -101l-49 -306q-5 -34 -24 -46.5t-80 -12.5q-47 0 -62.5 13.5t-17.5 45.5z" />
<glyph unicode="x" horiz-adv-x="679" d="M20 29q0 9 7 30l190 633q29 99 29 131q0 33 -29 131l-188 625q-9 27 -9 31q0 28 70 28q58 0 75.5 -12.5t27.5 -46.5l102 -340q19 -59 27 -74.5t18 -15.5q9 0 18 17t27 73l102 340q10 34 27.5 46.5t75.5 12.5q39 0 54 -7t15 -21q0 -7 -8 -31l-188 -621q-31 -108 -31 -139 q0 -33 31 -135l190 -625q6 -18 6 -30q0 -29 -71 -29q-55 0 -72 12.5t-27 46.5l-106 349q-18 57 -26 72.5t-17 15.5t-17 -15.5t-26 -72.5l-107 -349q-7 -24 -13 -34t-26.5 -17.5t-58.5 -7.5q-72 0 -72 29z" />
<glyph unicode="y" horiz-adv-x="679" d="M20 1610q0 28 70 28q58 0 75.5 -12.5t27.5 -46.5l102 -340q19 -59 27 -74.5t18 -15.5q9 0 18 17t27 73l102 340q10 34 27.5 46.5t75.5 12.5q39 0 54 -7t15 -21q0 -7 -8 -31l-188 -621q-39 -125 -39 -176v-723q0 -18 -1.5 -26t-9 -17.5t-25 -12.5t-48.5 -3q-38 0 -56 7.5 t-21 17.5t-3 34v723q0 5 -0.5 10.5t-1 10.5t-2 12.5l-2.5 12.5t-4 15t-4.5 16t-5.5 19.5t-6.5 21.5t-8 25.5t-8.5 28.5l-188 625q-9 27 -9 31z" />
<glyph unicode="z" horiz-adv-x="710" d="M41 78v78q0 47 37 151l416 1100q8 28 8 39q0 39 -47 39h-355q-18 0 -26 1.5t-17.5 8t-12.5 22.5t-3 44q0 29 3 45t12.5 23t17 8t26.5 1h512q19 0 26.5 -1t16.5 -8t12 -23t3 -45v-78q0 -48 -37 -152l-410 -1083q-14 -40 -14 -55q0 -39 47 -39h354q18 0 26.5 -1.5t17.5 -8 t12.5 -22.5t3.5 -44q0 -29 -3.5 -45t-12.5 -23t-17.5 -8.5t-26.5 -1.5h-512q-24 0 -33.5 3t-16.5 20t-7 55z" />
<glyph unicode="{" horiz-adv-x="518" d="M20 819q0 29 3.5 45t12.5 23t17.5 8.5t26.5 1.5h10q48 0 81.5 44.5t33.5 141.5v490q0 120 63 195t185 75q24 0 34.5 -16t10.5 -74q0 -42 -10 -57t-35 -15q-47 0 -65.5 -31t-18.5 -98v-489q0 -156 -101 -244q101 -85 101 -241v-488q0 -67 18.5 -98t65.5 -31q25 0 35 -15 t10 -57q0 -58 -10.5 -74t-34.5 -16q-122 0 -185 75.5t-63 195.5v487q0 95 -32.5 140.5t-82.5 45.5h-10q-18 0 -26.5 1.5t-17.5 8t-12.5 22.5t-3.5 44z" />
<glyph unicode="|" horiz-adv-x="348" d="M92 59v1520q0 24 3 34t21 17.5t56 7.5q31 0 48.5 -3t25 -12.5t9 -17.5t1.5 -26v-1520q0 -18 -1.5 -26t-9 -17.5t-25 -12.5t-48.5 -3q-38 0 -56 7.5t-21 17.5t-3 34z" />
<glyph unicode="}" horiz-adv-x="518" d="M20 -111q0 42 10.5 57t35.5 15q47 0 65.5 31t18.5 98v488q0 157 100 241q-100 87 -100 244v489q0 67 -18.5 98t-65.5 31q-25 0 -35.5 15t-10.5 57q0 57 11 73.5t35 16.5q122 0 184.5 -75t62.5 -195v-490q0 -97 33.5 -141.5t81.5 -44.5h10q18 0 26.5 -1.5t17.5 -8.5 t12.5 -23t3.5 -45q0 -28 -3.5 -44t-12.5 -22.5t-17.5 -8t-26.5 -1.5h-10q-50 0 -82.5 -45.5t-32.5 -140.5v-487q0 -121 -62.5 -196t-184.5 -75q-16 0 -24.5 4.5t-15 25t-6.5 60.5z" />
<glyph unicode="~" horiz-adv-x="833" d="M92 78v1483q0 29 3 45t12 23t16.5 8t26.5 1h593q19 0 26.5 -1t17.5 -8t13 -23t3 -45q0 -28 -3.5 -44t-12.5 -22.5t-17.5 -8t-26.5 -1.5h-436q-31 0 -41 -10t-10 -41v-476q0 -31 10 -41t41 -10h361q24 0 34 -3t17.5 -20t7.5 -55q0 -28 -3 -43.5t-12.5 -22.5t-17 -8 t-26.5 -1h-361q-29 0 -40 -8.5t-11 -32.5v-508q0 -31 10 -41t41 -10h436q18 0 26.5 -1.5t17.5 -8t12.5 -22.5t3.5 -44q0 -29 -3.5 -45t-12.5 -23t-17.5 -8.5t-26.5 -1.5h-593q-24 0 -33.5 3t-17 20t-7.5 55z" />
<glyph unicode="&#xa1;" horiz-adv-x="348" d="M92 -350v1151q0 18 1.5 26t9 17.5t25 12.5t48.5 3q38 0 56 -7.5t21 -17.5t3 -34v-1151q0 -24 -3 -34t-21 -18t-56 -8q-40 0 -59 8t-22 18t-3 34zM92 1135q0 37 1.5 54.5t10 27.5t18.5 11t36 1h32q26 0 36 -1t18.5 -11t10 -27.5t1.5 -54.5q0 -26 -0.5 -41.5t-4 -27.5 t-6 -17.5t-12 -8.5t-17.5 -3.5t-26 -0.5h-32q-18 0 -26 0.5t-17.5 3.5t-12 8.5t-6 17.5t-4 27.5t-0.5 41.5z" />
<glyph unicode="&#xa2;" horiz-adv-x="808" d="M82 571v516q0 121 64 206.5t190 107.5v178q0 24 3 34t21 17.5t56 7.5q31 0 48.5 -3t25 -12.5t9 -17.5t1.5 -26v-178q127 -21 192.5 -105.5t65.5 -208.5q0 -39 -17 -48t-69 -9q-78 0 -78 37q0 186 -176 186q-85 0 -128.5 -48t-43.5 -138v-475q0 -90 43.5 -138t128.5 -48 q176 0 176 186q0 37 78 37q52 0 69 -9.5t17 -48.5q0 -124 -65 -208t-193 -105v-199q0 -18 -1.5 -26t-9 -17.5t-25 -12.5t-48.5 -3q-38 0 -56 7.5t-21 17.5t-3 34v199q-125 21 -189.5 106.5t-64.5 206.5z" />
<glyph unicode="&#xa3;" horiz-adv-x="1024" d="M41 78q0 28 3 44t12.5 22.5t17.5 8t26 1.5h156q28 0 39 8t12 31v329h-186q-18 0 -26.5 1.5t-17.5 8t-12.5 22.5t-3.5 44q0 29 3.5 45t12.5 23t17.5 8.5t26.5 1.5h186v145h-186q-18 0 -26.5 1.5t-17.5 8t-12.5 22.5t-3.5 44q0 29 3.5 45t12.5 23t17.5 8.5t26.5 1.5h186 v364q0 141 86.5 230.5t253.5 89.5q165 0 250.5 -89t85.5 -229q0 -24 -3 -34t-21 -17.5t-56 -7.5q-50 0 -67 9.5t-17 31.5q-6 182 -172 182q-176 0 -176 -186v-344h430q18 0 26.5 -1.5t17.5 -8.5t12.5 -23t3.5 -45q0 -28 -3.5 -44t-12.5 -22.5t-17.5 -8t-26.5 -1.5h-430v-145 h430q18 0 26.5 -1.5t17.5 -8.5t12.5 -23t3.5 -45q0 -28 -3.5 -44t-12.5 -22.5t-17.5 -8t-26.5 -1.5h-430v-317q0 -31 10 -41t41 -10h400q18 0 26 -1.5t17.5 -8t12.5 -22.5t3 -44q0 -38 -7.5 -55t-17.5 -20t-34 -3h-822q-24 0 -34 3t-17.5 20t-7.5 55z" />
<glyph unicode="&#xa4;" horiz-adv-x="808" d="M0 680q0 38 7.5 55t17.5 20t34 3h23v145h-23q-18 0 -26 1.5t-17.5 8t-12.5 22.5t-3 44q0 38 7.5 55t17.5 20t34 3h23v282q0 140 85.5 230t250.5 90q167 0 253.5 -89t86.5 -231q0 -39 -17 -48t-69 -9q-78 0 -78 37q0 186 -176 186q-85 0 -128.5 -48t-43.5 -138v-262h348 q24 0 34 -3t17.5 -20t7.5 -55q0 -28 -3 -44t-12.5 -22.5t-17.5 -8t-26 -1.5h-348v-145h348q24 0 34 -3t17.5 -20t7.5 -55q0 -28 -3 -44t-12.5 -22.5t-17.5 -8t-26 -1.5h-348v-285q0 -90 43.5 -138t128.5 -48q176 0 176 186q0 37 78 37q52 0 69 -9t17 -48q0 -142 -86 -230.5 t-254 -88.5q-165 0 -250.5 89.5t-85.5 229.5v305h-23q-18 0 -26 1.5t-17.5 8t-12.5 22.5t-3 44z" />
<glyph unicode="&#xa5;" horiz-adv-x="679" d="M20 1610q0 28 70 28q58 0 75.5 -12.5t27.5 -46.5l102 -340q17 -57 25.5 -73.5t19.5 -16.5q16 0 45 90l102 340q10 34 27.5 46.5t75.5 12.5q39 0 54 -7t15 -21q0 -7 -8 -31l-188 -621q-39 -125 -39 -176v-57h164q24 0 34 -3t17.5 -20t7.5 -55q0 -28 -3 -44t-12.5 -22.5 t-17.5 -8t-26 -1.5h-164v-122h164q24 0 34 -3t17.5 -20t7.5 -55q0 -28 -3 -44t-12.5 -22.5t-17.5 -8t-26 -1.5h-164v-236q0 -18 -1.5 -26t-9 -17.5t-25 -12.5t-48.5 -3q-38 0 -56 7.5t-21 17.5t-3 34v236h-166q-18 0 -26 1.5t-17.5 8t-12.5 22.5t-3 44q0 38 7.5 55t17.5 20 t34 3h166v122h-166q-18 0 -26 1.5t-17.5 8t-12.5 22.5t-3 44q0 38 7.5 55t17.5 20t34 3h166v57q0 5 -0.5 10.5t-1 10.5t-2 12.5l-2.5 12.5t-4 15t-4.5 16t-5.5 19.5t-6.5 21.5t-8 25.5t-8.5 28.5l-188 625q-9 27 -9 31z" />
<glyph unicode="&#xa6;" horiz-adv-x="348" d="M92 59v574q0 24 3 34t21 17.5t56 7.5q31 0 48.5 -3t25 -12.5t9 -17.5t1.5 -26v-574q0 -18 -1.5 -26t-9 -17.5t-25 -12.5t-48.5 -3q-38 0 -56 7.5t-21 17.5t-3 34zM92 1010v569q0 24 3 34t21 17.5t56 7.5q31 0 48.5 -3t25 -12.5t9 -17.5t1.5 -26v-569q0 -24 -3 -34 t-22 -18t-59 -8q-38 0 -56 8t-21 18t-3 34z" />
<glyph unicode="&#xa7;" horiz-adv-x="819" d="M72 299v137q0 38 7 55t16.5 20t33.5 3h47q18 0 26.5 -1.5t17.5 -8.5t12.5 -23t3.5 -45v-117q0 -186 176 -186q85 0 128.5 48t43.5 138v177q0 41 -28 87t-73.5 89.5t-100 89.5t-109 93t-100 93t-73.5 97.5t-28 99.5v194q0 140 85.5 230t250.5 90q156 0 248 -83t92 -237 v-96q0 -38 -7.5 -55t-17 -20t-33.5 -3h-47q-24 0 -34 3t-17.5 20t-7.5 55v76q0 186 -176 186q-85 0 -128.5 -48t-43.5 -138v-123q0 -41 28 -87t73.5 -90t100 -90t109 -93t100 -93.5t73.5 -97.5t28 -98v-248q0 -140 -85.5 -229.5t-250.5 -89.5q-156 0 -248 83t-92 236z" />
<glyph unicode="&#xa8;" horiz-adv-x="681" d="M109 1835q0 39 1 57t10 28.5t18.5 11.5t35.5 1h62q26 0 35.5 -1t18.5 -11.5t10 -28.5t1 -57q0 -69 -9.5 -81.5t-55.5 -12.5h-62q-46 0 -55.5 12.5t-9.5 81.5zM383 1835q0 51 5 70t16 23.5t45 4.5h61q26 0 35.5 -1t18.5 -11.5t10 -28.5t1 -57q0 -69 -9.5 -81.5 t-55.5 -12.5h-61q-26 0 -36 1t-18.5 11t-10 27.5t-1.5 54.5z" />
<glyph unicode="&#xa9;" horiz-adv-x="1904" d="M102 823q0 172 68 329t182.5 270.5t272 181t329.5 67.5q231 0 426 -114t308.5 -309t113.5 -425q0 -172 -67.5 -329.5t-181 -271.5t-270.5 -181.5t-329 -67.5t-329.5 67.5t-272 181.5t-182.5 271.5t-68 329.5zM246 823q0 -143 56 -275t151 -228t226 -153.5t275 -57.5 q193 0 356 97t257 261t94 356q0 144 -55.5 275.5t-150 227.5t-225.5 153t-276 57q-144 0 -275 -57t-226 -153t-151 -228t-56 -275zM629 627v385q0 140 85.5 229.5t250.5 89.5q168 0 254 -88.5t86 -230.5q0 -39 -17 -48.5t-69 -9.5q-78 0 -78 37q0 91 -44.5 139t-131.5 48 q-85 0 -128.5 -48.5t-43.5 -138.5v-344q0 -90 43.5 -138t128.5 -48q176 0 176 186q0 37 78 37q52 0 69 -9t17 -48q0 -142 -86.5 -231t-253.5 -89q-165 0 -250.5 90t-85.5 230z" />
<glyph unicode="&#xaa;" horiz-adv-x="819" d="M82 299v1040q0 140 85.5 230t250.5 90q156 0 248 -83t92 -237v-172q0 -29 -3 -45t-12 -23t-16.5 -8t-26.5 -1h-47q-19 0 -26.5 1t-17 8t-12.5 23t-3 45v152q0 186 -176 186q-85 0 -128.5 -48t-43.5 -138v-1000q0 -90 43.5 -138t128.5 -48q176 0 176 186v130q0 29 3 45 t12.5 23t17 8t26.5 1h47q19 0 26.5 -1t16.5 -8t12 -23t3 -45v-150q0 -153 -92 -236t-248 -83q-165 0 -250.5 89.5t-85.5 229.5z" />
<glyph unicode="&#xab;" horiz-adv-x="843" d="M20 756q0 31 64 92l217 217q25 25 39 25q20 0 57 -38t37 -57q0 -15 -24 -39l-201 -200l201 -201q24 -24 24 -39q0 -20 -38.5 -57t-57.5 -37q-13 0 -37 24l-217 218q-35 35 -49.5 54.5t-14.5 37.5zM410 756q0 32 63 92l217 217q25 25 39 25q20 0 57 -38t37 -57 q0 -15 -24 -39l-201 -200l201 -201q24 -24 24 -39q0 -20 -38.5 -57t-57.5 -37q-13 0 -37 24l-217 218q-35 35 -49 54.5t-14 37.5z" />
<glyph unicode="&#xac;" horiz-adv-x="792" d="M51 315v78q0 17 5.5 46t10 49.5t14.5 56.5t11 41l246 987q11 44 26.5 53.5t61.5 9.5q45 0 58.5 -12t13.5 -45q0 -5 -2.5 -18.5t-11 -48t-20 -80.5t-33.5 -133t-47.5 -187t-66 -262t-84.5 -340q-14 -63 -14 -72q0 -47 47 -47h174q25 0 34 7.5t9 31.5v307q0 24 3 34t21 18 t56 8q40 0 59 -8t22 -18t3 -34v-307q0 -25 5 -32t20 -7q24 0 34 -3t17.5 -20t7.5 -55q0 -28 -3 -43.5t-12.5 -22.5t-17 -8t-26.5 -1q-15 0 -20 -7t-5 -32v-140q0 -18 -1.5 -26t-9 -17.5t-25 -12.5t-48.5 -3q-38 0 -56 7.5t-21 17.5t-3 34v138q0 24 -8 32.5t-31 8.5h-335 q-19 0 -26.5 1t-16.5 8t-12 23t-3 45z" />
<glyph unicode="&#xad;" horiz-adv-x="591" d="M41 829q0 38 7.5 55t17.5 20t34 3h392q24 0 34 -3t17.5 -20t7.5 -55q0 -28 -3 -43.5t-12.5 -22.5t-17 -8t-26.5 -1h-392q-19 0 -26.5 1t-17 8t-12.5 22.5t-3 43.5z" />
<glyph unicode="&#xae;" horiz-adv-x="1904" d="M102 823q0 172 68 329t182.5 270.5t272 181t329.5 67.5q231 0 426 -114t308.5 -309t113.5 -425q0 -172 -67.5 -329.5t-181 -271.5t-270.5 -181.5t-329 -67.5t-329.5 67.5t-272 181.5t-182.5 271.5t-68 329.5zM246 823q0 -143 56 -275t151 -228t226 -153.5t275 -57.5 q193 0 356 97t257 261t94 356q0 144 -55.5 275.5t-150 227.5t-225.5 153t-276 57q-144 0 -275 -57t-226 -153t-151 -228t-56 -275zM707 309v985q0 38 7 55t16.5 20t33.5 3h262q86 0 139.5 -15t82 -49.5t38.5 -78.5t10 -115v-137q0 -148 -36 -200.5t-154 -53.5l156 -414 q8 -16 8 -35q0 -24 -70 -24q-55 0 -72.5 12.5t-29.5 46.5l-125 332q-15 41 -28.5 59.5t-35.5 18.5t-30.5 -11.5t-8.5 -39.5v-359q0 -18 -1.5 -26t-9 -17.5t-25 -12.5t-48.5 -3q-29 0 -46 3t-24 12.5t-8 17t-1 26.5zM870 924q0 -31 10.5 -41.5t41.5 -10.5h71q50 0 77 5t42 24 t18 43t3 74v55q0 50 -3 74t-18 43t-42 24t-77 5h-71q-31 0 -41.5 -10.5t-10.5 -41.5v-243z" />
<glyph unicode="&#xaf;" horiz-adv-x="1019" d="M205 1794q0 39 9 48t34 9h524q18 0 25 -2t12.5 -15t5.5 -40t-5.5 -39t-12.5 -14t-25 -2h-524q-18 0 -25 2t-12.5 14t-5.5 39z" />
<glyph unicode="&#xb0;" horiz-adv-x="585" d="M51 1180v110q0 101 61 165.5t179 64.5q119 0 181.5 -64.5t62.5 -165.5v-110q0 -103 -62 -167.5t-182 -64.5q-118 0 -179 65t-61 167zM188 1214q0 -68 23 -101.5t80 -33.5q60 0 83 32.5t23 102.5v41q0 69 -23 102.5t-83 33.5q-57 0 -80 -34.5t-23 -101.5v-41z" />
<glyph unicode="&#xb1;" horiz-adv-x="919" d="M41 330q0 38 7.5 55t17.5 20t34 3h719q18 0 26.5 -1.5t17.5 -8.5t12.5 -23t3.5 -45q0 -28 -3.5 -44t-12.5 -22.5t-17.5 -8t-26.5 -1.5h-719q-18 0 -26 1.5t-17.5 8t-12.5 22.5t-3 44zM41 983q0 38 7.5 55t17.5 20t34 3h234q24 0 32.5 11.5t8.5 39.5v231q0 33 15 46.5 t69 13.5q53 0 66.5 -13t13.5 -47v-231q0 -27 8.5 -39t30.5 -12h241q18 0 26.5 -1.5t17.5 -8.5t12.5 -23t3.5 -45q0 -28 -3.5 -44t-12.5 -22.5t-17.5 -8t-26.5 -1.5h-241q-22 0 -30.5 -12t-8.5 -39v-231q0 -34 -13.5 -47t-66.5 -13q-54 0 -69 13.5t-15 46.5v231 q0 28 -8.5 39.5t-32.5 11.5h-234q-18 0 -26 1.5t-17.5 8t-12.5 22.5t-3 44z" />
<glyph unicode="&#xb2;" horiz-adv-x="559" d="M51 729v182q0 49 34 103.5t82.5 101t97 91t82.5 88.5t34 79v21q0 73 -22.5 109t-75.5 36q-55 0 -79 -36t-24 -109q0 -29 -61 -29q-41 0 -54.5 7.5t-13.5 37.5q0 114 56 182t176 68q116 0 170.5 -69t54.5 -181v-78q0 -40 -34 -89t-82 -95.5l-96 -93t-82 -95.5t-34 -88v-45 q0 -23 8 -31t33 -8h242q14 0 20 -1t13 -6.5t9.5 -17.5t2.5 -34t-2.5 -35t-9.5 -18.5t-13 -6.5t-20 -1h-367q-19 0 -26.5 2.5t-13 15.5t-5.5 43z" />
<glyph unicode="&#xb3;" horiz-adv-x="614" d="M51 897q0 30 13.5 37.5t52.5 7.5q61 0 61 -29q0 -145 135 -145q64 0 88.5 35.5t24.5 109.5v54q0 72 -20.5 108.5t-73.5 36.5h-21q-15 0 -21 1t-13.5 6t-10 17t-2.5 33q0 42 10 52t37 10h21q51 0 72.5 35t21.5 108v25q0 74 -24.5 108.5t-88.5 34.5q-135 0 -135 -143 q0 -29 -61 -29q-39 0 -52.5 7.5t-13.5 37.5q0 110 66.5 178t195.5 68q127 0 183.5 -67.5t56.5 -178.5v-57q0 -120 -78 -189q78 -63 78 -186v-86q0 -113 -56.5 -180.5t-183.5 -67.5q-129 0 -195.5 69t-66.5 179z" />
<glyph unicode="&#xb4;" horiz-adv-x="749" d="M209 1819q0 10 18 28l209 209q19 19 29 19q16 0 47 -29.5t31 -46.5q0 -10 -19 -29l-209 -209q-18 -18 -28 -18q-16 0 -47 29.5t-31 46.5z" />
<glyph unicode="&#xb5;" horiz-adv-x="917" d="M92 59v1520q0 24 3 34t21 17.5t56 7.5q41 0 62.5 -7.5t28 -17.5t13.5 -34l121 -391q21 -67 34.5 -90t29.5 -23q15 0 27.5 22t33.5 91l119 391q7 24 13.5 34t28 17.5t62.5 7.5q38 0 56 -7.5t21 -17.5t3 -34v-1520q0 -24 -3 -34t-21 -17.5t-56 -7.5q-31 0 -48.5 3 t-24.5 12.5t-8.5 17t-1.5 26.5v949q0 51 -15 51q-16 0 -31 -51l-75 -250q-35 -115 -51.5 -154t-30.5 -39q-16 0 -30.5 35.5t-51.5 157.5l-76 250q-15 51 -31 51q-9 0 -11.5 -11t-2.5 -40v-949q0 -18 -1.5 -26t-9 -17.5t-25 -12.5t-48.5 -3q-38 0 -56 7.5t-21 17.5t-3 34z " />
<glyph unicode="&#xb6;" horiz-adv-x="886" d="M61 1073v246q0 69 6 116t23 88.5t47 65t78 36.5t117 13h405q19 0 26.5 -1t16.5 -8t12 -23t3 -45v-1502q0 -24 -3 -34t-21 -17.5t-56 -7.5q-31 0 -48.5 3t-25 12.5t-9 17.5t-1.5 26v1375q0 31 -10 41t-41 10q-28 0 -39 -10.5t-11 -40.5l2 -1375q0 -19 -1.5 -26.5t-8.5 -17 t-24.5 -12.5t-48.5 -3q-38 0 -56 7.5t-21 17.5t-3 34v654q0 28 -7.5 34.5t-31.5 6.5q-86 0 -139.5 18.5t-82 61.5t-38 97.5t-9.5 141.5z" />
<glyph unicode="&#xb7;" horiz-adv-x="274" d="M41 817q0 39 1 57t10 28.5t18.5 11.5t35.5 1h62q26 0 35.5 -1t18.5 -11.5t10 -28.5t1 -57q0 -69 -9.5 -81.5t-55.5 -12.5h-62q-46 0 -55.5 12.5t-9.5 81.5z" />
<glyph unicode="&#xb8;" horiz-adv-x="659" d="M313 -141q0 23 4 35l39 147q6 25 14.5 30t35.5 5q26 0 33 -6t7 -25q0 -10 -34 -141q91 0 136.5 -48.5t45.5 -123.5v-13q0 -75 -45.5 -123.5t-134.5 -48.5h-64q-21 0 -29 7t-8 34t8 34t29 7h64q44 0 68 25t24 74q0 52 -23.5 73t-68.5 21h-64q-21 0 -29 6.5t-8 30.5z" />
<glyph unicode="&#xb9;" horiz-adv-x="399" d="M20 727q0 42 10.5 53t37.5 11h26q25 0 33 7.5t8 32.5v637q0 26 -12 35.5t-26 7t-26 3t-12 24.5v27q0 6 2 9.5t4 4.5t5 3l4 1q46 11 59 37q6 12 11 15t16 3h57q15 0 21 -1t13.5 -6.5t10 -18.5t2.5 -35l2 -746q0 -25 8 -32.5t33 -7.5h25q27 0 37 -11t10 -53q0 -39 -10 -48 t-37 -9h-264q-15 0 -21.5 1t-14 6t-10 17t-2.5 33z" />
<glyph unicode="&#xba;" horiz-adv-x="585" d="M51 881v192q0 101 61 165.5t179 64.5q119 0 181.5 -64.5t62.5 -165.5v-192q0 -103 -62 -167.5t-182 -64.5q-118 0 -179 65t-61 167zM96 422q0 33 5.5 47.5t12.5 17t25 2.5h305q14 0 20 -1t13 -7t9.5 -20t2.5 -39q0 -32 -6 -46.5t-13.5 -17t-25.5 -2.5h-305q-25 0 -34 11 t-9 55zM188 915q0 -68 23 -101.5t80 -33.5q60 0 83 32.5t23 102.5v123q0 69 -23 102.5t-83 33.5q-57 0 -80 -34.5t-23 -101.5v-123z" />
<glyph unicode="&#xbb;" horiz-adv-x="843" d="M20 516q0 14 25 39l201 201l-201 200q-25 25 -25 39q0 20 39 57.5t58 37.5q12 0 37 -25l217 -217q35 -35 49 -54.5t14 -37.5q0 -32 -63 -92l-217 -218q-24 -24 -39 -24q-20 0 -57.5 37.5t-37.5 56.5zM410 516q0 15 24 39l201 201l-201 200q-24 24 -24 39q0 20 38.5 57.5 t57.5 37.5q12 0 37 -25l217 -217q35 -35 49 -54.5t14 -37.5q0 -32 -63 -92l-217 -218q-24 -24 -39 -24q-20 0 -57 37.5t-37 56.5z" />
<glyph unicode="&#xbc;" horiz-adv-x="1157" d="M20 748q0 42 10.5 52.5t37.5 10.5h26q25 0 33 8t8 33v637q0 26 -12 35.5t-26 7t-26 3t-12 24.5v26q0 5 1 8t3 5t4 3l4 2t3 1q47 11 59 36q9 19 27 19h57q19 0 27 -2.5t14 -16.5t6 -43l2 -745q0 -25 8 -33t33 -8h25q18 0 26.5 -3t14.5 -17t6 -43q0 -21 -2.5 -33 t-9.5 -17.5t-14 -6.5t-21 -1h-264q-14 0 -21 1t-14.5 6.5t-10 17.5t-2.5 33zM172 57q0 22 23 70l725 1475q14 38 45 38q23 0 41 -21.5t18 -53.5q0 -23 -12 -47l-727 -1473q-20 -45 -62 -45q-22 0 -36.5 14.5t-14.5 42.5zM678 188v88q0 11 3 26t6 26.5t9 32t9 32.5l151 531 q7 25 23 37t55 12h67q33 0 48 -6t17.5 -14t2.5 -27v-617q0 -19 4.5 -24.5t16.5 -5.5q19 0 27 -2.5t14 -16.5t6 -43q0 -22 -2.5 -35t-10 -18.5t-13.5 -6.5t-21 -1q-12 0 -16.5 -5.5t-4.5 -25.5v-76q0 -19 -2.5 -27t-17.5 -14t-48 -6q-30 0 -44 6t-16.5 14t-2.5 27v74 q0 19 -6.5 26t-24.5 7h-202q-17 0 -22 6t-5 26zM819 311q0 -19 6 -25.5t23 -6.5h55q21 0 28 6t7 24v199q0 192 -6 192q-9 0 -47 -133q-7 -24 -25 -84t-29.5 -100t-11.5 -45v-27z" />
<glyph unicode="&#xbd;" horiz-adv-x="1286" d="M20 748q0 42 10.5 52.5t37.5 10.5h26q25 0 33 8t8 33v637q0 26 -12 35.5t-26 7t-26 3t-12 24.5v26q0 5 1 8t3 5t4 3l4 2t3 1q47 11 59 36q9 19 27 19h57q19 0 27 -2.5t14 -16.5t6 -43l2 -745q0 -25 8 -33t33 -8h25q18 0 26.5 -3t14.5 -17t6 -43q0 -21 -2.5 -33 t-9.5 -17.5t-14 -6.5t-21 -1h-264q-14 0 -21 1t-14.5 6.5t-10 17.5t-2.5 33zM172 57q0 22 23 70l725 1475q14 38 45 38q23 0 41 -21.5t18 -53.5q0 -23 -12 -47l-727 -1473q-20 -45 -62 -45q-22 0 -36.5 14.5t-14.5 42.5zM778 61v183q0 49 34 103.5t82.5 101t97 91t82.5 88.5 t34 79v20q0 73 -22.5 109t-75.5 36q-55 0 -79 -36t-24 -109q0 -29 -61 -29q-41 0 -54.5 7.5t-13.5 37.5q0 114 56 182t176 68q116 0 170.5 -69t54.5 -181v-77q0 -40 -34 -89t-82 -95.5l-96 -93t-82 -95.5t-34 -88v-45q0 -23 8 -31t33 -8h242q18 0 25.5 -2.5t13.5 -16 t6 -41.5q0 -22 -2.5 -35t-9.5 -18.5t-13 -6.5t-20 -1h-367q-19 0 -26.5 2.5t-13 15.5t-5.5 43z" />
<glyph unicode="&#xbe;" horiz-adv-x="1308" d="M51 897q0 30 13.5 37.5t52.5 7.5q61 0 61 -29q0 -145 135 -145q64 0 88.5 35.5t24.5 109.5v54q0 72 -20.5 108.5t-73.5 36.5h-21q-15 0 -21 1t-13.5 6t-10 17t-2.5 33q0 42 10 52t37 10h21q51 0 72.5 35t21.5 108v25q0 74 -24.5 108.5t-88.5 34.5q-135 0 -135 -143 q0 -29 -61 -29q-39 0 -52.5 7.5t-13.5 37.5q0 110 66.5 178t195.5 68q127 0 183.5 -67.5t56.5 -178.5v-57q0 -120 -78 -189q78 -63 78 -186v-86q0 -113 -56.5 -180.5t-183.5 -67.5q-129 0 -195.5 69t-66.5 179zM324 57q0 24 22 70l725 1475q14 38 45 38q23 0 41.5 -21.5 t18.5 -53.5q0 -21 -13 -47l-727 -1473q-20 -45 -61 -45q-22 0 -36.5 14.5t-14.5 42.5zM829 188v88q0 11 3 26t6 26.5t9 32t9 32.5l152 531q7 26 22.5 37.5t54.5 11.5h68q33 0 48 -6t17.5 -14t2.5 -27v-617q0 -19 4.5 -24.5t15.5 -5.5q19 0 27 -2.5t14 -16.5t6 -43 q0 -22 -2.5 -35t-10 -18.5t-13.5 -6.5t-21 -1q-12 0 -16 -5.5t-4 -25.5v-76q0 -19 -2.5 -27t-17.5 -14t-48 -6q-30 0 -44 6t-16.5 14t-2.5 27v74q0 19 -6.5 26t-24.5 7h-203q-17 0 -22 6t-5 26zM971 311q0 -19 5.5 -25.5t22.5 -6.5h56q21 0 28 6t7 24v199q0 192 -7 192 q-9 0 -47 -133q-65 -227 -65 -229v-27z" />
<glyph unicode="&#xbf;" horiz-adv-x="684" d="M51 -111v236q0 60 21.5 110.5t56 86t76 67.5t82.5 63t75.5 63.5t56 78t21.5 98.5v109q0 18 1.5 26t9 17.5t25 12.5t48.5 3q38 0 56 -7.5t21 -17.5t3 -34v-160q0 -60 -21.5 -110t-56 -85.5t-76 -67.5t-82.5 -63t-75.5 -64t-56 -78.5t-21.5 -98.5v-164q0 -89 40.5 -137.5 t111.5 -48.5q73 0 114 48t41 138q0 37 78 37q52 0 69 -9.5t17 -48.5q0 -141 -82.5 -230t-236.5 -89q-152 0 -234 90t-82 229zM440 1135q0 37 1.5 54.5t10 27.5t18.5 11t36 1h33q46 0 55.5 -12.5t9.5 -81.5q0 -72 -9.5 -85.5t-55.5 -13.5h-33q-18 0 -26 0.5t-17.5 3.5 t-12 8.5t-6 17.5t-4 27.5t-0.5 41.5z" />
<glyph unicode="&#xc0;" horiz-adv-x="716" d="M20 31q0 13 3 28l235 1463q6 32 10.5 48.5t14.5 34.5t27.5 25.5t45.5 7.5q30 0 50 -9.5t30.5 -29t14.5 -35t8 -42.5l235 -1463q2 -10 2 -28q0 -31 -71 -31q-57 0 -72.5 12.5t-20.5 46.5l-26 162q-5 33 -51 33h-195q-23 0 -34.5 -7t-14.5 -26l-27 -162q-4 -24 -8.5 -34 t-24.5 -17.5t-59 -7.5q-72 0 -72 31zM152 1999q0 17 31 46.5t46 29.5q10 0 29 -19l209 -209q18 -18 18 -28q0 -17 -31 -46.5t-46 -29.5q-11 0 -29 18l-209 209q-18 18 -18 29zM244 438q0 -18 12 -24t39 -6h131q25 0 36 6.5t11 23.5q0 4 -88 553q-7 47 -12 59.5t-15 12.5 t-14.5 -11.5t-11.5 -60.5q-69 -437 -87 -547z" />
<glyph unicode="&#xc1;" horiz-adv-x="716" d="M20 31q0 13 3 28l235 1463q6 32 10.5 48.5t14.5 34.5t27.5 25.5t45.5 7.5q30 0 50 -9.5t30.5 -29t14.5 -35t8 -42.5l235 -1463q2 -10 2 -28q0 -31 -71 -31q-57 0 -72.5 12.5t-20.5 46.5l-26 162q-5 33 -51 33h-195q-23 0 -34.5 -7t-14.5 -26l-27 -162q-4 -24 -8.5 -34 t-24.5 -17.5t-59 -7.5q-72 0 -72 31zM233 1819q0 9 19 28l209 209q19 19 28 19q16 0 47 -29.5t31 -46.5q0 -11 -18 -29l-209 -209q-18 -18 -29 -18q-16 0 -47 29.5t-31 46.5zM244 438q0 -18 12 -24t39 -6h131q25 0 36 6.5t11 23.5q0 4 -88 553q-7 47 -12 59.5t-15 12.5 t-14.5 -11.5t-11.5 -60.5q-69 -437 -87 -547z" />
<glyph unicode="&#xc2;" horiz-adv-x="716" d="M20 31q0 13 3 28l235 1463q6 32 10.5 48.5t14.5 34.5t27.5 25.5t45.5 7.5q30 0 50 -9.5t30.5 -29t14.5 -35t8 -42.5l235 -1463q2 -10 2 -28q0 -31 -71 -31q-57 0 -72.5 12.5t-20.5 46.5l-26 162q-5 33 -51 33h-195q-23 0 -34.5 -7t-14.5 -26l-27 -162q-4 -24 -8.5 -34 t-24.5 -17.5t-59 -7.5q-72 0 -72 31zM92 1819q0 9 19 28l200 201q26 29 47 29q22 0 48 -29l200 -201q21 -17 21 -30q0 -15 -31.5 -45.5t-46.5 -30.5q-12 0 -29 20l-162 160l-159 -160q-18 -18 -29 -18q-16 0 -47 29.5t-31 46.5zM244 438q0 -18 12 -24t39 -6h131q25 0 36 6.5 t11 23.5q0 4 -88 553q-7 47 -12 59.5t-15 12.5t-14.5 -11.5t-11.5 -60.5q-69 -437 -87 -547z" />
<glyph unicode="&#xc3;" horiz-adv-x="716" d="M20 31q0 13 3 28l235 1463q6 32 10.5 48.5t14.5 34.5t27.5 25.5t45.5 7.5q30 0 50 -9.5t30.5 -29t14.5 -35t8 -42.5l235 -1463q2 -10 2 -28q0 -31 -71 -31q-57 0 -72.5 12.5t-20.5 46.5l-26 162q-5 33 -51 33h-195q-23 0 -34.5 -7t-14.5 -26l-27 -162q-4 -24 -8.5 -34 t-24.5 -17.5t-59 -7.5q-72 0 -72 31zM78 1780q0 4 1 7t2.5 6l2.5 5q27 69 81 105t109 36q32 0 102 -38.5t89 -38.5t38 8.5t28.5 15.5t27.5 24t21 19q6 6 16 6q15 0 28 -12t13 -27q0 -6 -4 -18q-24 -68 -78 -103.5t-109 -35.5q-28 0 -95.5 39t-92.5 39q-21 0 -40 -8.5 t-30 -17.5t-27 -25t-22 -21q-8 -8 -20 -8q-14 0 -27.5 14t-13.5 29zM244 438q0 -18 12 -24t39 -6h131q25 0 36 6.5t11 23.5q0 4 -88 553q-7 47 -12 59.5t-15 12.5t-14.5 -11.5t-11.5 -60.5q-69 -437 -87 -547z" />
<glyph unicode="&#xc4;" horiz-adv-x="716" d="M20 31q0 13 3 28l235 1463q6 32 10.5 48.5t14.5 34.5t27.5 25.5t45.5 7.5q30 0 50 -9.5t30.5 -29t14.5 -35t8 -42.5l235 -1463q2 -10 2 -28q0 -31 -71 -31q-57 0 -72.5 12.5t-20.5 46.5l-26 162q-5 33 -51 33h-195q-23 0 -34.5 -7t-14.5 -26l-27 -162q-4 -24 -8.5 -34 t-24.5 -17.5t-59 -7.5q-72 0 -72 31zM125 1835q0 39 1 57t10 28.5t18.5 11.5t35.5 1h62q26 0 35.5 -1t18.5 -11.5t10 -28.5t1 -57q0 -69 -9.5 -81.5t-55.5 -12.5h-62q-46 0 -55.5 12.5t-9.5 81.5zM244 438q0 -18 12 -24t39 -6h131q25 0 36 6.5t11 23.5q0 4 -88 553 q-7 47 -12 59.5t-15 12.5t-14.5 -11.5t-11.5 -60.5q-69 -437 -87 -547zM399 1835q0 51 5 70t16 23.5t45 4.5h61q26 0 36 -1t18.5 -11.5t10 -28.5t1.5 -57q0 -37 -1.5 -54.5t-10 -27.5t-18.5 -11t-36 -1h-61q-26 0 -36 1t-18.5 11t-10 27.5t-1.5 54.5z" />
<glyph unicode="&#xc5;" horiz-adv-x="716" d="M20 31q0 13 3 28l235 1463q6 32 10.5 48.5t14.5 34.5t27.5 25.5t45.5 7.5q30 0 50 -9.5t30.5 -29t14.5 -35t8 -42.5l235 -1463q2 -10 2 -28q0 -31 -71 -31q-57 0 -72.5 12.5t-20.5 46.5l-26 162q-5 33 -51 33h-195q-23 0 -34.5 -7t-14.5 -26l-27 -162q-4 -24 -8.5 -34 t-24.5 -17.5t-59 -7.5q-72 0 -72 31zM117 1911v49q0 101 60.5 165t178.5 64q119 0 181.5 -64t62.5 -165v-49q0 -103 -62 -167.5t-182 -64.5q-118 0 -178.5 65t-60.5 167zM233 1925q0 -65 31.5 -100t91.5 -35q127 0 127 135v21q0 65 -32.5 100t-94.5 35q-59 0 -91 -35.5 t-32 -99.5v-21zM244 438q0 -18 12 -24t39 -6h131q25 0 36 6.5t11 23.5q0 4 -88 553q-7 47 -12 59.5t-15 12.5t-14.5 -11.5t-11.5 -60.5q-69 -437 -87 -547z" />
<glyph unicode="&#xc6;" horiz-adv-x="1247" d="M20 27q0 5 9 32l465 1463q8 25 14.5 41.5t18.5 35.5t30 29t41 10h569q19 0 26.5 -1t17.5 -8t13 -23t3 -45q0 -28 -3.5 -44t-12.5 -22.5t-17.5 -8t-26.5 -1.5h-415q-31 0 -41.5 -10t-10.5 -41v-476q0 -31 10.5 -41t41.5 -10h217q24 0 34 -3t17.5 -20t7.5 -55 q0 -28 -3 -43.5t-12.5 -22.5t-17 -8t-26.5 -1h-217q-29 0 -40.5 -8.5t-11.5 -32.5v-508q0 -31 10.5 -41t41.5 -10h415q18 0 26.5 -1.5t17.5 -8t12.5 -22.5t3.5 -44q0 -29 -3.5 -45t-12.5 -23t-17.5 -8.5t-26.5 -1.5h-573q-24 0 -33.5 3t-16.5 20t-7 55v143q0 33 -45 33h-197 q-45 0 -55 -33l-52 -162q-10 -33 -28 -46t-72 -13q-68 0 -68 27zM305 438q0 -18 11.5 -24t37.5 -6h131q52 0 52 30v553q0 32 -2 48t-5 20t-10 4q-10 0 -16.5 -12t-20.5 -60q-108 -341 -168 -521q-10 -30 -10 -32z" />
<glyph unicode="&#xc7;" horiz-adv-x="808" d="M82 299v1040q0 140 85.5 230t250.5 90q167 0 253.5 -89t86.5 -231q0 -39 -17 -48t-69 -9q-78 0 -78 37q0 186 -176 186q-85 0 -128.5 -48t-43.5 -138v-1000q0 -90 43.5 -138t128.5 -48q176 0 176 186q0 37 78 37q52 0 69 -9t17 -48q0 -137 -79.5 -223.5t-236.5 -93.5 l-18 -78q89 0 135.5 -48.5t46.5 -123.5v-13q0 -75 -45.5 -123.5t-134.5 -48.5h-64q-21 0 -28.5 7t-7.5 34t7.5 34t28.5 7h64q44 0 68 25t24 74q0 52 -23.5 73t-68.5 21h-64q-21 0 -28.5 6.5t-7.5 30.5q0 23 4 35l22 90q-134 18 -202 103.5t-68 211.5z" />
<glyph unicode="&#xc8;" horiz-adv-x="833" d="M92 78v1483q0 29 3 45t12 23t16.5 8t26.5 1h593q19 0 26.5 -1t17.5 -8t13 -23t3 -45q0 -28 -3.5 -44t-12.5 -22.5t-17.5 -8t-26.5 -1.5h-436q-31 0 -41 -10t-10 -41v-476q0 -31 10 -41t41 -10h217q18 0 26.5 -1.5t17.5 -8.5t12.5 -23t3.5 -45q0 -28 -3 -44t-13 -22.5 t-17.5 -7.5t-26.5 -1h-217q-29 0 -40 -8.5t-11 -32.5v-508q0 -31 10 -41t41 -10h436q18 0 26.5 -1.5t17.5 -8t12.5 -22.5t3.5 -44q0 -29 -3.5 -45t-12.5 -23t-17.5 -8.5t-26.5 -1.5h-593q-24 0 -33.5 3t-17 20t-7.5 55zM244 1999q0 17 31 46.5t47 29.5q9 0 28 -19l209 -209 q19 -19 19 -28q0 -17 -31 -46.5t-47 -29.5q-11 0 -29 18l-209 209q-18 18 -18 29z" />
<glyph unicode="&#xc9;" horiz-adv-x="833" d="M92 78v1483q0 29 3 45t12 23t16.5 8t26.5 1h593q19 0 26.5 -1t17.5 -8t13 -23t3 -45q0 -28 -3.5 -44t-12.5 -22.5t-17.5 -8t-26.5 -1.5h-436q-31 0 -41 -10t-10 -41v-476q0 -31 10 -41t41 -10h217q18 0 26.5 -1.5t17.5 -8.5t12.5 -23t3.5 -45q0 -28 -3 -44t-13 -22.5 t-17.5 -7.5t-26.5 -1h-217q-29 0 -40 -8.5t-11 -32.5v-508q0 -31 10 -41t41 -10h436q18 0 26.5 -1.5t17.5 -8t12.5 -22.5t3.5 -44q0 -29 -3.5 -45t-12.5 -23t-17.5 -8.5t-26.5 -1.5h-593q-24 0 -33.5 3t-17 20t-7.5 55zM346 1819q0 9 19 28l208 209q19 19 29 19 q16 0 47 -29.5t31 -46.5q0 -11 -18 -29l-209 -209q-18 -18 -29 -18q-16 0 -47 29.5t-31 46.5z" />
<glyph unicode="&#xca;" horiz-adv-x="833" d="M92 78v1483q0 29 3 45t12 23t16.5 8t26.5 1h593q19 0 26.5 -1t17.5 -8t13 -23t3 -45q0 -28 -3.5 -44t-12.5 -22.5t-17.5 -8t-26.5 -1.5h-436q-31 0 -41 -10t-10 -41v-476q0 -31 10 -41t41 -10h217q18 0 26.5 -1.5t17.5 -8.5t12.5 -23t3.5 -45q0 -28 -3 -44t-13 -22.5 t-17.5 -7.5t-26.5 -1h-217q-29 0 -40 -8.5t-11 -32.5v-508q0 -31 10 -41t41 -10h436q18 0 26.5 -1.5t17.5 -8t12.5 -22.5t3.5 -44q0 -29 -3.5 -45t-12.5 -23t-17.5 -8.5t-26.5 -1.5h-593q-24 0 -33.5 3t-17 20t-7.5 55zM184 1819q0 9 19 28l200 201q26 29 48 29q21 0 47 -29 l200 -201q21 -17 21 -30q0 -15 -31.5 -45.5t-46.5 -30.5q-12 0 -29 20l-161 160l-160 -160q-18 -18 -29 -18q-16 0 -47 29.5t-31 46.5z" />
<glyph unicode="&#xcb;" horiz-adv-x="833" d="M92 78v1483q0 29 3 45t12 23t16.5 8t26.5 1h593q19 0 26.5 -1t17.5 -8t13 -23t3 -45q0 -28 -3.5 -44t-12.5 -22.5t-17.5 -8t-26.5 -1.5h-436q-31 0 -41 -10t-10 -41v-476q0 -31 10 -41t41 -10h217q18 0 26.5 -1.5t17.5 -8.5t12.5 -23t3.5 -45q0 -28 -3 -44t-13 -22.5 t-17.5 -7.5t-26.5 -1h-217q-29 0 -40 -8.5t-11 -32.5v-508q0 -31 10 -41t41 -10h436q18 0 26.5 -1.5t17.5 -8t12.5 -22.5t3.5 -44q0 -29 -3.5 -45t-12.5 -23t-17.5 -8.5t-26.5 -1.5h-593q-24 0 -33.5 3t-17 20t-7.5 55zM219 1835q0 51 5 70t16 23.5t45 4.5h61q26 0 36 -1 t18.5 -11.5t10 -28.5t1.5 -57q0 -37 -1.5 -54.5t-10 -27.5t-18.5 -11t-36 -1h-61q-26 0 -36 1t-18.5 11t-10 27.5t-1.5 54.5zM494 1835q0 39 1 57t10 28.5t18.5 11.5t35.5 1h62q26 0 35.5 -1t18.5 -11.5t10 -28.5t1 -57q0 -69 -9.5 -81.5t-55.5 -12.5h-62q-46 0 -55.5 12.5 t-9.5 81.5z" />
<glyph unicode="&#xcc;" horiz-adv-x="530" d="M41 78q0 28 3 44t12.5 22.5t17.5 8t26 1.5h33q31 0 41 10t10 41v1229q0 31 -10 41t-41 10h-33q-18 0 -26 1.5t-17.5 8t-12.5 22.5t-3 44q0 29 3 45t12.5 23t17 8t26.5 1h330q19 0 26.5 -1t17 -8t12.5 -23t3 -45q0 -28 -3 -44t-12.5 -22.5t-17.5 -8t-26 -1.5h-31 q-31 0 -41 -10t-10 -41v-1229q0 -31 10 -41t41 -10h31q18 0 26 -1.5t17.5 -8t12.5 -22.5t3 -44q0 -38 -7.5 -55t-17.5 -20t-34 -3h-330q-24 0 -34 3t-17.5 20t-7.5 55zM57 1999q0 17 31 46.5t47 29.5q10 0 29 -19l209 -209q18 -18 18 -28q0 -17 -31 -46.5t-47 -29.5 q-10 0 -28 18l-209 209q-19 19 -19 29z" />
<glyph unicode="&#xcd;" horiz-adv-x="530" d="M41 78q0 28 3 44t12.5 22.5t17.5 8t26 1.5h33q31 0 41 10t10 41v1229q0 31 -10 41t-41 10h-33q-18 0 -26 1.5t-17.5 8t-12.5 22.5t-3 44q0 29 3 45t12.5 23t17 8t26.5 1h330q19 0 26.5 -1t17 -8t12.5 -23t3 -45q0 -28 -3 -44t-12.5 -22.5t-17.5 -8t-26 -1.5h-31 q-31 0 -41 -10t-10 -41v-1229q0 -31 10 -41t41 -10h31q18 0 26 -1.5t17.5 -8t12.5 -22.5t3 -44q0 -38 -7.5 -55t-17.5 -20t-34 -3h-330q-24 0 -34 3t-17.5 20t-7.5 55zM180 1819q0 9 19 28l209 209q19 19 28 19q16 0 47 -29.5t31 -46.5q0 -11 -18 -29l-209 -209 q-18 -18 -29 -18q-16 0 -47 29.5t-31 46.5z" />
<glyph unicode="&#xce;" horiz-adv-x="530" d="M-2 1819q0 10 18 28l201 201q26 29 47 29t47 -29l201 -201q20 -17 20 -30q0 -15 -31 -45.5t-46 -30.5q-12 0 -29 20l-162 160l-160 -160q-18 -18 -28 -18q-16 0 -47 29.5t-31 46.5zM41 78q0 28 3 44t12.5 22.5t17.5 8t26 1.5h33q31 0 41 10t10 41v1229q0 31 -10 41 t-41 10h-33q-18 0 -26 1.5t-17.5 8t-12.5 22.5t-3 44q0 29 3 45t12.5 23t17 8t26.5 1h330q19 0 26.5 -1t17 -8t12.5 -23t3 -45q0 -28 -3 -44t-12.5 -22.5t-17.5 -8t-26 -1.5h-31q-31 0 -41 -10t-10 -41v-1229q0 -31 10 -41t41 -10h31q18 0 26 -1.5t17.5 -8t12.5 -22.5t3 -44 q0 -38 -7.5 -55t-17.5 -20t-34 -3h-330q-24 0 -34 3t-17.5 20t-7.5 55z" />
<glyph unicode="&#xcf;" horiz-adv-x="530" d="M33 1835q0 39 1 57t10 28.5t18.5 11.5t35.5 1h62q26 0 35.5 -1t18.5 -11.5t10 -28.5t1 -57q0 -69 -9.5 -81.5t-55.5 -12.5h-62q-46 0 -55.5 12.5t-9.5 81.5zM41 78q0 28 3 44t12.5 22.5t17.5 8t26 1.5h33q31 0 41 10t10 41v1229q0 31 -10 41t-41 10h-33q-18 0 -26 1.5 t-17.5 8t-12.5 22.5t-3 44q0 29 3 45t12.5 23t17 8t26.5 1h330q19 0 26.5 -1t17 -8t12.5 -23t3 -45q0 -28 -3 -44t-12.5 -22.5t-17.5 -8t-26 -1.5h-31q-31 0 -41 -10t-10 -41v-1229q0 -31 10 -41t41 -10h31q18 0 26 -1.5t17.5 -8t12.5 -22.5t3 -44q0 -38 -7.5 -55t-17.5 -20 t-34 -3h-330q-24 0 -34 3t-17.5 20t-7.5 55zM307 1835q0 51 5 70t16 23.5t45 4.5h61q26 0 36 -1t18.5 -11.5t10 -28.5t1.5 -57q0 -37 -1.5 -54.5t-10 -27.5t-18.5 -11t-36 -1h-61q-26 0 -36 1t-18.5 11t-10 27.5t-1.5 54.5z" />
<glyph unicode="&#xd0;" horiz-adv-x="845" d="M0 829q0 38 7.5 55t17.5 20t34 3h33v654q0 29 3 45t12 23t16.5 8t26.5 1h344q86 0 139.5 -18.5t82 -61.5t38.5 -97.5t10 -141.5v-1000q0 -87 -9.5 -141.5t-37.5 -97.5t-81.5 -61.5t-139.5 -18.5h-346q-24 0 -33.5 3t-17 20t-7.5 55v676h-33q-19 0 -26.5 1t-17 8 t-12.5 22.5t-3 43.5zM256 205q0 -31 10 -41t41 -10h154q29 0 49 3.5t35.5 9t25 18.5t16 26.5t9 38t3.5 48t1 62.5v918q0 55 -2 84t-9 57t-22.5 40t-40.5 19t-65 7h-154q-31 0 -41 -10t-10 -41v-527h113q24 0 34 -3t17.5 -20t7.5 -55q0 -28 -3 -43.5t-12.5 -22.5t-17 -8 t-26.5 -1h-113v-549z" />
<glyph unicode="&#xd1;" d="M92 59v1520q0 24 3 34t21 17.5t56 7.5q41 0 62.5 -7.5t28 -17.5t13.5 -34l285 -926q16 -51 29 -51q9 0 11.5 11t2.5 42v924q0 24 3 34t21 17.5t56 7.5q31 0 48.5 -3t25 -12.5t9 -17.5t1.5 -26v-1520q0 -23 -4 -33.5t-24.5 -18t-63.5 -7.5q-51 0 -69 13.5t-27 45.5 l-279 908q-15 51 -31 51q-9 0 -11.5 -11t-2.5 -40v-908q0 -18 -1.5 -26t-9 -17.5t-25 -12.5t-48.5 -3q-38 0 -56 7.5t-21 17.5t-3 34zM150 1780q0 4 1 7t2.5 6l2.5 5q27 69 81 105t109 36q32 0 102 -38.5t89 -38.5t37.5 8t28.5 16t27 24t21 19q6 6 17 6q15 0 28 -12t13 -27 q0 -6 -4 -18q-24 -68 -78 -103.5t-109 -35.5q-28 0 -95.5 39t-92.5 39q-21 0 -40 -8.5t-30 -17.5t-27 -25t-22 -21q-8 -8 -21 -8q-14 0 -27 14t-13 29z" />
<glyph unicode="&#xd2;" horiz-adv-x="839" d="M82 299v1040q0 140 85.5 230t250.5 90q167 0 253.5 -89.5t86.5 -230.5v-1040q0 -141 -86.5 -230t-253.5 -89q-165 0 -250.5 89.5t-85.5 229.5zM190 1999q0 17 31 46.5t47 29.5q10 0 29 -19l209 -209q18 -18 18 -28q0 -17 -31 -46.5t-47 -29.5q-10 0 -28 18l-209 209 q-19 19 -19 29zM246 319q0 -90 43.5 -138t128.5 -48q176 0 176 186v1000q0 186 -176 186q-85 0 -128.5 -48t-43.5 -138v-1000z" />
<glyph unicode="&#xd3;" horiz-adv-x="839" d="M82 299v1040q0 140 85.5 230t250.5 90q167 0 253.5 -89.5t86.5 -230.5v-1040q0 -141 -86.5 -230t-253.5 -89q-165 0 -250.5 89.5t-85.5 229.5zM246 319q0 -90 43.5 -138t128.5 -48q176 0 176 186v1000q0 186 -176 186q-85 0 -128.5 -48t-43.5 -138v-1000zM313 1819 q0 9 19 28l209 209q19 19 28 19q16 0 47 -29.5t31 -46.5q0 -11 -18 -29l-209 -209q-18 -18 -29 -18q-16 0 -47 29.5t-31 46.5z" />
<glyph unicode="&#xd4;" horiz-adv-x="839" d="M82 299v1040q0 140 85.5 230t250.5 90q167 0 253.5 -89.5t86.5 -230.5v-1040q0 -141 -86.5 -230t-253.5 -89q-165 0 -250.5 89.5t-85.5 229.5zM152 1819q0 10 18 28l201 201q26 29 47 29t47 -29l201 -201q20 -17 20 -30q0 -15 -31.5 -45.5t-46.5 -30.5q-11 0 -28 20 l-162 160l-160 -160q-18 -18 -29 -18q-15 0 -46 29.5t-31 46.5zM246 319q0 -90 43.5 -138t128.5 -48q176 0 176 186v1000q0 186 -176 186q-85 0 -128.5 -48t-43.5 -138v-1000z" />
<glyph unicode="&#xd5;" horiz-adv-x="839" d="M82 299v1040q0 140 85.5 230t250.5 90q167 0 253.5 -89.5t86.5 -230.5v-1040q0 -141 -86.5 -230t-253.5 -89q-165 0 -250.5 89.5t-85.5 229.5zM139 1780q0 4 1 7t2.5 6l2.5 5q27 69 81.5 105t109.5 36q32 0 101 -38.5t89 -38.5q19 0 38 8.5t28.5 15.5t27.5 24t21 19 q6 6 16 6q15 0 28 -12t13 -27q0 -6 -4 -18q-24 -68 -77.5 -103.5t-108.5 -35.5q-28 0 -96 39t-93 39q-21 0 -40 -8.5t-29.5 -17.5t-26.5 -25t-22 -21q-8 -8 -21 -8q-14 0 -27.5 14t-13.5 29zM246 319q0 -90 43.5 -138t128.5 -48q176 0 176 186v1000q0 186 -176 186 q-85 0 -128.5 -48t-43.5 -138v-1000z" />
<glyph unicode="&#xd6;" horiz-adv-x="839" d="M82 299v1040q0 140 85.5 230t250.5 90q167 0 253.5 -89.5t86.5 -230.5v-1040q0 -141 -86.5 -230t-253.5 -89q-165 0 -250.5 89.5t-85.5 229.5zM186 1835q0 51 5 70t16 23.5t45 4.5h61q26 0 36 -1t18.5 -11.5t10 -28.5t1.5 -57q0 -37 -1.5 -54.5t-10 -27.5t-18.5 -11 t-36 -1h-61q-26 0 -36 1t-18.5 11t-10 27.5t-1.5 54.5zM246 319q0 -90 43.5 -138t128.5 -48q176 0 176 186v1000q0 186 -176 186q-85 0 -128.5 -48t-43.5 -138v-1000zM461 1835q0 39 1 57t10 28.5t18.5 11.5t35.5 1h62q26 0 35.5 -1t18.5 -11.5t10 -28.5t1 -57 q0 -69 -9.5 -81.5t-55.5 -12.5h-62q-46 0 -55.5 12.5t-9.5 81.5z" />
<glyph unicode="&#xd7;" horiz-adv-x="731" d="M31 598q0 15 22 37l164 164q23 23 23 39q0 11 -15 26l-166 166q-24 21 -24 37q0 20 37 57t59 37q11 0 37 -22l166 -166q15 -15 26 -15q16 0 39 23l162 162q22 22 39 22q21 0 60.5 -38.5t39.5 -59.5q0 -17 -22 -39l-164 -164q-22 -22 -22 -39q0 -13 14 -24l170 -172 q24 -24 24 -39q0 -19 -37 -56.5t-57 -37.5q-15 0 -39 24l-170 172q-16 13 -26 13q-16 0 -37 -21l-164 -164q-24 -24 -39 -24q-23 0 -61.5 40.5t-38.5 61.5z" />
<glyph unicode="&#xd8;" horiz-adv-x="839" d="M82 299v1040q0 140 85.5 230t250.5 90q56 0 117 -14l53 241q6 49 47 49q24 0 44.5 -23.5t20.5 -58.5q0 -18 -2 -26l-51 -236q111 -89 111 -252v-1040q0 -141 -86.5 -230t-253.5 -89q-65 0 -121 16l-53 -244q-12 -59 -64 -59q-22 0 -36.5 18t-14.5 51q0 21 6 48l51 239 q-104 85 -104 250zM246 317l256 1174q-35 14 -84 14q-85 0 -128.5 -48t-43.5 -138v-1002zM330 150q42 -17 88 -17q176 0 176 186l2 1031z" />
<glyph unicode="&#xd9;" d="M92 299v1280q0 24 3 34t21 17.5t56 7.5q31 0 48.5 -3t25 -12.5t9 -17.5t1.5 -26v-1260q0 -90 43.5 -138t128.5 -48q176 0 176 186v1260q0 24 3 34t21 17.5t56 7.5q31 0 48.5 -3t25 -12.5t9 -17.5t1.5 -26v-1280q0 -141 -86.5 -230t-253.5 -89q-165 0 -250.5 89.5 t-85.5 229.5zM201 1999q0 17 31 46.5t47 29.5q9 0 28 -19l209 -209q19 -19 19 -28q0 -17 -31 -46.5t-47 -29.5q-11 0 -29 18l-209 209q-18 18 -18 29z" />
<glyph unicode="&#xda;" d="M92 299v1280q0 24 3 34t21 17.5t56 7.5q31 0 48.5 -3t25 -12.5t9 -17.5t1.5 -26v-1260q0 -90 43.5 -138t128.5 -48q176 0 176 186v1260q0 24 3 34t21 17.5t56 7.5q31 0 48.5 -3t25 -12.5t9 -17.5t1.5 -26v-1280q0 -141 -86.5 -230t-253.5 -89q-165 0 -250.5 89.5 t-85.5 229.5zM365 1819q0 10 18 28l209 209q19 19 29 19q15 0 46 -29.5t31 -46.5q0 -11 -18 -29l-209 -209q-18 -18 -29 -18q-15 0 -46 29.5t-31 46.5z" />
<glyph unicode="&#xdb;" d="M92 299v1280q0 24 3 34t21 17.5t56 7.5q31 0 48.5 -3t25 -12.5t9 -17.5t1.5 -26v-1260q0 -90 43.5 -138t128.5 -48q176 0 176 186v1260q0 24 3 34t21 17.5t56 7.5q31 0 48.5 -3t25 -12.5t9 -17.5t1.5 -26v-1280q0 -141 -86.5 -230t-253.5 -89q-165 0 -250.5 89.5 t-85.5 229.5zM162 1819q0 10 18 28l201 201q26 29 47 29t47 -29l201 -201q20 -17 20 -30q0 -15 -31.5 -45.5t-46.5 -30.5q-11 0 -28 20l-162 160l-160 -160q-18 -18 -28 -18q-16 0 -47 29.5t-31 46.5z" />
<glyph unicode="&#xdc;" d="M92 299v1280q0 24 3 34t21 17.5t56 7.5q31 0 48.5 -3t25 -12.5t9 -17.5t1.5 -26v-1260q0 -90 43.5 -138t128.5 -48q176 0 176 186v1260q0 24 3 34t21 17.5t56 7.5q31 0 48.5 -3t25 -12.5t9 -17.5t1.5 -26v-1280q0 -141 -86.5 -230t-253.5 -89q-165 0 -250.5 89.5 t-85.5 229.5zM197 1835q0 39 1 57t10 28.5t18.5 11.5t35.5 1h62q26 0 35.5 -1t18.5 -11.5t10 -28.5t1 -57q0 -69 -9.5 -81.5t-55.5 -12.5h-62q-46 0 -55.5 12.5t-9.5 81.5zM471 1835q0 51 5 70t16 23.5t45 4.5h61q26 0 36 -1t18.5 -11.5t10 -28.5t1.5 -57q0 -37 -1.5 -54.5 t-10 -27.5t-18.5 -11t-36 -1h-61q-26 0 -36 1t-18.5 11t-10 27.5t-1.5 54.5z" />
<glyph unicode="&#xdd;" horiz-adv-x="679" d="M20 1610q0 28 70 28q58 0 75.5 -12.5t27.5 -46.5l102 -340q19 -59 27 -74.5t18 -15.5q9 0 18 17t27 73l102 340q10 34 27.5 46.5t75.5 12.5q39 0 54 -7t15 -21q0 -7 -8 -31l-188 -621q-39 -125 -39 -176v-723q0 -18 -1.5 -26t-9 -17.5t-25 -12.5t-48.5 -3q-38 0 -56 7.5 t-21 17.5t-3 34v723q0 5 -0.5 10.5t-1 10.5t-2 12.5l-2.5 12.5t-4 15t-4.5 16t-5.5 19.5t-6.5 21.5t-8 25.5t-8.5 28.5l-188 625q-9 27 -9 31zM279 1819q0 10 18 28l209 209q19 19 29 19q15 0 46 -29.5t31 -46.5q0 -11 -18 -29l-209 -209q-18 -18 -29 -18q-15 0 -46 29.5 t-31 46.5z" />
<glyph unicode="&#xde;" horiz-adv-x="825" d="M92 59v1520q0 24 3 34t21 17.5t56 7.5q31 0 48.5 -3t25 -12.5t9 -17.5t1.5 -26v-252q0 -28 8 -39.5t31 -11.5h199q86 0 139.5 -18.5t82 -62t38.5 -98t10 -141.5v-245q0 -70 -5.5 -116.5t-22 -88t-46.5 -65t-77.5 -37t-116.5 -13.5h-201q-23 0 -31 -11.5t-8 -39.5v-281 q0 -18 -1.5 -26t-9 -17.5t-25 -12.5t-48.5 -3q-38 0 -56 7.5t-21 17.5t-3 34zM256 596q0 -31 10 -41t41 -10h154q40 0 65 7t40.5 19t22.5 40t9 57t2 84v163q0 55 -2 84t-9 57t-22.5 40t-40.5 19t-65 7h-154q-31 0 -41 -10t-10 -41v-475z" />
<glyph unicode="&#xdf;" horiz-adv-x="1556" d="M72 299q0 39 17 48t69 9q78 0 78 -37q0 -90 41 -138t114 -48q71 0 111.5 48.5t40.5 137.5v207q0 106 -35 161.5t-117 55.5q-86 0 -149 27.5t-99.5 76.5t-53.5 110t-17 135v247q0 139 81.5 229.5t233.5 90.5q154 0 237 -89.5t83 -230.5q0 -39 -17 -48t-69 -9q-78 0 -78 37 q0 90 -41.5 138t-114.5 48q-71 0 -111 -48.5t-40 -137.5v-207q0 -106 34.5 -160.5t116.5 -54.5q86 0 149.5 -27.5t99.5 -77t53.5 -110.5t17.5 -135v-248q0 -139 -82 -229t-234 -90q-154 0 -236.5 89t-82.5 230zM850 299q0 39 17 48t69 9q78 0 78 -37q0 -90 41 -138t114 -48 q71 0 111.5 48.5t40.5 137.5v207q0 106 -35 161.5t-117 55.5q-86 0 -149 27.5t-99.5 76.5t-53.5 110t-17 135v247q0 139 81.5 229.5t233.5 90.5q154 0 237 -89.5t83 -230.5q0 -39 -17 -48t-69 -9q-78 0 -78 37q0 90 -41.5 138t-114.5 48q-71 0 -111 -48.5t-40 -137.5v-207 q0 -106 34.5 -160.5t116.5 -54.5q86 0 149.5 -27.5t99.5 -77t53.5 -110.5t17.5 -135v-248q0 -139 -82 -229t-234 -90q-154 0 -236.5 89t-82.5 230z" />
<glyph unicode="&#xe0;" horiz-adv-x="716" d="M20 31q0 13 3 28l235 1463q6 32 10.5 48.5t14.5 34.5t27.5 25.5t45.5 7.5q30 0 50 -9.5t30.5 -29t14.5 -35t8 -42.5l235 -1463q2 -10 2 -28q0 -31 -71 -31q-57 0 -72.5 12.5t-20.5 46.5l-26 162q-5 33 -51 33h-195q-23 0 -34.5 -7t-14.5 -26l-27 -162q-4 -24 -8.5 -34 t-24.5 -17.5t-59 -7.5q-72 0 -72 31zM152 1999q0 17 31 46.5t46 29.5q10 0 29 -19l209 -209q18 -18 18 -28q0 -17 -31 -46.5t-46 -29.5q-11 0 -29 18l-209 209q-18 18 -18 29zM244 438q0 -18 12 -24t39 -6h131q25 0 36 6.5t11 23.5q0 4 -88 553q-7 47 -12 59.5t-15 12.5 t-14.5 -11.5t-11.5 -60.5q-69 -437 -87 -547z" />
<glyph unicode="&#xe1;" horiz-adv-x="716" d="M20 31q0 13 3 28l235 1463q6 32 10.5 48.5t14.5 34.5t27.5 25.5t45.5 7.5q30 0 50 -9.5t30.5 -29t14.5 -35t8 -42.5l235 -1463q2 -10 2 -28q0 -31 -71 -31q-57 0 -72.5 12.5t-20.5 46.5l-26 162q-5 33 -51 33h-195q-23 0 -34.5 -7t-14.5 -26l-27 -162q-4 -24 -8.5 -34 t-24.5 -17.5t-59 -7.5q-72 0 -72 31zM233 1819q0 9 19 28l209 209q19 19 28 19q16 0 47 -29.5t31 -46.5q0 -11 -18 -29l-209 -209q-18 -18 -29 -18q-16 0 -47 29.5t-31 46.5zM244 438q0 -18 12 -24t39 -6h131q25 0 36 6.5t11 23.5q0 4 -88 553q-7 47 -12 59.5t-15 12.5 t-14.5 -11.5t-11.5 -60.5q-69 -437 -87 -547z" />
<glyph unicode="&#xe2;" horiz-adv-x="716" d="M20 31q0 13 3 28l235 1463q6 32 10.5 48.5t14.5 34.5t27.5 25.5t45.5 7.5q30 0 50 -9.5t30.5 -29t14.5 -35t8 -42.5l235 -1463q2 -10 2 -28q0 -31 -71 -31q-57 0 -72.5 12.5t-20.5 46.5l-26 162q-5 33 -51 33h-195q-23 0 -34.5 -7t-14.5 -26l-27 -162q-4 -24 -8.5 -34 t-24.5 -17.5t-59 -7.5q-72 0 -72 31zM92 1819q0 9 19 28l200 201q26 29 47 29q22 0 48 -29l200 -201q21 -17 21 -30q0 -15 -31.5 -45.5t-46.5 -30.5q-12 0 -29 20l-162 160l-159 -160q-18 -18 -29 -18q-16 0 -47 29.5t-31 46.5zM244 438q0 -18 12 -24t39 -6h131q25 0 36 6.5 t11 23.5q0 4 -88 553q-7 47 -12 59.5t-15 12.5t-14.5 -11.5t-11.5 -60.5q-69 -437 -87 -547z" />
<glyph unicode="&#xe3;" horiz-adv-x="716" d="M20 31q0 13 3 28l235 1463q6 32 10.5 48.5t14.5 34.5t27.5 25.5t45.5 7.5q30 0 50 -9.5t30.5 -29t14.5 -35t8 -42.5l235 -1463q2 -10 2 -28q0 -31 -71 -31q-57 0 -72.5 12.5t-20.5 46.5l-26 162q-5 33 -51 33h-195q-23 0 -34.5 -7t-14.5 -26l-27 -162q-4 -24 -8.5 -34 t-24.5 -17.5t-59 -7.5q-72 0 -72 31zM78 1780q0 4 1 7t2.5 6l2.5 5q27 69 81 105t109 36q32 0 102 -38.5t89 -38.5t38 8.5t28.5 15.5t27.5 24t21 19q6 6 16 6q15 0 28 -12t13 -27q0 -6 -4 -18q-24 -68 -78 -103.5t-109 -35.5q-28 0 -95.5 39t-92.5 39q-21 0 -40 -8.5 t-30 -17.5t-27 -25t-22 -21q-8 -8 -20 -8q-14 0 -27.5 14t-13.5 29zM244 438q0 -18 12 -24t39 -6h131q25 0 36 6.5t11 23.5q0 4 -88 553q-7 47 -12 59.5t-15 12.5t-14.5 -11.5t-11.5 -60.5q-69 -437 -87 -547z" />
<glyph unicode="&#xe4;" horiz-adv-x="716" d="M20 31q0 13 3 28l235 1463q6 32 10.5 48.5t14.5 34.5t27.5 25.5t45.5 7.5q30 0 50 -9.5t30.5 -29t14.5 -35t8 -42.5l235 -1463q2 -10 2 -28q0 -31 -71 -31q-57 0 -72.5 12.5t-20.5 46.5l-26 162q-5 33 -51 33h-195q-23 0 -34.5 -7t-14.5 -26l-27 -162q-4 -24 -8.5 -34 t-24.5 -17.5t-59 -7.5q-72 0 -72 31zM125 1835q0 39 1 57t10 28.5t18.5 11.5t35.5 1h62q26 0 35.5 -1t18.5 -11.5t10 -28.5t1 -57q0 -69 -9.5 -81.5t-55.5 -12.5h-62q-46 0 -55.5 12.5t-9.5 81.5zM244 438q0 -18 12 -24t39 -6h131q25 0 36 6.5t11 23.5q0 4 -88 553 q-7 47 -12 59.5t-15 12.5t-14.5 -11.5t-11.5 -60.5q-69 -437 -87 -547zM399 1835q0 51 5 70t16 23.5t45 4.5h61q26 0 36 -1t18.5 -11.5t10 -28.5t1.5 -57q0 -37 -1.5 -54.5t-10 -27.5t-18.5 -11t-36 -1h-61q-26 0 -36 1t-18.5 11t-10 27.5t-1.5 54.5z" />
<glyph unicode="&#xe5;" horiz-adv-x="716" d="M20 31q0 13 3 28l235 1463q6 32 10.5 48.5t14.5 34.5t27.5 25.5t45.5 7.5q30 0 50 -9.5t30.5 -29t14.5 -35t8 -42.5l235 -1463q2 -10 2 -28q0 -31 -71 -31q-57 0 -72.5 12.5t-20.5 46.5l-26 162q-5 33 -51 33h-195q-23 0 -34.5 -7t-14.5 -26l-27 -162q-4 -24 -8.5 -34 t-24.5 -17.5t-59 -7.5q-72 0 -72 31zM117 1911v49q0 101 60.5 165t178.5 64q119 0 181.5 -64t62.5 -165v-49q0 -103 -62 -167.5t-182 -64.5q-118 0 -178.5 65t-60.5 167zM233 1925q0 -65 31.5 -100t91.5 -35q127 0 127 135v21q0 65 -32.5 100t-94.5 35q-59 0 -91 -35.5 t-32 -99.5v-21zM244 438q0 -18 12 -24t39 -6h131q25 0 36 6.5t11 23.5q0 4 -88 553q-7 47 -12 59.5t-15 12.5t-14.5 -11.5t-11.5 -60.5q-69 -437 -87 -547z" />
<glyph unicode="&#xe6;" horiz-adv-x="1247" d="M20 27q0 5 9 32l465 1463q8 25 14.5 41.5t18.5 35.5t30 29t41 10h569q19 0 26.5 -1t17.5 -8t13 -23t3 -45q0 -28 -3.5 -44t-12.5 -22.5t-17.5 -8t-26.5 -1.5h-415q-31 0 -41.5 -10t-10.5 -41v-476q0 -31 10.5 -41t41.5 -10h217q24 0 34 -3t17.5 -20t7.5 -55 q0 -28 -3 -43.5t-12.5 -22.5t-17 -8t-26.5 -1h-217q-29 0 -40.5 -8.5t-11.5 -32.5v-508q0 -31 10.5 -41t41.5 -10h415q18 0 26.5 -1.5t17.5 -8t12.5 -22.5t3.5 -44q0 -29 -3.5 -45t-12.5 -23t-17.5 -8.5t-26.5 -1.5h-573q-24 0 -33.5 3t-16.5 20t-7 55v143q0 33 -45 33h-197 q-45 0 -55 -33l-52 -162q-10 -33 -28 -46t-72 -13q-68 0 -68 27zM305 438q0 -18 11.5 -24t37.5 -6h131q52 0 52 30v553q0 32 -2 48t-5 20t-10 4q-10 0 -16.5 -12t-20.5 -60q-108 -341 -168 -521q-10 -30 -10 -32z" />
<glyph unicode="&#xe7;" horiz-adv-x="808" d="M82 299v1040q0 140 85.5 230t250.5 90q167 0 253.5 -89t86.5 -231q0 -39 -17 -48t-69 -9q-78 0 -78 37q0 186 -176 186q-85 0 -128.5 -48t-43.5 -138v-1000q0 -90 43.5 -138t128.5 -48q176 0 176 186q0 37 78 37q52 0 69 -9t17 -48q0 -137 -79.5 -223.5t-236.5 -93.5 l-18 -78q89 0 135.5 -48.5t46.5 -123.5v-13q0 -75 -45.5 -123.5t-134.5 -48.5h-64q-21 0 -28.5 7t-7.5 34t7.5 34t28.5 7h64q44 0 68 25t24 74q0 52 -23.5 73t-68.5 21h-64q-21 0 -28.5 6.5t-7.5 30.5q0 23 4 35l22 90q-134 18 -202 103.5t-68 211.5z" />
<glyph unicode="&#xe8;" horiz-adv-x="833" d="M92 78v1483q0 29 3 45t12 23t16.5 8t26.5 1h593q19 0 26.5 -1t17.5 -8t13 -23t3 -45q0 -28 -3.5 -44t-12.5 -22.5t-17.5 -8t-26.5 -1.5h-436q-31 0 -41 -10t-10 -41v-476q0 -31 10 -41t41 -10h217q18 0 26.5 -1.5t17.5 -8.5t12.5 -23t3.5 -45q0 -28 -3 -44t-13 -22.5 t-17.5 -7.5t-26.5 -1h-217q-29 0 -40 -8.5t-11 -32.5v-508q0 -31 10 -41t41 -10h436q18 0 26.5 -1.5t17.5 -8t12.5 -22.5t3.5 -44q0 -29 -3.5 -45t-12.5 -23t-17.5 -8.5t-26.5 -1.5h-593q-24 0 -33.5 3t-17 20t-7.5 55zM244 1999q0 17 31 46.5t47 29.5q9 0 28 -19l209 -209 q19 -19 19 -28q0 -17 -31 -46.5t-47 -29.5q-11 0 -29 18l-209 209q-18 18 -18 29z" />
<glyph unicode="&#xe9;" horiz-adv-x="833" d="M92 78v1483q0 29 3 45t12 23t16.5 8t26.5 1h593q19 0 26.5 -1t17.5 -8t13 -23t3 -45q0 -28 -3.5 -44t-12.5 -22.5t-17.5 -8t-26.5 -1.5h-436q-31 0 -41 -10t-10 -41v-476q0 -31 10 -41t41 -10h217q18 0 26.5 -1.5t17.5 -8.5t12.5 -23t3.5 -45q0 -28 -3 -44t-13 -22.5 t-17.5 -7.5t-26.5 -1h-217q-29 0 -40 -8.5t-11 -32.5v-508q0 -31 10 -41t41 -10h436q18 0 26.5 -1.5t17.5 -8t12.5 -22.5t3.5 -44q0 -29 -3.5 -45t-12.5 -23t-17.5 -8.5t-26.5 -1.5h-593q-24 0 -33.5 3t-17 20t-7.5 55zM346 1819q0 9 19 28l208 209q19 19 29 19 q16 0 47 -29.5t31 -46.5q0 -11 -18 -29l-209 -209q-18 -18 -29 -18q-16 0 -47 29.5t-31 46.5z" />
<glyph unicode="&#xea;" horiz-adv-x="833" d="M92 78v1483q0 29 3 45t12 23t16.5 8t26.5 1h593q19 0 26.5 -1t17.5 -8t13 -23t3 -45q0 -28 -3.5 -44t-12.5 -22.5t-17.5 -8t-26.5 -1.5h-436q-31 0 -41 -10t-10 -41v-476q0 -31 10 -41t41 -10h217q18 0 26.5 -1.5t17.5 -8.5t12.5 -23t3.5 -45q0 -28 -3 -44t-13 -22.5 t-17.5 -7.5t-26.5 -1h-217q-29 0 -40 -8.5t-11 -32.5v-508q0 -31 10 -41t41 -10h436q18 0 26.5 -1.5t17.5 -8t12.5 -22.5t3.5 -44q0 -29 -3.5 -45t-12.5 -23t-17.5 -8.5t-26.5 -1.5h-593q-24 0 -33.5 3t-17 20t-7.5 55zM184 1819q0 9 19 28l200 201q26 29 48 29q21 0 47 -29 l200 -201q21 -17 21 -30q0 -15 -31.5 -45.5t-46.5 -30.5q-12 0 -29 20l-161 160l-160 -160q-18 -18 -29 -18q-16 0 -47 29.5t-31 46.5z" />
<glyph unicode="&#xeb;" horiz-adv-x="833" d="M92 78v1483q0 29 3 45t12 23t16.5 8t26.5 1h593q19 0 26.5 -1t17.5 -8t13 -23t3 -45q0 -28 -3.5 -44t-12.5 -22.5t-17.5 -8t-26.5 -1.5h-436q-31 0 -41 -10t-10 -41v-476q0 -31 10 -41t41 -10h217q18 0 26.5 -1.5t17.5 -8.5t12.5 -23t3.5 -45q0 -28 -3 -44t-13 -22.5 t-17.5 -7.5t-26.5 -1h-217q-29 0 -40 -8.5t-11 -32.5v-508q0 -31 10 -41t41 -10h436q18 0 26.5 -1.5t17.5 -8t12.5 -22.5t3.5 -44q0 -29 -3.5 -45t-12.5 -23t-17.5 -8.5t-26.5 -1.5h-593q-24 0 -33.5 3t-17 20t-7.5 55zM219 1835q0 51 5 70t16 23.5t45 4.5h61q26 0 36 -1 t18.5 -11.5t10 -28.5t1.5 -57q0 -37 -1.5 -54.5t-10 -27.5t-18.5 -11t-36 -1h-61q-26 0 -36 1t-18.5 11t-10 27.5t-1.5 54.5zM494 1835q0 39 1 57t10 28.5t18.5 11.5t35.5 1h62q26 0 35.5 -1t18.5 -11.5t10 -28.5t1 -57q0 -69 -9.5 -81.5t-55.5 -12.5h-62q-46 0 -55.5 12.5 t-9.5 81.5z" />
<glyph unicode="&#xec;" horiz-adv-x="530" d="M41 78q0 28 3 44t12.5 22.5t17.5 8t26 1.5h33q31 0 41 10t10 41v1229q0 31 -10 41t-41 10h-33q-18 0 -26 1.5t-17.5 8t-12.5 22.5t-3 44q0 29 3 45t12.5 23t17 8t26.5 1h330q19 0 26.5 -1t17 -8t12.5 -23t3 -45q0 -28 -3 -44t-12.5 -22.5t-17.5 -8t-26 -1.5h-31 q-31 0 -41 -10t-10 -41v-1229q0 -31 10 -41t41 -10h31q18 0 26 -1.5t17.5 -8t12.5 -22.5t3 -44q0 -38 -7.5 -55t-17.5 -20t-34 -3h-330q-24 0 -34 3t-17.5 20t-7.5 55zM57 1999q0 17 31 46.5t47 29.5q10 0 29 -19l209 -209q18 -18 18 -28q0 -17 -31 -46.5t-47 -29.5 q-10 0 -28 18l-209 209q-19 19 -19 29z" />
<glyph unicode="&#xed;" horiz-adv-x="530" d="M41 78q0 28 3 44t12.5 22.5t17.5 8t26 1.5h33q31 0 41 10t10 41v1229q0 31 -10 41t-41 10h-33q-18 0 -26 1.5t-17.5 8t-12.5 22.5t-3 44q0 29 3 45t12.5 23t17 8t26.5 1h330q19 0 26.5 -1t17 -8t12.5 -23t3 -45q0 -28 -3 -44t-12.5 -22.5t-17.5 -8t-26 -1.5h-31 q-31 0 -41 -10t-10 -41v-1229q0 -31 10 -41t41 -10h31q18 0 26 -1.5t17.5 -8t12.5 -22.5t3 -44q0 -38 -7.5 -55t-17.5 -20t-34 -3h-330q-24 0 -34 3t-17.5 20t-7.5 55zM180 1819q0 9 19 28l209 209q19 19 28 19q16 0 47 -29.5t31 -46.5q0 -11 -18 -29l-209 -209 q-18 -18 -29 -18q-16 0 -47 29.5t-31 46.5z" />
<glyph unicode="&#xee;" horiz-adv-x="530" d="M-2 1819q0 10 18 28l201 201q26 29 47 29t47 -29l201 -201q20 -17 20 -30q0 -15 -31 -45.5t-46 -30.5q-12 0 -29 20l-162 160l-160 -160q-18 -18 -28 -18q-16 0 -47 29.5t-31 46.5zM41 78q0 28 3 44t12.5 22.5t17.5 8t26 1.5h33q31 0 41 10t10 41v1229q0 31 -10 41 t-41 10h-33q-18 0 -26 1.5t-17.5 8t-12.5 22.5t-3 44q0 29 3 45t12.5 23t17 8t26.5 1h330q19 0 26.5 -1t17 -8t12.5 -23t3 -45q0 -28 -3 -44t-12.5 -22.5t-17.5 -8t-26 -1.5h-31q-31 0 -41 -10t-10 -41v-1229q0 -31 10 -41t41 -10h31q18 0 26 -1.5t17.5 -8t12.5 -22.5t3 -44 q0 -38 -7.5 -55t-17.5 -20t-34 -3h-330q-24 0 -34 3t-17.5 20t-7.5 55z" />
<glyph unicode="&#xef;" horiz-adv-x="530" d="M33 1835q0 39 1 57t10 28.5t18.5 11.5t35.5 1h62q26 0 35.5 -1t18.5 -11.5t10 -28.5t1 -57q0 -69 -9.5 -81.5t-55.5 -12.5h-62q-46 0 -55.5 12.5t-9.5 81.5zM41 78q0 28 3 44t12.5 22.5t17.5 8t26 1.5h33q31 0 41 10t10 41v1229q0 31 -10 41t-41 10h-33q-18 0 -26 1.5 t-17.5 8t-12.5 22.5t-3 44q0 29 3 45t12.5 23t17 8t26.5 1h330q19 0 26.5 -1t17 -8t12.5 -23t3 -45q0 -28 -3 -44t-12.5 -22.5t-17.5 -8t-26 -1.5h-31q-31 0 -41 -10t-10 -41v-1229q0 -31 10 -41t41 -10h31q18 0 26 -1.5t17.5 -8t12.5 -22.5t3 -44q0 -38 -7.5 -55t-17.5 -20 t-34 -3h-330q-24 0 -34 3t-17.5 20t-7.5 55zM307 1835q0 51 5 70t16 23.5t45 4.5h61q26 0 36 -1t18.5 -11.5t10 -28.5t1.5 -57q0 -37 -1.5 -54.5t-10 -27.5t-18.5 -11t-36 -1h-61q-26 0 -36 1t-18.5 11t-10 27.5t-1.5 54.5z" />
<glyph unicode="&#xf0;" horiz-adv-x="845" d="M0 829q0 38 7.5 55t17.5 20t34 3h33v654q0 29 3 45t12 23t16.5 8t26.5 1h344q86 0 139.5 -18.5t82 -61.5t38.5 -97.5t10 -141.5v-1000q0 -87 -9.5 -141.5t-37.5 -97.5t-81.5 -61.5t-139.5 -18.5h-346q-24 0 -33.5 3t-17 20t-7.5 55v676h-33q-19 0 -26.5 1t-17 8 t-12.5 22.5t-3 43.5zM256 205q0 -31 10 -41t41 -10h154q29 0 49 3.5t35.5 9t25 18.5t16 26.5t9 38t3.5 48t1 62.5v918q0 55 -2 84t-9 57t-22.5 40t-40.5 19t-65 7h-154q-31 0 -41 -10t-10 -41v-527h113q24 0 34 -3t17.5 -20t7.5 -55q0 -28 -3 -43.5t-12.5 -22.5t-17 -8 t-26.5 -1h-113v-549z" />
<glyph unicode="&#xf1;" d="M92 59v1520q0 24 3 34t21 17.5t56 7.5q41 0 62.5 -7.5t28 -17.5t13.5 -34l285 -926q16 -51 29 -51q9 0 11.5 11t2.5 42v924q0 24 3 34t21 17.5t56 7.5q31 0 48.5 -3t25 -12.5t9 -17.5t1.5 -26v-1520q0 -23 -4 -33.5t-24.5 -18t-63.5 -7.5q-51 0 -69 13.5t-27 45.5 l-279 908q-15 51 -31 51q-9 0 -11.5 -11t-2.5 -40v-908q0 -18 -1.5 -26t-9 -17.5t-25 -12.5t-48.5 -3q-38 0 -56 7.5t-21 17.5t-3 34zM150 1780q0 4 1 7t2.5 6l2.5 5q27 69 81 105t109 36q32 0 102 -38.5t89 -38.5t37.5 8t28.5 16t27 24t21 19q6 6 17 6q15 0 28 -12t13 -27 q0 -6 -4 -18q-24 -68 -78 -103.5t-109 -35.5q-28 0 -95.5 39t-92.5 39q-21 0 -40 -8.5t-30 -17.5t-27 -25t-22 -21q-8 -8 -21 -8q-14 0 -27 14t-13 29z" />
<glyph unicode="&#xf2;" horiz-adv-x="839" d="M82 299v1040q0 140 85.5 230t250.5 90q167 0 253.5 -89.5t86.5 -230.5v-1040q0 -141 -86.5 -230t-253.5 -89q-165 0 -250.5 89.5t-85.5 229.5zM190 1999q0 17 31 46.5t47 29.5q10 0 29 -19l209 -209q18 -18 18 -28q0 -17 -31 -46.5t-47 -29.5q-10 0 -28 18l-209 209 q-19 19 -19 29zM246 319q0 -90 43.5 -138t128.5 -48q176 0 176 186v1000q0 186 -176 186q-85 0 -128.5 -48t-43.5 -138v-1000z" />
<glyph unicode="&#xf3;" horiz-adv-x="839" d="M82 299v1040q0 140 85.5 230t250.5 90q167 0 253.5 -89.5t86.5 -230.5v-1040q0 -141 -86.5 -230t-253.5 -89q-165 0 -250.5 89.5t-85.5 229.5zM246 319q0 -90 43.5 -138t128.5 -48q176 0 176 186v1000q0 186 -176 186q-85 0 -128.5 -48t-43.5 -138v-1000zM313 1819 q0 9 19 28l209 209q19 19 28 19q16 0 47 -29.5t31 -46.5q0 -11 -18 -29l-209 -209q-18 -18 -29 -18q-16 0 -47 29.5t-31 46.5z" />
<glyph unicode="&#xf4;" horiz-adv-x="839" d="M82 299v1040q0 140 85.5 230t250.5 90q167 0 253.5 -89.5t86.5 -230.5v-1040q0 -141 -86.5 -230t-253.5 -89q-165 0 -250.5 89.5t-85.5 229.5zM152 1819q0 10 18 28l201 201q26 29 47 29t47 -29l201 -201q20 -17 20 -30q0 -15 -31.5 -45.5t-46.5 -30.5q-11 0 -28 20 l-162 160l-160 -160q-18 -18 -29 -18q-15 0 -46 29.5t-31 46.5zM246 319q0 -90 43.5 -138t128.5 -48q176 0 176 186v1000q0 186 -176 186q-85 0 -128.5 -48t-43.5 -138v-1000z" />
<glyph unicode="&#xf5;" horiz-adv-x="839" d="M82 299v1040q0 140 85.5 230t250.5 90q167 0 253.5 -89.5t86.5 -230.5v-1040q0 -141 -86.5 -230t-253.5 -89q-165 0 -250.5 89.5t-85.5 229.5zM139 1780q0 4 1 7t2.5 6l2.5 5q27 69 81.5 105t109.5 36q32 0 101 -38.5t89 -38.5q19 0 38 8.5t28.5 15.5t27.5 24t21 19 q6 6 16 6q15 0 28 -12t13 -27q0 -6 -4 -18q-24 -68 -77.5 -103.5t-108.5 -35.5q-28 0 -96 39t-93 39q-21 0 -40 -8.5t-29.5 -17.5t-26.5 -25t-22 -21q-8 -8 -21 -8q-14 0 -27.5 14t-13.5 29zM246 319q0 -90 43.5 -138t128.5 -48q176 0 176 186v1000q0 186 -176 186 q-85 0 -128.5 -48t-43.5 -138v-1000z" />
<glyph unicode="&#xf6;" horiz-adv-x="839" d="M82 299v1040q0 140 85.5 230t250.5 90q167 0 253.5 -89.5t86.5 -230.5v-1040q0 -141 -86.5 -230t-253.5 -89q-165 0 -250.5 89.5t-85.5 229.5zM186 1835q0 51 5 70t16 23.5t45 4.5h61q26 0 36 -1t18.5 -11.5t10 -28.5t1.5 -57q0 -37 -1.5 -54.5t-10 -27.5t-18.5 -11 t-36 -1h-61q-26 0 -36 1t-18.5 11t-10 27.5t-1.5 54.5zM246 319q0 -90 43.5 -138t128.5 -48q176 0 176 186v1000q0 186 -176 186q-85 0 -128.5 -48t-43.5 -138v-1000zM461 1835q0 39 1 57t10 28.5t18.5 11.5t35.5 1h62q26 0 35.5 -1t18.5 -11.5t10 -28.5t1 -57 q0 -69 -9.5 -81.5t-55.5 -12.5h-62q-46 0 -55.5 12.5t-9.5 81.5z" />
<glyph unicode="&#xf7;" horiz-adv-x="919" d="M41 829q0 38 7.5 55t17.5 20t34 3h719q18 0 26.5 -1.5t17.5 -8.5t12.5 -23t3.5 -45q0 -28 -3 -44t-13 -22.5t-17.5 -7.5t-26.5 -1h-719q-19 0 -26.5 1t-17 8t-12.5 22.5t-3 43.5zM362 549q0 51 5 70t16 23.5t45 4.5h61q26 0 36 -1t18.5 -11.5t10 -28.5t1.5 -57 q0 -37 -1.5 -54.5t-10 -27.5t-18.5 -11t-36 -1h-61q-26 0 -36 1t-18.5 11t-10 27.5t-1.5 54.5zM362 1110q0 51 5 70t16 23.5t45 4.5h61q26 0 36 -1t18.5 -11.5t10 -28.5t1.5 -57q0 -37 -1.5 -54.5t-10 -27.5t-18.5 -11t-36 -1h-61q-26 0 -36 1t-18.5 11t-10 27.5t-1.5 54.5z " />
<glyph unicode="&#xf8;" horiz-adv-x="839" d="M82 299v1040q0 140 85.5 230t250.5 90q56 0 117 -14l53 241q6 49 47 49q24 0 44.5 -23.5t20.5 -58.5q0 -18 -2 -26l-51 -236q111 -89 111 -252v-1040q0 -141 -86.5 -230t-253.5 -89q-65 0 -121 16l-53 -244q-12 -59 -64 -59q-22 0 -36.5 18t-14.5 51q0 21 6 48l51 239 q-104 85 -104 250zM246 317l256 1174q-35 14 -84 14q-85 0 -128.5 -48t-43.5 -138v-1002zM330 150q42 -17 88 -17q176 0 176 186l2 1031z" />
<glyph unicode="&#xf9;" d="M92 299v1280q0 24 3 34t21 17.5t56 7.5q31 0 48.5 -3t25 -12.5t9 -17.5t1.5 -26v-1260q0 -90 43.5 -138t128.5 -48q176 0 176 186v1260q0 24 3 34t21 17.5t56 7.5q31 0 48.5 -3t25 -12.5t9 -17.5t1.5 -26v-1280q0 -141 -86.5 -230t-253.5 -89q-165 0 -250.5 89.5 t-85.5 229.5zM201 1999q0 17 31 46.5t47 29.5q9 0 28 -19l209 -209q19 -19 19 -28q0 -17 -31 -46.5t-47 -29.5q-11 0 -29 18l-209 209q-18 18 -18 29z" />
<glyph unicode="&#xfa;" d="M92 299v1280q0 24 3 34t21 17.5t56 7.5q31 0 48.5 -3t25 -12.5t9 -17.5t1.5 -26v-1260q0 -90 43.5 -138t128.5 -48q176 0 176 186v1260q0 24 3 34t21 17.5t56 7.5q31 0 48.5 -3t25 -12.5t9 -17.5t1.5 -26v-1280q0 -141 -86.5 -230t-253.5 -89q-165 0 -250.5 89.5 t-85.5 229.5zM365 1819q0 10 18 28l209 209q19 19 29 19q15 0 46 -29.5t31 -46.5q0 -11 -18 -29l-209 -209q-18 -18 -29 -18q-15 0 -46 29.5t-31 46.5z" />
<glyph unicode="&#xfb;" d="M92 299v1280q0 24 3 34t21 17.5t56 7.5q31 0 48.5 -3t25 -12.5t9 -17.5t1.5 -26v-1260q0 -90 43.5 -138t128.5 -48q176 0 176 186v1260q0 24 3 34t21 17.5t56 7.5q31 0 48.5 -3t25 -12.5t9 -17.5t1.5 -26v-1280q0 -141 -86.5 -230t-253.5 -89q-165 0 -250.5 89.5 t-85.5 229.5zM162 1819q0 10 18 28l201 201q26 29 47 29t47 -29l201 -201q20 -17 20 -30q0 -15 -31.5 -45.5t-46.5 -30.5q-11 0 -28 20l-162 160l-160 -160q-18 -18 -28 -18q-16 0 -47 29.5t-31 46.5z" />
<glyph unicode="&#xfc;" d="M92 299v1280q0 24 3 34t21 17.5t56 7.5q31 0 48.5 -3t25 -12.5t9 -17.5t1.5 -26v-1260q0 -90 43.5 -138t128.5 -48q176 0 176 186v1260q0 24 3 34t21 17.5t56 7.5q31 0 48.5 -3t25 -12.5t9 -17.5t1.5 -26v-1280q0 -141 -86.5 -230t-253.5 -89q-165 0 -250.5 89.5 t-85.5 229.5zM197 1835q0 39 1 57t10 28.5t18.5 11.5t35.5 1h62q26 0 35.5 -1t18.5 -11.5t10 -28.5t1 -57q0 -69 -9.5 -81.5t-55.5 -12.5h-62q-46 0 -55.5 12.5t-9.5 81.5zM471 1835q0 51 5 70t16 23.5t45 4.5h61q26 0 36 -1t18.5 -11.5t10 -28.5t1.5 -57q0 -37 -1.5 -54.5 t-10 -27.5t-18.5 -11t-36 -1h-61q-26 0 -36 1t-18.5 11t-10 27.5t-1.5 54.5z" />
<glyph unicode="&#xfd;" horiz-adv-x="679" d="M20 1610q0 28 70 28q58 0 75.5 -12.5t27.5 -46.5l102 -340q19 -59 27 -74.5t18 -15.5q9 0 18 17t27 73l102 340q10 34 27.5 46.5t75.5 12.5q39 0 54 -7t15 -21q0 -7 -8 -31l-188 -621q-39 -125 -39 -176v-723q0 -18 -1.5 -26t-9 -17.5t-25 -12.5t-48.5 -3q-38 0 -56 7.5 t-21 17.5t-3 34v723q0 5 -0.5 10.5t-1 10.5t-2 12.5l-2.5 12.5t-4 15t-4.5 16t-5.5 19.5t-6.5 21.5t-8 25.5t-8.5 28.5l-188 625q-9 27 -9 31zM279 1819q0 10 18 28l209 209q19 19 29 19q15 0 46 -29.5t31 -46.5q0 -11 -18 -29l-209 -209q-18 -18 -29 -18q-15 0 -46 29.5 t-31 46.5z" />
<glyph unicode="&#xfe;" horiz-adv-x="825" d="M92 59v1520q0 24 3 34t21 17.5t56 7.5q31 0 48.5 -3t25 -12.5t9 -17.5t1.5 -26v-252q0 -28 8 -39.5t31 -11.5h199q86 0 139.5 -18.5t82 -62t38.5 -98t10 -141.5v-245q0 -70 -5.5 -116.5t-22 -88t-46.5 -65t-77.5 -37t-116.5 -13.5h-201q-23 0 -31 -11.5t-8 -39.5v-281 q0 -18 -1.5 -26t-9 -17.5t-25 -12.5t-48.5 -3q-38 0 -56 7.5t-21 17.5t-3 34zM256 596q0 -31 10 -41t41 -10h154q40 0 65 7t40.5 19t22.5 40t9 57t2 84v163q0 55 -2 84t-9 57t-22.5 40t-40.5 19t-65 7h-154q-31 0 -41 -10t-10 -41v-475z" />
<glyph unicode="&#xff;" horiz-adv-x="679" d="M20 1610q0 28 70 28q58 0 75.5 -12.5t27.5 -46.5l102 -340q19 -59 27 -74.5t18 -15.5q9 0 18 17t27 73l102 340q10 34 27.5 46.5t75.5 12.5q39 0 54 -7t15 -21q0 -7 -8 -31l-188 -621q-39 -125 -39 -176v-723q0 -18 -1.5 -26t-9 -17.5t-25 -12.5t-48.5 -3q-38 0 -56 7.5 t-21 17.5t-3 34v723q0 5 -0.5 10.5t-1 10.5t-2 12.5l-2.5 12.5t-4 15t-4.5 16t-5.5 19.5t-6.5 21.5t-8 25.5t-8.5 28.5l-188 625q-9 27 -9 31zM106 1835q0 51 5 70t16 23.5t45 4.5h61q26 0 36 -1t18.5 -11.5t10 -28.5t1.5 -57q0 -37 -1.5 -54.5t-10 -27.5t-18.5 -11t-36 -1 h-61q-26 0 -36 1t-18.5 11t-10 27.5t-1.5 54.5zM381 1835q0 39 1 57t10 28.5t18.5 11.5t35.5 1h62q26 0 35.5 -1t18.5 -11.5t10 -28.5t1 -57q0 -69 -9.5 -81.5t-55.5 -12.5h-62q-46 0 -55.5 12.5t-9.5 81.5z" />
<glyph unicode="&#x100;" horiz-adv-x="716" d="M20 31q0 13 3 28l235 1463q6 32 10.5 48.5t14.5 34.5t27.5 25.5t45.5 7.5q30 0 50 -9.5t30.5 -29t14.5 -35t8 -42.5l235 -1463q2 -10 2 -28q0 -31 -71 -31q-57 0 -72.5 12.5t-20.5 46.5l-26 162q-5 33 -51 33h-195q-23 0 -34.5 -7t-14.5 -26l-27 -162q-4 -24 -8.5 -34 t-24.5 -17.5t-59 -7.5q-72 0 -72 31zM53 1794q0 39 9 48t34 9h525q18 0 25 -2t12.5 -15t5.5 -40t-5.5 -39t-12.5 -14t-25 -2h-525q-18 0 -25 2t-12.5 14t-5.5 39zM244 438q0 -18 12 -24t39 -6h131q25 0 36 6.5t11 23.5q0 4 -88 553q-7 47 -12 59.5t-15 12.5t-14.5 -11.5 t-11.5 -60.5q-69 -437 -87 -547z" />
<glyph unicode="&#x101;" horiz-adv-x="716" d="M20 31q0 13 3 28l235 1463q6 32 10.5 48.5t14.5 34.5t27.5 25.5t45.5 7.5q30 0 50 -9.5t30.5 -29t14.5 -35t8 -42.5l235 -1463q2 -10 2 -28q0 -31 -71 -31q-57 0 -72.5 12.5t-20.5 46.5l-26 162q-5 33 -51 33h-195q-23 0 -34.5 -7t-14.5 -26l-27 -162q-4 -24 -8.5 -34 t-24.5 -17.5t-59 -7.5q-72 0 -72 31zM53 1794q0 39 9 48t34 9h525q18 0 25 -2t12.5 -15t5.5 -40t-5.5 -39t-12.5 -14t-25 -2h-525q-18 0 -25 2t-12.5 14t-5.5 39zM244 438q0 -18 12 -24t39 -6h131q25 0 36 6.5t11 23.5q0 4 -88 553q-7 47 -12 59.5t-15 12.5t-14.5 -11.5 t-11.5 -60.5q-69 -437 -87 -547z" />
<glyph unicode="&#x102;" horiz-adv-x="716" d="M20 31q0 13 3 28l235 1463q6 32 10.5 48.5t14.5 34.5t27.5 25.5t45.5 7.5q30 0 50 -9.5t30.5 -29t14.5 -35t8 -42.5l235 -1463q2 -10 2 -28q0 -31 -71 -31q-57 0 -72.5 12.5t-20.5 46.5l-26 162q-5 33 -51 33h-195q-23 0 -34.5 -7t-14.5 -26l-27 -162q-4 -24 -8.5 -34 t-24.5 -17.5t-59 -7.5q-72 0 -72 31zM117 1931q0 26 13 36.5t50 10.5q34 0 43.5 -7t9.5 -25q0 -65 31.5 -100.5t91.5 -35.5q127 0 127 136q0 11 2 16t13 8.5t34 3.5q43 0 55.5 -9.5t12.5 -33.5q0 -103 -62 -167t-182 -64q-118 0 -178.5 64.5t-60.5 166.5zM244 438 q0 -18 12 -24t39 -6h131q25 0 36 6.5t11 23.5q0 4 -88 553q-7 47 -12 59.5t-15 12.5t-14.5 -11.5t-11.5 -60.5q-69 -437 -87 -547z" />
<glyph unicode="&#x103;" horiz-adv-x="716" d="M20 31q0 13 3 28l235 1463q6 32 10.5 48.5t14.5 34.5t27.5 25.5t45.5 7.5q30 0 50 -9.5t30.5 -29t14.5 -35t8 -42.5l235 -1463q2 -10 2 -28q0 -31 -71 -31q-57 0 -72.5 12.5t-20.5 46.5l-26 162q-5 33 -51 33h-195q-23 0 -34.5 -7t-14.5 -26l-27 -162q-4 -24 -8.5 -34 t-24.5 -17.5t-59 -7.5q-72 0 -72 31zM117 1931q0 26 13 36.5t50 10.5q34 0 43.5 -7t9.5 -25q0 -65 31.5 -100.5t91.5 -35.5q127 0 127 136q0 11 2 16t13 8.5t34 3.5q43 0 55.5 -9.5t12.5 -33.5q0 -103 -62 -167t-182 -64q-118 0 -178.5 64.5t-60.5 166.5zM244 438 q0 -18 12 -24t39 -6h131q25 0 36 6.5t11 23.5q0 4 -88 553q-7 47 -12 59.5t-15 12.5t-14.5 -11.5t-11.5 -60.5q-69 -437 -87 -547z" />
<glyph unicode="&#x104;" horiz-adv-x="716" d="M20 31q0 13 3 28l235 1463q6 32 10.5 48.5t14.5 34.5t27.5 25.5t45.5 7.5q30 0 50 -9.5t30.5 -29t14.5 -35t8 -42.5l235 -1463q2 -10 2 -28q0 -31 -71 -31h-13q-96 -88 -96 -178q0 -49 33.5 -73.5t83.5 -24.5q43 0 92 12q6 2 14 2q18 0 27.5 -11t9.5 -26q0 -17 -12 -29 q-42 -37 -141 -37q-95 0 -162.5 49t-67.5 138q0 55 43.5 110t108.5 86q-9 12 -13 41l-26 162q-5 33 -51 33h-195q-23 0 -34.5 -7t-14.5 -26l-27 -162q-4 -24 -8.5 -34t-24.5 -17.5t-59 -7.5q-72 0 -72 31zM244 438q0 -18 12 -24t39 -6h131q25 0 36 6.5t11 23.5q0 4 -88 553 q-7 47 -12 59.5t-15 12.5t-14.5 -11.5t-11.5 -60.5q-69 -437 -87 -547z" />
<glyph unicode="&#x105;" horiz-adv-x="716" d="M20 31q0 13 3 28l235 1463q6 32 10.5 48.5t14.5 34.5t27.5 25.5t45.5 7.5q30 0 50 -9.5t30.5 -29t14.5 -35t8 -42.5l235 -1463q2 -10 2 -28q0 -31 -71 -31h-13q-96 -88 -96 -178q0 -49 33.5 -73.5t83.5 -24.5q43 0 92 12q6 2 14 2q18 0 27.5 -11t9.5 -26q0 -17 -12 -29 q-42 -37 -141 -37q-95 0 -162.5 49t-67.5 138q0 55 43.5 110t108.5 86q-9 12 -13 41l-26 162q-5 33 -51 33h-195q-23 0 -34.5 -7t-14.5 -26l-27 -162q-4 -24 -8.5 -34t-24.5 -17.5t-59 -7.5q-72 0 -72 31zM244 438q0 -18 12 -24t39 -6h131q25 0 36 6.5t11 23.5q0 4 -88 553 q-7 47 -12 59.5t-15 12.5t-14.5 -11.5t-11.5 -60.5q-69 -437 -87 -547z" />
<glyph unicode="&#x106;" horiz-adv-x="808" d="M82 299v1040q0 140 85.5 230t250.5 90q167 0 253.5 -89t86.5 -231q0 -39 -17 -48t-69 -9q-78 0 -78 37q0 186 -176 186q-85 0 -128.5 -48t-43.5 -138v-1000q0 -90 43.5 -138t128.5 -48q176 0 176 186q0 37 78 37q52 0 69 -9t17 -48q0 -142 -86 -230.5t-254 -88.5 q-165 0 -250.5 89.5t-85.5 229.5zM293 1819q0 10 18 28l209 209q19 19 29 19q16 0 47 -29.5t31 -46.5q0 -10 -19 -29l-209 -209q-18 -18 -28 -18q-16 0 -47 29.5t-31 46.5z" />
<glyph unicode="&#x107;" horiz-adv-x="808" d="M82 299v1040q0 140 85.5 230t250.5 90q167 0 253.5 -89t86.5 -231q0 -39 -17 -48t-69 -9q-78 0 -78 37q0 186 -176 186q-85 0 -128.5 -48t-43.5 -138v-1000q0 -90 43.5 -138t128.5 -48q176 0 176 186q0 37 78 37q52 0 69 -9t17 -48q0 -142 -86 -230.5t-254 -88.5 q-165 0 -250.5 89.5t-85.5 229.5zM293 1819q0 10 18 28l209 209q19 19 29 19q16 0 47 -29.5t31 -46.5q0 -10 -19 -29l-209 -209q-18 -18 -28 -18q-16 0 -47 29.5t-31 46.5z" />
<glyph unicode="&#x108;" horiz-adv-x="808" d="M82 299v1040q0 140 85.5 230t250.5 90q167 0 253.5 -89t86.5 -231q0 -39 -17 -48t-69 -9q-78 0 -78 37q0 186 -176 186q-85 0 -128.5 -48t-43.5 -138v-1000q0 -90 43.5 -138t128.5 -48q176 0 176 186q0 37 78 37q52 0 69 -9t17 -48q0 -142 -86 -230.5t-254 -88.5 q-165 0 -250.5 89.5t-85.5 229.5zM137 1819q0 9 19 28l200 201q26 29 47 29q22 0 48 -29l200 -201q21 -17 21 -30q0 -15 -31.5 -45.5t-46.5 -30.5q-12 0 -29 20l-162 160l-159 -160q-18 -18 -29 -18q-16 0 -47 29.5t-31 46.5z" />
<glyph unicode="&#x109;" horiz-adv-x="808" d="M82 299v1040q0 140 85.5 230t250.5 90q167 0 253.5 -89t86.5 -231q0 -39 -17 -48t-69 -9q-78 0 -78 37q0 186 -176 186q-85 0 -128.5 -48t-43.5 -138v-1000q0 -90 43.5 -138t128.5 -48q176 0 176 186q0 37 78 37q52 0 69 -9t17 -48q0 -142 -86 -230.5t-254 -88.5 q-165 0 -250.5 89.5t-85.5 229.5zM137 1819q0 9 19 28l200 201q26 29 47 29q22 0 48 -29l200 -201q21 -17 21 -30q0 -15 -31.5 -45.5t-46.5 -30.5q-12 0 -29 20l-162 160l-159 -160q-18 -18 -29 -18q-16 0 -47 29.5t-31 46.5z" />
<glyph unicode="&#x10a;" horiz-adv-x="808" d="M82 299v1040q0 140 85.5 230t250.5 90q167 0 253.5 -89t86.5 -231q0 -39 -17 -48t-69 -9q-78 0 -78 37q0 186 -176 186q-85 0 -128.5 -48t-43.5 -138v-1000q0 -90 43.5 -138t128.5 -48q176 0 176 186q0 37 78 37q52 0 69 -9t17 -48q0 -142 -86 -230.5t-254 -88.5 q-165 0 -250.5 89.5t-85.5 229.5zM322 1835q0 39 1 57t10 28.5t18.5 11.5t35.5 1h33q26 0 35.5 -1t18.5 -11.5t10 -28.5t1 -57q0 -69 -9.5 -81.5t-55.5 -12.5h-33q-46 0 -55.5 12.5t-9.5 81.5z" />
<glyph unicode="&#x10b;" horiz-adv-x="808" d="M82 299v1040q0 140 85.5 230t250.5 90q167 0 253.5 -89t86.5 -231q0 -39 -17 -48t-69 -9q-78 0 -78 37q0 186 -176 186q-85 0 -128.5 -48t-43.5 -138v-1000q0 -90 43.5 -138t128.5 -48q176 0 176 186q0 37 78 37q52 0 69 -9t17 -48q0 -142 -86 -230.5t-254 -88.5 q-165 0 -250.5 89.5t-85.5 229.5zM322 1835q0 39 1 57t10 28.5t18.5 11.5t35.5 1h33q26 0 35.5 -1t18.5 -11.5t10 -28.5t1 -57q0 -69 -9.5 -81.5t-55.5 -12.5h-33q-46 0 -55.5 12.5t-9.5 81.5z" />
<glyph unicode="&#x10c;" horiz-adv-x="808" d="M82 299v1040q0 140 85.5 230t250.5 90q167 0 253.5 -89t86.5 -231q0 -39 -17 -48t-69 -9q-78 0 -78 37q0 186 -176 186q-85 0 -128.5 -48t-43.5 -138v-1000q0 -90 43.5 -138t128.5 -48q176 0 176 186q0 37 78 37q52 0 69 -9t17 -48q0 -142 -86 -230.5t-254 -88.5 q-165 0 -250.5 89.5t-85.5 229.5zM137 1999q0 17 31 46.5t47 29.5q10 0 29 -19l159 -160l162 160q17 21 29 21q15 0 46.5 -30.5t31.5 -45.5q0 -13 -21 -31l-200 -201q-25 -28 -48 -28q-22 0 -47 28l-200 201q-19 19 -19 29z" />
<glyph unicode="&#x10d;" horiz-adv-x="808" d="M82 299v1040q0 140 85.5 230t250.5 90q167 0 253.5 -89t86.5 -231q0 -39 -17 -48t-69 -9q-78 0 -78 37q0 186 -176 186q-85 0 -128.5 -48t-43.5 -138v-1000q0 -90 43.5 -138t128.5 -48q176 0 176 186q0 37 78 37q52 0 69 -9t17 -48q0 -142 -86 -230.5t-254 -88.5 q-165 0 -250.5 89.5t-85.5 229.5zM137 1999q0 17 31 46.5t47 29.5q10 0 29 -19l159 -160l162 160q17 21 29 21q15 0 46.5 -30.5t31.5 -45.5q0 -13 -21 -31l-200 -201q-25 -28 -48 -28q-22 0 -47 28l-200 201q-19 19 -19 29z" />
<glyph unicode="&#x10e;" horiz-adv-x="845" d="M92 78v1483q0 29 3 45t12 23t16.5 8t26.5 1h344q86 0 139.5 -18.5t82 -61.5t38.5 -97.5t10 -141.5v-1000q0 -87 -9.5 -141.5t-37.5 -97.5t-81.5 -61.5t-139.5 -18.5h-346q-24 0 -33.5 3t-17 20t-7.5 55zM135 1999q0 17 31 46.5t47 29.5q10 0 29 -19l159 -160l162 160 q17 21 29 21q15 0 46.5 -30.5t31.5 -45.5q0 -13 -21 -31l-200 -201q-25 -28 -48 -28q-22 0 -47 28l-200 201q-19 19 -19 29zM256 205q0 -31 10 -41t41 -10h154q29 0 49 3.5t35.5 9t25 18.5t16 26.5t9 38t3.5 48t1 62.5v918q0 55 -2 84t-9 57t-22.5 40t-40.5 19t-65 7h-154 q-31 0 -41 -10t-10 -41v-1229z" />
<glyph unicode="&#x10f;" horiz-adv-x="845" d="M92 78v1483q0 29 3 45t12 23t16.5 8t26.5 1h344q86 0 139.5 -18.5t82 -61.5t38.5 -97.5t10 -141.5v-1000q0 -87 -9.5 -141.5t-37.5 -97.5t-81.5 -61.5t-139.5 -18.5h-346q-24 0 -33.5 3t-17 20t-7.5 55zM135 1999q0 17 31 46.5t47 29.5q10 0 29 -19l159 -160l162 160 q17 21 29 21q15 0 46.5 -30.5t31.5 -45.5q0 -13 -21 -31l-200 -201q-25 -28 -48 -28q-22 0 -47 28l-200 201q-19 19 -19 29zM256 205q0 -31 10 -41t41 -10h154q29 0 49 3.5t35.5 9t25 18.5t16 26.5t9 38t3.5 48t1 62.5v918q0 55 -2 84t-9 57t-22.5 40t-40.5 19t-65 7h-154 q-31 0 -41 -10t-10 -41v-1229z" />
<glyph unicode="&#x110;" horiz-adv-x="845" d="M0 829q0 38 7.5 55t17.5 20t34 3h33v654q0 29 3 45t12 23t16.5 8t26.5 1h344q86 0 139.5 -18.5t82 -61.5t38.5 -97.5t10 -141.5v-1000q0 -87 -9.5 -141.5t-37.5 -97.5t-81.5 -61.5t-139.5 -18.5h-346q-24 0 -33.5 3t-17 20t-7.5 55v676h-33q-19 0 -26.5 1t-17 8 t-12.5 22.5t-3 43.5zM256 205q0 -31 10 -41t41 -10h154q29 0 49 3.5t35.5 9t25 18.5t16 26.5t9 38t3.5 48t1 62.5v918q0 55 -2 84t-9 57t-22.5 40t-40.5 19t-65 7h-154q-31 0 -41 -10t-10 -41v-527h113q24 0 34 -3t17.5 -20t7.5 -55q0 -28 -3 -43.5t-12.5 -22.5t-17 -8 t-26.5 -1h-113v-549z" />
<glyph unicode="&#x111;" horiz-adv-x="845" d="M0 829q0 38 7.5 55t17.5 20t34 3h33v654q0 29 3 45t12 23t16.5 8t26.5 1h344q86 0 139.5 -18.5t82 -61.5t38.5 -97.5t10 -141.5v-1000q0 -87 -9.5 -141.5t-37.5 -97.5t-81.5 -61.5t-139.5 -18.5h-346q-24 0 -33.5 3t-17 20t-7.5 55v676h-33q-19 0 -26.5 1t-17 8 t-12.5 22.5t-3 43.5zM256 205q0 -31 10 -41t41 -10h154q29 0 49 3.5t35.5 9t25 18.5t16 26.5t9 38t3.5 48t1 62.5v918q0 55 -2 84t-9 57t-22.5 40t-40.5 19t-65 7h-154q-31 0 -41 -10t-10 -41v-527h113q24 0 34 -3t17.5 -20t7.5 -55q0 -28 -3 -43.5t-12.5 -22.5t-17 -8 t-26.5 -1h-113v-549z" />
<glyph unicode="&#x112;" horiz-adv-x="833" d="M92 78v1483q0 29 3 45t12 23t16.5 8t26.5 1h593q19 0 26.5 -1t17.5 -8t13 -23t3 -45q0 -28 -3.5 -44t-12.5 -22.5t-17.5 -8t-26.5 -1.5h-436q-31 0 -41 -10t-10 -41v-476q0 -31 10 -41t41 -10h217q18 0 26.5 -1.5t17.5 -8.5t12.5 -23t3.5 -45q0 -28 -3 -44t-13 -22.5 t-17.5 -7.5t-26.5 -1h-217q-29 0 -40 -8.5t-11 -32.5v-508q0 -31 10 -41t41 -10h436q18 0 26.5 -1.5t17.5 -8t12.5 -22.5t3.5 -44q0 -29 -3.5 -45t-12.5 -23t-17.5 -8.5t-26.5 -1.5h-593q-24 0 -33.5 3t-17 20t-7.5 55zM147 1794q0 39 9 48t34 9h525q18 0 25 -2t12.5 -15 t5.5 -40t-5.5 -39t-12.5 -14t-25 -2h-525q-18 0 -25 2t-12.5 14t-5.5 39z" />
<glyph unicode="&#x113;" horiz-adv-x="833" d="M92 78v1483q0 29 3 45t12 23t16.5 8t26.5 1h593q19 0 26.5 -1t17.5 -8t13 -23t3 -45q0 -28 -3.5 -44t-12.5 -22.5t-17.5 -8t-26.5 -1.5h-436q-31 0 -41 -10t-10 -41v-476q0 -31 10 -41t41 -10h217q18 0 26.5 -1.5t17.5 -8.5t12.5 -23t3.5 -45q0 -28 -3 -44t-13 -22.5 t-17.5 -7.5t-26.5 -1h-217q-29 0 -40 -8.5t-11 -32.5v-508q0 -31 10 -41t41 -10h436q18 0 26.5 -1.5t17.5 -8t12.5 -22.5t3.5 -44q0 -29 -3.5 -45t-12.5 -23t-17.5 -8.5t-26.5 -1.5h-593q-24 0 -33.5 3t-17 20t-7.5 55zM147 1794q0 39 9 48t34 9h525q18 0 25 -2t12.5 -15 t5.5 -40t-5.5 -39t-12.5 -14t-25 -2h-525q-18 0 -25 2t-12.5 14t-5.5 39z" />
<glyph unicode="&#x114;" horiz-adv-x="833" d="M92 78v1483q0 29 3 45t12 23t16.5 8t26.5 1h593q19 0 26.5 -1t17.5 -8t13 -23t3 -45q0 -28 -3.5 -44t-12.5 -22.5t-17.5 -8t-26.5 -1.5h-436q-31 0 -41 -10t-10 -41v-476q0 -31 10 -41t41 -10h217q18 0 26.5 -1.5t17.5 -8.5t12.5 -23t3.5 -45q0 -28 -3 -44t-13 -22.5 t-17.5 -7.5t-26.5 -1h-217q-29 0 -40 -8.5t-11 -32.5v-508q0 -31 10 -41t41 -10h436q18 0 26.5 -1.5t17.5 -8t12.5 -22.5t3.5 -44q0 -29 -3.5 -45t-12.5 -23t-17.5 -8.5t-26.5 -1.5h-593q-24 0 -33.5 3t-17 20t-7.5 55zM170 1931q0 26 13 36.5t50 10.5q34 0 44 -7t10 -25 q0 -65 31.5 -100.5t91.5 -35.5q127 0 127 136q0 11 2 16t13 8.5t34 3.5q43 0 55 -9.5t12 -33.5q0 -103 -61.5 -167t-181.5 -64q-118 0 -179 64.5t-61 166.5z" />
<glyph unicode="&#x115;" horiz-adv-x="833" d="M92 78v1483q0 29 3 45t12 23t16.5 8t26.5 1h593q19 0 26.5 -1t17.5 -8t13 -23t3 -45q0 -28 -3.5 -44t-12.5 -22.5t-17.5 -8t-26.5 -1.5h-436q-31 0 -41 -10t-10 -41v-476q0 -31 10 -41t41 -10h217q18 0 26.5 -1.5t17.5 -8.5t12.5 -23t3.5 -45q0 -28 -3 -44t-13 -22.5 t-17.5 -7.5t-26.5 -1h-217q-29 0 -40 -8.5t-11 -32.5v-508q0 -31 10 -41t41 -10h436q18 0 26.5 -1.5t17.5 -8t12.5 -22.5t3.5 -44q0 -29 -3.5 -45t-12.5 -23t-17.5 -8.5t-26.5 -1.5h-593q-24 0 -33.5 3t-17 20t-7.5 55zM170 1931q0 26 13 36.5t50 10.5q34 0 44 -7t10 -25 q0 -65 31.5 -100.5t91.5 -35.5q127 0 127 136q0 11 2 16t13 8.5t34 3.5q43 0 55 -9.5t12 -33.5q0 -103 -61.5 -167t-181.5 -64q-118 0 -179 64.5t-61 166.5z" />
<glyph unicode="&#x116;" horiz-adv-x="833" d="M92 78v1483q0 29 3 45t12 23t16.5 8t26.5 1h593q19 0 26.5 -1t17.5 -8t13 -23t3 -45q0 -28 -3.5 -44t-12.5 -22.5t-17.5 -8t-26.5 -1.5h-436q-31 0 -41 -10t-10 -41v-476q0 -31 10 -41t41 -10h217q18 0 26.5 -1.5t17.5 -8.5t12.5 -23t3.5 -45q0 -28 -3 -44t-13 -22.5 t-17.5 -7.5t-26.5 -1h-217q-29 0 -40 -8.5t-11 -32.5v-508q0 -31 10 -41t41 -10h436q18 0 26.5 -1.5t17.5 -8t12.5 -22.5t3.5 -44q0 -29 -3.5 -45t-12.5 -23t-17.5 -8.5t-26.5 -1.5h-593q-24 0 -33.5 3t-17 20t-7.5 55zM391 1835q0 51 5 70t16 23.5t45 4.5h32q26 0 36 -1 t18.5 -11.5t10 -28.5t1.5 -57q0 -37 -1.5 -54.5t-10 -27.5t-18.5 -11t-36 -1h-32q-26 0 -36 1t-18.5 11t-10 27.5t-1.5 54.5z" />
<glyph unicode="&#x117;" horiz-adv-x="833" d="M92 78v1483q0 29 3 45t12 23t16.5 8t26.5 1h593q19 0 26.5 -1t17.5 -8t13 -23t3 -45q0 -28 -3.5 -44t-12.5 -22.5t-17.5 -8t-26.5 -1.5h-436q-31 0 -41 -10t-10 -41v-476q0 -31 10 -41t41 -10h217q18 0 26.5 -1.5t17.5 -8.5t12.5 -23t3.5 -45q0 -28 -3 -44t-13 -22.5 t-17.5 -7.5t-26.5 -1h-217q-29 0 -40 -8.5t-11 -32.5v-508q0 -31 10 -41t41 -10h436q18 0 26.5 -1.5t17.5 -8t12.5 -22.5t3.5 -44q0 -29 -3.5 -45t-12.5 -23t-17.5 -8.5t-26.5 -1.5h-593q-24 0 -33.5 3t-17 20t-7.5 55zM391 1835q0 51 5 70t16 23.5t45 4.5h32q26 0 36 -1 t18.5 -11.5t10 -28.5t1.5 -57q0 -37 -1.5 -54.5t-10 -27.5t-18.5 -11t-36 -1h-32q-26 0 -36 1t-18.5 11t-10 27.5t-1.5 54.5z" />
<glyph unicode="&#x118;" horiz-adv-x="833" d="M92 78v1483q0 29 3 45t12 23t16.5 8t26.5 1h593q19 0 26.5 -1t17.5 -8t13 -23t3 -45q0 -28 -3.5 -44t-12.5 -22.5t-17.5 -8t-26.5 -1.5h-436q-31 0 -41 -10t-10 -41v-476q0 -31 10 -41t41 -10h217q18 0 26.5 -1.5t17.5 -8.5t12.5 -23t3.5 -45q0 -28 -3 -44t-13 -22.5 t-17.5 -7.5t-26.5 -1h-217q-29 0 -40 -8.5t-11 -32.5v-508q0 -31 10 -41t41 -10h436q18 0 26.5 -1.5t17.5 -8t12.5 -22.5t3.5 -44q0 -29 -3.5 -45t-12.5 -23t-17.5 -8.5t-26.5 -1.5h-125q-96 -88 -96 -178q0 -49 33.5 -73.5t83.5 -24.5q43 0 92 12q6 2 14 2q18 0 27.5 -11 t9.5 -26q0 -17 -12 -29q-42 -37 -141 -37q-95 0 -162.5 49t-67.5 138q0 47 33 95.5t86 82.5h-368q-24 0 -33.5 3t-17 20t-7.5 55z" />
<glyph unicode="&#x119;" horiz-adv-x="833" d="M92 78v1483q0 29 3 45t12 23t16.5 8t26.5 1h593q19 0 26.5 -1t17.5 -8t13 -23t3 -45q0 -28 -3.5 -44t-12.5 -22.5t-17.5 -8t-26.5 -1.5h-436q-31 0 -41 -10t-10 -41v-476q0 -31 10 -41t41 -10h217q18 0 26.5 -1.5t17.5 -8.5t12.5 -23t3.5 -45q0 -28 -3 -44t-13 -22.5 t-17.5 -7.5t-26.5 -1h-217q-29 0 -40 -8.5t-11 -32.5v-508q0 -31 10 -41t41 -10h436q18 0 26.5 -1.5t17.5 -8t12.5 -22.5t3.5 -44q0 -29 -3.5 -45t-12.5 -23t-17.5 -8.5t-26.5 -1.5h-125q-96 -88 -96 -178q0 -49 33.5 -73.5t83.5 -24.5q43 0 92 12q6 2 14 2q18 0 27.5 -11 t9.5 -26q0 -17 -12 -29q-42 -37 -141 -37q-95 0 -162.5 49t-67.5 138q0 47 33 95.5t86 82.5h-368q-24 0 -33.5 3t-17 20t-7.5 55z" />
<glyph unicode="&#x11a;" horiz-adv-x="833" d="M92 78v1483q0 29 3 45t12 23t16.5 8t26.5 1h593q19 0 26.5 -1t17.5 -8t13 -23t3 -45q0 -28 -3.5 -44t-12.5 -22.5t-17.5 -8t-26.5 -1.5h-436q-31 0 -41 -10t-10 -41v-476q0 -31 10 -41t41 -10h217q18 0 26.5 -1.5t17.5 -8.5t12.5 -23t3.5 -45q0 -28 -3 -44t-13 -22.5 t-17.5 -7.5t-26.5 -1h-217q-29 0 -40 -8.5t-11 -32.5v-508q0 -31 10 -41t41 -10h436q18 0 26.5 -1.5t17.5 -8t12.5 -22.5t3.5 -44q0 -29 -3.5 -45t-12.5 -23t-17.5 -8.5t-26.5 -1.5h-593q-24 0 -33.5 3t-17 20t-7.5 55zM184 1999q0 17 31 46.5t47 29.5q10 0 29 -19l160 -160 l161 160q18 21 29 21q15 0 46.5 -30.5t31.5 -45.5q0 -13 -21 -31l-200 -201q-25 -28 -47 -28q-23 0 -48 28l-200 201q-19 19 -19 29z" />
<glyph unicode="&#x11b;" horiz-adv-x="833" d="M92 78v1483q0 29 3 45t12 23t16.5 8t26.5 1h593q19 0 26.5 -1t17.5 -8t13 -23t3 -45q0 -28 -3.5 -44t-12.5 -22.5t-17.5 -8t-26.5 -1.5h-436q-31 0 -41 -10t-10 -41v-476q0 -31 10 -41t41 -10h217q18 0 26.5 -1.5t17.5 -8.5t12.5 -23t3.5 -45q0 -28 -3 -44t-13 -22.5 t-17.5 -7.5t-26.5 -1h-217q-29 0 -40 -8.5t-11 -32.5v-508q0 -31 10 -41t41 -10h436q18 0 26.5 -1.5t17.5 -8t12.5 -22.5t3.5 -44q0 -29 -3.5 -45t-12.5 -23t-17.5 -8.5t-26.5 -1.5h-593q-24 0 -33.5 3t-17 20t-7.5 55zM184 1999q0 17 31 46.5t47 29.5q10 0 29 -19l160 -160 l161 160q18 21 29 21q15 0 46.5 -30.5t31.5 -45.5q0 -13 -21 -31l-200 -201q-25 -28 -47 -28q-23 0 -48 28l-200 201q-19 19 -19 29z" />
<glyph unicode="&#x11c;" horiz-adv-x="819" d="M82 299v1040q0 140 85.5 230t250.5 90q167 0 253.5 -89t86.5 -231q0 -39 -17 -48t-69 -9q-78 0 -78 37q0 186 -176 186q-85 0 -128.5 -48t-43.5 -138v-1000q0 -90 43.5 -138t128.5 -48q176 0 176 186v281q0 31 -10 41t-41 10h-17q-18 0 -26 1.5t-17.5 8t-12.5 22.5t-3 44 q0 38 7.5 55t17.5 20t34 3h174q24 0 33.5 -3t17 -20t7.5 -55v-428q0 -153 -92 -236t-248 -83q-165 0 -250.5 89.5t-85.5 229.5zM141 1819q0 9 19 28l200 201q26 29 48 29q21 0 47 -29l200 -201q21 -17 21 -30q0 -15 -31.5 -45.5t-46.5 -30.5q-12 0 -29 20l-161 160 l-160 -160q-18 -18 -29 -18q-16 0 -47 29.5t-31 46.5z" />
<glyph unicode="&#x11d;" horiz-adv-x="819" d="M82 299v1040q0 140 85.5 230t250.5 90q167 0 253.5 -89t86.5 -231q0 -39 -17 -48t-69 -9q-78 0 -78 37q0 186 -176 186q-85 0 -128.5 -48t-43.5 -138v-1000q0 -90 43.5 -138t128.5 -48q176 0 176 186v281q0 31 -10 41t-41 10h-17q-18 0 -26 1.5t-17.5 8t-12.5 22.5t-3 44 q0 38 7.5 55t17.5 20t34 3h174q24 0 33.5 -3t17 -20t7.5 -55v-428q0 -153 -92 -236t-248 -83q-165 0 -250.5 89.5t-85.5 229.5zM141 1819q0 9 19 28l200 201q26 29 48 29q21 0 47 -29l200 -201q21 -17 21 -30q0 -15 -31.5 -45.5t-46.5 -30.5q-12 0 -29 20l-161 160 l-160 -160q-18 -18 -29 -18q-16 0 -47 29.5t-31 46.5z" />
<glyph unicode="&#x11e;" horiz-adv-x="819" d="M82 299v1040q0 140 85.5 230t250.5 90q167 0 253.5 -89t86.5 -231q0 -39 -17 -48t-69 -9q-78 0 -78 37q0 186 -176 186q-85 0 -128.5 -48t-43.5 -138v-1000q0 -90 43.5 -138t128.5 -48q176 0 176 186v281q0 31 -10 41t-41 10h-17q-18 0 -26 1.5t-17.5 8t-12.5 22.5t-3 44 q0 38 7.5 55t17.5 20t34 3h174q24 0 33.5 -3t17 -20t7.5 -55v-428q0 -153 -92 -236t-248 -83q-165 0 -250.5 89.5t-85.5 229.5zM168 1931q0 26 13 36.5t50 10.5q34 0 44 -7t10 -25q0 -65 31.5 -100.5t91.5 -35.5q127 0 127 136q0 11 2 16t13 8.5t34 3.5q43 0 55 -9.5 t12 -33.5q0 -103 -61.5 -167t-181.5 -64q-118 0 -179 64.5t-61 166.5z" />
<glyph unicode="&#x11f;" horiz-adv-x="819" d="M82 299v1040q0 140 85.5 230t250.5 90q167 0 253.5 -89t86.5 -231q0 -39 -17 -48t-69 -9q-78 0 -78 37q0 186 -176 186q-85 0 -128.5 -48t-43.5 -138v-1000q0 -90 43.5 -138t128.5 -48q176 0 176 186v281q0 31 -10 41t-41 10h-17q-18 0 -26 1.5t-17.5 8t-12.5 22.5t-3 44 q0 38 7.5 55t17.5 20t34 3h174q24 0 33.5 -3t17 -20t7.5 -55v-428q0 -153 -92 -236t-248 -83q-165 0 -250.5 89.5t-85.5 229.5zM168 1931q0 26 13 36.5t50 10.5q34 0 44 -7t10 -25q0 -65 31.5 -100.5t91.5 -35.5q127 0 127 136q0 11 2 16t13 8.5t34 3.5q43 0 55 -9.5 t12 -33.5q0 -103 -61.5 -167t-181.5 -64q-118 0 -179 64.5t-61 166.5z" />
<glyph unicode="&#x120;" horiz-adv-x="819" d="M82 299v1040q0 140 85.5 230t250.5 90q167 0 253.5 -89t86.5 -231q0 -39 -17 -48t-69 -9q-78 0 -78 37q0 186 -176 186q-85 0 -128.5 -48t-43.5 -138v-1000q0 -90 43.5 -138t128.5 -48q176 0 176 186v281q0 31 -10 41t-41 10h-17q-18 0 -26 1.5t-17.5 8t-12.5 22.5t-3 44 q0 38 7.5 55t17.5 20t34 3h174q24 0 33.5 -3t17 -20t7.5 -55v-428q0 -153 -92 -236t-248 -83q-165 0 -250.5 89.5t-85.5 229.5zM328 1835q0 39 1 57t10 28.5t18.5 11.5t35.5 1h33q26 0 36 -1t18.5 -11.5t10 -28.5t1.5 -57q0 -37 -1.5 -54.5t-10 -27.5t-18.5 -11t-36 -1h-33 q-46 0 -55.5 12.5t-9.5 81.5z" />
<glyph unicode="&#x121;" horiz-adv-x="819" d="M82 299v1040q0 140 85.5 230t250.5 90q167 0 253.5 -89t86.5 -231q0 -39 -17 -48t-69 -9q-78 0 -78 37q0 186 -176 186q-85 0 -128.5 -48t-43.5 -138v-1000q0 -90 43.5 -138t128.5 -48q176 0 176 186v281q0 31 -10 41t-41 10h-17q-18 0 -26 1.5t-17.5 8t-12.5 22.5t-3 44 q0 38 7.5 55t17.5 20t34 3h174q24 0 33.5 -3t17 -20t7.5 -55v-428q0 -153 -92 -236t-248 -83q-165 0 -250.5 89.5t-85.5 229.5zM328 1835q0 39 1 57t10 28.5t18.5 11.5t35.5 1h33q26 0 36 -1t18.5 -11.5t10 -28.5t1.5 -57q0 -37 -1.5 -54.5t-10 -27.5t-18.5 -11t-36 -1h-33 q-46 0 -55.5 12.5t-9.5 81.5z" />
<glyph unicode="&#x122;" horiz-adv-x="819" d="M82 299v1040q0 140 85.5 230t250.5 90q167 0 253.5 -89t86.5 -231q0 -39 -17 -48t-69 -9q-78 0 -78 37q0 186 -176 186q-85 0 -128.5 -48t-43.5 -138v-1000q0 -90 43.5 -138t128.5 -48q176 0 176 186v281q0 31 -10 41t-41 10h-17q-18 0 -26 1.5t-17.5 8t-12.5 22.5t-3 44 q0 38 7.5 55t17.5 20t34 3h174q24 0 33.5 -3t17 -20t7.5 -55v-428q0 -153 -92 -236t-248 -83q-165 0 -250.5 89.5t-85.5 229.5zM328 -162q0 24 3 34t21 18t56 8q40 0 59 -8t22 -18t3 -34v-270q0 -24 -3 -34t-22 -18t-59 -8q-38 0 -56 8t-21 18t-3 34v270z" />
<glyph unicode="&#x123;" horiz-adv-x="819" d="M82 299v1040q0 140 85.5 230t250.5 90q167 0 253.5 -89t86.5 -231q0 -39 -17 -48t-69 -9q-78 0 -78 37q0 186 -176 186q-85 0 -128.5 -48t-43.5 -138v-1000q0 -90 43.5 -138t128.5 -48q176 0 176 186v281q0 31 -10 41t-41 10h-17q-18 0 -26 1.5t-17.5 8t-12.5 22.5t-3 44 q0 38 7.5 55t17.5 20t34 3h174q24 0 33.5 -3t17 -20t7.5 -55v-428q0 -153 -92 -236t-248 -83q-165 0 -250.5 89.5t-85.5 229.5zM328 -162q0 24 3 34t21 18t56 8q40 0 59 -8t22 -18t3 -34v-270q0 -24 -3 -34t-22 -18t-59 -8q-38 0 -56 8t-21 18t-3 34v270z" />
<glyph unicode="&#x124;" d="M92 59v1520q0 24 3 34t21 17.5t56 7.5q31 0 48.5 -3t25 -12.5t9 -17.5t1.5 -26v-633q0 -23 11.5 -31t39.5 -8h246q28 0 39.5 8t11.5 31v633q0 24 3 34t21 17.5t56 7.5q31 0 48.5 -3t25 -12.5t9 -17.5t1.5 -26v-1520q0 -18 -1.5 -26t-9 -17.5t-25 -12.5t-48.5 -3 q-38 0 -56 7.5t-21 17.5t-3 34v662q0 33 -51 33h-246q-29 0 -40 -8.5t-11 -32.5v-654q0 -18 -1.5 -26t-9 -17.5t-25 -12.5t-48.5 -3q-38 0 -56 7.5t-21 17.5t-3 34zM162 1819q0 10 18 28l201 201q26 29 47 29t47 -29l201 -201q20 -17 20 -30q0 -15 -31.5 -45.5t-46.5 -30.5 q-11 0 -28 20l-162 160l-160 -160q-18 -18 -28 -18q-16 0 -47 29.5t-31 46.5z" />
<glyph unicode="&#x125;" d="M92 59v1520q0 24 3 34t21 17.5t56 7.5q31 0 48.5 -3t25 -12.5t9 -17.5t1.5 -26v-633q0 -23 11.5 -31t39.5 -8h246q28 0 39.5 8t11.5 31v633q0 24 3 34t21 17.5t56 7.5q31 0 48.5 -3t25 -12.5t9 -17.5t1.5 -26v-1520q0 -18 -1.5 -26t-9 -17.5t-25 -12.5t-48.5 -3 q-38 0 -56 7.5t-21 17.5t-3 34v662q0 33 -51 33h-246q-29 0 -40 -8.5t-11 -32.5v-654q0 -18 -1.5 -26t-9 -17.5t-25 -12.5t-48.5 -3q-38 0 -56 7.5t-21 17.5t-3 34zM162 1819q0 10 18 28l201 201q26 29 47 29t47 -29l201 -201q20 -17 20 -30q0 -15 -31.5 -45.5t-46.5 -30.5 q-11 0 -28 20l-162 160l-160 -160q-18 -18 -28 -18q-16 0 -47 29.5t-31 46.5z" />
<glyph unicode="&#x126;" d="M2 1264q0 41 10 54t33 13h47v248q0 24 3 34t21 17.5t56 7.5q31 0 48.5 -3t25 -12.5t9 -17.5t1.5 -26v-248h348v248q0 24 3 34t21 17.5t56 7.5q31 0 48.5 -3t25 -12.5t9 -17.5t1.5 -26v-248h47q23 0 33 -13t10 -54q0 -39 -10 -52.5t-33 -13.5h-47v-1139q0 -18 -1.5 -26 t-9 -17.5t-25 -12.5t-48.5 -3q-38 0 -56 7.5t-21 17.5t-3 34v662q0 33 -51 33h-246q-29 0 -40 -8.5t-11 -32.5v-654q0 -18 -1.5 -26t-9 -17.5t-25 -12.5t-48.5 -3q-38 0 -56 7.5t-21 17.5t-3 34v1139h-47q-23 0 -33 13.5t-10 52.5zM256 946q0 -23 11.5 -31t39.5 -8h246 q28 0 39.5 8t11.5 31v252h-348v-252z" />
<glyph unicode="&#x127;" d="M2 1264q0 41 10 54t33 13h47v248q0 24 3 34t21 17.5t56 7.5q31 0 48.5 -3t25 -12.5t9 -17.5t1.5 -26v-248h348v248q0 24 3 34t21 17.5t56 7.5q31 0 48.5 -3t25 -12.5t9 -17.5t1.5 -26v-248h47q23 0 33 -13t10 -54q0 -39 -10 -52.5t-33 -13.5h-47v-1139q0 -18 -1.5 -26 t-9 -17.5t-25 -12.5t-48.5 -3q-38 0 -56 7.5t-21 17.5t-3 34v662q0 33 -51 33h-246q-29 0 -40 -8.5t-11 -32.5v-654q0 -18 -1.5 -26t-9 -17.5t-25 -12.5t-48.5 -3q-38 0 -56 7.5t-21 17.5t-3 34v1139h-47q-23 0 -33 13.5t-10 52.5zM256 946q0 -23 11.5 -31t39.5 -8h246 q28 0 39.5 8t11.5 31v252h-348v-252z" />
<glyph unicode="&#x128;" horiz-adv-x="530" d="M-14 1780q0 4 1 7t2.5 6l2.5 5q27 69 81 105t109 36q32 0 102 -38.5t89 -38.5t37.5 8t28.5 16t27 24t21 19q6 6 17 6q15 0 28 -12t13 -27q0 -6 -4 -18q-24 -68 -78 -103.5t-109 -35.5q-28 0 -95.5 39t-92.5 39q-21 0 -40 -8.5t-30 -17.5t-27 -25t-22 -21q-8 -8 -20 -8 q-14 0 -27.5 14t-13.5 29zM41 78q0 28 3 44t12.5 22.5t17.5 8t26 1.5h33q31 0 41 10t10 41v1229q0 31 -10 41t-41 10h-33q-18 0 -26 1.5t-17.5 8t-12.5 22.5t-3 44q0 29 3 45t12.5 23t17 8t26.5 1h330q19 0 26.5 -1t17 -8t12.5 -23t3 -45q0 -28 -3 -44t-12.5 -22.5t-17.5 -8 t-26 -1.5h-31q-31 0 -41 -10t-10 -41v-1229q0 -31 10 -41t41 -10h31q18 0 26 -1.5t17.5 -8t12.5 -22.5t3 -44q0 -38 -7.5 -55t-17.5 -20t-34 -3h-330q-24 0 -34 3t-17.5 20t-7.5 55z" />
<glyph unicode="&#x129;" horiz-adv-x="530" d="M-14 1780q0 4 1 7t2.5 6l2.5 5q27 69 81 105t109 36q32 0 102 -38.5t89 -38.5t37.5 8t28.5 16t27 24t21 19q6 6 17 6q15 0 28 -12t13 -27q0 -6 -4 -18q-24 -68 -78 -103.5t-109 -35.5q-28 0 -95.5 39t-92.5 39q-21 0 -40 -8.5t-30 -17.5t-27 -25t-22 -21q-8 -8 -20 -8 q-14 0 -27.5 14t-13.5 29zM41 78q0 28 3 44t12.5 22.5t17.5 8t26 1.5h33q31 0 41 10t10 41v1229q0 31 -10 41t-41 10h-33q-18 0 -26 1.5t-17.5 8t-12.5 22.5t-3 44q0 29 3 45t12.5 23t17 8t26.5 1h330q19 0 26.5 -1t17 -8t12.5 -23t3 -45q0 -28 -3 -44t-12.5 -22.5t-17.5 -8 t-26 -1.5h-31q-31 0 -41 -10t-10 -41v-1229q0 -31 10 -41t41 -10h31q18 0 26 -1.5t17.5 -8t12.5 -22.5t3 -44q0 -38 -7.5 -55t-17.5 -20t-34 -3h-330q-24 0 -34 3t-17.5 20t-7.5 55z" />
<glyph unicode="&#x12a;" horiz-adv-x="530" d="M-39 1794q0 39 9 48t34 9h524q18 0 25 -2t12.5 -15t5.5 -40t-5.5 -39t-12.5 -14t-25 -2h-524q-18 0 -25 2t-12.5 14t-5.5 39zM41 78q0 28 3 44t12.5 22.5t17.5 8t26 1.5h33q31 0 41 10t10 41v1229q0 31 -10 41t-41 10h-33q-18 0 -26 1.5t-17.5 8t-12.5 22.5t-3 44 q0 29 3 45t12.5 23t17 8t26.5 1h330q19 0 26.5 -1t17 -8t12.5 -23t3 -45q0 -28 -3 -44t-12.5 -22.5t-17.5 -8t-26 -1.5h-31q-31 0 -41 -10t-10 -41v-1229q0 -31 10 -41t41 -10h31q18 0 26 -1.5t17.5 -8t12.5 -22.5t3 -44q0 -38 -7.5 -55t-17.5 -20t-34 -3h-330q-24 0 -34 3 t-17.5 20t-7.5 55z" />
<glyph unicode="&#x12b;" horiz-adv-x="530" d="M-39 1794q0 39 9 48t34 9h524q18 0 25 -2t12.5 -15t5.5 -40t-5.5 -39t-12.5 -14t-25 -2h-524q-18 0 -25 2t-12.5 14t-5.5 39zM41 78q0 28 3 44t12.5 22.5t17.5 8t26 1.5h33q31 0 41 10t10 41v1229q0 31 -10 41t-41 10h-33q-18 0 -26 1.5t-17.5 8t-12.5 22.5t-3 44 q0 29 3 45t12.5 23t17 8t26.5 1h330q19 0 26.5 -1t17 -8t12.5 -23t3 -45q0 -28 -3 -44t-12.5 -22.5t-17.5 -8t-26 -1.5h-31q-31 0 -41 -10t-10 -41v-1229q0 -31 10 -41t41 -10h31q18 0 26 -1.5t17.5 -8t12.5 -22.5t3 -44q0 -38 -7.5 -55t-17.5 -20t-34 -3h-330q-24 0 -34 3 t-17.5 20t-7.5 55z" />
<glyph unicode="&#x12c;" horiz-adv-x="530" d="M25 1931q0 26 13 36.5t50 10.5q34 0 43.5 -7t9.5 -25q0 -65 31.5 -100.5t91.5 -35.5q127 0 127 136q0 11 2 16t13 8.5t34 3.5q43 0 55.5 -9.5t12.5 -33.5q0 -103 -62 -167t-182 -64q-118 0 -178.5 64.5t-60.5 166.5zM41 78q0 28 3 44t12.5 22.5t17.5 8t26 1.5h33 q31 0 41 10t10 41v1229q0 31 -10 41t-41 10h-33q-18 0 -26 1.5t-17.5 8t-12.5 22.5t-3 44q0 29 3 45t12.5 23t17 8t26.5 1h330q19 0 26.5 -1t17 -8t12.5 -23t3 -45q0 -28 -3 -44t-12.5 -22.5t-17.5 -8t-26 -1.5h-31q-31 0 -41 -10t-10 -41v-1229q0 -31 10 -41t41 -10h31 q18 0 26 -1.5t17.5 -8t12.5 -22.5t3 -44q0 -38 -7.5 -55t-17.5 -20t-34 -3h-330q-24 0 -34 3t-17.5 20t-7.5 55z" />
<glyph unicode="&#x12d;" horiz-adv-x="530" d="M25 1931q0 26 13 36.5t50 10.5q34 0 43.5 -7t9.5 -25q0 -65 31.5 -100.5t91.5 -35.5q127 0 127 136q0 11 2 16t13 8.5t34 3.5q43 0 55.5 -9.5t12.5 -33.5q0 -103 -62 -167t-182 -64q-118 0 -178.5 64.5t-60.5 166.5zM41 78q0 28 3 44t12.5 22.5t17.5 8t26 1.5h33 q31 0 41 10t10 41v1229q0 31 -10 41t-41 10h-33q-18 0 -26 1.5t-17.5 8t-12.5 22.5t-3 44q0 29 3 45t12.5 23t17 8t26.5 1h330q19 0 26.5 -1t17 -8t12.5 -23t3 -45q0 -28 -3 -44t-12.5 -22.5t-17.5 -8t-26 -1.5h-31q-31 0 -41 -10t-10 -41v-1229q0 -31 10 -41t41 -10h31 q18 0 26 -1.5t17.5 -8t12.5 -22.5t3 -44q0 -38 -7.5 -55t-17.5 -20t-34 -3h-330q-24 0 -34 3t-17.5 20t-7.5 55z" />
<glyph unicode="&#x12e;" horiz-adv-x="530" d="M41 78q0 28 3 44t12.5 22.5t17.5 8t26 1.5h33q31 0 41 10t10 41v1229q0 31 -10 41t-41 10h-33q-18 0 -26 1.5t-17.5 8t-12.5 22.5t-3 44q0 29 3 45t12.5 23t17 8t26.5 1h330q19 0 26.5 -1t17 -8t12.5 -23t3 -45q0 -28 -3 -44t-12.5 -22.5t-17.5 -8t-26 -1.5h-31 q-31 0 -41 -10t-10 -41v-1229q0 -31 10 -41t41 -10h31q18 0 26 -1.5t17.5 -8t12.5 -22.5t3 -44q0 -38 -7.5 -55t-17.5 -20t-34 -3h-80q-96 -88 -96 -178q0 -49 33.5 -73.5t83.5 -24.5q43 0 92 12q6 2 14 2q18 0 27.5 -11t9.5 -26q0 -17 -12 -29q-42 -37 -142 -37 q-95 0 -162 49t-67 138q0 47 33 95.5t86 82.5h-150q-24 0 -34 3t-17.5 20t-7.5 55z" />
<glyph unicode="&#x12f;" horiz-adv-x="530" d="M41 78q0 28 3 44t12.5 22.5t17.5 8t26 1.5h33q31 0 41 10t10 41v1229q0 31 -10 41t-41 10h-33q-18 0 -26 1.5t-17.5 8t-12.5 22.5t-3 44q0 29 3 45t12.5 23t17 8t26.5 1h330q19 0 26.5 -1t17 -8t12.5 -23t3 -45q0 -28 -3 -44t-12.5 -22.5t-17.5 -8t-26 -1.5h-31 q-31 0 -41 -10t-10 -41v-1229q0 -31 10 -41t41 -10h31q18 0 26 -1.5t17.5 -8t12.5 -22.5t3 -44q0 -38 -7.5 -55t-17.5 -20t-34 -3h-80q-96 -88 -96 -178q0 -49 33.5 -73.5t83.5 -24.5q43 0 92 12q6 2 14 2q18 0 27.5 -11t9.5 -26q0 -17 -12 -29q-42 -37 -142 -37 q-95 0 -162 49t-67 138q0 47 33 95.5t86 82.5h-150q-24 0 -34 3t-17.5 20t-7.5 55z" />
<glyph unicode="&#x130;" horiz-adv-x="530" d="M41 78q0 28 3 44t12.5 22.5t17.5 8t26 1.5h33q31 0 41 10t10 41v1229q0 31 -10 41t-41 10h-33q-18 0 -26 1.5t-17.5 8t-12.5 22.5t-3 44q0 29 3 45t12.5 23t17 8t26.5 1h330q19 0 26.5 -1t17 -8t12.5 -23t3 -45q0 -28 -3 -44t-12.5 -22.5t-17.5 -8t-26 -1.5h-31 q-31 0 -41 -10t-10 -41v-1229q0 -31 10 -41t41 -10h31q18 0 26 -1.5t17.5 -8t12.5 -22.5t3 -44q0 -38 -7.5 -55t-17.5 -20t-34 -3h-330q-24 0 -34 3t-17.5 20t-7.5 55zM182 1835q0 51 5 70t16 23.5t45 4.5h33q26 0 35.5 -1t18.5 -11.5t10 -28.5t1 -57q0 -69 -9.5 -81.5 t-55.5 -12.5h-33q-26 0 -36 1t-18.5 11t-10 27.5t-1.5 54.5z" />
<glyph unicode="&#x131;" horiz-adv-x="530" d="M41 78q0 28 3 44t12.5 22.5t17.5 8t26 1.5h33q31 0 41 10t10 41v1229q0 31 -10 41t-41 10h-33q-18 0 -26 1.5t-17.5 8t-12.5 22.5t-3 44q0 29 3 45t12.5 23t17 8t26.5 1h330q19 0 26.5 -1t17 -8t12.5 -23t3 -45q0 -28 -3 -44t-12.5 -22.5t-17.5 -8t-26 -1.5h-31 q-31 0 -41 -10t-10 -41v-1229q0 -31 10 -41t41 -10h31q18 0 26 -1.5t17.5 -8t12.5 -22.5t3 -44q0 -38 -7.5 -55t-17.5 -20t-34 -3h-330q-24 0 -34 3t-17.5 20t-7.5 55z" />
<glyph unicode="&#x132;" horiz-adv-x="1318" d="M41 78q0 28 3 44t12.5 22.5t17.5 8t26 1.5h33q31 0 41 10t10 41v1229q0 31 -10 41t-41 10h-33q-18 0 -26 1.5t-17.5 8t-12.5 22.5t-3 44q0 29 3 45t12.5 23t17 8t26.5 1h330q19 0 26.5 -1t17 -8t12.5 -23t3 -45q0 -28 -3 -44t-12.5 -22.5t-17.5 -8t-26 -1.5h-31 q-31 0 -41 -10t-10 -41v-1229q0 -31 10 -41t41 -10h31q18 0 26 -1.5t17.5 -8t12.5 -22.5t3 -44q0 -38 -7.5 -55t-17.5 -20t-34 -3h-330q-24 0 -34 3t-17.5 20t-7.5 55zM551 297q0 24 3 34t21 17.5t56 7.5q50 0 67 -9.5t17 -31.5q6 -182 172 -182q176 0 176 186v1260 q0 24 3 34t21 17.5t56 7.5q31 0 48.5 -3t25 -12.5t9 -17.5t1.5 -26v-1280q0 -141 -86.5 -230t-253.5 -89q-166 0 -251 88.5t-85 228.5z" />
<glyph unicode="&#x133;" horiz-adv-x="1318" d="M41 78q0 28 3 44t12.5 22.5t17.5 8t26 1.5h33q31 0 41 10t10 41v1229q0 31 -10 41t-41 10h-33q-18 0 -26 1.5t-17.5 8t-12.5 22.5t-3 44q0 29 3 45t12.5 23t17 8t26.5 1h330q19 0 26.5 -1t17 -8t12.5 -23t3 -45q0 -28 -3 -44t-12.5 -22.5t-17.5 -8t-26 -1.5h-31 q-31 0 -41 -10t-10 -41v-1229q0 -31 10 -41t41 -10h31q18 0 26 -1.5t17.5 -8t12.5 -22.5t3 -44q0 -38 -7.5 -55t-17.5 -20t-34 -3h-330q-24 0 -34 3t-17.5 20t-7.5 55zM551 297q0 24 3 34t21 17.5t56 7.5q50 0 67 -9.5t17 -31.5q6 -182 172 -182q176 0 176 186v1260 q0 24 3 34t21 17.5t56 7.5q31 0 48.5 -3t25 -12.5t9 -17.5t1.5 -26v-1280q0 -141 -86.5 -230t-253.5 -89q-166 0 -251 88.5t-85 228.5z" />
<glyph unicode="&#x134;" horiz-adv-x="788" d="M20 297q0 24 3 34t21 17.5t56 7.5q50 0 67 -9.5t17 -31.5q6 -182 172 -182q176 0 176 186v1260q0 24 3 34t21 17.5t56 7.5q31 0 48.5 -3t25 -12.5t9 -17.5t1.5 -26v-1280q0 -141 -86.5 -230t-253.5 -89q-166 0 -251 88.5t-85 228.5zM348 1819q0 9 19 28l200 201 q26 29 47 29q22 0 48 -29l200 -201q21 -17 21 -30q0 -15 -31.5 -45.5t-46.5 -30.5q-12 0 -29 20l-162 160l-159 -160q-18 -18 -29 -18q-16 0 -47 29.5t-31 46.5z" />
<glyph unicode="&#x135;" horiz-adv-x="788" d="M20 297q0 24 3 34t21 17.5t56 7.5q50 0 67 -9.5t17 -31.5q6 -182 172 -182q176 0 176 186v1260q0 24 3 34t21 17.5t56 7.5q31 0 48.5 -3t25 -12.5t9 -17.5t1.5 -26v-1280q0 -141 -86.5 -230t-253.5 -89q-166 0 -251 88.5t-85 228.5zM348 1819q0 9 19 28l200 201 q26 29 47 29q22 0 48 -29l200 -201q21 -17 21 -30q0 -15 -31.5 -45.5t-46.5 -30.5q-12 0 -29 20l-162 160l-159 -160q-18 -18 -29 -18q-16 0 -47 29.5t-31 46.5z" />
<glyph unicode="&#x136;" horiz-adv-x="755" d="M92 59v1520q0 24 3 34t21 17.5t56 7.5q31 0 48.5 -3t25 -12.5t9 -17.5t1.5 -26v-578q0 -47 12 -47q5 0 8 2t8.5 12.5t14.5 32.5l236 578q10 23 17.5 33.5t28.5 18t60 7.5q66 0 66 -24q0 -12 -9 -35l-149 -360q-31 -73 -31 -111q0 -35 31 -178l192 -871q4 -20 4 -28 q0 -16 -15.5 -23.5t-57.5 -7.5q-39 0 -58.5 7.5t-25 18t-10.5 33.5l-156 701q-7 34 -13 44.5t-14 10.5t-15.5 -10t-21.5 -45l-73 -178q-21 -49 -25 -78t-4 -115v-330q0 -18 -1.5 -26t-9 -17.5t-25 -12.5t-48.5 -3q-38 0 -56 7.5t-21 17.5t-3 34zM334 -162q0 24 3 34t21 18 t56 8q40 0 59 -8t22 -18t3 -34v-270q0 -24 -3 -34t-22 -18t-59 -8q-38 0 -56 8t-21 18t-3 34v270z" />
<glyph unicode="&#x137;" horiz-adv-x="755" d="M92 59v1520q0 24 3 34t21 17.5t56 7.5q31 0 48.5 -3t25 -12.5t9 -17.5t1.5 -26v-578q0 -47 12 -47q5 0 8 2t8.5 12.5t14.5 32.5l236 578q10 23 17.5 33.5t28.5 18t60 7.5q66 0 66 -24q0 -12 -9 -35l-149 -360q-31 -73 -31 -111q0 -35 31 -178l192 -871q4 -20 4 -28 q0 -16 -15.5 -23.5t-57.5 -7.5q-39 0 -58.5 7.5t-25 18t-10.5 33.5l-156 701q-7 34 -13 44.5t-14 10.5t-15.5 -10t-21.5 -45l-73 -178q-21 -49 -25 -78t-4 -115v-330q0 -18 -1.5 -26t-9 -17.5t-25 -12.5t-48.5 -3q-38 0 -56 7.5t-21 17.5t-3 34zM334 -162q0 24 3 34t21 18 t56 8q40 0 59 -8t22 -18t3 -34v-270q0 -24 -3 -34t-22 -18t-59 -8q-38 0 -56 8t-21 18t-3 34v270z" />
<glyph unicode="&#x138;" horiz-adv-x="755" d="M92 59v1520q0 24 3 34t21 17.5t56 7.5q31 0 48.5 -3t25 -12.5t9 -17.5t1.5 -26v-578q0 -47 12 -47q5 0 8 2t8.5 12.5t14.5 32.5l236 578q10 23 17.5 33.5t28.5 18t60 7.5q66 0 66 -24q0 -12 -9 -35l-149 -360q-31 -73 -31 -111q0 -35 31 -178l192 -871q4 -20 4 -28 q0 -16 -15.5 -23.5t-57.5 -7.5q-39 0 -58.5 7.5t-25 18t-10.5 33.5l-156 701q-7 34 -13 44.5t-14 10.5t-15.5 -10t-21.5 -45l-73 -178q-21 -49 -25 -78t-4 -115v-330q0 -18 -1.5 -26t-9 -17.5t-25 -12.5t-48.5 -3q-38 0 -56 7.5t-21 17.5t-3 34z" />
<glyph unicode="&#x139;" horiz-adv-x="782" d="M92 78v1501q0 24 3 34t21 17.5t56 7.5q31 0 48.5 -3t25 -12.5t9 -17.5t1.5 -26v-1374q0 -31 10 -41t41 -10h395q18 0 26.5 -1.5t17.5 -8t12.5 -22.5t3.5 -44q0 -29 -3.5 -45t-12.5 -23t-17.5 -8.5t-26.5 -1.5h-552q-24 0 -33.5 3t-17 20t-7.5 55zM92 1819q0 9 19 28 l208 209q19 19 29 19q16 0 47 -29.5t31 -46.5q0 -11 -18 -29l-209 -209q-18 -18 -29 -18q-16 0 -47 29.5t-31 46.5z" />
<glyph unicode="&#x13a;" horiz-adv-x="782" d="M92 78v1501q0 24 3 34t21 17.5t56 7.5q31 0 48.5 -3t25 -12.5t9 -17.5t1.5 -26v-1374q0 -31 10 -41t41 -10h395q18 0 26.5 -1.5t17.5 -8t12.5 -22.5t3.5 -44q0 -29 -3.5 -45t-12.5 -23t-17.5 -8.5t-26.5 -1.5h-552q-24 0 -33.5 3t-17 20t-7.5 55zM92 1819q0 9 19 28 l208 209q19 19 29 19q16 0 47 -29.5t31 -46.5q0 -11 -18 -29l-209 -209q-18 -18 -29 -18q-16 0 -47 29.5t-31 46.5z" />
<glyph unicode="&#x13b;" horiz-adv-x="782" d="M92 78v1501q0 24 3 34t21 17.5t56 7.5q31 0 48.5 -3t25 -12.5t9 -17.5t1.5 -26v-1374q0 -31 10 -41t41 -10h395q18 0 26.5 -1.5t17.5 -8t12.5 -22.5t3.5 -44q0 -29 -3.5 -45t-12.5 -23t-17.5 -8.5t-26.5 -1.5h-552q-24 0 -33.5 3t-17 20t-7.5 55zM369 -162q0 24 3 34 t21 18t56 8q31 0 48.5 -3t24.5 -13t8.5 -17.5t1.5 -26.5v-270q0 -19 -1.5 -26.5t-8.5 -17.5t-24.5 -13t-48.5 -3q-38 0 -56 8t-21 18t-3 34v270z" />
<glyph unicode="&#x13c;" horiz-adv-x="782" d="M92 78v1501q0 24 3 34t21 17.5t56 7.5q31 0 48.5 -3t25 -12.5t9 -17.5t1.5 -26v-1374q0 -31 10 -41t41 -10h395q18 0 26.5 -1.5t17.5 -8t12.5 -22.5t3.5 -44q0 -29 -3.5 -45t-12.5 -23t-17.5 -8.5t-26.5 -1.5h-552q-24 0 -33.5 3t-17 20t-7.5 55zM369 -162q0 24 3 34 t21 18t56 8q31 0 48.5 -3t24.5 -13t8.5 -17.5t1.5 -26.5v-270q0 -19 -1.5 -26.5t-8.5 -17.5t-24.5 -13t-48.5 -3q-38 0 -56 8t-21 18t-3 34v270z" />
<glyph unicode="&#x13d;" horiz-adv-x="782" d="M92 78v1501q0 24 3 34t21 17.5t56 7.5q31 0 48.5 -3t25 -12.5t9 -17.5t1.5 -26v-1374q0 -31 10 -41t41 -10h395q18 0 26.5 -1.5t17.5 -8t12.5 -22.5t3.5 -44q0 -29 -3.5 -45t-12.5 -23t-17.5 -8.5t-26.5 -1.5h-552q-24 0 -33.5 3t-17 20t-7.5 55zM553 1309v270q0 24 3 34 t21 17.5t56 7.5q31 0 48.5 -3t25 -12.5t9 -17.5t1.5 -26v-270q0 -24 -3 -34t-22 -18t-59 -8q-38 0 -56 8t-21 18t-3 34z" />
<glyph unicode="&#x13e;" horiz-adv-x="782" d="M92 78v1501q0 24 3 34t21 17.5t56 7.5q31 0 48.5 -3t25 -12.5t9 -17.5t1.5 -26v-1374q0 -31 10 -41t41 -10h395q18 0 26.5 -1.5t17.5 -8t12.5 -22.5t3.5 -44q0 -29 -3.5 -45t-12.5 -23t-17.5 -8.5t-26.5 -1.5h-552q-24 0 -33.5 3t-17 20t-7.5 55zM553 1309v270q0 24 3 34 t21 17.5t56 7.5q31 0 48.5 -3t25 -12.5t9 -17.5t1.5 -26v-270q0 -24 -3 -34t-22 -18t-59 -8q-38 0 -56 8t-21 18t-3 34z" />
<glyph unicode="&#x13f;" horiz-adv-x="782" d="M92 78v1501q0 24 3 34t21 17.5t56 7.5q31 0 48.5 -3t25 -12.5t9 -17.5t1.5 -26v-1374q0 -31 10 -41t41 -10h395q18 0 26.5 -1.5t17.5 -8t12.5 -22.5t3.5 -44q0 -29 -3.5 -45t-12.5 -23t-17.5 -8.5t-26.5 -1.5h-552q-24 0 -33.5 3t-17 20t-7.5 55zM569 817q0 51 5 70 t16 23.5t45 4.5h61q26 0 36 -1t18.5 -11.5t10 -28.5t1.5 -57q0 -37 -1.5 -54.5t-10 -27.5t-18.5 -11t-36 -1h-61q-26 0 -36 1t-18.5 11t-10 27.5t-1.5 54.5z" />
<glyph unicode="&#x140;" horiz-adv-x="782" d="M92 78v1501q0 24 3 34t21 17.5t56 7.5q31 0 48.5 -3t25 -12.5t9 -17.5t1.5 -26v-1374q0 -31 10 -41t41 -10h395q18 0 26.5 -1.5t17.5 -8t12.5 -22.5t3.5 -44q0 -29 -3.5 -45t-12.5 -23t-17.5 -8.5t-26.5 -1.5h-552q-24 0 -33.5 3t-17 20t-7.5 55zM569 817q0 51 5 70 t16 23.5t45 4.5h61q26 0 36 -1t18.5 -11.5t10 -28.5t1.5 -57q0 -37 -1.5 -54.5t-10 -27.5t-18.5 -11t-36 -1h-61q-26 0 -36 1t-18.5 11t-10 27.5t-1.5 54.5z" />
<glyph unicode="&#x141;" horiz-adv-x="782" d="M-70 662q0 14 8.5 21.5t28.5 16.5l125 60v819q0 24 3 34t21 17.5t56 7.5q31 0 48.5 -3t25 -12.5t9 -17.5t1.5 -26v-739l211 104q28 12 35 12q13 0 41 -37t28 -75q0 -22 -39 -39l-276 -135v-465q0 -31 10 -41t41 -10h395q18 0 26.5 -1.5t17.5 -8t12.5 -22.5t3.5 -44 q0 -29 -3.5 -45t-12.5 -23t-17.5 -8.5t-26.5 -1.5h-552q-24 0 -33.5 3t-17 20t-7.5 55v512l-57 -27q-21 -12 -37 -12q-14 0 -41 37.5t-27 73.5z" />
<glyph unicode="&#x142;" horiz-adv-x="782" d="M-70 662q0 14 8.5 21.5t28.5 16.5l125 60v819q0 24 3 34t21 17.5t56 7.5q31 0 48.5 -3t25 -12.5t9 -17.5t1.5 -26v-739l211 104q28 12 35 12q13 0 41 -37t28 -75q0 -22 -39 -39l-276 -135v-465q0 -31 10 -41t41 -10h395q18 0 26.5 -1.5t17.5 -8t12.5 -22.5t3.5 -44 q0 -29 -3.5 -45t-12.5 -23t-17.5 -8.5t-26.5 -1.5h-552q-24 0 -33.5 3t-17 20t-7.5 55v512l-57 -27q-21 -12 -37 -12q-14 0 -41 37.5t-27 73.5z" />
<glyph unicode="&#x143;" d="M92 59v1520q0 24 3 34t21 17.5t56 7.5q41 0 62.5 -7.5t28 -17.5t13.5 -34l285 -926q16 -51 29 -51q9 0 11.5 11t2.5 42v924q0 24 3 34t21 17.5t56 7.5q31 0 48.5 -3t25 -12.5t9 -17.5t1.5 -26v-1520q0 -23 -4 -33.5t-24.5 -18t-63.5 -7.5q-51 0 -69 13.5t-27 45.5 l-279 908q-15 51 -31 51q-9 0 -11.5 -11t-2.5 -40v-908q0 -18 -1.5 -26t-9 -17.5t-25 -12.5t-48.5 -3q-38 0 -56 7.5t-21 17.5t-3 34zM367 1819q0 10 18 28l209 209q19 19 29 19q15 0 46 -29.5t31 -46.5q0 -11 -18 -29l-209 -209q-18 -18 -29 -18q-15 0 -46 29.5t-31 46.5z " />
<glyph unicode="&#x144;" d="M92 59v1520q0 24 3 34t21 17.5t56 7.5q41 0 62.5 -7.5t28 -17.5t13.5 -34l285 -926q16 -51 29 -51q9 0 11.5 11t2.5 42v924q0 24 3 34t21 17.5t56 7.5q31 0 48.5 -3t25 -12.5t9 -17.5t1.5 -26v-1520q0 -23 -4 -33.5t-24.5 -18t-63.5 -7.5q-51 0 -69 13.5t-27 45.5 l-279 908q-15 51 -31 51q-9 0 -11.5 -11t-2.5 -40v-908q0 -18 -1.5 -26t-9 -17.5t-25 -12.5t-48.5 -3q-38 0 -56 7.5t-21 17.5t-3 34zM367 1819q0 10 18 28l209 209q19 19 29 19q15 0 46 -29.5t31 -46.5q0 -11 -18 -29l-209 -209q-18 -18 -29 -18q-15 0 -46 29.5t-31 46.5z " />
<glyph unicode="&#x145;" d="M92 59v1520q0 24 3 34t21 17.5t56 7.5q41 0 62.5 -7.5t28 -17.5t13.5 -34l285 -926q16 -51 29 -51q9 0 11.5 11t2.5 42v924q0 24 3 34t21 17.5t56 7.5q31 0 48.5 -3t25 -12.5t9 -17.5t1.5 -26v-1520q0 -23 -4 -33.5t-24.5 -18t-63.5 -7.5q-51 0 -69 13.5t-27 45.5 l-279 908q-15 51 -31 51q-9 0 -11.5 -11t-2.5 -40v-908q0 -18 -1.5 -26t-9 -17.5t-25 -12.5t-48.5 -3q-38 0 -56 7.5t-21 17.5t-3 34zM348 -162q0 24 3 34t21 18t56 8q40 0 59 -8t22 -18t3 -34v-270q0 -24 -3 -34t-22 -18t-59 -8q-38 0 -56 8t-21 18t-3 34v270z" />
<glyph unicode="&#x146;" d="M92 59v1520q0 24 3 34t21 17.5t56 7.5q41 0 62.5 -7.5t28 -17.5t13.5 -34l285 -926q16 -51 29 -51q9 0 11.5 11t2.5 42v924q0 24 3 34t21 17.5t56 7.5q31 0 48.5 -3t25 -12.5t9 -17.5t1.5 -26v-1520q0 -23 -4 -33.5t-24.5 -18t-63.5 -7.5q-51 0 -69 13.5t-27 45.5 l-279 908q-15 51 -31 51q-9 0 -11.5 -11t-2.5 -40v-908q0 -18 -1.5 -26t-9 -17.5t-25 -12.5t-48.5 -3q-38 0 -56 7.5t-21 17.5t-3 34zM348 -162q0 24 3 34t21 18t56 8q40 0 59 -8t22 -18t3 -34v-270q0 -24 -3 -34t-22 -18t-59 -8q-38 0 -56 8t-21 18t-3 34v270z" />
<glyph unicode="&#x147;" d="M92 59v1520q0 24 3 34t21 17.5t56 7.5q41 0 62.5 -7.5t28 -17.5t13.5 -34l285 -926q16 -51 29 -51q9 0 11.5 11t2.5 42v924q0 24 3 34t21 17.5t56 7.5q31 0 48.5 -3t25 -12.5t9 -17.5t1.5 -26v-1520q0 -23 -4 -33.5t-24.5 -18t-63.5 -7.5q-51 0 -69 13.5t-27 45.5 l-279 908q-15 51 -31 51q-9 0 -11.5 -11t-2.5 -40v-908q0 -18 -1.5 -26t-9 -17.5t-25 -12.5t-48.5 -3q-38 0 -56 7.5t-21 17.5t-3 34zM172 1999q0 17 31 46.5t47 29.5q10 0 29 -19l159 -160l162 160q18 21 29 21q15 0 46.5 -30.5t31.5 -45.5q0 -13 -21 -31l-201 -201 q-25 -28 -47 -28t-47 28l-201 201q-18 18 -18 29z" />
<glyph unicode="&#x148;" d="M92 59v1520q0 24 3 34t21 17.5t56 7.5q41 0 62.5 -7.5t28 -17.5t13.5 -34l285 -926q16 -51 29 -51q9 0 11.5 11t2.5 42v924q0 24 3 34t21 17.5t56 7.5q31 0 48.5 -3t25 -12.5t9 -17.5t1.5 -26v-1520q0 -23 -4 -33.5t-24.5 -18t-63.5 -7.5q-51 0 -69 13.5t-27 45.5 l-279 908q-15 51 -31 51q-9 0 -11.5 -11t-2.5 -40v-908q0 -18 -1.5 -26t-9 -17.5t-25 -12.5t-48.5 -3q-38 0 -56 7.5t-21 17.5t-3 34zM172 1999q0 17 31 46.5t47 29.5q10 0 29 -19l159 -160l162 160q18 21 29 21q15 0 46.5 -30.5t31.5 -45.5q0 -13 -21 -31l-201 -201 q-25 -28 -47 -28t-47 28l-201 201q-18 18 -18 29z" />
<glyph unicode="&#x149;" horiz-adv-x="1126" d="M51 1309v270q0 24 3 34t21 17.5t56 7.5q31 0 48.5 -3t25 -12.5t9 -17.5t1.5 -26v-270q0 -24 -3 -34t-22 -18t-59 -8q-38 0 -56 8t-21 18t-3 34zM358 59v1520q0 24 3 34t21 17.5t56 7.5q59 0 77 -12.5t28 -46.5l284 -926q16 -51 29 -51q9 0 11.5 11t2.5 42v924q0 24 3 34 t21 17.5t56 7.5q31 0 48.5 -3t25 -12.5t9 -17.5t1.5 -26v-1520q0 -23 -4 -33.5t-24.5 -18t-63.5 -7.5q-51 0 -69 13.5t-27 45.5l-279 908q-15 51 -30 51t-15 -51v-908q0 -18 -1.5 -26t-9 -17.5t-25 -12.5t-48.5 -3q-38 0 -56 7.5t-21 17.5t-3 34z" />
<glyph unicode="&#x14a;" d="M92 59v1520q0 24 3 34t21 17.5t56 7.5q41 0 62.5 -7.5t28 -17.5t13.5 -34l285 -926q16 -51 29 -51q11 0 14 29v948q0 24 3 34t21 17.5t56 7.5q31 0 48.5 -3t25 -12.5t9 -17.5t1.5 -26v-1669q0 -141 -86.5 -230.5t-253.5 -89.5q-24 0 -35.5 17t-11.5 63q0 43 11 58.5 t36 15.5q176 0 176 186v84q-17 12 -24 45l-279 908q-15 51 -31 51q-9 0 -11.5 -11t-2.5 -40v-908q0 -18 -1.5 -26t-9 -17.5t-25 -12.5t-48.5 -3q-38 0 -56 7.5t-21 17.5t-3 34z" />
<glyph unicode="&#x14b;" d="M92 59v1520q0 24 3 34t21 17.5t56 7.5q41 0 62.5 -7.5t28 -17.5t13.5 -34l285 -926q16 -51 29 -51q11 0 14 29v948q0 24 3 34t21 17.5t56 7.5q31 0 48.5 -3t25 -12.5t9 -17.5t1.5 -26v-1669q0 -141 -86.5 -230.5t-253.5 -89.5q-24 0 -35.5 17t-11.5 63q0 43 11 58.5 t36 15.5q176 0 176 186v84q-17 12 -24 45l-279 908q-15 51 -31 51q-9 0 -11.5 -11t-2.5 -40v-908q0 -18 -1.5 -26t-9 -17.5t-25 -12.5t-48.5 -3q-38 0 -56 7.5t-21 17.5t-3 34z" />
<glyph unicode="&#x14c;" horiz-adv-x="839" d="M82 299v1040q0 140 85.5 230t250.5 90q167 0 253.5 -89.5t86.5 -230.5v-1040q0 -141 -86.5 -230t-253.5 -89q-165 0 -250.5 89.5t-85.5 229.5zM115 1794q0 39 9 48t34 9h524q18 0 25 -2t12.5 -15t5.5 -40t-5.5 -39t-12.5 -14t-25 -2h-524q-18 0 -25 2t-12.5 14t-5.5 39z M246 319q0 -90 43.5 -138t128.5 -48q176 0 176 186v1000q0 186 -176 186q-85 0 -128.5 -48t-43.5 -138v-1000z" />
<glyph unicode="&#x14d;" horiz-adv-x="839" d="M82 299v1040q0 140 85.5 230t250.5 90q167 0 253.5 -89.5t86.5 -230.5v-1040q0 -141 -86.5 -230t-253.5 -89q-165 0 -250.5 89.5t-85.5 229.5zM115 1794q0 39 9 48t34 9h524q18 0 25 -2t12.5 -15t5.5 -40t-5.5 -39t-12.5 -14t-25 -2h-524q-18 0 -25 2t-12.5 14t-5.5 39z M246 319q0 -90 43.5 -138t128.5 -48q176 0 176 186v1000q0 186 -176 186q-85 0 -128.5 -48t-43.5 -138v-1000z" />
<glyph unicode="&#x14e;" horiz-adv-x="839" d="M82 299v1040q0 140 85.5 230t250.5 90q167 0 253.5 -89.5t86.5 -230.5v-1040q0 -141 -86.5 -230t-253.5 -89q-165 0 -250.5 89.5t-85.5 229.5zM178 1931q0 26 13.5 36.5t50.5 10.5q34 0 43.5 -7t9.5 -25q0 -65 31.5 -100.5t91.5 -35.5q127 0 127 136q0 11 2 16t13 8.5 t34 3.5q43 0 55.5 -9.5t12.5 -33.5q0 -103 -62 -167t-182 -64q-118 0 -179 64.5t-61 166.5zM246 319q0 -90 43.5 -138t128.5 -48q176 0 176 186v1000q0 186 -176 186q-85 0 -128.5 -48t-43.5 -138v-1000z" />
<glyph unicode="&#x14f;" horiz-adv-x="839" d="M82 299v1040q0 140 85.5 230t250.5 90q167 0 253.5 -89.5t86.5 -230.5v-1040q0 -141 -86.5 -230t-253.5 -89q-165 0 -250.5 89.5t-85.5 229.5zM178 1931q0 26 13.5 36.5t50.5 10.5q34 0 43.5 -7t9.5 -25q0 -65 31.5 -100.5t91.5 -35.5q127 0 127 136q0 11 2 16t13 8.5 t34 3.5q43 0 55.5 -9.5t12.5 -33.5q0 -103 -62 -167t-182 -64q-118 0 -179 64.5t-61 166.5zM246 319q0 -90 43.5 -138t128.5 -48q176 0 176 186v1000q0 186 -176 186q-85 0 -128.5 -48t-43.5 -138v-1000z" />
<glyph unicode="&#x150;" horiz-adv-x="839" d="M82 299v1040q0 140 85.5 230t250.5 90q167 0 253.5 -89.5t86.5 -230.5v-1040q0 -141 -86.5 -230t-253.5 -89q-165 0 -250.5 89.5t-85.5 229.5zM203 1794q0 7 12 27l123 211q14 26 27 26q22 0 57 -22t35 -37q0 -5 -13 -27l-122 -211q-13 -26 -27 -26q-22 0 -57 22t-35 37z M246 319q0 -90 43.5 -138t128.5 -48q176 0 176 186v1000q0 186 -176 186q-85 0 -128.5 -48t-43.5 -138v-1000zM467 1794q0 7 12 27l123 211q14 26 27 26q22 0 57 -22t35 -37q0 -7 -12 -27l-123 -211q-13 -26 -27 -26q-22 0 -57 22t-35 37z" />
<glyph unicode="&#x151;" horiz-adv-x="839" d="M82 299v1040q0 140 85.5 230t250.5 90q167 0 253.5 -89.5t86.5 -230.5v-1040q0 -141 -86.5 -230t-253.5 -89q-165 0 -250.5 89.5t-85.5 229.5zM203 1794q0 7 12 27l123 211q14 26 27 26q22 0 57 -22t35 -37q0 -5 -13 -27l-122 -211q-13 -26 -27 -26q-22 0 -57 22t-35 37z M246 319q0 -90 43.5 -138t128.5 -48q176 0 176 186v1000q0 186 -176 186q-85 0 -128.5 -48t-43.5 -138v-1000zM467 1794q0 7 12 27l123 211q14 26 27 26q22 0 57 -22t35 -37q0 -7 -12 -27l-123 -211q-13 -26 -27 -26q-22 0 -57 22t-35 37z" />
<glyph unicode="&#x152;" horiz-adv-x="1263" d="M92 299v1040q0 140 85.5 230t250.5 90q108 0 184 -39q5 12 16 15t34 3h512q19 0 26.5 -1t17 -8t12.5 -23t3 -45q0 -28 -3 -44t-12.5 -22.5t-17.5 -8t-26 -1.5h-355q-31 0 -41 -10t-10 -41v-476q0 -31 10 -41t41 -10h217q18 0 26.5 -1.5t17.5 -8.5t12.5 -23t3.5 -45 q0 -28 -3 -44t-13 -22.5t-17.5 -7.5t-26.5 -1h-217q-29 0 -40 -8.5t-11 -32.5v-508q0 -31 10 -41t41 -10h355q18 0 26 -1.5t17.5 -8t12.5 -22.5t3 -44q0 -38 -7.5 -55t-17.5 -20t-34 -3h-512q-16 0 -23 0.5t-15 4.5t-12 13q-74 -38 -184 -38q-165 0 -250.5 89.5t-85.5 229.5 zM256 319q0 -90 43.5 -138t128.5 -48q176 0 176 186v1000q0 186 -176 186q-85 0 -128.5 -48t-43.5 -138v-1000z" />
<glyph unicode="&#x153;" horiz-adv-x="1263" d="M92 299v1040q0 140 85.5 230t250.5 90q108 0 184 -39q5 12 16 15t34 3h512q19 0 26.5 -1t17 -8t12.5 -23t3 -45q0 -28 -3 -44t-12.5 -22.5t-17.5 -8t-26 -1.5h-355q-31 0 -41 -10t-10 -41v-476q0 -31 10 -41t41 -10h217q18 0 26.5 -1.5t17.5 -8.5t12.5 -23t3.5 -45 q0 -28 -3 -44t-13 -22.5t-17.5 -7.5t-26.5 -1h-217q-29 0 -40 -8.5t-11 -32.5v-508q0 -31 10 -41t41 -10h355q18 0 26 -1.5t17.5 -8t12.5 -22.5t3 -44q0 -38 -7.5 -55t-17.5 -20t-34 -3h-512q-16 0 -23 0.5t-15 4.5t-12 13q-74 -38 -184 -38q-165 0 -250.5 89.5t-85.5 229.5 zM256 319q0 -90 43.5 -138t128.5 -48q176 0 176 186v1000q0 186 -176 186q-85 0 -128.5 -48t-43.5 -138v-1000z" />
<glyph unicode="&#x154;" horiz-adv-x="825" d="M92 59v1502q0 29 3 45t12 23t16.5 8t26.5 1h344q86 0 139.5 -18.5t82 -61.5t38.5 -97.5t10 -141.5v-246q0 -71 -4.5 -116.5t-18.5 -87.5t-40 -65t-69 -36.5t-106 -13.5q-24 0 -24 -11q0 -4 10 -34l242 -650q8 -16 8 -34q0 -25 -70 -25q-55 0 -72.5 12.5t-29.5 46.5 l-238 639q-10 28 -25 42t-30 14q-17 0 -29 -15.5t-12 -38.5v-641q0 -18 -1.5 -26t-9 -17.5t-25 -12.5t-48.5 -3q-38 0 -56 7.5t-21 17.5t-3 34zM256 958q0 -31 10 -41t41 -10h154q40 0 65 7t40.5 19t22.5 40t9 57t2 84v164q0 55 -2 84t-9 57t-22.5 40t-40.5 19t-65 7h-154 q-31 0 -41 -10t-10 -41v-476zM293 1819q0 10 18 28l209 209q19 19 29 19q16 0 47 -29.5t31 -46.5q0 -10 -19 -29l-209 -209q-18 -18 -28 -18q-16 0 -47 29.5t-31 46.5z" />
<glyph unicode="&#x155;" horiz-adv-x="825" d="M92 59v1502q0 29 3 45t12 23t16.5 8t26.5 1h344q86 0 139.5 -18.5t82 -61.5t38.5 -97.5t10 -141.5v-246q0 -71 -4.5 -116.5t-18.5 -87.5t-40 -65t-69 -36.5t-106 -13.5q-24 0 -24 -11q0 -4 10 -34l242 -650q8 -16 8 -34q0 -25 -70 -25q-55 0 -72.5 12.5t-29.5 46.5 l-238 639q-10 28 -25 42t-30 14q-17 0 -29 -15.5t-12 -38.5v-641q0 -18 -1.5 -26t-9 -17.5t-25 -12.5t-48.5 -3q-38 0 -56 7.5t-21 17.5t-3 34zM256 958q0 -31 10 -41t41 -10h154q40 0 65 7t40.5 19t22.5 40t9 57t2 84v164q0 55 -2 84t-9 57t-22.5 40t-40.5 19t-65 7h-154 q-31 0 -41 -10t-10 -41v-476zM293 1819q0 10 18 28l209 209q19 19 29 19q16 0 47 -29.5t31 -46.5q0 -10 -19 -29l-209 -209q-18 -18 -28 -18q-16 0 -47 29.5t-31 46.5z" />
<glyph unicode="&#x156;" horiz-adv-x="825" d="M92 59v1502q0 29 3 45t12 23t16.5 8t26.5 1h344q86 0 139.5 -18.5t82 -61.5t38.5 -97.5t10 -141.5v-246q0 -71 -4.5 -116.5t-18.5 -87.5t-40 -65t-69 -36.5t-106 -13.5q-24 0 -24 -11q0 -4 10 -34l242 -650q8 -16 8 -34q0 -25 -70 -25q-55 0 -72.5 12.5t-29.5 46.5 l-238 639q-10 28 -25 42t-30 14q-17 0 -29 -15.5t-12 -38.5v-641q0 -18 -1.5 -26t-9 -17.5t-25 -12.5t-48.5 -3q-38 0 -56 7.5t-21 17.5t-3 34zM256 958q0 -31 10 -41t41 -10h154q40 0 65 7t40.5 19t22.5 40t9 57t2 84v164q0 55 -2 84t-9 57t-22.5 40t-40.5 19t-65 7h-154 q-31 0 -41 -10t-10 -41v-476zM330 -162q0 24 3 34t21 18t56 8q40 0 59 -8t22 -18t3 -34v-270q0 -24 -3 -34t-22 -18t-59 -8q-38 0 -56 8t-21 18t-3 34v270z" />
<glyph unicode="&#x157;" horiz-adv-x="825" d="M92 59v1502q0 29 3 45t12 23t16.5 8t26.5 1h344q86 0 139.5 -18.5t82 -61.5t38.5 -97.5t10 -141.5v-246q0 -71 -4.5 -116.5t-18.5 -87.5t-40 -65t-69 -36.5t-106 -13.5q-24 0 -24 -11q0 -4 10 -34l242 -650q8 -16 8 -34q0 -25 -70 -25q-55 0 -72.5 12.5t-29.5 46.5 l-238 639q-10 28 -25 42t-30 14q-17 0 -29 -15.5t-12 -38.5v-641q0 -18 -1.5 -26t-9 -17.5t-25 -12.5t-48.5 -3q-38 0 -56 7.5t-21 17.5t-3 34zM256 958q0 -31 10 -41t41 -10h154q40 0 65 7t40.5 19t22.5 40t9 57t2 84v164q0 55 -2 84t-9 57t-22.5 40t-40.5 19t-65 7h-154 q-31 0 -41 -10t-10 -41v-476zM330 -162q0 24 3 34t21 18t56 8q40 0 59 -8t22 -18t3 -34v-270q0 -24 -3 -34t-22 -18t-59 -8q-38 0 -56 8t-21 18t-3 34v270z" />
<glyph unicode="&#x158;" horiz-adv-x="825" d="M92 59v1502q0 29 3 45t12 23t16.5 8t26.5 1h344q86 0 139.5 -18.5t82 -61.5t38.5 -97.5t10 -141.5v-246q0 -71 -4.5 -116.5t-18.5 -87.5t-40 -65t-69 -36.5t-106 -13.5q-24 0 -24 -11q0 -4 10 -34l242 -650q8 -16 8 -34q0 -25 -70 -25q-55 0 -72.5 12.5t-29.5 46.5 l-238 639q-10 28 -25 42t-30 14q-17 0 -29 -15.5t-12 -38.5v-641q0 -18 -1.5 -26t-9 -17.5t-25 -12.5t-48.5 -3q-38 0 -56 7.5t-21 17.5t-3 34zM145 1999q0 17 31 46.5t47 29.5q10 0 29 -19l160 -160l161 160q17 21 29 21q15 0 46.5 -30.5t31.5 -45.5q0 -13 -21 -31 l-200 -201q-25 -28 -47 -28t-47 28l-201 201q-19 19 -19 29zM256 958q0 -31 10 -41t41 -10h154q40 0 65 7t40.5 19t22.5 40t9 57t2 84v164q0 55 -2 84t-9 57t-22.5 40t-40.5 19t-65 7h-154q-31 0 -41 -10t-10 -41v-476z" />
<glyph unicode="&#x159;" horiz-adv-x="825" d="M92 59v1502q0 29 3 45t12 23t16.5 8t26.5 1h344q86 0 139.5 -18.5t82 -61.5t38.5 -97.5t10 -141.5v-246q0 -71 -4.5 -116.5t-18.5 -87.5t-40 -65t-69 -36.5t-106 -13.5q-24 0 -24 -11q0 -4 10 -34l242 -650q8 -16 8 -34q0 -25 -70 -25q-55 0 -72.5 12.5t-29.5 46.5 l-238 639q-10 28 -25 42t-30 14q-17 0 -29 -15.5t-12 -38.5v-641q0 -18 -1.5 -26t-9 -17.5t-25 -12.5t-48.5 -3q-38 0 -56 7.5t-21 17.5t-3 34zM145 1999q0 17 31 46.5t47 29.5q10 0 29 -19l160 -160l161 160q17 21 29 21q15 0 46.5 -30.5t31.5 -45.5q0 -13 -21 -31 l-200 -201q-25 -28 -47 -28t-47 28l-201 201q-19 19 -19 29zM256 958q0 -31 10 -41t41 -10h154q40 0 65 7t40.5 19t22.5 40t9 57t2 84v164q0 55 -2 84t-9 57t-22.5 40t-40.5 19t-65 7h-154q-31 0 -41 -10t-10 -41v-476z" />
<glyph unicode="&#x15a;" horiz-adv-x="778" d="M72 299q0 39 17 48t69 9q78 0 78 -37q0 -90 41 -138t114 -48q71 0 111.5 48.5t40.5 137.5v207q0 106 -35 161.5t-117 55.5q-86 0 -149 27.5t-99.5 76.5t-53.5 110t-17 135v247q0 139 81.5 229.5t233.5 90.5q154 0 237 -89.5t83 -230.5q0 -39 -17 -48t-69 -9q-78 0 -78 37 q0 90 -41.5 138t-114.5 48q-71 0 -111 -48.5t-40 -137.5v-207q0 -106 34.5 -160.5t116.5 -54.5q86 0 149.5 -27.5t99.5 -77t53.5 -110.5t17.5 -135v-248q0 -139 -82 -229t-234 -90q-154 0 -236.5 89t-82.5 230zM281 1819q0 10 18 28l209 209q19 19 29 19q15 0 46 -29.5 t31 -46.5q0 -11 -18 -29l-209 -209q-18 -18 -29 -18q-15 0 -46 29.5t-31 46.5z" />
<glyph unicode="&#x15b;" horiz-adv-x="778" d="M72 299q0 39 17 48t69 9q78 0 78 -37q0 -90 41 -138t114 -48q71 0 111.5 48.5t40.5 137.5v207q0 106 -35 161.5t-117 55.5q-86 0 -149 27.5t-99.5 76.5t-53.5 110t-17 135v247q0 139 81.5 229.5t233.5 90.5q154 0 237 -89.5t83 -230.5q0 -39 -17 -48t-69 -9q-78 0 -78 37 q0 90 -41.5 138t-114.5 48q-71 0 -111 -48.5t-40 -137.5v-207q0 -106 34.5 -160.5t116.5 -54.5q86 0 149.5 -27.5t99.5 -77t53.5 -110.5t17.5 -135v-248q0 -139 -82 -229t-234 -90q-154 0 -236.5 89t-82.5 230zM281 1819q0 10 18 28l209 209q19 19 29 19q15 0 46 -29.5 t31 -46.5q0 -11 -18 -29l-209 -209q-18 -18 -29 -18q-15 0 -46 29.5t-31 46.5z" />
<glyph unicode="&#x15c;" horiz-adv-x="778" d="M72 299q0 39 17 48t69 9q78 0 78 -37q0 -90 41 -138t114 -48q71 0 111.5 48.5t40.5 137.5v207q0 106 -35 161.5t-117 55.5q-86 0 -149 27.5t-99.5 76.5t-53.5 110t-17 135v247q0 139 81.5 229.5t233.5 90.5q154 0 237 -89.5t83 -230.5q0 -39 -17 -48t-69 -9q-78 0 -78 37 q0 90 -41.5 138t-114.5 48q-71 0 -111 -48.5t-40 -137.5v-207q0 -106 34.5 -160.5t116.5 -54.5q86 0 149.5 -27.5t99.5 -77t53.5 -110.5t17.5 -135v-248q0 -139 -82 -229t-234 -90q-154 0 -236.5 89t-82.5 230zM121 1819q0 10 18 28l201 201q26 29 47 29t47 -29l201 -201 q20 -17 20 -30q0 -15 -31 -45.5t-46 -30.5q-12 0 -29 20l-162 160l-160 -160q-18 -18 -28 -18q-16 0 -47 29.5t-31 46.5z" />
<glyph unicode="&#x15d;" horiz-adv-x="778" d="M72 299q0 39 17 48t69 9q78 0 78 -37q0 -90 41 -138t114 -48q71 0 111.5 48.5t40.5 137.5v207q0 106 -35 161.5t-117 55.5q-86 0 -149 27.5t-99.5 76.5t-53.5 110t-17 135v247q0 139 81.5 229.5t233.5 90.5q154 0 237 -89.5t83 -230.5q0 -39 -17 -48t-69 -9q-78 0 -78 37 q0 90 -41.5 138t-114.5 48q-71 0 -111 -48.5t-40 -137.5v-207q0 -106 34.5 -160.5t116.5 -54.5q86 0 149.5 -27.5t99.5 -77t53.5 -110.5t17.5 -135v-248q0 -139 -82 -229t-234 -90q-154 0 -236.5 89t-82.5 230zM121 1819q0 10 18 28l201 201q26 29 47 29t47 -29l201 -201 q20 -17 20 -30q0 -15 -31 -45.5t-46 -30.5q-12 0 -29 20l-162 160l-160 -160q-18 -18 -28 -18q-16 0 -47 29.5t-31 46.5z" />
<glyph unicode="&#x15e;" horiz-adv-x="778" d="M72 299q0 39 17 48t69 9q78 0 78 -37q0 -90 41 -138t114 -48q71 0 111.5 48.5t40.5 137.5v207q0 106 -35 161.5t-117 55.5q-86 0 -149 27.5t-99.5 76.5t-53.5 110t-17 135v247q0 139 81.5 229.5t233.5 90.5q154 0 237 -89.5t83 -230.5q0 -39 -17 -48t-69 -9q-78 0 -78 37 q0 90 -41.5 138t-114.5 48q-71 0 -111 -48.5t-40 -137.5v-207q0 -106 34.5 -160.5t116.5 -54.5q86 0 149.5 -27.5t99.5 -77t53.5 -110.5t17.5 -135v-248q0 -130 -72 -217.5t-205 -99.5q-7 -21 -20 -78q91 0 136.5 -48.5t45.5 -123.5v-13q0 -75 -45.5 -123.5t-134.5 -48.5 h-64q-21 0 -29 7t-8 34t8 34t29 7h64q44 0 68 25t24 74q0 52 -23.5 73t-68.5 21h-64q-21 0 -29 6.5t-8 30.5q0 23 4 35l23 90q-129 15 -197.5 100.5t-68.5 214.5z" />
<glyph unicode="&#x15f;" horiz-adv-x="778" d="M72 299q0 39 17 48t69 9q78 0 78 -37q0 -90 41 -138t114 -48q71 0 111.5 48.5t40.5 137.5v207q0 106 -35 161.5t-117 55.5q-86 0 -149 27.5t-99.5 76.5t-53.5 110t-17 135v247q0 139 81.5 229.5t233.5 90.5q154 0 237 -89.5t83 -230.5q0 -39 -17 -48t-69 -9q-78 0 -78 37 q0 90 -41.5 138t-114.5 48q-71 0 -111 -48.5t-40 -137.5v-207q0 -106 34.5 -160.5t116.5 -54.5q86 0 149.5 -27.5t99.5 -77t53.5 -110.5t17.5 -135v-248q0 -130 -72 -217.5t-205 -99.5q-7 -21 -20 -78q91 0 136.5 -48.5t45.5 -123.5v-13q0 -75 -45.5 -123.5t-134.5 -48.5 h-64q-21 0 -29 7t-8 34t8 34t29 7h64q44 0 68 25t24 74q0 52 -23.5 73t-68.5 21h-64q-21 0 -29 6.5t-8 30.5q0 23 4 35l23 90q-129 15 -197.5 100.5t-68.5 214.5z" />
<glyph unicode="&#x160;" horiz-adv-x="778" d="M72 299q0 39 17 48t69 9q78 0 78 -37q0 -90 41 -138t114 -48q71 0 111.5 48.5t40.5 137.5v207q0 106 -35 161.5t-117 55.5q-86 0 -149 27.5t-99.5 76.5t-53.5 110t-17 135v247q0 139 81.5 229.5t233.5 90.5q154 0 237 -89.5t83 -230.5q0 -39 -17 -48t-69 -9q-78 0 -78 37 q0 90 -41.5 138t-114.5 48q-71 0 -111 -48.5t-40 -137.5v-207q0 -106 34.5 -160.5t116.5 -54.5q86 0 149.5 -27.5t99.5 -77t53.5 -110.5t17.5 -135v-248q0 -139 -82 -229t-234 -90q-154 0 -236.5 89t-82.5 230zM121 1999q0 17 31 46.5t47 29.5q9 0 28 -19l160 -160l162 160 q17 21 29 21q15 0 46 -30.5t31 -45.5q0 -14 -20 -31l-201 -201q-25 -28 -47 -28t-47 28l-201 201q-18 18 -18 29z" />
<glyph unicode="&#x161;" horiz-adv-x="778" d="M72 299q0 39 17 48t69 9q78 0 78 -37q0 -90 41 -138t114 -48q71 0 111.5 48.5t40.5 137.5v207q0 106 -35 161.5t-117 55.5q-86 0 -149 27.5t-99.5 76.5t-53.5 110t-17 135v247q0 139 81.5 229.5t233.5 90.5q154 0 237 -89.5t83 -230.5q0 -39 -17 -48t-69 -9q-78 0 -78 37 q0 90 -41.5 138t-114.5 48q-71 0 -111 -48.5t-40 -137.5v-207q0 -106 34.5 -160.5t116.5 -54.5q86 0 149.5 -27.5t99.5 -77t53.5 -110.5t17.5 -135v-248q0 -139 -82 -229t-234 -90q-154 0 -236.5 89t-82.5 230zM121 1999q0 17 31 46.5t47 29.5q9 0 28 -19l160 -160l162 160 q17 21 29 21q15 0 46 -30.5t31 -45.5q0 -14 -20 -31l-201 -201q-25 -28 -47 -28t-47 28l-201 201q-18 18 -18 29z" />
<glyph unicode="&#x162;" horiz-adv-x="714" d="M20 1561q0 29 3 45t13 23t17.5 8t26.5 1h555q19 0 26.5 -1t17 -8t12.5 -23t3 -45q0 -28 -3 -44t-12.5 -22.5t-17.5 -8t-26 -1.5h-143q-31 0 -41.5 -10t-10.5 -41v-1375q0 -18 -1.5 -26t-9 -17.5t-25 -12.5t-48.5 -3q-38 0 -56 7.5t-21 17.5t-3 34v1375q0 31 -10 41 t-41 10h-145q-18 0 -26.5 1.5t-17.5 8t-12.5 22.5t-3.5 44zM274 -162q0 24 3 34t21 18t56 8q40 0 59 -8t22 -18t3 -34v-270q0 -24 -3 -34t-22 -18t-59 -8q-38 0 -56 8t-21 18t-3 34v270z" />
<glyph unicode="&#x163;" horiz-adv-x="714" d="M20 1561q0 29 3 45t13 23t17.5 8t26.5 1h555q19 0 26.5 -1t17 -8t12.5 -23t3 -45q0 -28 -3 -44t-12.5 -22.5t-17.5 -8t-26 -1.5h-143q-31 0 -41.5 -10t-10.5 -41v-1375q0 -18 -1.5 -26t-9 -17.5t-25 -12.5t-48.5 -3q-38 0 -56 7.5t-21 17.5t-3 34v1375q0 31 -10 41 t-41 10h-145q-18 0 -26.5 1.5t-17.5 8t-12.5 22.5t-3.5 44zM274 -162q0 24 3 34t21 18t56 8q40 0 59 -8t22 -18t3 -34v-270q0 -24 -3 -34t-22 -18t-59 -8q-38 0 -56 8t-21 18t-3 34v270z" />
<glyph unicode="&#x164;" horiz-adv-x="714" d="M20 1561q0 29 3 45t13 23t17.5 8t26.5 1h555q19 0 26.5 -1t17 -8t12.5 -23t3 -45q0 -28 -3 -44t-12.5 -22.5t-17.5 -8t-26 -1.5h-143q-31 0 -41.5 -10t-10.5 -41v-1375q0 -18 -1.5 -26t-9 -17.5t-25 -12.5t-48.5 -3q-38 0 -56 7.5t-21 17.5t-3 34v1375q0 31 -10 41 t-41 10h-145q-18 0 -26.5 1.5t-17.5 8t-12.5 22.5t-3.5 44zM90 1999q0 17 31 46.5t47 29.5q10 0 29 -19l159 -160l162 160q18 21 29 21q15 0 46.5 -30.5t31.5 -45.5q0 -13 -21 -31l-201 -201q-25 -28 -47 -28t-47 28l-200 201q-19 19 -19 29z" />
<glyph unicode="&#x165;" horiz-adv-x="714" d="M20 1561q0 29 3 45t13 23t17.5 8t26.5 1h555q19 0 26.5 -1t17 -8t12.5 -23t3 -45q0 -28 -3 -44t-12.5 -22.5t-17.5 -8t-26 -1.5h-143q-31 0 -41.5 -10t-10.5 -41v-1375q0 -18 -1.5 -26t-9 -17.5t-25 -12.5t-48.5 -3q-38 0 -56 7.5t-21 17.5t-3 34v1375q0 31 -10 41 t-41 10h-145q-18 0 -26.5 1.5t-17.5 8t-12.5 22.5t-3.5 44zM90 1999q0 17 31 46.5t47 29.5q10 0 29 -19l159 -160l162 160q18 21 29 21q15 0 46.5 -30.5t31.5 -45.5q0 -13 -21 -31l-201 -201q-25 -28 -47 -28t-47 28l-200 201q-19 19 -19 29z" />
<glyph unicode="&#x166;" horiz-adv-x="714" d="M20 1561q0 29 3 45t13 23t17.5 8t26.5 1h555q19 0 26.5 -1t17 -8t12.5 -23t3 -45q0 -28 -3 -44t-12.5 -22.5t-17.5 -8t-26 -1.5h-143q-31 0 -41.5 -10t-10.5 -41v-308h181q23 0 33 -13t10 -54q0 -39 -10 -52.5t-33 -13.5h-181v-934q0 -18 -1.5 -26t-9 -17.5t-25 -12.5 t-48.5 -3q-38 0 -56 7.5t-21 17.5t-3 34v934h-180q-23 0 -33 13.5t-10 52.5q0 41 10 54t33 13h180v308q0 31 -10 41t-41 10h-145q-18 0 -26.5 1.5t-17.5 8t-12.5 22.5t-3.5 44z" />
<glyph unicode="&#x167;" horiz-adv-x="714" d="M20 1561q0 29 3 45t13 23t17.5 8t26.5 1h555q19 0 26.5 -1t17 -8t12.5 -23t3 -45q0 -28 -3 -44t-12.5 -22.5t-17.5 -8t-26 -1.5h-143q-31 0 -41.5 -10t-10.5 -41v-308h181q23 0 33 -13t10 -54q0 -39 -10 -52.5t-33 -13.5h-181v-934q0 -18 -1.5 -26t-9 -17.5t-25 -12.5 t-48.5 -3q-38 0 -56 7.5t-21 17.5t-3 34v934h-180q-23 0 -33 13.5t-10 52.5q0 41 10 54t33 13h180v308q0 31 -10 41t-41 10h-145q-18 0 -26.5 1.5t-17.5 8t-12.5 22.5t-3.5 44z" />
<glyph unicode="&#x168;" d="M92 299v1280q0 24 3 34t21 17.5t56 7.5q31 0 48.5 -3t25 -12.5t9 -17.5t1.5 -26v-1260q0 -90 43.5 -138t128.5 -48q176 0 176 186v1260q0 24 3 34t21 17.5t56 7.5q31 0 48.5 -3t25 -12.5t9 -17.5t1.5 -26v-1280q0 -141 -86.5 -230t-253.5 -89q-165 0 -250.5 89.5 t-85.5 229.5zM150 1780q0 4 1 7t2.5 6l2.5 5q27 69 81 105t109 36q32 0 102 -38.5t89 -38.5t37.5 8t28.5 16t27 24t21 19q6 6 17 6q15 0 28 -12t13 -27q0 -6 -4 -18q-24 -68 -78 -103.5t-109 -35.5q-28 0 -95.5 39t-92.5 39q-21 0 -40 -8.5t-30 -17.5t-27 -25t-22 -21 q-8 -8 -21 -8q-14 0 -27 14t-13 29z" />
<glyph unicode="&#x169;" d="M92 299v1280q0 24 3 34t21 17.5t56 7.5q31 0 48.5 -3t25 -12.5t9 -17.5t1.5 -26v-1260q0 -90 43.5 -138t128.5 -48q176 0 176 186v1260q0 24 3 34t21 17.5t56 7.5q31 0 48.5 -3t25 -12.5t9 -17.5t1.5 -26v-1280q0 -141 -86.5 -230t-253.5 -89q-165 0 -250.5 89.5 t-85.5 229.5zM150 1780q0 4 1 7t2.5 6l2.5 5q27 69 81 105t109 36q32 0 102 -38.5t89 -38.5t37.5 8t28.5 16t27 24t21 19q6 6 17 6q15 0 28 -12t13 -27q0 -6 -4 -18q-24 -68 -78 -103.5t-109 -35.5q-28 0 -95.5 39t-92.5 39q-21 0 -40 -8.5t-30 -17.5t-27 -25t-22 -21 q-8 -8 -21 -8q-14 0 -27 14t-13 29z" />
<glyph unicode="&#x16a;" d="M92 299v1280q0 24 3 34t21 17.5t56 7.5q31 0 48.5 -3t25 -12.5t9 -17.5t1.5 -26v-1260q0 -90 43.5 -138t128.5 -48q176 0 176 186v1260q0 24 3 34t21 17.5t56 7.5q31 0 48.5 -3t25 -12.5t9 -17.5t1.5 -26v-1280q0 -141 -86.5 -230t-253.5 -89q-165 0 -250.5 89.5 t-85.5 229.5zM125 1794q0 39 9 48t34 9h524q18 0 25 -2t12.5 -15t5.5 -40t-5.5 -39t-12.5 -14t-25 -2h-524q-18 0 -25 2t-12.5 14t-5.5 39z" />
<glyph unicode="&#x16b;" d="M92 299v1280q0 24 3 34t21 17.5t56 7.5q31 0 48.5 -3t25 -12.5t9 -17.5t1.5 -26v-1260q0 -90 43.5 -138t128.5 -48q176 0 176 186v1260q0 24 3 34t21 17.5t56 7.5q31 0 48.5 -3t25 -12.5t9 -17.5t1.5 -26v-1280q0 -141 -86.5 -230t-253.5 -89q-165 0 -250.5 89.5 t-85.5 229.5zM125 1794q0 39 9 48t34 9h524q18 0 25 -2t12.5 -15t5.5 -40t-5.5 -39t-12.5 -14t-25 -2h-524q-18 0 -25 2t-12.5 14t-5.5 39z" />
<glyph unicode="&#x16c;" d="M92 299v1280q0 24 3 34t21 17.5t56 7.5q31 0 48.5 -3t25 -12.5t9 -17.5t1.5 -26v-1260q0 -90 43.5 -138t128.5 -48q176 0 176 186v1260q0 24 3 34t21 17.5t56 7.5q31 0 48.5 -3t25 -12.5t9 -17.5t1.5 -26v-1280q0 -141 -86.5 -230t-253.5 -89q-165 0 -250.5 89.5 t-85.5 229.5zM188 1931q0 26 13.5 36.5t50.5 10.5q34 0 43.5 -7t9.5 -25q0 -65 31.5 -100.5t91.5 -35.5q127 0 127 136q0 11 2 16t13 8.5t34 3.5q43 0 55.5 -9.5t12.5 -33.5q0 -103 -62 -167t-182 -64q-118 0 -179 64.5t-61 166.5z" />
<glyph unicode="&#x16d;" d="M92 299v1280q0 24 3 34t21 17.5t56 7.5q31 0 48.5 -3t25 -12.5t9 -17.5t1.5 -26v-1260q0 -90 43.5 -138t128.5 -48q176 0 176 186v1260q0 24 3 34t21 17.5t56 7.5q31 0 48.5 -3t25 -12.5t9 -17.5t1.5 -26v-1280q0 -141 -86.5 -230t-253.5 -89q-165 0 -250.5 89.5 t-85.5 229.5zM188 1931q0 26 13.5 36.5t50.5 10.5q34 0 43.5 -7t9.5 -25q0 -65 31.5 -100.5t91.5 -35.5q127 0 127 136q0 11 2 16t13 8.5t34 3.5q43 0 55.5 -9.5t12.5 -33.5q0 -103 -62 -167t-182 -64q-118 0 -179 64.5t-61 166.5z" />
<glyph unicode="&#x16e;" d="M92 299v1280q0 24 3 34t21 17.5t56 7.5q31 0 48.5 -3t25 -12.5t9 -17.5t1.5 -26v-1260q0 -90 43.5 -138t128.5 -48q176 0 176 186v1260q0 24 3 34t21 17.5t56 7.5q31 0 48.5 -3t25 -12.5t9 -17.5t1.5 -26v-1280q0 -141 -86.5 -230t-253.5 -89q-165 0 -250.5 89.5 t-85.5 229.5zM188 1931v49q0 101 61 165.5t179 64.5q119 0 181.5 -64.5t62.5 -165.5v-49q0 -103 -62 -167t-182 -64q-118 0 -179 64.5t-61 166.5zM305 1946q0 -65 31.5 -100.5t91.5 -35.5q127 0 127 136v20q0 65 -32.5 100t-94.5 35q-59 0 -91 -35.5t-32 -99.5v-20z" />
<glyph unicode="&#x16f;" d="M92 299v1280q0 24 3 34t21 17.5t56 7.5q31 0 48.5 -3t25 -12.5t9 -17.5t1.5 -26v-1260q0 -90 43.5 -138t128.5 -48q176 0 176 186v1260q0 24 3 34t21 17.5t56 7.5q31 0 48.5 -3t25 -12.5t9 -17.5t1.5 -26v-1280q0 -141 -86.5 -230t-253.5 -89q-165 0 -250.5 89.5 t-85.5 229.5zM188 1931v49q0 101 61 165.5t179 64.5q119 0 181.5 -64.5t62.5 -165.5v-49q0 -103 -62 -167t-182 -64q-118 0 -179 64.5t-61 166.5zM305 1946q0 -65 31.5 -100.5t91.5 -35.5q127 0 127 136v20q0 65 -32.5 100t-94.5 35q-59 0 -91 -35.5t-32 -99.5v-20z" />
<glyph unicode="&#x170;" d="M92 299v1280q0 24 3 34t21 17.5t56 7.5q31 0 48.5 -3t25 -12.5t9 -17.5t1.5 -26v-1260q0 -90 43.5 -138t128.5 -48q176 0 176 186v1260q0 24 3 34t21 17.5t56 7.5q31 0 48.5 -3t25 -12.5t9 -17.5t1.5 -26v-1280q0 -141 -86.5 -230t-253.5 -89q-165 0 -250.5 89.5 t-85.5 229.5zM217 1794q0 7 12 27l123 211q14 26 27 26q22 0 57 -22t35 -37q0 -7 -12 -27l-123 -211q-13 -26 -27 -26q-22 0 -57 22t-35 37zM481 1794q0 5 13 27l122 211q14 26 27 26q22 0 57 -22t35 -37q0 -7 -12 -27l-123 -211q-13 -26 -27 -26q-22 0 -57 22t-35 37z" />
<glyph unicode="&#x171;" d="M92 299v1280q0 24 3 34t21 17.5t56 7.5q31 0 48.5 -3t25 -12.5t9 -17.5t1.5 -26v-1260q0 -90 43.5 -138t128.5 -48q176 0 176 186v1260q0 24 3 34t21 17.5t56 7.5q31 0 48.5 -3t25 -12.5t9 -17.5t1.5 -26v-1280q0 -141 -86.5 -230t-253.5 -89q-165 0 -250.5 89.5 t-85.5 229.5zM217 1794q0 7 12 27l123 211q14 26 27 26q22 0 57 -22t35 -37q0 -7 -12 -27l-123 -211q-13 -26 -27 -26q-22 0 -57 22t-35 37zM481 1794q0 5 13 27l122 211q14 26 27 26q22 0 57 -22t35 -37q0 -7 -12 -27l-123 -211q-13 -26 -27 -26q-22 0 -57 22t-35 37z" />
<glyph unicode="&#x172;" d="M92 299v1280q0 24 3 34t21 17.5t56 7.5q31 0 48.5 -3t25 -12.5t9 -17.5t1.5 -26v-1260q0 -90 43.5 -138t128.5 -48q176 0 176 186v1260q0 24 3 34t21 17.5t56 7.5q31 0 48.5 -3t25 -12.5t9 -17.5t1.5 -26v-1280q0 -99 -43.5 -175.5t-128.5 -113.5q-109 -93 -109 -188 q0 -49 33.5 -73.5t83.5 -24.5q42 0 92 12q6 2 15 2q18 0 27.5 -11t9.5 -26q0 -16 -13 -29q-42 -37 -141 -37q-95 0 -162 49t-67 138q0 40 25 83t67 77q-5 0 -14.5 -1t-14.5 -1q-165 0 -250.5 89.5t-85.5 229.5z" />
<glyph unicode="&#x173;" d="M92 299v1280q0 24 3 34t21 17.5t56 7.5q31 0 48.5 -3t25 -12.5t9 -17.5t1.5 -26v-1260q0 -90 43.5 -138t128.5 -48q176 0 176 186v1260q0 24 3 34t21 17.5t56 7.5q31 0 48.5 -3t25 -12.5t9 -17.5t1.5 -26v-1280q0 -99 -43.5 -175.5t-128.5 -113.5q-109 -93 -109 -188 q0 -49 33.5 -73.5t83.5 -24.5q42 0 92 12q6 2 15 2q18 0 27.5 -11t9.5 -26q0 -16 -13 -29q-42 -37 -141 -37q-95 0 -162 49t-67 138q0 40 25 83t67 77q-5 0 -14.5 -1t-14.5 -1q-165 0 -250.5 89.5t-85.5 229.5z" />
<glyph unicode="&#x174;" horiz-adv-x="858" d="M63 1579q-2 31 14.5 45t65.5 14q52 0 67 -13t17 -46l41 -907q2 -29 5.5 -40t13.5 -11q14 0 26 51l56 250q34 157 41 174q9 17 20 18q12 0 24.5 -39t37.5 -153l55 -250q12 -51 26 -51q10 0 13.5 11t5.5 40l41 907q1 24 5 34t21.5 17.5t55.5 7.5q52 0 67 -13.5t13 -45.5 l-52 -1520q-1 -23 -5 -33.5t-21 -18t-53 -7.5q-61 0 -79.5 12.5t-23.5 46.5l-51 306q-12 67 -26 101t-25 41t-31 7t-31 -7t-24.5 -41t-24.5 -101l-49 -306q-5 -34 -24 -46.5t-80 -12.5q-47 0 -62.5 13.5t-17.5 45.5zM162 1819q0 10 18 28l201 201q26 29 47 29t47 -29 l201 -201q20 -17 20 -30q0 -15 -31.5 -45.5t-46.5 -30.5q-11 0 -28 20l-162 160l-160 -160q-18 -18 -28 -18q-16 0 -47 29.5t-31 46.5z" />
<glyph unicode="&#x175;" horiz-adv-x="858" d="M63 1579q-2 31 14.5 45t65.5 14q52 0 67 -13t17 -46l41 -907q2 -29 5.5 -40t13.5 -11q14 0 26 51l56 250q34 157 41 174q9 17 20 18q12 0 24.5 -39t37.5 -153l55 -250q12 -51 26 -51q10 0 13.5 11t5.5 40l41 907q1 24 5 34t21.5 17.5t55.5 7.5q52 0 67 -13.5t13 -45.5 l-52 -1520q-1 -23 -5 -33.5t-21 -18t-53 -7.5q-61 0 -79.5 12.5t-23.5 46.5l-51 306q-12 67 -26 101t-25 41t-31 7t-31 -7t-24.5 -41t-24.5 -101l-49 -306q-5 -34 -24 -46.5t-80 -12.5q-47 0 -62.5 13.5t-17.5 45.5zM162 1819q0 10 18 28l201 201q26 29 47 29t47 -29 l201 -201q20 -17 20 -30q0 -15 -31.5 -45.5t-46.5 -30.5q-11 0 -28 20l-162 160l-160 -160q-18 -18 -28 -18q-16 0 -47 29.5t-31 46.5z" />
<glyph unicode="&#x176;" horiz-adv-x="679" d="M20 1610q0 28 70 28q58 0 75.5 -12.5t27.5 -46.5l102 -340q19 -59 27 -74.5t18 -15.5q9 0 18 17t27 73l102 340q10 34 27.5 46.5t75.5 12.5q39 0 54 -7t15 -21q0 -7 -8 -31l-188 -621q-39 -125 -39 -176v-723q0 -18 -1.5 -26t-9 -17.5t-25 -12.5t-48.5 -3q-38 0 -56 7.5 t-21 17.5t-3 34v723q0 5 -0.5 10.5t-1 10.5t-2 12.5l-2.5 12.5t-4 15t-4.5 16t-5.5 19.5t-6.5 21.5t-8 25.5t-8.5 28.5l-188 625q-9 27 -9 31zM74 1819q0 10 18 28l201 201q26 29 47 29t47 -29l201 -201q20 -17 20 -30q0 -15 -31.5 -45.5t-46.5 -30.5q-11 0 -28 20l-162 160 l-160 -160q-18 -18 -28 -18q-16 0 -47 29.5t-31 46.5z" />
<glyph unicode="&#x177;" horiz-adv-x="679" d="M20 1610q0 28 70 28q58 0 75.5 -12.5t27.5 -46.5l102 -340q19 -59 27 -74.5t18 -15.5q9 0 18 17t27 73l102 340q10 34 27.5 46.5t75.5 12.5q39 0 54 -7t15 -21q0 -7 -8 -31l-188 -621q-39 -125 -39 -176v-723q0 -18 -1.5 -26t-9 -17.5t-25 -12.5t-48.5 -3q-38 0 -56 7.5 t-21 17.5t-3 34v723q0 5 -0.5 10.5t-1 10.5t-2 12.5l-2.5 12.5t-4 15t-4.5 16t-5.5 19.5t-6.5 21.5t-8 25.5t-8.5 28.5l-188 625q-9 27 -9 31zM74 1819q0 10 18 28l201 201q26 29 47 29t47 -29l201 -201q20 -17 20 -30q0 -15 -31.5 -45.5t-46.5 -30.5q-11 0 -28 20l-162 160 l-160 -160q-18 -18 -28 -18q-16 0 -47 29.5t-31 46.5z" />
<glyph unicode="&#x178;" horiz-adv-x="679" d="M20 1610q0 28 70 28q58 0 75.5 -12.5t27.5 -46.5l102 -340q19 -59 27 -74.5t18 -15.5q9 0 18 17t27 73l102 340q10 34 27.5 46.5t75.5 12.5q39 0 54 -7t15 -21q0 -7 -8 -31l-188 -621q-39 -125 -39 -176v-723q0 -18 -1.5 -26t-9 -17.5t-25 -12.5t-48.5 -3q-38 0 -56 7.5 t-21 17.5t-3 34v723q0 5 -0.5 10.5t-1 10.5t-2 12.5l-2.5 12.5t-4 15t-4.5 16t-5.5 19.5t-6.5 21.5t-8 25.5t-8.5 28.5l-188 625q-9 27 -9 31zM106 1835q0 51 5 70t16 23.5t45 4.5h61q26 0 36 -1t18.5 -11.5t10 -28.5t1.5 -57q0 -37 -1.5 -54.5t-10 -27.5t-18.5 -11t-36 -1 h-61q-26 0 -36 1t-18.5 11t-10 27.5t-1.5 54.5zM381 1835q0 39 1 57t10 28.5t18.5 11.5t35.5 1h62q26 0 35.5 -1t18.5 -11.5t10 -28.5t1 -57q0 -69 -9.5 -81.5t-55.5 -12.5h-62q-46 0 -55.5 12.5t-9.5 81.5z" />
<glyph unicode="&#x179;" horiz-adv-x="710" d="M41 78v78q0 47 37 151l416 1100q8 28 8 39q0 39 -47 39h-355q-18 0 -26 1.5t-17.5 8t-12.5 22.5t-3 44q0 29 3 45t12.5 23t17 8t26.5 1h512q19 0 26.5 -1t16.5 -8t12 -23t3 -45v-78q0 -48 -37 -152l-410 -1083q-14 -40 -14 -55q0 -39 47 -39h354q18 0 26.5 -1.5t17.5 -8 t12.5 -22.5t3.5 -44q0 -29 -3.5 -45t-12.5 -23t-17.5 -8.5t-26.5 -1.5h-512q-24 0 -33.5 3t-16.5 20t-7 55zM242 1819q0 10 18 28l209 209q19 19 29 19q15 0 46 -29.5t31 -46.5q0 -11 -18 -29l-209 -209q-18 -18 -29 -18q-15 0 -46 29.5t-31 46.5z" />
<glyph unicode="&#x17a;" horiz-adv-x="710" d="M41 78v78q0 47 37 151l416 1100q8 28 8 39q0 39 -47 39h-355q-18 0 -26 1.5t-17.5 8t-12.5 22.5t-3 44q0 29 3 45t12.5 23t17 8t26.5 1h512q19 0 26.5 -1t16.5 -8t12 -23t3 -45v-78q0 -48 -37 -152l-410 -1083q-14 -40 -14 -55q0 -39 47 -39h354q18 0 26.5 -1.5t17.5 -8 t12.5 -22.5t3.5 -44q0 -29 -3.5 -45t-12.5 -23t-17.5 -8.5t-26.5 -1.5h-512q-24 0 -33.5 3t-16.5 20t-7 55zM242 1819q0 10 18 28l209 209q19 19 29 19q15 0 46 -29.5t31 -46.5q0 -11 -18 -29l-209 -209q-18 -18 -29 -18q-15 0 -46 29.5t-31 46.5z" />
<glyph unicode="&#x17b;" horiz-adv-x="710" d="M41 78v78q0 47 37 151l416 1100q8 28 8 39q0 39 -47 39h-355q-18 0 -26 1.5t-17.5 8t-12.5 22.5t-3 44q0 29 3 45t12.5 23t17 8t26.5 1h512q19 0 26.5 -1t16.5 -8t12 -23t3 -45v-78q0 -48 -37 -152l-410 -1083q-14 -40 -14 -55q0 -39 47 -39h354q18 0 26.5 -1.5t17.5 -8 t12.5 -22.5t3.5 -44q0 -29 -3.5 -45t-12.5 -23t-17.5 -8.5t-26.5 -1.5h-512q-24 0 -33.5 3t-16.5 20t-7 55zM272 1835q0 51 5 70t16 23.5t45 4.5h33q26 0 35.5 -1t18.5 -11.5t10 -28.5t1 -57q0 -69 -9.5 -81.5t-55.5 -12.5h-33q-26 0 -36 1t-18.5 11t-10 27.5t-1.5 54.5z " />
<glyph unicode="&#x17c;" horiz-adv-x="710" d="M41 78v78q0 47 37 151l416 1100q8 28 8 39q0 39 -47 39h-355q-18 0 -26 1.5t-17.5 8t-12.5 22.5t-3 44q0 29 3 45t12.5 23t17 8t26.5 1h512q19 0 26.5 -1t16.5 -8t12 -23t3 -45v-78q0 -48 -37 -152l-410 -1083q-14 -40 -14 -55q0 -39 47 -39h354q18 0 26.5 -1.5t17.5 -8 t12.5 -22.5t3.5 -44q0 -29 -3.5 -45t-12.5 -23t-17.5 -8.5t-26.5 -1.5h-512q-24 0 -33.5 3t-16.5 20t-7 55zM272 1835q0 51 5 70t16 23.5t45 4.5h33q26 0 35.5 -1t18.5 -11.5t10 -28.5t1 -57q0 -69 -9.5 -81.5t-55.5 -12.5h-33q-26 0 -36 1t-18.5 11t-10 27.5t-1.5 54.5z " />
<glyph unicode="&#x17d;" horiz-adv-x="710" d="M41 78v78q0 47 37 151l416 1100q8 28 8 39q0 39 -47 39h-355q-18 0 -26 1.5t-17.5 8t-12.5 22.5t-3 44q0 29 3 45t12.5 23t17 8t26.5 1h512q19 0 26.5 -1t16.5 -8t12 -23t3 -45v-78q0 -48 -37 -152l-410 -1083q-14 -40 -14 -55q0 -39 47 -39h354q18 0 26.5 -1.5t17.5 -8 t12.5 -22.5t3.5 -44q0 -29 -3.5 -45t-12.5 -23t-17.5 -8.5t-26.5 -1.5h-512q-24 0 -33.5 3t-16.5 20t-7 55zM88 1999q0 17 31 46.5t47 29.5q10 0 29 -19l159 -160l162 160q17 21 29 21q15 0 46.5 -30.5t31.5 -45.5q0 -13 -21 -31l-201 -201q-25 -28 -47 -28t-47 28l-201 201 q-18 18 -18 29z" />
<glyph unicode="&#x17e;" horiz-adv-x="710" d="M41 78v78q0 47 37 151l416 1100q8 28 8 39q0 39 -47 39h-355q-18 0 -26 1.5t-17.5 8t-12.5 22.5t-3 44q0 29 3 45t12.5 23t17 8t26.5 1h512q19 0 26.5 -1t16.5 -8t12 -23t3 -45v-78q0 -48 -37 -152l-410 -1083q-14 -40 -14 -55q0 -39 47 -39h354q18 0 26.5 -1.5t17.5 -8 t12.5 -22.5t3.5 -44q0 -29 -3.5 -45t-12.5 -23t-17.5 -8.5t-26.5 -1.5h-512q-24 0 -33.5 3t-16.5 20t-7 55zM88 1999q0 17 31 46.5t47 29.5q10 0 29 -19l159 -160l162 160q17 21 29 21q15 0 46.5 -30.5t31.5 -45.5q0 -13 -21 -31l-201 -201q-25 -28 -47 -28t-47 28l-201 201 q-18 18 -18 29z" />
<glyph unicode="&#x17f;" horiz-adv-x="778" d="M72 299q0 39 17 48t69 9q78 0 78 -37q0 -90 41 -138t114 -48q71 0 111.5 48.5t40.5 137.5v207q0 106 -35 161.5t-117 55.5q-86 0 -149 27.5t-99.5 76.5t-53.5 110t-17 135v247q0 139 81.5 229.5t233.5 90.5q154 0 237 -89.5t83 -230.5q0 -39 -17 -48t-69 -9q-78 0 -78 37 q0 90 -41.5 138t-114.5 48q-71 0 -111 -48.5t-40 -137.5v-207q0 -106 34.5 -160.5t116.5 -54.5q86 0 149.5 -27.5t99.5 -77t53.5 -110.5t17.5 -135v-248q0 -139 -82 -229t-234 -90q-154 0 -236.5 89t-82.5 230z" />
<glyph unicode="&#x186;" horiz-adv-x="808" d="M51 299q0 39 17 48t69 9q78 0 78 -37q0 -186 176 -186q85 0 128.5 48t43.5 138v1000q0 90 -43.5 138t-128.5 48q-176 0 -176 -186q0 -37 -78 -37q-52 0 -69 9t-17 48q0 142 86.5 231t253.5 89q165 0 250.5 -90t85.5 -230v-1040q0 -140 -85.5 -229.5t-250.5 -89.5 q-168 0 -254 88.5t-86 230.5z" />
<glyph unicode="&#x189;" horiz-adv-x="845" d="M0 829q0 38 7.5 55t17.5 20t34 3h33v654q0 29 3 45t12 23t16.5 8t26.5 1h344q86 0 139.5 -18.5t82 -61.5t38.5 -97.5t10 -141.5v-1000q0 -87 -9.5 -141.5t-37.5 -97.5t-81.5 -61.5t-139.5 -18.5h-346q-24 0 -33.5 3t-17 20t-7.5 55v676h-33q-19 0 -26.5 1t-17 8 t-12.5 22.5t-3 43.5zM256 205q0 -31 10 -41t41 -10h154q29 0 49 3.5t35.5 9t25 18.5t16 26.5t9 38t3.5 48t1 62.5v918q0 55 -2 84t-9 57t-22.5 40t-40.5 19t-65 7h-154q-31 0 -41 -10t-10 -41v-527h113q24 0 34 -3t17.5 -20t7.5 -55q0 -28 -3 -43.5t-12.5 -22.5t-17 -8 t-26.5 -1h-113v-549z" />
<glyph unicode="&#x18e;" horiz-adv-x="833" d="M31 78q0 28 3 44t12.5 22.5t17.5 8t26 1.5h436q31 0 41.5 10t10.5 41v508q0 24 -11.5 32.5t-40.5 8.5h-217q-19 0 -26.5 1t-17 8t-12.5 22.5t-3 43.5q0 38 7.5 55t17.5 20t34 3h217q31 0 41.5 10t10.5 41v476q0 31 -10.5 41t-41.5 10h-436q-18 0 -26 1.5t-17.5 8 t-12.5 22.5t-3 44q0 29 3 45t12.5 23t17 8t26.5 1h594q24 0 33 -2.5t16.5 -19.5t7.5 -55v-1483q0 -38 -7 -55t-16.5 -20t-33.5 -3h-594q-24 0 -34 3t-17.5 20t-7.5 55z" />
<glyph unicode="&#x190;" horiz-adv-x="849" d="M102 299v289q0 156 101 241q-101 88 -101 244v266q0 140 85.5 230t250.5 90q167 0 253.5 -89t86.5 -231q0 -39 -17 -48t-69 -9q-78 0 -78 37q0 186 -176 186q-85 0 -128.5 -48t-43.5 -138v-225q0 -91 44.5 -139t131.5 -48h27q24 0 34 -3t17.5 -20t7.5 -55q0 -28 -3 -43.5 t-12.5 -22.5t-17 -8t-26.5 -1h-27q-176 0 -176 -187v-248q0 -90 43.5 -138t128.5 -48q176 0 176 186q0 37 78 37q52 0 69 -9t17 -48q0 -142 -86 -230.5t-254 -88.5q-165 0 -250.5 89.5t-85.5 229.5z" />
<glyph unicode="&#x192;" horiz-adv-x="782" d="M92 59v1502q0 29 3 45t12 23t16.5 8t26.5 1h552q19 0 26.5 -1t17.5 -8t13 -23t3 -45q0 -28 -3.5 -44t-12.5 -22.5t-17.5 -8t-26.5 -1.5h-395q-31 0 -41 -10t-10 -41v-476q0 -31 10 -41t41 -10h299q18 0 26.5 -1.5t17.5 -8.5t12.5 -23t3.5 -45q0 -28 -3 -44t-13 -22.5 t-17.5 -7.5t-26.5 -1h-299q-29 0 -40 -8.5t-11 -32.5v-654q0 -18 -1.5 -26t-9 -17.5t-25 -12.5t-48.5 -3q-38 0 -56 7.5t-21 17.5t-3 34z" />
<glyph unicode="&#x1a7;" horiz-adv-x="778" d="M72 299v248q0 74 17 135t53.5 110.5t99.5 77t149 27.5q82 0 117 54.5t35 160.5v207q0 89 -40.5 137.5t-111.5 48.5q-73 0 -114 -48t-41 -138q0 -37 -78 -37q-52 0 -69 9t-17 48q0 141 82.5 230.5t236.5 89.5q152 0 234 -90.5t82 -229.5v-247q0 -74 -17.5 -135t-53.5 -110 t-99.5 -76.5t-149.5 -27.5q-82 0 -116.5 -55.5t-34.5 -161.5v-207q0 -89 40 -137.5t111 -48.5q73 0 114.5 48t41.5 138q0 37 78 37q52 0 69 -9t17 -48q0 -141 -83 -230t-237 -89q-152 0 -233.5 90t-81.5 229z" />
<glyph unicode="&#x1c0;" horiz-adv-x="348" d="M92 59v1520q0 24 3 34t21 17.5t56 7.5q31 0 48.5 -3t25 -12.5t9 -17.5t1.5 -26v-1520q0 -18 -1.5 -26t-9 -17.5t-25 -12.5t-48.5 -3q-38 0 -56 7.5t-21 17.5t-3 34z" />
<glyph unicode="&#x1c1;" horiz-adv-x="696" d="M92 59v1520q0 24 3 34t21 17.5t56 7.5q31 0 48.5 -3t25 -12.5t9 -17.5t1.5 -26v-1520q0 -18 -1.5 -26t-9 -17.5t-25 -12.5t-48.5 -3q-38 0 -56 7.5t-21 17.5t-3 34zM440 59v1520q0 24 3 34t21 17.5t56 7.5q31 0 48.5 -3t25 -12.5t9 -17.5t1.5 -26v-1520q0 -18 -1.5 -26 t-9 -17.5t-25 -12.5t-48.5 -3q-38 0 -56 7.5t-21 17.5t-3 34z" />
<glyph unicode="&#x1c2;" horiz-adv-x="919" d="M41 631q0 38 7.5 55t17.5 20t34 3h238q24 0 32.5 11.5t8.5 39.5v141q0 28 -8.5 39.5t-32.5 11.5h-238q-18 0 -26 1.5t-17.5 8t-12.5 22.5t-3 44q0 38 7.5 55t17.5 20t34 3h238q24 0 32.5 11.5t8.5 39.5v422q0 24 3 34t21 17.5t56 7.5q31 0 48.5 -3t25 -12.5t9 -17.5 t1.5 -26v-422q0 -27 8.5 -39t30.5 -12h237q18 0 26.5 -1.5t17.5 -8.5t12.5 -23t3.5 -45q0 -28 -3.5 -44t-12.5 -22.5t-17.5 -8t-26.5 -1.5h-237q-22 0 -30.5 -12t-8.5 -39v-141q0 -27 8.5 -39t30.5 -12h237q18 0 26.5 -1.5t17.5 -8.5t12.5 -23t3.5 -45q0 -28 -3.5 -44 t-12.5 -22.5t-17.5 -8t-26.5 -1.5h-237q-22 0 -30.5 -12t-8.5 -39v-445q0 -18 -1.5 -26t-9 -17.5t-25 -12.5t-48.5 -3q-38 0 -56 7.5t-21 17.5t-3 34v445q0 28 -8.5 39.5t-32.5 11.5h-238q-18 0 -26 1.5t-17.5 8t-12.5 22.5t-3 44z" />
<glyph unicode="&#x1c3;" horiz-adv-x="348" d="M92 94q0 26 0.5 41.5t4 27.5t6 17.5t12 8.5t17.5 3.5t26 0.5h32q18 0 26 -0.5t17.5 -3.5t12 -8.5t6 -17.5t4 -27.5t0.5 -41.5q0 -37 -1.5 -54.5t-10 -27.5t-18.5 -11t-36 -1h-32q-26 0 -36 1t-18.5 11t-10 27.5t-1.5 54.5zM92 428v1151q0 24 3 34t21 17.5t56 7.5 q31 0 48.5 -3t25 -12.5t9 -17.5t1.5 -26v-1151q0 -18 -1.5 -26t-9 -17.5t-25 -12.5t-48.5 -3q-38 0 -56 7.5t-21 17.5t-3 34z" />
<glyph unicode="&#x1c5;" horiz-adv-x="1556" d="M92 78v1483q0 29 3 45t12 23t16.5 8t26.5 1h344q86 0 139.5 -18.5t82 -61.5t38.5 -97.5t10 -141.5v-1000q0 -87 -9.5 -141.5t-37.5 -97.5t-81.5 -61.5t-139.5 -18.5h-346q-24 0 -33.5 3t-17 20t-7.5 55zM256 205q0 -31 10 -41t41 -10h154q29 0 49 3.5t35.5 9t25 18.5 t16 26.5t9 38t3.5 48t1 62.5v918q0 55 -2 84t-9 57t-22.5 40t-40.5 19t-65 7h-154q-31 0 -41 -10t-10 -41v-1229zM887 78v78q0 47 37 151l415 1100q9 31 9 39q0 39 -48 39h-354q-18 0 -26 1.5t-17.5 8t-12.5 22.5t-3 44q0 29 3 45t12.5 23t17 8t26.5 1h512q19 0 26.5 -1 t16.5 -8t12 -23t3 -45v-78q0 -48 -37 -152l-410 -1083q-14 -40 -14 -55q0 -39 47 -39h354q18 0 26.5 -1.5t17.5 -8t12.5 -22.5t3.5 -44q0 -29 -3.5 -45t-12.5 -23t-17.5 -8.5t-26.5 -1.5h-512q-24 0 -33.5 3t-16.5 20t-7 55zM934 1999q0 17 31 46.5t47 29.5q9 0 28 -19 l160 -160l162 160q18 21 29 21q15 0 46 -30.5t31 -45.5q0 -14 -20 -31l-201 -201q-25 -28 -47 -28t-47 28l-201 201q-18 18 -18 29z" />
<glyph unicode="&#x1c6;" horiz-adv-x="1556" d="M92 78v1483q0 29 3 45t12 23t16.5 8t26.5 1h344q86 0 139.5 -18.5t82 -61.5t38.5 -97.5t10 -141.5v-1000q0 -87 -9.5 -141.5t-37.5 -97.5t-81.5 -61.5t-139.5 -18.5h-346q-24 0 -33.5 3t-17 20t-7.5 55zM256 205q0 -31 10 -41t41 -10h154q29 0 49 3.5t35.5 9t25 18.5 t16 26.5t9 38t3.5 48t1 62.5v918q0 55 -2 84t-9 57t-22.5 40t-40.5 19t-65 7h-154q-31 0 -41 -10t-10 -41v-1229zM887 78v78q0 47 37 151l415 1100q9 31 9 39q0 39 -48 39h-354q-18 0 -26 1.5t-17.5 8t-12.5 22.5t-3 44q0 29 3 45t12.5 23t17 8t26.5 1h512q19 0 26.5 -1 t16.5 -8t12 -23t3 -45v-78q0 -48 -37 -152l-410 -1083q-14 -40 -14 -55q0 -39 47 -39h354q18 0 26.5 -1.5t17.5 -8t12.5 -22.5t3.5 -44q0 -29 -3.5 -45t-12.5 -23t-17.5 -8.5t-26.5 -1.5h-512q-24 0 -33.5 3t-16.5 20t-7 55zM934 1999q0 17 31 46.5t47 29.5q9 0 28 -19 l160 -160l162 160q18 21 29 21q15 0 46 -30.5t31 -45.5q0 -14 -20 -31l-201 -201q-25 -28 -47 -28t-47 28l-201 201q-18 18 -18 29z" />
<glyph unicode="&#x1c7;" horiz-adv-x="1570" d="M92 78v1501q0 24 3 34t21 17.5t56 7.5q31 0 48.5 -3t25 -12.5t9 -17.5t1.5 -26v-1374q0 -31 10 -41t41 -10h395q18 0 26.5 -1.5t17.5 -8t12.5 -22.5t3.5 -44q0 -29 -3.5 -45t-12.5 -23t-17.5 -8.5t-26.5 -1.5h-552q-24 0 -33.5 3t-17 20t-7.5 55zM803 297q0 24 3 34 t21 17.5t56 7.5q50 0 67 -9.5t17 -31.5q6 -182 172 -182q176 0 176 186v1260q0 24 3 34t21 17.5t56 7.5q31 0 48.5 -3t25 -12.5t9 -17.5t1.5 -26v-1280q0 -141 -86.5 -230t-253.5 -89q-166 0 -251 88.5t-85 228.5z" />
<glyph unicode="&#x1c8;" horiz-adv-x="1570" d="M92 78v1501q0 24 3 34t21 17.5t56 7.5q31 0 48.5 -3t25 -12.5t9 -17.5t1.5 -26v-1374q0 -31 10 -41t41 -10h395q18 0 26.5 -1.5t17.5 -8t12.5 -22.5t3.5 -44q0 -29 -3.5 -45t-12.5 -23t-17.5 -8.5t-26.5 -1.5h-552q-24 0 -33.5 3t-17 20t-7.5 55zM803 297q0 24 3 34 t21 17.5t56 7.5q50 0 67 -9.5t17 -31.5q6 -182 172 -182q176 0 176 186v1260q0 24 3 34t21 17.5t56 7.5q31 0 48.5 -3t25 -12.5t9 -17.5t1.5 -26v-1280q0 -141 -86.5 -230t-253.5 -89q-166 0 -251 88.5t-85 228.5z" />
<glyph unicode="&#x1c9;" horiz-adv-x="1570" d="M92 78v1501q0 24 3 34t21 17.5t56 7.5q31 0 48.5 -3t25 -12.5t9 -17.5t1.5 -26v-1374q0 -31 10 -41t41 -10h395q18 0 26.5 -1.5t17.5 -8t12.5 -22.5t3.5 -44q0 -29 -3.5 -45t-12.5 -23t-17.5 -8.5t-26.5 -1.5h-552q-24 0 -33.5 3t-17 20t-7.5 55zM803 297q0 24 3 34 t21 17.5t56 7.5q50 0 67 -9.5t17 -31.5q6 -182 172 -182q176 0 176 186v1260q0 24 3 34t21 17.5t56 7.5q31 0 48.5 -3t25 -12.5t9 -17.5t1.5 -26v-1280q0 -141 -86.5 -230t-253.5 -89q-166 0 -251 88.5t-85 228.5z" />
<glyph unicode="&#x1ca;" horiz-adv-x="1648" d="M92 59v1520q0 24 3 34t21 17.5t56 7.5q41 0 62.5 -7.5t28 -17.5t13.5 -34l285 -926q16 -51 29 -51q9 0 11.5 11t2.5 42v924q0 24 3 34t21 17.5t56 7.5q31 0 48.5 -3t25 -12.5t9 -17.5t1.5 -26v-1520q0 -23 -4 -33.5t-24.5 -18t-63.5 -7.5q-51 0 -69 13.5t-27 45.5 l-279 908q-15 51 -31 51q-9 0 -11.5 -11t-2.5 -40v-908q0 -18 -1.5 -26t-9 -17.5t-25 -12.5t-48.5 -3q-38 0 -56 7.5t-21 17.5t-3 34zM881 297q0 24 3 34t21 17.5t56 7.5q50 0 66.5 -9.5t16.5 -31.5q6 -182 173 -182q176 0 176 186v1260q0 24 3 34t21 17.5t56 7.5 q31 0 48.5 -3t24.5 -12.5t8.5 -17t1.5 -26.5v-1280q0 -141 -86 -230t-253 -89q-166 0 -251 88.5t-85 228.5z" />
<glyph unicode="&#x1cb;" horiz-adv-x="1648" d="M92 59v1520q0 24 3 34t21 17.5t56 7.5q41 0 62.5 -7.5t28 -17.5t13.5 -34l285 -926q16 -51 29 -51q9 0 11.5 11t2.5 42v924q0 24 3 34t21 17.5t56 7.5q31 0 48.5 -3t25 -12.5t9 -17.5t1.5 -26v-1520q0 -23 -4 -33.5t-24.5 -18t-63.5 -7.5q-51 0 -69 13.5t-27 45.5 l-279 908q-15 51 -31 51q-9 0 -11.5 -11t-2.5 -40v-908q0 -18 -1.5 -26t-9 -17.5t-25 -12.5t-48.5 -3q-38 0 -56 7.5t-21 17.5t-3 34zM881 297q0 24 3 34t21 17.5t56 7.5q50 0 66.5 -9.5t16.5 -31.5q6 -182 173 -182q176 0 176 186v1260q0 24 3 34t21 17.5t56 7.5 q31 0 48.5 -3t24.5 -12.5t8.5 -17t1.5 -26.5v-1280q0 -141 -86 -230t-253 -89q-166 0 -251 88.5t-85 228.5z" />
<glyph unicode="&#x1cc;" horiz-adv-x="1648" d="M92 59v1520q0 24 3 34t21 17.5t56 7.5q41 0 62.5 -7.5t28 -17.5t13.5 -34l285 -926q16 -51 29 -51q9 0 11.5 11t2.5 42v924q0 24 3 34t21 17.5t56 7.5q31 0 48.5 -3t25 -12.5t9 -17.5t1.5 -26v-1520q0 -23 -4 -33.5t-24.5 -18t-63.5 -7.5q-51 0 -69 13.5t-27 45.5 l-279 908q-15 51 -31 51q-9 0 -11.5 -11t-2.5 -40v-908q0 -18 -1.5 -26t-9 -17.5t-25 -12.5t-48.5 -3q-38 0 -56 7.5t-21 17.5t-3 34zM881 297q0 24 3 34t21 17.5t56 7.5q50 0 66.5 -9.5t16.5 -31.5q6 -182 173 -182q176 0 176 186v1260q0 24 3 34t21 17.5t56 7.5 q31 0 48.5 -3t24.5 -12.5t8.5 -17t1.5 -26.5v-1280q0 -141 -86 -230t-253 -89q-166 0 -251 88.5t-85 228.5z" />
<glyph unicode="&#x1cd;" horiz-adv-x="716" d="M20 31q0 13 3 28l235 1463q6 32 10.5 48.5t14.5 34.5t27.5 25.5t45.5 7.5q30 0 50 -9.5t30.5 -29t14.5 -35t8 -42.5l235 -1463q2 -10 2 -28q0 -31 -71 -31q-57 0 -72.5 12.5t-20.5 46.5l-26 162q-5 33 -51 33h-195q-23 0 -34.5 -7t-14.5 -26l-27 -162q-4 -24 -8.5 -34 t-24.5 -17.5t-59 -7.5q-72 0 -72 31zM92 1999q0 17 31 46.5t47 29.5q10 0 29 -19l159 -160l162 160q18 21 29 21q15 0 46.5 -30.5t31.5 -45.5q0 -13 -21 -31l-200 -201q-25 -28 -48 -28q-22 0 -47 28l-200 201q-19 19 -19 29zM244 438q0 -18 12 -24t39 -6h131q25 0 36 6.5 t11 23.5q0 4 -88 553q-7 47 -12 59.5t-15 12.5t-14.5 -11.5t-11.5 -60.5q-69 -437 -87 -547z" />
<glyph unicode="&#x1ce;" horiz-adv-x="716" d="M20 31q0 13 3 28l235 1463q6 32 10.5 48.5t14.5 34.5t27.5 25.5t45.5 7.5q30 0 50 -9.5t30.5 -29t14.5 -35t8 -42.5l235 -1463q2 -10 2 -28q0 -31 -71 -31q-57 0 -72.5 12.5t-20.5 46.5l-26 162q-5 33 -51 33h-195q-23 0 -34.5 -7t-14.5 -26l-27 -162q-4 -24 -8.5 -34 t-24.5 -17.5t-59 -7.5q-72 0 -72 31zM92 1999q0 17 31 46.5t47 29.5q10 0 29 -19l159 -160l162 160q18 21 29 21q15 0 46.5 -30.5t31.5 -45.5q0 -13 -21 -31l-200 -201q-25 -28 -48 -28q-22 0 -47 28l-200 201q-19 19 -19 29zM244 438q0 -18 12 -24t39 -6h131q25 0 36 6.5 t11 23.5q0 4 -88 553q-7 47 -12 59.5t-15 12.5t-14.5 -11.5t-11.5 -60.5q-69 -437 -87 -547z" />
<glyph unicode="&#x1cf;" horiz-adv-x="530" d="M-2 1999q0 17 31 46.5t47 29.5q9 0 28 -19l160 -160l162 160q18 21 29 21q15 0 46 -30.5t31 -45.5q0 -14 -20 -31l-201 -201q-25 -28 -47 -28t-47 28l-201 201q-18 18 -18 29zM41 78q0 28 3 44t12.5 22.5t17.5 8t26 1.5h33q31 0 41 10t10 41v1229q0 31 -10 41t-41 10h-33 q-18 0 -26 1.5t-17.5 8t-12.5 22.5t-3 44q0 29 3 45t12.5 23t17 8t26.5 1h330q19 0 26.5 -1t17 -8t12.5 -23t3 -45q0 -28 -3 -44t-12.5 -22.5t-17.5 -8t-26 -1.5h-31q-31 0 -41 -10t-10 -41v-1229q0 -31 10 -41t41 -10h31q18 0 26 -1.5t17.5 -8t12.5 -22.5t3 -44 q0 -38 -7.5 -55t-17.5 -20t-34 -3h-330q-24 0 -34 3t-17.5 20t-7.5 55z" />
<glyph unicode="&#x1d0;" horiz-adv-x="530" d="M-2 1999q0 17 31 46.5t47 29.5q9 0 28 -19l160 -160l162 160q18 21 29 21q15 0 46 -30.5t31 -45.5q0 -14 -20 -31l-201 -201q-25 -28 -47 -28t-47 28l-201 201q-18 18 -18 29zM41 78q0 28 3 44t12.5 22.5t17.5 8t26 1.5h33q31 0 41 10t10 41v1229q0 31 -10 41t-41 10h-33 q-18 0 -26 1.5t-17.5 8t-12.5 22.5t-3 44q0 29 3 45t12.5 23t17 8t26.5 1h330q19 0 26.5 -1t17 -8t12.5 -23t3 -45q0 -28 -3 -44t-12.5 -22.5t-17.5 -8t-26 -1.5h-31q-31 0 -41 -10t-10 -41v-1229q0 -31 10 -41t41 -10h31q18 0 26 -1.5t17.5 -8t12.5 -22.5t3 -44 q0 -38 -7.5 -55t-17.5 -20t-34 -3h-330q-24 0 -34 3t-17.5 20t-7.5 55z" />
<glyph unicode="&#x1d1;" horiz-adv-x="839" d="M82 299v1040q0 140 85.5 230t250.5 90q167 0 253.5 -89.5t86.5 -230.5v-1040q0 -141 -86.5 -230t-253.5 -89q-165 0 -250.5 89.5t-85.5 229.5zM152 1999q0 17 31 46.5t46 29.5q10 0 29 -19l160 -160l162 160q18 21 28 21q15 0 46.5 -30.5t31.5 -45.5q0 -14 -20 -31 l-201 -201q-25 -28 -47 -28t-47 28l-201 201q-18 18 -18 29zM246 319q0 -90 43.5 -138t128.5 -48q176 0 176 186v1000q0 186 -176 186q-85 0 -128.5 -48t-43.5 -138v-1000z" />
<glyph unicode="&#x1d2;" horiz-adv-x="839" d="M82 299v1040q0 140 85.5 230t250.5 90q167 0 253.5 -89.5t86.5 -230.5v-1040q0 -141 -86.5 -230t-253.5 -89q-165 0 -250.5 89.5t-85.5 229.5zM152 1999q0 17 31 46.5t46 29.5q10 0 29 -19l160 -160l162 160q18 21 28 21q15 0 46.5 -30.5t31.5 -45.5q0 -14 -20 -31 l-201 -201q-25 -28 -47 -28t-47 28l-201 201q-18 18 -18 29zM246 319q0 -90 43.5 -138t128.5 -48q176 0 176 186v1000q0 186 -176 186q-85 0 -128.5 -48t-43.5 -138v-1000z" />
<glyph unicode="&#x1d3;" d="M92 299v1280q0 24 3 34t21 17.5t56 7.5q31 0 48.5 -3t25 -12.5t9 -17.5t1.5 -26v-1260q0 -90 43.5 -138t128.5 -48q176 0 176 186v1260q0 24 3 34t21 17.5t56 7.5q31 0 48.5 -3t25 -12.5t9 -17.5t1.5 -26v-1280q0 -141 -86.5 -230t-253.5 -89q-165 0 -250.5 89.5 t-85.5 229.5zM162 1999q0 17 31 46.5t47 29.5q9 0 28 -19l160 -160l162 160q18 21 28 21q15 0 46.5 -30.5t31.5 -45.5q0 -14 -20 -31l-201 -201q-25 -28 -47 -28t-47 28l-201 201q-18 18 -18 29z" />
<glyph unicode="&#x1d4;" d="M92 299v1280q0 24 3 34t21 17.5t56 7.5q31 0 48.5 -3t25 -12.5t9 -17.5t1.5 -26v-1260q0 -90 43.5 -138t128.5 -48q176 0 176 186v1260q0 24 3 34t21 17.5t56 7.5q31 0 48.5 -3t25 -12.5t9 -17.5t1.5 -26v-1280q0 -141 -86.5 -230t-253.5 -89q-165 0 -250.5 89.5 t-85.5 229.5zM162 1999q0 17 31 46.5t47 29.5q9 0 28 -19l160 -160l162 160q18 21 28 21q15 0 46.5 -30.5t31.5 -45.5q0 -14 -20 -31l-201 -201q-25 -28 -47 -28t-47 28l-201 201q-18 18 -18 29z" />
<glyph unicode="&#x1e2;" horiz-adv-x="1247" d="M20 27q0 5 9 32l465 1463q8 25 14.5 41.5t18.5 35.5t30 29t41 10h569q19 0 26.5 -1t17.5 -8t13 -23t3 -45q0 -28 -3.5 -44t-12.5 -22.5t-17.5 -8t-26.5 -1.5h-415q-31 0 -41.5 -10t-10.5 -41v-476q0 -31 10.5 -41t41.5 -10h217q24 0 34 -3t17.5 -20t7.5 -55 q0 -28 -3 -43.5t-12.5 -22.5t-17 -8t-26.5 -1h-217q-29 0 -40.5 -8.5t-11.5 -32.5v-508q0 -31 10.5 -41t41.5 -10h415q18 0 26.5 -1.5t17.5 -8t12.5 -22.5t3.5 -44q0 -29 -3.5 -45t-12.5 -23t-17.5 -8.5t-26.5 -1.5h-573q-24 0 -33.5 3t-16.5 20t-7 55v143q0 33 -45 33h-197 q-45 0 -55 -33l-52 -162q-10 -33 -28 -46t-72 -13q-68 0 -68 27zM305 438q0 -18 11.5 -24t37.5 -6h131q52 0 52 30v553q0 32 -2 48t-5 20t-10 4q-10 0 -16.5 -12t-20.5 -60q-108 -341 -168 -521q-10 -30 -10 -32zM584 1794q0 39 9 48t34 9h524q18 0 25 -2t12.5 -15t5.5 -40 t-5.5 -39t-12.5 -14t-25 -2h-524q-18 0 -25 2t-12.5 14t-5.5 39z" />
<glyph unicode="&#x1e3;" horiz-adv-x="1247" d="M20 27q0 5 9 32l465 1463q8 25 14.5 41.5t18.5 35.5t30 29t41 10h569q19 0 26.5 -1t17.5 -8t13 -23t3 -45q0 -28 -3.5 -44t-12.5 -22.5t-17.5 -8t-26.5 -1.5h-415q-31 0 -41.5 -10t-10.5 -41v-476q0 -31 10.5 -41t41.5 -10h217q24 0 34 -3t17.5 -20t7.5 -55 q0 -28 -3 -43.5t-12.5 -22.5t-17 -8t-26.5 -1h-217q-29 0 -40.5 -8.5t-11.5 -32.5v-508q0 -31 10.5 -41t41.5 -10h415q18 0 26.5 -1.5t17.5 -8t12.5 -22.5t3.5 -44q0 -29 -3.5 -45t-12.5 -23t-17.5 -8.5t-26.5 -1.5h-573q-24 0 -33.5 3t-16.5 20t-7 55v143q0 33 -45 33h-197 q-45 0 -55 -33l-52 -162q-10 -33 -28 -46t-72 -13q-68 0 -68 27zM305 438q0 -18 11.5 -24t37.5 -6h131q52 0 52 30v553q0 32 -2 48t-5 20t-10 4q-10 0 -16.5 -12t-20.5 -60q-108 -341 -168 -521q-10 -30 -10 -32zM584 1794q0 39 9 48t34 9h524q18 0 25 -2t12.5 -15t5.5 -40 t-5.5 -39t-12.5 -14t-25 -2h-524q-18 0 -25 2t-12.5 14t-5.5 39z" />
<glyph unicode="&#x1e6;" horiz-adv-x="819" d="M82 299v1040q0 140 85.5 230t250.5 90q167 0 253.5 -89t86.5 -231q0 -39 -17 -48t-69 -9q-78 0 -78 37q0 186 -176 186q-85 0 -128.5 -48t-43.5 -138v-1000q0 -90 43.5 -138t128.5 -48q176 0 176 186v281q0 31 -10 41t-41 10h-17q-18 0 -26 1.5t-17.5 8t-12.5 22.5t-3 44 q0 38 7.5 55t17.5 20t34 3h174q24 0 33.5 -3t17 -20t7.5 -55v-428q0 -153 -92 -236t-248 -83q-165 0 -250.5 89.5t-85.5 229.5zM141 1999q0 17 31 46.5t47 29.5q10 0 29 -19l160 -160l161 160q17 21 29 21q15 0 46.5 -30.5t31.5 -45.5q0 -13 -21 -31l-200 -201 q-25 -28 -47 -28q-23 0 -48 28l-200 201q-19 19 -19 29z" />
<glyph unicode="&#x1e7;" horiz-adv-x="819" d="M82 299v1040q0 140 85.5 230t250.5 90q167 0 253.5 -89t86.5 -231q0 -39 -17 -48t-69 -9q-78 0 -78 37q0 186 -176 186q-85 0 -128.5 -48t-43.5 -138v-1000q0 -90 43.5 -138t128.5 -48q176 0 176 186v281q0 31 -10 41t-41 10h-17q-18 0 -26 1.5t-17.5 8t-12.5 22.5t-3 44 q0 38 7.5 55t17.5 20t34 3h174q24 0 33.5 -3t17 -20t7.5 -55v-428q0 -153 -92 -236t-248 -83q-165 0 -250.5 89.5t-85.5 229.5zM141 1999q0 17 31 46.5t47 29.5q10 0 29 -19l160 -160l161 160q17 21 29 21q15 0 46.5 -30.5t31.5 -45.5q0 -13 -21 -31l-200 -201 q-25 -28 -47 -28q-23 0 -48 28l-200 201q-19 19 -19 29z" />
<glyph unicode="&#x1e8;" horiz-adv-x="755" d="M92 59v1520q0 24 3 34t21 17.5t56 7.5q31 0 48.5 -3t25 -12.5t9 -17.5t1.5 -26v-578q0 -47 12 -47q5 0 8 2t8.5 12.5t14.5 32.5l236 578q10 23 17.5 33.5t28.5 18t60 7.5q66 0 66 -24q0 -12 -9 -35l-149 -360q-31 -73 -31 -111q0 -35 31 -178l192 -871q4 -20 4 -28 q0 -16 -15.5 -23.5t-57.5 -7.5q-39 0 -58.5 7.5t-25 18t-10.5 33.5l-156 701q-7 34 -13 44.5t-14 10.5t-15.5 -10t-21.5 -45l-73 -178q-21 -49 -25 -78t-4 -115v-330q0 -18 -1.5 -26t-9 -17.5t-25 -12.5t-48.5 -3q-38 0 -56 7.5t-21 17.5t-3 34zM111 1999q0 17 31 46.5 t46 29.5q10 0 29 -19l160 -160l162 160q17 21 28 21q15 0 46.5 -30.5t31.5 -45.5q0 -14 -20 -31l-201 -201q-25 -28 -47 -28t-47 28l-201 201q-18 18 -18 29z" />
<glyph unicode="&#x1e9;" horiz-adv-x="755" d="M92 59v1520q0 24 3 34t21 17.5t56 7.5q31 0 48.5 -3t25 -12.5t9 -17.5t1.5 -26v-578q0 -47 12 -47q5 0 8 2t8.5 12.5t14.5 32.5l236 578q10 23 17.5 33.5t28.5 18t60 7.5q66 0 66 -24q0 -12 -9 -35l-149 -360q-31 -73 -31 -111q0 -35 31 -178l192 -871q4 -20 4 -28 q0 -16 -15.5 -23.5t-57.5 -7.5q-39 0 -58.5 7.5t-25 18t-10.5 33.5l-156 701q-7 34 -13 44.5t-14 10.5t-15.5 -10t-21.5 -45l-73 -178q-21 -49 -25 -78t-4 -115v-330q0 -18 -1.5 -26t-9 -17.5t-25 -12.5t-48.5 -3q-38 0 -56 7.5t-21 17.5t-3 34zM111 1999q0 17 31 46.5 t46 29.5q10 0 29 -19l160 -160l162 160q17 21 28 21q15 0 46.5 -30.5t31.5 -45.5q0 -14 -20 -31l-201 -201q-25 -28 -47 -28t-47 28l-201 201q-18 18 -18 29z" />
<glyph unicode="&#x1ea;" horiz-adv-x="839" d="M82 299v1040q0 140 85.5 230t250.5 90q167 0 253.5 -89.5t86.5 -230.5v-1040q0 -192 -172 -297q-48 -30 -79.5 -79.5t-31.5 -100.5q0 -49 33.5 -73.5t83.5 -24.5q42 0 92 12q6 2 14 2q18 0 27.5 -11t9.5 -26q0 -17 -12 -29q-42 -37 -141 -37q-95 0 -162.5 49t-67.5 138 q0 40 25 83t67 77q-5 0 -13.5 -1t-12.5 -1q-165 0 -250.5 89.5t-85.5 229.5zM246 319q0 -90 43.5 -138t128.5 -48q176 0 176 186v1000q0 186 -176 186q-85 0 -128.5 -48t-43.5 -138v-1000z" />
<glyph unicode="&#x1eb;" horiz-adv-x="839" d="M82 299v1040q0 140 85.5 230t250.5 90q167 0 253.5 -89.5t86.5 -230.5v-1040q0 -192 -172 -297q-48 -30 -79.5 -79.5t-31.5 -100.5q0 -49 33.5 -73.5t83.5 -24.5q42 0 92 12q6 2 14 2q18 0 27.5 -11t9.5 -26q0 -17 -12 -29q-42 -37 -141 -37q-95 0 -162.5 49t-67.5 138 q0 40 25 83t67 77q-5 0 -13.5 -1t-12.5 -1q-165 0 -250.5 89.5t-85.5 229.5zM246 319q0 -90 43.5 -138t128.5 -48q176 0 176 186v1000q0 186 -176 186q-85 0 -128.5 -48t-43.5 -138v-1000z" />
<glyph unicode="&#x1ec;" horiz-adv-x="839" d="M82 299v1040q0 140 85.5 230t250.5 90q167 0 253.5 -89.5t86.5 -230.5v-1040q0 -192 -172 -297q-48 -30 -79.5 -79.5t-31.5 -100.5q0 -49 33.5 -73.5t83.5 -24.5q42 0 92 12q6 2 14 2q18 0 27.5 -11t9.5 -26q0 -17 -12 -29q-42 -37 -141 -37q-95 0 -162.5 49t-67.5 138 q0 40 25 83t67 77q-5 0 -13.5 -1t-12.5 -1q-165 0 -250.5 89.5t-85.5 229.5zM115 1794q0 39 9 48t34 9h524q18 0 25 -2t12.5 -15t5.5 -40t-5.5 -39t-12.5 -14t-25 -2h-524q-18 0 -25 2t-12.5 14t-5.5 39zM246 319q0 -90 43.5 -138t128.5 -48q176 0 176 186v1000 q0 186 -176 186q-85 0 -128.5 -48t-43.5 -138v-1000z" />
<glyph unicode="&#x1ed;" horiz-adv-x="839" d="M82 299v1040q0 140 85.5 230t250.5 90q167 0 253.5 -89.5t86.5 -230.5v-1040q0 -192 -172 -297q-48 -30 -79.5 -79.5t-31.5 -100.5q0 -49 33.5 -73.5t83.5 -24.5q42 0 92 12q6 2 14 2q18 0 27.5 -11t9.5 -26q0 -17 -12 -29q-42 -37 -141 -37q-95 0 -162.5 49t-67.5 138 q0 40 25 83t67 77q-5 0 -13.5 -1t-12.5 -1q-165 0 -250.5 89.5t-85.5 229.5zM115 1794q0 39 9 48t34 9h524q18 0 25 -2t12.5 -15t5.5 -40t-5.5 -39t-12.5 -14t-25 -2h-524q-18 0 -25 2t-12.5 14t-5.5 39zM246 319q0 -90 43.5 -138t128.5 -48q176 0 176 186v1000 q0 186 -176 186q-85 0 -128.5 -48t-43.5 -138v-1000z" />
<glyph unicode="&#x1f0;" horiz-adv-x="788" d="M20 297q0 24 3 34t21 17.5t56 7.5q50 0 67 -9.5t17 -31.5q6 -182 172 -182q176 0 176 186v1260q0 24 3 34t21 17.5t56 7.5q31 0 48.5 -3t25 -12.5t9 -17.5t1.5 -26v-1280q0 -141 -86.5 -230t-253.5 -89q-166 0 -251 88.5t-85 228.5zM348 1999q0 17 31 46.5t47 29.5 q10 0 29 -19l159 -160l162 160q17 21 29 21q15 0 46.5 -30.5t31.5 -45.5q0 -13 -21 -31l-200 -201q-25 -28 -48 -28q-22 0 -47 28l-200 201q-19 19 -19 29z" />
<glyph unicode="&#x1f2;" horiz-adv-x="1556" d="M92 78v1483q0 29 3 45t12 23t16.5 8t26.5 1h344q86 0 139.5 -18.5t82 -61.5t38.5 -97.5t10 -141.5v-1000q0 -87 -9.5 -141.5t-37.5 -97.5t-81.5 -61.5t-139.5 -18.5h-346q-24 0 -33.5 3t-17 20t-7.5 55zM256 205q0 -31 10 -41t41 -10h154q29 0 49 3.5t35.5 9t25 18.5 t16 26.5t9 38t3.5 48t1 62.5v918q0 55 -2 84t-9 57t-22.5 40t-40.5 19t-65 7h-154q-31 0 -41 -10t-10 -41v-1229zM887 78v78q0 47 37 151l415 1100q9 31 9 39q0 39 -48 39h-354q-18 0 -26 1.5t-17.5 8t-12.5 22.5t-3 44q0 29 3 45t12.5 23t17 8t26.5 1h512q19 0 26.5 -1 t16.5 -8t12 -23t3 -45v-78q0 -48 -37 -152l-410 -1083q-14 -40 -14 -55q0 -39 47 -39h354q18 0 26.5 -1.5t17.5 -8t12.5 -22.5t3.5 -44q0 -29 -3.5 -45t-12.5 -23t-17.5 -8.5t-26.5 -1.5h-512q-24 0 -33.5 3t-16.5 20t-7 55z" />
<glyph unicode="&#x1f3;" horiz-adv-x="1556" d="M92 78v1483q0 29 3 45t12 23t16.5 8t26.5 1h344q86 0 139.5 -18.5t82 -61.5t38.5 -97.5t10 -141.5v-1000q0 -87 -9.5 -141.5t-37.5 -97.5t-81.5 -61.5t-139.5 -18.5h-346q-24 0 -33.5 3t-17 20t-7.5 55zM256 205q0 -31 10 -41t41 -10h154q29 0 49 3.5t35.5 9t25 18.5 t16 26.5t9 38t3.5 48t1 62.5v918q0 55 -2 84t-9 57t-22.5 40t-40.5 19t-65 7h-154q-31 0 -41 -10t-10 -41v-1229zM887 78v78q0 47 37 151l415 1100q9 31 9 39q0 39 -48 39h-354q-18 0 -26 1.5t-17.5 8t-12.5 22.5t-3 44q0 29 3 45t12.5 23t17 8t26.5 1h512q19 0 26.5 -1 t16.5 -8t12 -23t3 -45v-78q0 -48 -37 -152l-410 -1083q-14 -40 -14 -55q0 -39 47 -39h354q18 0 26.5 -1.5t17.5 -8t12.5 -22.5t3.5 -44q0 -29 -3.5 -45t-12.5 -23t-17.5 -8.5t-26.5 -1.5h-512q-24 0 -33.5 3t-16.5 20t-7 55z" />
<glyph unicode="&#x1f4;" horiz-adv-x="819" d="M82 299v1040q0 140 85.5 230t250.5 90q167 0 253.5 -89t86.5 -231q0 -39 -17 -48t-69 -9q-78 0 -78 37q0 186 -176 186q-85 0 -128.5 -48t-43.5 -138v-1000q0 -90 43.5 -138t128.5 -48q176 0 176 186v281q0 31 -10 41t-41 10h-17q-18 0 -26 1.5t-17.5 8t-12.5 22.5t-3 44 q0 38 7.5 55t17.5 20t34 3h174q24 0 33.5 -3t17 -20t7.5 -55v-428q0 -153 -92 -236t-248 -83q-165 0 -250.5 89.5t-85.5 229.5zM328 1819q0 10 18 28l209 209q19 19 29 19q16 0 47 -29.5t31 -46.5q0 -10 -19 -29l-209 -209q-18 -18 -28 -18q-16 0 -47 29.5t-31 46.5z" />
<glyph unicode="&#x1f5;" horiz-adv-x="819" d="M82 299v1040q0 140 85.5 230t250.5 90q167 0 253.5 -89t86.5 -231q0 -39 -17 -48t-69 -9q-78 0 -78 37q0 186 -176 186q-85 0 -128.5 -48t-43.5 -138v-1000q0 -90 43.5 -138t128.5 -48q176 0 176 186v281q0 31 -10 41t-41 10h-17q-18 0 -26 1.5t-17.5 8t-12.5 22.5t-3 44 q0 38 7.5 55t17.5 20t34 3h174q24 0 33.5 -3t17 -20t7.5 -55v-428q0 -153 -92 -236t-248 -83q-165 0 -250.5 89.5t-85.5 229.5zM328 1819q0 10 18 28l209 209q19 19 29 19q16 0 47 -29.5t31 -46.5q0 -10 -19 -29l-209 -209q-18 -18 -28 -18q-16 0 -47 29.5t-31 46.5z" />
<glyph unicode="&#x1f8;" d="M92 59v1520q0 24 3 34t21 17.5t56 7.5q41 0 62.5 -7.5t28 -17.5t13.5 -34l285 -926q16 -51 29 -51q9 0 11.5 11t2.5 42v924q0 24 3 34t21 17.5t56 7.5q31 0 48.5 -3t25 -12.5t9 -17.5t1.5 -26v-1520q0 -23 -4 -33.5t-24.5 -18t-63.5 -7.5q-51 0 -69 13.5t-27 45.5 l-279 908q-15 51 -31 51q-9 0 -11.5 -11t-2.5 -40v-908q0 -18 -1.5 -26t-9 -17.5t-25 -12.5t-48.5 -3q-38 0 -56 7.5t-21 17.5t-3 34zM209 1999q0 17 31 46.5t47 29.5q9 0 28 -19l209 -209q19 -19 19 -28q0 -17 -31 -46.5t-47 -29.5q-11 0 -29 18l-209 209q-18 18 -18 29z " />
<glyph unicode="&#x1f9;" d="M92 59v1520q0 24 3 34t21 17.5t56 7.5q41 0 62.5 -7.5t28 -17.5t13.5 -34l285 -926q16 -51 29 -51q9 0 11.5 11t2.5 42v924q0 24 3 34t21 17.5t56 7.5q31 0 48.5 -3t25 -12.5t9 -17.5t1.5 -26v-1520q0 -23 -4 -33.5t-24.5 -18t-63.5 -7.5q-51 0 -69 13.5t-27 45.5 l-279 908q-15 51 -31 51q-9 0 -11.5 -11t-2.5 -40v-908q0 -18 -1.5 -26t-9 -17.5t-25 -12.5t-48.5 -3q-38 0 -56 7.5t-21 17.5t-3 34zM209 1999q0 17 31 46.5t47 29.5q9 0 28 -19l209 -209q19 -19 19 -28q0 -17 -31 -46.5t-47 -29.5q-11 0 -29 18l-209 209q-18 18 -18 29z " />
<glyph unicode="&#x1fc;" horiz-adv-x="1247" d="M20 27q0 5 9 32l465 1463q8 25 14.5 41.5t18.5 35.5t30 29t41 10h569q19 0 26.5 -1t17.5 -8t13 -23t3 -45q0 -28 -3.5 -44t-12.5 -22.5t-17.5 -8t-26.5 -1.5h-415q-31 0 -41.5 -10t-10.5 -41v-476q0 -31 10.5 -41t41.5 -10h217q24 0 34 -3t17.5 -20t7.5 -55 q0 -28 -3 -43.5t-12.5 -22.5t-17 -8t-26.5 -1h-217q-29 0 -40.5 -8.5t-11.5 -32.5v-508q0 -31 10.5 -41t41.5 -10h415q18 0 26.5 -1.5t17.5 -8t12.5 -22.5t3.5 -44q0 -29 -3.5 -45t-12.5 -23t-17.5 -8.5t-26.5 -1.5h-573q-24 0 -33.5 3t-16.5 20t-7 55v143q0 33 -45 33h-197 q-45 0 -55 -33l-52 -162q-10 -33 -28 -46t-72 -13q-68 0 -68 27zM305 438q0 -18 11.5 -24t37.5 -6h131q52 0 52 30v553q0 32 -2 48t-5 20t-10 4q-10 0 -16.5 -12t-20.5 -60q-108 -341 -168 -521q-10 -30 -10 -32zM741 1819q0 9 19 28l209 209q19 19 28 19q16 0 47 -29.5 t31 -46.5q0 -11 -18 -29l-209 -209q-18 -18 -29 -18q-16 0 -47 29.5t-31 46.5z" />
<glyph unicode="&#x1fd;" horiz-adv-x="1247" d="M20 27q0 5 9 32l465 1463q8 25 14.5 41.5t18.5 35.5t30 29t41 10h569q19 0 26.5 -1t17.5 -8t13 -23t3 -45q0 -28 -3.5 -44t-12.5 -22.5t-17.5 -8t-26.5 -1.5h-415q-31 0 -41.5 -10t-10.5 -41v-476q0 -31 10.5 -41t41.5 -10h217q24 0 34 -3t17.5 -20t7.5 -55 q0 -28 -3 -43.5t-12.5 -22.5t-17 -8t-26.5 -1h-217q-29 0 -40.5 -8.5t-11.5 -32.5v-508q0 -31 10.5 -41t41.5 -10h415q18 0 26.5 -1.5t17.5 -8t12.5 -22.5t3.5 -44q0 -29 -3.5 -45t-12.5 -23t-17.5 -8.5t-26.5 -1.5h-573q-24 0 -33.5 3t-16.5 20t-7 55v143q0 33 -45 33h-197 q-45 0 -55 -33l-52 -162q-10 -33 -28 -46t-72 -13q-68 0 -68 27zM305 438q0 -18 11.5 -24t37.5 -6h131q52 0 52 30v553q0 32 -2 48t-5 20t-10 4q-10 0 -16.5 -12t-20.5 -60q-108 -341 -168 -521q-10 -30 -10 -32zM741 1819q0 9 19 28l209 209q19 19 28 19q16 0 47 -29.5 t31 -46.5q0 -11 -18 -29l-209 -209q-18 -18 -29 -18q-16 0 -47 29.5t-31 46.5z" />
<glyph unicode="&#x218;" horiz-adv-x="778" d="M72 299q0 39 17 48t69 9q78 0 78 -37q0 -90 41 -138t114 -48q71 0 111.5 48.5t40.5 137.5v207q0 106 -35 161.5t-117 55.5q-86 0 -149 27.5t-99.5 76.5t-53.5 110t-17 135v247q0 139 81.5 229.5t233.5 90.5q154 0 237 -89.5t83 -230.5q0 -39 -17 -48t-69 -9q-78 0 -78 37 q0 90 -41.5 138t-114.5 48q-71 0 -111 -48.5t-40 -137.5v-207q0 -106 34.5 -160.5t116.5 -54.5q86 0 149.5 -27.5t99.5 -77t53.5 -110.5t17.5 -135v-248q0 -139 -82 -229t-234 -90q-154 0 -236.5 89t-82.5 230zM307 -162q0 24 3 34t21 18t56 8q40 0 59 -8t22 -18t3 -34v-270 q0 -24 -3 -34t-22 -18t-59 -8q-38 0 -56 8t-21 18t-3 34v270z" />
<glyph unicode="&#x219;" horiz-adv-x="778" d="M72 299q0 39 17 48t69 9q78 0 78 -37q0 -90 41 -138t114 -48q71 0 111.5 48.5t40.5 137.5v207q0 106 -35 161.5t-117 55.5q-86 0 -149 27.5t-99.5 76.5t-53.5 110t-17 135v247q0 139 81.5 229.5t233.5 90.5q154 0 237 -89.5t83 -230.5q0 -39 -17 -48t-69 -9q-78 0 -78 37 q0 90 -41.5 138t-114.5 48q-71 0 -111 -48.5t-40 -137.5v-207q0 -106 34.5 -160.5t116.5 -54.5q86 0 149.5 -27.5t99.5 -77t53.5 -110.5t17.5 -135v-248q0 -139 -82 -229t-234 -90q-154 0 -236.5 89t-82.5 230zM307 -162q0 24 3 34t21 18t56 8q40 0 59 -8t22 -18t3 -34v-270 q0 -24 -3 -34t-22 -18t-59 -8q-38 0 -56 8t-21 18t-3 34v270z" />
<glyph unicode="&#x21a;" horiz-adv-x="714" d="M20 1561q0 29 3 45t13 23t17.5 8t26.5 1h555q19 0 26.5 -1t17 -8t12.5 -23t3 -45q0 -28 -3 -44t-12.5 -22.5t-17.5 -8t-26 -1.5h-143q-31 0 -41.5 -10t-10.5 -41v-1375q0 -18 -1.5 -26t-9 -17.5t-25 -12.5t-48.5 -3q-38 0 -56 7.5t-21 17.5t-3 34v1375q0 31 -10 41 t-41 10h-145q-18 0 -26.5 1.5t-17.5 8t-12.5 22.5t-3.5 44zM274 -162q0 24 3 34t21 18t56 8q40 0 59 -8t22 -18t3 -34v-270q0 -24 -3 -34t-22 -18t-59 -8q-38 0 -56 8t-21 18t-3 34v270z" />
<glyph unicode="&#x21b;" horiz-adv-x="714" d="M20 1561q0 29 3 45t13 23t17.5 8t26.5 1h555q19 0 26.5 -1t17 -8t12.5 -23t3 -45q0 -28 -3 -44t-12.5 -22.5t-17.5 -8t-26 -1.5h-143q-31 0 -41.5 -10t-10.5 -41v-1375q0 -18 -1.5 -26t-9 -17.5t-25 -12.5t-48.5 -3q-38 0 -56 7.5t-21 17.5t-3 34v1375q0 31 -10 41 t-41 10h-145q-18 0 -26.5 1.5t-17.5 8t-12.5 22.5t-3.5 44zM274 -162q0 24 3 34t21 18t56 8q40 0 59 -8t22 -18t3 -34v-270q0 -24 -3 -34t-22 -18t-59 -8q-38 0 -56 8t-21 18t-3 34v270z" />
<glyph unicode="&#x21c;" horiz-adv-x="849" d="M72 299q0 39 17 48t69 9q78 0 78 -37q0 -186 176 -186q85 0 128.5 48t43.5 138v248q0 187 -176 187h-27q-19 0 -26.5 1t-17 8t-12.5 22.5t-3 43.5q0 38 7.5 55t17.5 20t34 3h27q87 0 131.5 48t44.5 139v225q0 90 -43.5 138t-128.5 48q-176 0 -176 -186q0 -37 -78 -37 q-52 0 -69 9t-17 48q0 142 86.5 231t253.5 89q165 0 250.5 -90t85.5 -230v-266q0 -156 -101 -244q101 -85 101 -241v-289q0 -140 -85.5 -229.5t-250.5 -89.5q-168 0 -254 88.5t-86 230.5z" />
<glyph unicode="&#x21d;" horiz-adv-x="849" d="M72 299q0 39 17 48t69 9q78 0 78 -37q0 -186 176 -186q85 0 128.5 48t43.5 138v248q0 187 -176 187h-27q-19 0 -26.5 1t-17 8t-12.5 22.5t-3 43.5q0 38 7.5 55t17.5 20t34 3h27q87 0 131.5 48t44.5 139v225q0 90 -43.5 138t-128.5 48q-176 0 -176 -186q0 -37 -78 -37 q-52 0 -69 9t-17 48q0 142 86.5 231t253.5 89q165 0 250.5 -90t85.5 -230v-266q0 -156 -101 -244q101 -85 101 -241v-289q0 -140 -85.5 -229.5t-250.5 -89.5q-168 0 -254 88.5t-86 230.5z" />
<glyph unicode="&#x21e;" d="M92 59v1520q0 24 3 34t21 17.5t56 7.5q31 0 48.5 -3t25 -12.5t9 -17.5t1.5 -26v-633q0 -23 11.5 -31t39.5 -8h246q28 0 39.5 8t11.5 31v633q0 24 3 34t21 17.5t56 7.5q31 0 48.5 -3t25 -12.5t9 -17.5t1.5 -26v-1520q0 -18 -1.5 -26t-9 -17.5t-25 -12.5t-48.5 -3 q-38 0 -56 7.5t-21 17.5t-3 34v662q0 33 -51 33h-246q-29 0 -40 -8.5t-11 -32.5v-654q0 -18 -1.5 -26t-9 -17.5t-25 -12.5t-48.5 -3q-38 0 -56 7.5t-21 17.5t-3 34zM164 1999q0 17 31 46.5t47 29.5q9 0 28 -19l160 -160l162 160q18 21 29 21q15 0 46 -30.5t31 -45.5 q0 -14 -20 -31l-201 -201q-25 -28 -47 -28t-47 28l-201 201q-18 18 -18 29z" />
<glyph unicode="&#x21f;" d="M92 59v1520q0 24 3 34t21 17.5t56 7.5q31 0 48.5 -3t25 -12.5t9 -17.5t1.5 -26v-633q0 -23 11.5 -31t39.5 -8h246q28 0 39.5 8t11.5 31v633q0 24 3 34t21 17.5t56 7.5q31 0 48.5 -3t25 -12.5t9 -17.5t1.5 -26v-1520q0 -18 -1.5 -26t-9 -17.5t-25 -12.5t-48.5 -3 q-38 0 -56 7.5t-21 17.5t-3 34v662q0 33 -51 33h-246q-29 0 -40 -8.5t-11 -32.5v-654q0 -18 -1.5 -26t-9 -17.5t-25 -12.5t-48.5 -3q-38 0 -56 7.5t-21 17.5t-3 34zM164 1999q0 17 31 46.5t47 29.5q9 0 28 -19l160 -160l162 160q18 21 29 21q15 0 46 -30.5t31 -45.5 q0 -14 -20 -31l-201 -201q-25 -28 -47 -28t-47 28l-201 201q-18 18 -18 29z" />
</font>
</defs>
</svg>
